<svg width="445" height="291" viewBox="0 0 445 291" fill="none" xmlns="http://www.w3.org/2000/svg">
<path d="M72.7083 170.461C73.9474 171.705 56.6219 195.317 44.2526 196.561C31.8834 197.806 43.0135 133.181 59.1 113.303C59.1 113.303 66.5237 161.76 72.7083 170.461Z" fill="#FF454D" stroke="#FF454D" stroke-width="1.5" stroke-linecap="round" stroke-linejoin="round"/>
<path d="M91.2734 1.46509C30.6447 69.8121 75.1869 176.672 75.1869 176.672H93.7407" stroke="#252C39" stroke-width="1.5" stroke-linecap="round" stroke-linejoin="round"/>
<path d="M109.827 170.461C108.588 171.705 125.914 195.317 138.283 196.561C150.652 197.806 139.522 133.181 123.435 113.303C123.435 113.303 116.012 161.76 109.827 170.461Z" fill="#FF454D" stroke="#FF454D" stroke-width="1.5" stroke-linecap="round" stroke-linejoin="round"/>
<path d="M91.2731 1.46509C151.891 69.8121 107.349 176.672 107.349 176.672H88.7949" stroke="#252C39" stroke-width="1.5" stroke-linecap="round" stroke-linejoin="round"/>
<path d="M75.7847 24.575C85.7091 26.2671 95.8056 26.7034 105.838 25.8739" stroke="#252C39" stroke-width="1.5" stroke-linecap="round" stroke-linejoin="round"/>
<path d="M91.2624 78.5126C99.4624 78.5126 106.11 71.8364 106.11 63.6009C106.11 55.3654 99.4624 48.6892 91.2624 48.6892C83.0624 48.6892 76.415 55.3654 76.415 63.6009C76.415 71.8364 83.0624 78.5126 91.2624 78.5126Z" stroke="#252C39" stroke-width="1.5" stroke-linecap="round" stroke-linejoin="round"/>
<path d="M93.7404 139.404H88.7949V192.839H93.7404V139.404Z" fill="#FF454D" stroke="#FF454D" stroke-width="1.5" stroke-linecap="round" stroke-linejoin="round"/>
<path d="M413.785 24.3457H177.727V212.477H413.785V24.3457Z" stroke="#252C39" stroke-width="1.5" stroke-linecap="round" stroke-linejoin="round"/>
<path d="M208.737 174.98H289.115" stroke="#252C39" stroke-width="1.5" stroke-linecap="round" stroke-linejoin="round"/>
<path d="M208.737 193.308H265.692" stroke="#252C39" stroke-width="1.5" stroke-linecap="round" stroke-linejoin="round"/>
<path d="M248.171 105.301L277.942 66.9412C277.942 66.9412 294.833 86.5905 291.648 88.9266L248.171 105.301Z" fill="#FF454D"/>
<path d="M248.606 152.099C274.82 152.099 296.072 130.756 296.072 104.428C296.072 78.0996 274.82 56.7563 248.606 56.7563C222.391 56.7563 201.14 78.0996 201.14 104.428C201.14 130.756 222.391 152.099 248.606 152.099Z" stroke="#252C39" stroke-width="1.5" stroke-linecap="round" stroke-linejoin="round"/>
<path d="M263.529 59.1687L248.605 104.428" stroke="#252C39" stroke-width="1.5" stroke-linecap="round" stroke-linejoin="round"/>
<path d="M338.472 169.904H315.69V230.282H338.472V169.904Z" fill="#FF454D" stroke="#FF454D" stroke-width="1.5" stroke-linecap="round" stroke-linejoin="round"/>
<path d="M368.852 160.996H346.07V230.271H368.852V160.996Z" fill="white" stroke="#252C39" stroke-width="1.5" stroke-linecap="round" stroke-linejoin="round"/>
<path d="M399.232 133.673H376.45V230.282H399.232V133.673Z" fill="white" stroke="#252C39" stroke-width="1.5" stroke-linecap="round" stroke-linejoin="round"/>
<path d="M320.712 161.858C321.441 155.396 325.191 136.205 341.005 136.205C349.875 136.205 354.461 150.396 354.461 150.396C354.461 150.396 356.201 105.781 376.026 105.781C389.743 105.781 389.689 124.557 389.689 124.557" stroke="#252C39" stroke-width="1.5" stroke-linecap="round" stroke-linejoin="round"/>
</svg>
