<svg width="404" height="297" viewBox="0 0 404 297" fill="none" xmlns="http://www.w3.org/2000/svg">
<path d="M197.312 57.8166C187.469 37.3734 174.306 24.8813 159.845 24.8813C129.352 24.8813 104.633 80.4178 104.633 148.925C104.633 217.433 129.352 272.97 159.845 272.97C174.306 272.97 187.469 260.478 197.312 240.034" stroke="#252C39" stroke-width="1.5"/>
<path d="M64.2398 113.745C46.4759 123.298 35.8003 135.557 35.8003 148.926C35.8003 179.418 91.3367 204.137 159.844 204.137C228.352 204.137 283.889 179.418 283.889 148.926C283.889 133.891 270.386 120.26 248.484 110.303" stroke="#252C39" stroke-width="1.5"/>
<circle cx="156.714" cy="148.925" r="102.557" fill="#FF454D"/>
<path d="M159.844 272.97C129.352 272.97 104.633 217.433 104.633 148.925C104.633 80.4178 129.352 24.8813 159.844 24.8813" stroke="#252C39" stroke-width="1.5"/>
<path d="M283.889 148.926C283.889 179.418 228.352 204.137 159.844 204.137C91.3367 204.137 35.8003 179.418 35.8003 148.926" stroke="#252C39" stroke-width="1.5"/>
<circle cx="317.446" cy="278.846" r="17.019" stroke="#252C39" stroke-width="1.5"/>
<circle cx="385.396" cy="87.257" r="17.019" stroke="#252C39" stroke-width="1.5"/>
<circle cx="330.009" cy="53.7141" r="17.019" stroke="#252C39" stroke-width="1.5"/>
<circle cx="30.1606" cy="18.1762" r="17.019" stroke="#252C39" stroke-width="1.5"/>
<circle cx="18.0312" cy="278.846" r="17.019" stroke="#252C39" stroke-width="1.5"/>
</svg>
