<svg width="445" height="291" viewBox="0 0 445 291" fill="none" xmlns="http://www.w3.org/2000/svg">
<path d="M208.5 17.1348H58.3809V130.113H208.5V17.1348Z" fill="#FF454D" stroke="#FF454D" stroke-width="1.5" stroke-linecap="round" stroke-linejoin="round"/>
<path d="M294.072 211.077V244.05H164.511V59.0835H294.072V104.431" fill="white"/>
<path d="M294.072 211.077V244.05H164.511V59.0835H294.072V104.431" stroke="#252C39" stroke-width="1.5" stroke-linecap="round" stroke-linejoin="round"/>
<path d="M347.898 71.8456C354.44 64.5201 358.079 55.0676 358.134 45.2588C358.134 21.2981 336.298 1.87842 309.371 1.87842C282.444 1.87842 260.609 21.2981 260.609 45.2588C260.609 65.1879 275.953 81.27 294.512 86.5927C303.646 89.2276 312.947 87.3305 322.134 86.1447C328.332 85.3593 334.613 85.5163 340.764 86.6103C346.806 87.6555 352.84 89.7195 358.988 88.1648C353.978 83.7383 350.164 78.1265 347.898 71.8456Z" fill="white" stroke="#252C39" stroke-width="1.5" stroke-linecap="round" stroke-linejoin="round"/>
<path d="M297.797 118.976C327.508 116.456 344.481 133.311 351.801 151.026C354.575 157.728 355.932 164.904 357.262 172.027L371.619 248.74" stroke="#252C39" stroke-width="1.5" stroke-linecap="round" stroke-linejoin="round"/>
<path d="M140.13 70.045L118.62 57.6606V82.4381L140.13 70.045Z" stroke="#252C39" stroke-width="1.5" stroke-linecap="round" stroke-linejoin="round"/>
<path d="M259.596 141.681C263.542 142.507 267.77 140.741 270.606 137.07C269.435 135.594 269.118 135.515 268.73 133.451" stroke="#FF454D" stroke-width="1.5" stroke-miterlimit="10"/>
<path d="M276.587 143.016C267.497 146.529 256.179 150.043 258.442 140.671C260.636 131.589 279.089 129.982 285.942 129.156C297.912 127.716 308.112 129.982 313.969 142.094C315.011 144.46 315.894 146.892 316.612 149.375" stroke="#252C39" stroke-width="1.5" stroke-linecap="round" stroke-linejoin="round"/>
<path d="M273.768 129.709C272.57 129.648 266.317 129.262 265.145 129.077C262.291 128.638 259.164 126.442 259.728 123.596C264.864 121.594 270.2 120.145 275.645 119.275C287.747 117.343 300.589 118.397 311.512 123.974C320.813 128.691 328.538 136.912 331.859 146.696" stroke="#252C39" stroke-width="1.5" stroke-linecap="round" stroke-linejoin="round"/>
<path d="M263.886 123.28C265.735 124.501 267.761 125.774 269.972 125.625C272.183 125.476 274.315 123.113 273.346 121.128" stroke="#FF454D" stroke-width="1.5" stroke-miterlimit="10"/>
<path d="M212.349 96.2717H251.889" stroke="#252C39" stroke-width="1.5" stroke-linecap="round" stroke-linejoin="round"/>
<path d="M212.357 107.4H251.889" stroke="#252C39" stroke-width="1.5" stroke-linecap="round" stroke-linejoin="round"/>
<path d="M212.357 142.691H251.889" stroke="#252C39" stroke-width="1.5" stroke-linecap="round" stroke-linejoin="round"/>
<path d="M212.349 152.045H251.889" stroke="#252C39" stroke-width="1.5" stroke-linecap="round" stroke-linejoin="round"/>
<path d="M212.357 189.392H251.889" stroke="#252C39" stroke-width="1.5" stroke-linecap="round" stroke-linejoin="round"/>
<path d="M212.349 199.721H251.889" stroke="#252C39" stroke-width="1.5" stroke-linecap="round" stroke-linejoin="round"/>
<path d="M258.486 165.598C258.486 165.598 254.152 161.812 258.935 158.949C263.339 156.314 269.505 159.959 269.505 159.959L364.097 104.791C364.097 104.791 371.733 94.8048 357.931 94.2075C357.658 94.4447 252.311 155.014 252.311 155.014L252.144 154.724L239.337 169.348L258.442 165.598H258.486Z" fill="#252C39" stroke="#252C39" stroke-width="1.5" stroke-linecap="round" stroke-linejoin="round"/>
<path d="M258.266 165.528C260.028 164.175 263.234 164.052 265.691 164.763C267.935 165.518 270.024 166.669 271.857 168.163C270.093 169.225 268.466 170.499 267.013 171.957" stroke="#FF454D" stroke-width="1.5" stroke-miterlimit="10"/>
<path d="M325.605 275.985C321.95 256.53 312.093 237.989 302.034 221.582C295.956 211.639 290.108 201.205 282.771 191.991C277.635 185.536 271.443 180.573 265.401 175.013C262.327 172.185 259.464 168.812 258.134 164.798C256.751 160.591 258.513 157.895 263.137 159.01C271.593 161.048 279.265 166.739 285.043 173.063C288.787 177.165 292.239 182.031 297.225 184.763C304.888 188.952 310.014 184.069 310.49 176.462C311.803 155.848 300.607 149.753 292.204 146.784" stroke="#252C39" stroke-width="1.5" stroke-linecap="round" stroke-linejoin="round"/>
<path d="M286.091 48.6753C289.633 48.6753 292.503 45.8126 292.503 42.2812C292.503 38.7497 289.633 35.887 286.091 35.887C282.55 35.887 279.679 38.7497 279.679 42.2812C279.679 45.8126 282.55 48.6753 286.091 48.6753Z" fill="#FF454D" stroke="#FF454D" stroke-width="1.5" stroke-linecap="round" stroke-linejoin="round"/>
<path d="M307.117 48.6753C310.658 48.6753 313.529 45.8126 313.529 42.2812C313.529 38.7497 310.658 35.887 307.117 35.887C303.575 35.887 300.704 38.7497 300.704 42.2812C300.704 45.8126 303.575 48.6753 307.117 48.6753Z" fill="#FF454D" stroke="#FF454D" stroke-width="1.5" stroke-linecap="round" stroke-linejoin="round"/>
<path d="M328.142 48.6753C331.683 48.6753 334.554 45.8126 334.554 42.2812C334.554 38.7497 331.683 35.887 328.142 35.887C324.6 35.887 321.729 38.7497 321.729 42.2812C321.729 45.8126 324.6 48.6753 328.142 48.6753Z" fill="#FF454D" stroke="#FF454D" stroke-width="1.5" stroke-linecap="round" stroke-linejoin="round"/>
<path d="M190.693 92.396L182.491 100.575L190.693 108.755L198.896 100.575L190.693 92.396Z" fill="#FF454D" stroke="#FF454D" stroke-width="1.5" stroke-linecap="round" stroke-linejoin="round"/>
<path d="M190.693 138.428L182.49 146.608L190.693 154.787L198.896 146.608L190.693 138.428Z" fill="#FF454D" stroke="#FF454D" stroke-width="1.5" stroke-linecap="round" stroke-linejoin="round"/>
<path d="M190.695 184.455L182.493 192.634L190.695 200.813L198.898 192.634L190.695 184.455Z" fill="#FF454D" stroke="#FF454D" stroke-width="1.5" stroke-linecap="round" stroke-linejoin="round"/>
</svg>
