<svg width="445" height="291" viewBox="0 0 445 291" fill="none" xmlns="http://www.w3.org/2000/svg">
<path d="M233.235 203.085L239.876 216.517L254.713 218.667L243.98 229.115L246.505 243.874L233.235 236.905L219.964 243.874L222.501 229.115L211.756 218.667L226.605 216.517L233.235 203.085Z" fill="#FF454D" stroke="#FF454D" stroke-width="1.5" stroke-linecap="round" stroke-linejoin="round"/>
<path d="M73.606 203.085L80.2356 216.517L95.0845 218.667L84.3396 229.115L86.8765 243.874L73.606 236.905L60.3355 243.874L62.8611 229.115L52.1274 218.667L66.9651 216.517L73.606 203.085Z" fill="#FF454D" stroke="#FF454D" stroke-width="1.5" stroke-linecap="round" stroke-linejoin="round"/>
<path d="M126.812 203.085L133.453 216.517L148.291 218.667L137.557 229.115L140.094 243.874L126.812 236.905L113.542 243.874L116.078 229.115L105.333 218.667L120.182 216.517L126.812 203.085Z" fill="#FF454D" stroke="#FF454D" stroke-width="1.5" stroke-linecap="round" stroke-linejoin="round"/>
<path d="M180.029 203.085L186.659 216.517L201.508 218.667L190.763 229.115L193.3 243.874L180.029 236.905L166.748 243.874L169.284 229.115L158.551 218.667L173.388 216.517L180.029 203.085Z" fill="#FF454D" stroke="#FF454D" stroke-width="1.5" stroke-linecap="round" stroke-linejoin="round"/>
<path d="M286.452 203.085L293.082 216.517L307.919 218.667L297.186 229.115L299.723 243.874L286.452 236.905L273.17 243.874L275.707 229.115L264.974 218.667L279.811 216.517L286.452 203.085Z" stroke="#252C39" stroke-width="1.5" stroke-linecap="round" stroke-linejoin="round"/>
<path d="M292.135 21.6362H57.6182V174.748H292.135V21.6362Z" fill="white" stroke="#252C39" stroke-width="1.5" stroke-linecap="round" stroke-linejoin="round"/>
<path d="M193.75 97.9225L166.217 82.0483V113.797L193.75 97.9225Z" fill="#FF454D" stroke="#FF454D" stroke-width="1.5" stroke-linecap="round" stroke-linejoin="round"/>
<path d="M349.231 2.12573H249.291V76.0924H349.231V2.12573Z" fill="white" stroke="#252C39" stroke-width="1.5" stroke-linecap="round" stroke-linejoin="round"/>
<path d="M414.873 100.433H314.933V174.399H414.873V100.433Z" fill="#FF454D" stroke="#FF454D" stroke-width="1.5" stroke-linecap="round" stroke-linejoin="round"/>
<path d="M280.116 37.7358C283.721 37.7358 286.644 34.8173 286.644 31.2173C286.644 27.6172 283.721 24.6987 280.116 24.6987C276.511 24.6987 273.588 27.6172 273.588 31.2173C273.588 34.8173 276.511 37.7358 280.116 37.7358Z" stroke="#252C39" stroke-width="1.5" stroke-linecap="round" stroke-linejoin="round"/>
<path d="M268.762 49.5231C268.757 46.9603 269.617 44.4706 271.201 42.4547C272.786 40.4387 275.004 39.0139 277.498 38.4094C279.992 37.805 282.617 38.0562 284.951 39.1226C287.285 40.1889 289.192 42.0083 290.364 44.288" stroke="#252C39" stroke-width="1.5" stroke-linecap="round" stroke-linejoin="round"/>
<path d="M320.254 37.7358C323.86 37.7358 326.782 34.8173 326.782 31.2173C326.782 27.6172 323.86 24.6987 320.254 24.6987C316.649 24.6987 313.726 27.6172 313.726 31.2173C313.726 34.8173 316.649 37.7358 320.254 37.7358Z" stroke="#252C39" stroke-width="1.5" stroke-linecap="round" stroke-linejoin="round"/>
<path d="M331.597 49.5231C331.601 46.9603 330.742 44.4706 329.157 42.4547C327.572 40.4387 325.355 39.0139 322.86 38.4094C320.366 37.805 317.741 38.0562 315.407 39.1226C313.073 40.1889 311.167 42.0083 309.994 44.288" stroke="#252C39" stroke-width="1.5" stroke-linecap="round" stroke-linejoin="round"/>
<path d="M300.084 40.3477C304.411 40.3477 307.92 36.8446 307.92 32.5232C307.92 28.2019 304.411 24.6987 300.084 24.6987C295.756 24.6987 292.248 28.2019 292.248 32.5232C292.248 36.8446 295.756 40.3477 300.084 40.3477Z" stroke="#252C39" stroke-width="1.5" stroke-linecap="round" stroke-linejoin="round"/>
<path d="M286.43 54.5216C286.43 50.8818 287.878 47.3911 290.455 44.8174C293.033 42.2437 296.529 40.7979 300.174 40.7979C303.819 40.7979 307.315 42.2437 309.892 44.8174C312.47 47.3911 313.918 50.8818 313.918 54.5216" stroke="#252C39" stroke-width="1.5" stroke-linecap="round" stroke-linejoin="round"/>
</svg>
