<svg width="445" height="291" viewBox="0 0 445 291" fill="none" xmlns="http://www.w3.org/2000/svg">
<path d="M372.907 0.928711H120.913V192.274H372.907V0.928711Z" fill="#FF454D" stroke="#FF454D" stroke-width="1.5" stroke-linecap="round" stroke-linejoin="round"/>
<path d="M334.087 40.4071H82.0928V231.752H334.087V40.4071Z" fill="white" stroke="#252C39" stroke-width="1.5" stroke-linecap="round" stroke-linejoin="round"/>
<path d="M139.056 125.16C143.197 125.16 146.553 121.802 146.553 117.658C146.553 113.515 143.197 110.156 139.056 110.156C134.915 110.156 131.559 113.515 131.559 117.658C131.559 121.802 134.915 125.16 139.056 125.16Z" stroke="#252C39" stroke-width="1.5" stroke-linecap="round" stroke-linejoin="round"/>
<path d="M126.006 138.743C125.974 135.777 126.947 132.888 128.767 130.547C130.586 128.206 133.144 126.55 136.024 125.85C138.904 125.15 141.936 125.446 144.626 126.691C147.316 127.936 149.506 130.057 150.837 132.706" stroke="#252C39" stroke-width="1.5" stroke-linecap="round" stroke-linejoin="round"/>
<path d="M185.177 125.16C189.317 125.16 192.674 121.802 192.674 117.658C192.674 113.515 189.317 110.156 185.177 110.156C181.036 110.156 177.679 113.515 177.679 117.658C177.679 121.802 181.036 125.16 185.177 125.16Z" stroke="#252C39" stroke-width="1.5" stroke-linecap="round" stroke-linejoin="round"/>
<path d="M198.226 138.743C198.258 135.777 197.285 132.888 195.466 130.547C193.646 128.206 191.088 126.55 188.208 125.85C185.328 125.15 182.296 125.446 179.606 126.691C176.916 127.936 174.727 130.057 173.395 132.706" stroke="#252C39" stroke-width="1.5" stroke-linecap="round" stroke-linejoin="round"/>
<path d="M161.996 128.179C166.97 128.179 171.001 124.144 171.001 119.168C171.001 114.191 166.97 110.156 161.996 110.156C157.022 110.156 152.99 114.191 152.99 119.168C152.99 124.144 157.022 128.179 161.996 128.179Z" stroke="#252C39" stroke-width="1.5" stroke-linecap="round" stroke-linejoin="round"/>
<path d="M146.324 144.517C146.324 140.326 147.988 136.306 150.949 133.343C153.911 130.379 157.928 128.714 162.116 128.714C166.305 128.714 170.322 130.379 173.283 133.343C176.245 136.306 177.909 140.326 177.909 144.517" stroke="#252C39" stroke-width="1.5" stroke-linecap="round" stroke-linejoin="round"/>
<path d="M241.986 81.6464H294.61" stroke="#252C39" stroke-width="1.5" stroke-linecap="round" stroke-linejoin="round"/>
<path d="M241.998 96.5084H294.611" stroke="#252C39" stroke-width="1.5" stroke-linecap="round" stroke-linejoin="round"/>
<path d="M241.998 111.151H294.611" stroke="#252C39" stroke-width="1.5" stroke-linecap="round" stroke-linejoin="round"/>
<path d="M219.221 64.5973H107.864V88.7984H219.221V64.5973Z" fill="#FF454D" stroke="#FF454D" stroke-width="1.5" stroke-linecap="round" stroke-linejoin="round"/>
<path d="M189.319 166.476H135.23V183.033H189.319V166.476Z" stroke="#252C39" stroke-width="1.5" stroke-linecap="round" stroke-linejoin="round"/>
<path d="M219.221 64.5973H107.864V205.955H219.221V64.5973Z" stroke="#252C39" stroke-width="1.5" stroke-linecap="round" stroke-linejoin="round"/>
<path d="M245.036 152.172L253.998 201.449L292.152 169.046L245.036 152.172Z" fill="#FF454D" stroke="#FF454D" stroke-width="1.5" stroke-miterlimit="10"/>
<path d="M275.963 173.539L261.08 186.177L277.253 205.246L292.136 192.608L275.963 173.539Z" fill="#FF454D" stroke="#FF454D" stroke-width="1.5" stroke-miterlimit="10"/>
</svg>
