<svg width="445" height="291" viewBox="0 0 445 291" fill="none" xmlns="http://www.w3.org/2000/svg">
<path d="M154.978 12.2144L45.9287 27.4325L66.5487 175.737L175.598 160.519L154.978 12.2144Z" fill="#FF454D" stroke="#FF454D" stroke-width="1.5" stroke-linecap="round" stroke-linejoin="round"/>
<path d="M106.046 46.9833L2.1377 83.4591L51.5611 224.772L155.47 188.296L106.046 46.9833Z" fill="white" stroke="#252C39" stroke-width="1.5" stroke-linecap="round" stroke-linejoin="round"/>
<path d="M33.4248 102.701L34.0025 102.488L90.3508 82.7023" stroke="#252C39" stroke-width="1.5" stroke-linecap="round" stroke-linejoin="round"/>
<path d="M39.0605 118.849L39.6383 118.648L95.9866 98.7672" stroke="#252C39" stroke-width="1.5" stroke-linecap="round" stroke-linejoin="round"/>
<path d="M44.6025 134.654L45.1921 134.453L101.54 114.667" stroke="#252C39" stroke-width="1.5" stroke-linecap="round" stroke-linejoin="round"/>
<path d="M308.457 159.933V90.1205H269.901C268.141 90.1206 266.43 90.6981 265.029 91.7647C263.628 92.8313 262.614 94.3283 262.143 96.0268L258.169 110.379H111.138V229.686H260.881" fill="white"/>
<path d="M308.457 159.933V90.1205H269.901C268.141 90.1206 266.43 90.6981 265.029 91.7647C263.628 92.8313 262.614 94.3283 262.143 96.0268L258.169 110.379H111.138V229.686H260.881" stroke="#252C39" stroke-width="1.5" stroke-linecap="round" stroke-linejoin="round"/>
<path d="M323.49 254.41C345.611 254.41 363.544 236.444 363.544 214.282C363.544 192.121 345.611 174.155 323.49 174.155C301.37 174.155 283.437 192.121 283.437 214.282C283.437 236.444 301.37 254.41 323.49 254.41Z" fill="#FF454D" stroke="#FF454D" stroke-width="1.5" stroke-linecap="round" stroke-linejoin="round"/>
<path d="M394.166 191.663V212.767" stroke="#252C39" stroke-width="1.5" stroke-miterlimit="10"/>
<path d="M370.962 180.913C377.423 178.582 384.385 176.35 391.025 177.982C399.374 180.035 405.289 187.673 413.397 190.605C418.632 192.425 424.344 192.314 429.505 190.291C434.652 188.226 439.054 184.647 442.132 180.026C442.132 180.241 442.4 180.447 442.4 180.662V226.385C441.505 228.537 438.821 229.604 436.512 229.972C424.547 232.007 411.715 232.249 400.842 226.843C396.636 224.754 392.851 221.885 388.672 219.742C384.492 217.599 379.642 216.21 375.096 217.384" stroke="#252C39" stroke-width="1.5" stroke-miterlimit="10"/>
<path d="M376.098 189.108C381.653 187.668 387.537 188.256 392.698 190.766C395.383 192.183 397.763 194.191 400.314 195.885C403.768 198.045 407.396 199.914 411.16 201.471C413.183 202.496 415.344 203.224 417.576 203.631C420.645 204.035 423.724 203.21 426.713 202.403C432.386 200.861 438.4 199.113 442.283 194.693" stroke="#252C39" stroke-width="1.5" stroke-miterlimit="10"/>
<path d="M378.058 209.916C383.427 208.751 388.957 210.427 393.906 212.758C398.855 215.089 403.499 218.137 408.671 219.85C419.759 223.633 432.439 221.15 442.185 214.65C442.337 214.551 442.507 214.399 442.462 214.228C442.417 214.058 442.05 214.166 442.185 214.3" stroke="#252C39" stroke-width="1.5" stroke-miterlimit="10"/>
<path d="M420.538 204.062V221.625" stroke="#252C39" stroke-width="1.5" stroke-miterlimit="10"/>
<path d="M323.491 148.746C310.553 148.746 297.905 152.59 287.148 159.791C276.39 166.992 268.006 177.228 263.055 189.203C258.104 201.178 256.808 214.355 259.332 227.068C261.856 239.781 268.086 251.458 277.235 260.623C286.383 269.789 298.039 276.031 310.729 278.559C323.418 281.088 336.571 279.79 348.524 274.83C360.477 269.87 370.694 261.47 377.882 250.692C385.07 239.915 388.906 227.244 388.906 214.282C388.906 196.901 382.014 180.232 369.746 167.941C357.479 155.651 340.84 148.746 323.491 148.746ZM335.128 172.761C337.484 170.025 340.597 168.051 344.073 167.087C347.549 166.123 351.233 166.213 354.657 167.346C358.082 168.479 361.095 170.604 363.315 173.452C365.535 176.3 366.862 179.743 367.129 183.346C367.396 186.95 366.59 190.552 364.815 193.697C363.039 196.842 360.372 199.389 357.151 201.016C353.931 202.643 350.301 203.277 346.721 202.837C343.141 202.398 339.772 200.905 337.038 198.548C333.372 195.382 331.111 190.887 330.753 186.051C330.395 181.215 331.969 176.435 335.128 172.761ZM333.289 212.581C333.291 214.523 332.718 216.422 331.643 218.038C330.568 219.654 329.039 220.914 327.248 221.659C325.458 222.404 323.488 222.6 321.586 222.222C319.685 221.845 317.938 220.911 316.567 219.539C315.195 218.166 314.261 216.417 313.882 214.513C313.503 212.608 313.696 210.634 314.437 208.839C315.178 207.045 316.434 205.511 318.046 204.432C319.657 203.353 321.552 202.777 323.491 202.777C324.777 202.775 326.051 203.028 327.239 203.52C328.428 204.012 329.508 204.734 330.418 205.644C331.328 206.555 332.05 207.636 332.543 208.827C333.035 210.017 333.289 211.293 333.289 212.581ZM293.813 165.26C296.898 163.387 300.468 162.472 304.072 162.632C307.676 162.791 311.152 164.018 314.061 166.156C316.969 168.295 319.179 171.249 320.411 174.646C321.643 178.043 321.842 181.729 320.983 185.239C320.124 188.75 318.246 191.926 315.585 194.366C312.924 196.807 309.601 198.402 306.035 198.95C302.469 199.499 298.821 198.975 295.552 197.447C292.284 195.918 289.54 193.452 287.67 190.362C285.165 186.216 284.405 181.244 285.557 176.537C286.709 171.831 289.678 167.775 293.813 165.26ZM289.722 241.014C286.21 241.841 282.532 241.606 279.154 240.339C275.775 239.072 272.847 236.83 270.741 233.896C268.634 230.961 267.443 227.467 267.319 223.855C267.194 220.243 268.142 216.675 270.041 213.603C271.941 210.53 274.707 208.091 277.991 206.593C281.274 205.096 284.927 204.607 288.487 205.19C292.048 205.772 295.356 207.399 297.993 209.865C300.631 212.331 302.479 215.525 303.305 219.043C304.409 223.761 303.598 228.725 301.051 232.844C298.505 236.964 294.43 239.902 289.722 241.014ZM338.441 254.693C338.149 258.3 336.794 261.739 334.549 264.574C332.305 267.41 329.271 269.514 325.832 270.621C322.393 271.728 318.703 271.787 315.23 270.792C311.757 269.797 308.657 267.792 306.322 265.031C303.988 262.269 302.523 258.876 302.114 255.281C301.706 251.685 302.371 248.049 304.026 244.832C305.681 241.616 308.252 238.963 311.412 237.211C314.573 235.459 318.182 234.686 321.781 234.99C326.596 235.396 331.053 237.698 334.176 241.392C337.299 245.085 338.833 249.869 338.441 254.693ZM352.437 246.247C349.112 244.847 346.275 242.491 344.287 239.476C342.298 236.462 341.246 232.924 341.264 229.31C341.281 225.697 342.368 222.169 344.386 219.174C346.405 216.18 349.264 213.851 352.603 212.484C355.942 211.117 359.611 210.773 363.145 211.494C366.679 212.215 369.921 213.97 372.46 216.537C374.999 219.104 376.721 222.367 377.409 225.915C378.097 229.462 377.72 233.134 376.325 236.466C375.4 238.682 374.047 240.692 372.345 242.383C370.643 244.074 368.625 245.412 366.406 246.321C364.187 247.229 361.811 247.69 359.414 247.678C357.017 247.665 354.646 247.179 352.437 246.247Z" fill="white" stroke="#252C39" stroke-width="1.5" stroke-linecap="round" stroke-linejoin="round"/>
<path d="M224.224 166.524L201.68 153.483V179.565L224.224 166.524Z" fill="#FF454D" stroke="#FF454D" stroke-width="1.5" stroke-linecap="round" stroke-linejoin="round"/>
</svg>
