<svg width="446" height="292" viewBox="0 0 446 292" fill="none" xmlns="http://www.w3.org/2000/svg">
<path d="M273.431 1.29382H23.293V49.4143H273.431V1.29382Z" fill="white" stroke="#252C39" stroke-width="1.5" stroke-linecap="round" stroke-linejoin="round"/>
<path d="M191.126 16.2644H39.333V35.5178H191.126V16.2644Z" fill="#FF454D"/>
<path d="M174.284 30.4327C176.942 30.4327 179.096 28.2777 179.096 25.6194C179.096 22.961 176.942 20.806 174.284 20.806C171.627 20.806 169.473 22.961 169.473 25.6194C169.473 28.2777 171.627 30.4327 174.284 30.4327Z" fill="white" stroke="#252C39" stroke-width="1.5" stroke-linecap="round" stroke-linejoin="round"/>
<path d="M226.93 30.7044C229.587 30.7044 231.742 28.5494 231.742 25.8911C231.742 23.2328 229.587 21.0778 226.93 21.0778C224.272 21.0778 222.118 23.2328 222.118 25.8911C222.118 28.5494 224.272 30.7044 226.93 30.7044Z" fill="white" stroke="#252C39" stroke-width="1.5" stroke-linecap="round" stroke-linejoin="round"/>
<path d="M248.311 31.235C250.968 31.235 253.123 29.08 253.123 26.4216C253.123 23.7633 250.968 21.6083 248.311 21.6083C245.653 21.6083 243.499 23.7633 243.499 26.4216C243.499 29.08 245.653 31.235 248.311 31.235Z" fill="white" stroke="#252C39" stroke-width="1.5" stroke-linecap="round" stroke-linejoin="round"/>
<path d="M273.431 60.1021H23.293V108.223H273.431V60.1021Z" fill="white" stroke="#252C39" stroke-width="1.5" stroke-linecap="round" stroke-linejoin="round"/>
<path d="M191.126 75.0726H39.333V94.326H191.126V75.0726Z" fill="#FF454D" stroke="#FF454D" stroke-width="1.5" stroke-linecap="round" stroke-linejoin="round"/>
<path d="M174.284 89.2409C176.942 89.2409 179.096 87.0859 179.096 84.4276C179.096 81.7693 176.942 79.6143 174.284 79.6143C171.627 79.6143 169.473 81.7693 169.473 84.4276C169.473 87.0859 171.627 89.2409 174.284 89.2409Z" fill="white" stroke="#252C39" stroke-width="1.5" stroke-linecap="round" stroke-linejoin="round"/>
<path d="M226.93 89.5127C229.587 89.5127 231.742 87.3577 231.742 84.6993C231.742 82.041 229.587 79.886 226.93 79.886C224.272 79.886 222.118 82.041 222.118 84.6993C222.118 87.3577 224.272 89.5127 226.93 89.5127Z" fill="white" stroke="#252C39" stroke-width="1.5" stroke-linecap="round" stroke-linejoin="round"/>
<path d="M248.311 90.0432C250.968 90.0432 253.123 87.8882 253.123 85.2298C253.123 82.5715 250.968 80.4165 248.311 80.4165C245.653 80.4165 243.499 82.5715 243.499 85.2298C243.499 87.8882 245.653 90.0432 248.311 90.0432Z" fill="white" stroke="#252C39" stroke-width="1.5" stroke-linecap="round" stroke-linejoin="round"/>
<path d="M279.317 75.0726H273.432V99.6698H279.317V75.0726Z" fill="#252C39" stroke="#252C39" stroke-width="1.5" stroke-linecap="round" stroke-linejoin="round"/>
<path d="M273.431 118.923H23.293V167.044H273.431V118.923Z" fill="white" stroke="#252C39" stroke-width="1.5" stroke-linecap="round" stroke-linejoin="round"/>
<path d="M191.126 133.894H39.333V153.147H191.126V133.894Z" fill="#FF454D"/>
<path d="M174.284 148.062C176.942 148.062 179.096 145.907 179.096 143.249C179.096 140.59 176.942 138.435 174.284 138.435C171.627 138.435 169.473 140.59 169.473 143.249C169.473 145.907 171.627 148.062 174.284 148.062Z" fill="white" stroke="#252C39" stroke-width="1.5" stroke-linecap="round" stroke-linejoin="round"/>
<path d="M226.93 148.321C229.587 148.321 231.742 146.166 231.742 143.507C231.742 140.849 229.587 138.694 226.93 138.694C224.272 138.694 222.118 140.849 222.118 143.507C222.118 146.166 224.272 148.321 226.93 148.321Z" fill="white" stroke="#252C39" stroke-width="1.5" stroke-linecap="round" stroke-linejoin="round"/>
<path d="M248.311 148.864C250.968 148.864 253.123 146.709 253.123 144.051C253.123 141.393 250.968 139.238 248.311 139.238C245.653 139.238 243.499 141.393 243.499 144.051C243.499 146.709 245.653 148.864 248.311 148.864Z" fill="white" stroke="#252C39" stroke-width="1.5" stroke-linecap="round" stroke-linejoin="round"/>
<path d="M279.317 133.894H273.432V158.491H279.317V133.894Z" fill="#252C39" stroke="#252C39" stroke-width="1.5" stroke-linecap="round" stroke-linejoin="round"/>
<path d="M368.285 39.6842H207.191V248.133H368.285V39.6842Z" fill="#FF454D"/>
<path d="M395.706 60.2573H234.613V268.706H395.706V60.2573Z" fill="white" stroke="#252C39" stroke-width="1.5" stroke-linecap="round" stroke-linejoin="round"/>
<path d="M358.443 116.398C358.935 106.305 351.16 97.725 341.078 97.2335C330.996 96.742 322.424 104.525 321.932 114.618C321.441 124.71 329.215 133.29 339.298 133.782C349.38 134.273 357.952 126.49 358.443 116.398Z" stroke="#252C39" stroke-width="1.5" stroke-linecap="round" stroke-linejoin="round"/>
<path d="M331.722 114.252L339.03 122.43L348.654 109.284" stroke="#252C39" stroke-width="1.5" stroke-linecap="round" stroke-linejoin="round"/>
<path d="M289.122 116.529C293.902 116.529 297.776 112.654 297.776 107.873C297.776 103.092 293.902 99.2169 289.122 99.2169C284.343 99.2169 280.469 103.092 280.469 107.873C280.469 112.654 284.343 116.529 289.122 116.529Z" stroke="#252C39" stroke-width="1.5" stroke-linecap="round" stroke-linejoin="round"/>
<path d="M274.053 132.199C274.053 128.173 275.651 124.313 278.497 121.467C281.342 118.62 285.201 117.021 289.226 117.021C293.25 117.021 297.109 118.62 299.954 121.467C302.8 124.313 304.398 128.173 304.398 132.199" stroke="#252C39" stroke-width="1.5" stroke-linecap="round" stroke-linejoin="round"/>
<path d="M358.465 161.223C358.97 151.118 351.197 142.518 341.102 142.013C331.008 141.508 322.416 149.29 321.911 159.395C321.406 169.499 329.179 178.1 339.273 178.605C349.368 179.11 357.96 171.327 358.465 161.223Z" stroke="#252C39" stroke-width="1.5" stroke-linecap="round" stroke-linejoin="round"/>
<path d="M331.722 159.5L339.03 167.678L348.654 154.544" stroke="#252C39" stroke-width="1.5" stroke-linecap="round" stroke-linejoin="round"/>
<path d="M289.122 161.777C293.902 161.777 297.776 157.902 297.776 153.121C297.776 148.34 293.902 144.465 289.122 144.465C284.343 144.465 280.469 148.34 280.469 153.121C280.469 157.902 284.343 161.777 289.122 161.777Z" stroke="#252C39" stroke-width="1.5" stroke-linecap="round" stroke-linejoin="round"/>
<path d="M274.053 177.46C274.053 173.434 275.651 169.574 278.497 166.727C281.342 163.881 285.201 162.282 289.226 162.282C293.25 162.282 297.109 163.881 299.954 166.727C302.8 169.574 304.398 173.434 304.398 177.46" stroke="#252C39" stroke-width="1.5" stroke-linecap="round" stroke-linejoin="round"/>
<path d="M358.443 206.913C358.935 196.82 351.16 188.24 341.078 187.749C330.996 187.257 322.424 195.04 321.932 205.133C321.441 215.225 329.215 223.805 339.298 224.297C349.38 224.788 357.952 217.005 358.443 206.913Z" stroke="#252C39" stroke-width="1.5" stroke-linecap="round" stroke-linejoin="round"/>
<path d="M331.722 204.761L339.03 212.939L348.654 199.792" stroke="#252C39" stroke-width="1.5" stroke-linecap="round" stroke-linejoin="round"/>
<path d="M289.122 207.038C293.902 207.038 297.776 203.163 297.776 198.382C297.776 193.601 293.902 189.726 289.122 189.726C284.343 189.726 280.469 193.601 280.469 198.382C280.469 203.163 284.343 207.038 289.122 207.038Z" stroke="#252C39" stroke-width="1.5" stroke-linecap="round" stroke-linejoin="round"/>
<path d="M274.053 222.721C274.053 218.695 275.651 214.835 278.497 211.988C281.342 209.142 285.201 207.543 289.226 207.543C293.25 207.543 297.109 209.142 299.954 211.988C302.8 214.835 304.398 218.695 304.398 222.721" stroke="#252C39" stroke-width="1.5" stroke-linecap="round" stroke-linejoin="round"/>
</svg>
