<svg width="446" height="291" viewBox="0 0 446 291" fill="none" xmlns="http://www.w3.org/2000/svg">
<path d="M303.038 0.966064H54.9658V26.2778H303.038V0.966064Z" fill="#FF454D" stroke="#FF454D" stroke-width="1.5" stroke-linecap="round" stroke-linejoin="round"/>
<path d="M303.067 182.071V213.034H54.9658V0.966064H303.067V59.6661" stroke="#252C39" stroke-width="1.5" stroke-linecap="round" stroke-linejoin="round"/>
<path d="M81.8828 52.2272V113.033H185.191" fill="white"/>
<path d="M81.8828 52.2272V113.033H185.191" stroke="#252C39" stroke-width="1.5" stroke-linecap="round" stroke-linejoin="round"/>
<path d="M203.18 46.5271H210.783L185.19 75.9351L179.017 69.2787L164.68 82.6301L148.903 66.2161L127.696 93.7789L111.224 74.6502L88.7227 93.7789" stroke="#252C39" stroke-width="1.5" stroke-linecap="round" stroke-linejoin="round"/>
<path d="M210.783 54.1206V46.5271" stroke="#252C39" stroke-width="1.5" stroke-linecap="round" stroke-linejoin="round"/>
<path d="M70.7141 18.4042C73.2005 18.4042 75.2162 16.3885 75.2162 13.9022C75.2162 11.4158 73.2005 9.40015 70.7141 9.40015C68.2276 9.40015 66.2119 11.4158 66.2119 13.9022C66.2119 16.3885 68.2276 18.4042 70.7141 18.4042Z" fill="white" stroke="#252C39" stroke-width="1.5" stroke-linecap="round" stroke-linejoin="round"/>
<path d="M86.4719 18.4042C88.9584 18.4042 90.974 16.3885 90.974 13.9022C90.974 11.4158 88.9584 9.40015 86.4719 9.40015C83.9854 9.40015 81.9697 11.4158 81.9697 13.9022C81.9697 16.3885 83.9854 18.4042 86.4719 18.4042Z" fill="white" stroke="#252C39" stroke-width="1.5" stroke-linecap="round" stroke-linejoin="round"/>
<path d="M156.989 134.278L159.82 140.016L166.148 140.934L161.568 145.398L162.65 151.706L156.989 148.731L151.327 151.706L152.41 145.398L147.83 140.934L154.158 140.016L156.989 134.278Z" fill="#FF454D" stroke="#FF454D" stroke-width="1.5" stroke-linecap="round" stroke-linejoin="round"/>
<path d="M88.906 134.278L91.7367 140.016L98.0649 140.934L93.4854 145.398L94.5675 151.706L88.906 148.731L83.2445 151.706L84.3265 145.398L79.7471 140.934L86.0752 140.016L88.906 134.278Z" fill="#FF454D" stroke="#FF454D" stroke-width="1.5" stroke-linecap="round" stroke-linejoin="round"/>
<path d="M111.6 134.278L114.431 140.016L120.759 140.934L116.18 145.398L117.262 151.706L111.6 148.731L105.939 151.706L107.021 145.398L102.441 140.934L108.77 140.016L111.6 134.278Z" fill="#FF454D" stroke="#FF454D" stroke-width="1.5" stroke-linecap="round" stroke-linejoin="round"/>
<path d="M134.295 134.278L137.125 140.016L143.454 140.934L138.874 145.398L139.956 151.706L134.295 148.731L128.633 151.706L129.715 145.398L125.136 140.934L131.464 140.016L134.295 134.278Z" fill="#FF454D" stroke="#FF454D" stroke-width="1.5" stroke-linecap="round" stroke-linejoin="round"/>
<path d="M181.934 134.278L184.765 140.016L191.093 140.934L186.514 145.398L187.596 151.706L181.934 148.731L176.273 151.706L177.355 145.398L172.775 140.934L179.104 140.016L181.934 134.278Z" stroke="#252C39" stroke-width="1.5" stroke-linecap="round" stroke-linejoin="round"/>
<path d="M81.9697 175.404H170.525" stroke="#252C39" stroke-width="1.5" stroke-linecap="round" stroke-linejoin="round"/>
<path d="M81.8828 189.558H133.532" stroke="#252C39" stroke-width="1.5" stroke-linecap="round" stroke-linejoin="round"/>
<path d="M387.044 63.0281H222.387V187.297H387.044V63.0281Z" fill="#FF454D" stroke="#FF454D" stroke-width="1.5" stroke-linecap="round" stroke-linejoin="round"/>
<path d="M312.053 121.235L288.45 107.614V134.857L312.053 121.235Z" stroke="#252C39" stroke-width="1.5" stroke-linecap="round" stroke-linejoin="round"/>
</svg>
