<svg width="446" height="291" viewBox="0 0 446 291" fill="none" xmlns="http://www.w3.org/2000/svg">
<g clip-path="url(#clip0_480_3095)">
<path d="M371.616 26.8067L259.614 1.20035L224.962 153.694L336.964 179.301L371.616 26.8067Z" fill="#FF454D" stroke="#FF454D" stroke-width="1.5" stroke-linecap="round" stroke-linejoin="round"/>
<path d="M332.083 8.87742L218.403 25.4511L240.832 180.23L354.511 163.656L332.083 8.87742Z" fill="white" stroke="#252C39" stroke-width="1.5" stroke-linecap="round" stroke-linejoin="round"/>
<path d="M246.599 51.3171L247.23 51.2283L308.884 42.235" stroke="#252C39" stroke-width="1.5" stroke-linecap="round" stroke-linejoin="round"/>
<path d="M249.156 68.9594L249.798 68.8595L311.497 59.8329" stroke="#252C39" stroke-width="1.5" stroke-linecap="round" stroke-linejoin="round"/>
<path d="M251.724 86.3353L252.355 86.2354L314.009 77.2421" stroke="#252C39" stroke-width="1.5" stroke-linecap="round" stroke-linejoin="round"/>
<path d="M84.9365 222V83.2932H121.11C122.761 83.292 124.367 83.8344 125.681 84.8373C126.994 85.8402 127.943 87.2481 128.382 88.8446L132.124 102.323H270.154V222.234L84.9365 222Z" fill="white" stroke="#252C39" stroke-width="1.5" stroke-linecap="round" stroke-linejoin="round"/>
<path d="M243.841 179.429L222.933 197.679L272.009 254.248L292.918 235.997L243.841 179.429Z" fill="white" stroke="#252C39" stroke-width="1.5" stroke-linecap="round" stroke-linejoin="round"/>
<path d="M160.959 103.489C151.922 111.38 145.421 121.782 142.277 133.379C139.134 144.976 139.489 157.247 143.299 168.641C147.108 180.036 154.201 190.041 163.679 197.393C173.157 204.744 184.596 209.111 196.549 209.942C208.501 210.772 220.431 208.029 230.83 202.059C241.228 196.089 249.628 187.16 254.968 176.402C260.307 165.643 262.347 153.538 260.828 141.617C259.309 129.696 254.299 118.495 246.434 109.429C241.211 103.408 234.857 98.4777 227.735 94.9204C220.612 91.363 212.861 89.2481 204.923 88.6964C196.986 88.1448 189.018 89.1673 181.474 91.7055C173.93 94.2437 166.959 98.2478 160.959 103.489Z" fill="white" stroke="#252C39" stroke-width="1.5" stroke-linecap="round" stroke-linejoin="round"/>
<path d="M236.879 220.635L265.561 195.599L299.204 234.378C300.844 236.268 302.096 238.463 302.89 240.838C303.683 243.213 304.003 245.721 303.83 248.22C303.657 250.719 302.995 253.159 301.882 255.402C300.769 257.644 299.226 259.644 297.342 261.289C293.537 264.606 288.574 266.272 283.545 265.921C278.516 265.569 273.831 263.229 270.522 259.414L236.879 220.635Z" fill="#FF454D" stroke="#FF454D" stroke-width="1.5" stroke-linecap="round" stroke-linejoin="round"/>
<path d="M98.0875 44.4667C102.281 44.4667 105.681 41.0566 105.681 36.8502C105.681 32.6437 102.281 29.2336 98.0875 29.2336C93.8938 29.2336 90.4941 32.6437 90.4941 36.8502C90.4941 41.0566 93.8938 44.4667 98.0875 44.4667Z" stroke="#252C39" stroke-width="1.5" stroke-linecap="round" stroke-linejoin="round"/>
<path d="M84.871 58.2675C84.8363 55.2536 85.8213 52.317 87.6653 49.9372C89.5093 47.5574 92.1033 45.8751 95.0236 45.1651C97.9439 44.455 101.018 44.7591 103.744 46.0277C106.469 47.2964 108.686 49.4546 110.031 52.1499" stroke="#252C39" stroke-width="1.5" stroke-linecap="round" stroke-linejoin="round"/>
<path d="M144.798 44.4667C148.992 44.4667 152.392 41.0566 152.392 36.8502C152.392 32.6437 148.992 29.2336 144.798 29.2336C140.605 29.2336 137.205 32.6437 137.205 36.8502C137.205 41.0566 140.605 44.4667 144.798 44.4667Z" stroke="#252C39" stroke-width="1.5" stroke-linecap="round" stroke-linejoin="round"/>
<path d="M158.026 58.2675C158.061 55.2536 157.076 52.317 155.232 49.9372C153.388 47.5574 150.794 45.8751 147.873 45.1651C144.953 44.455 141.879 44.7591 139.153 46.0277C136.428 47.2964 134.211 49.4546 132.866 52.1499" stroke="#252C39" stroke-width="1.5" stroke-linecap="round" stroke-linejoin="round"/>
<path d="M121.321 47.5422C126.358 47.5422 130.442 43.4461 130.442 38.3935C130.442 33.3408 126.358 29.2448 121.321 29.2448C116.284 29.2448 112.2 33.3408 112.2 38.3935C112.2 43.4461 116.284 47.5422 121.321 47.5422Z" stroke="#252C39" stroke-width="1.5" stroke-linecap="round" stroke-linejoin="round"/>
<path d="M105.448 64.1186C105.558 59.9352 107.292 55.9601 110.281 53.0402C113.269 50.1202 117.276 48.4861 121.449 48.4861C125.621 48.4861 129.628 50.1202 132.616 53.0402C135.605 55.9601 137.339 59.9352 137.449 64.1186" stroke="#252C39" stroke-width="1.5" stroke-linecap="round" stroke-linejoin="round"/>
<path d="M200.675 195.864C226.301 195.864 247.076 175.026 247.076 149.321C247.076 123.617 226.301 102.779 200.675 102.779C175.048 102.779 154.273 123.617 154.273 149.321C154.273 175.026 175.048 195.864 200.675 195.864Z" fill="#FF454D" stroke="#FF454D" stroke-width="1.5" stroke-linecap="round" stroke-linejoin="round"/>
</g>
<defs>
<clipPath id="clip0_480_3095">
<rect width="289" height="267" fill="white" transform="translate(83.7637)"/>
</clipPath>
</defs>
</svg>
