<svg width="446" height="291" viewBox="0 0 446 291" fill="none" xmlns="http://www.w3.org/2000/svg">
<g clip-path="url(#clip0_480_3097)">
<path d="M313.848 2.10101H72.3711V26.6095H313.848V2.10101Z" fill="#FF454D" stroke="#FF454D" stroke-width="1.5" stroke-linecap="round" stroke-linejoin="round"/>
<path d="M313.87 185.749V207.384H72.3711V2.10101H313.87V58.9241" stroke="#252C39" stroke-width="1.5" stroke-linecap="round" stroke-linejoin="round"/>
<path d="M87.7048 18.9795C90.1262 18.9795 92.0892 17.0274 92.0892 14.6195C92.0892 12.2115 90.1262 10.2595 87.7048 10.2595C85.2833 10.2595 83.3203 12.2115 83.3203 14.6195C83.3203 17.0274 85.2833 18.9795 87.7048 18.9795Z" fill="white" stroke="#252C39" stroke-width="1.5" stroke-linecap="round" stroke-linejoin="round"/>
<path d="M103.04 18.9795C105.461 18.9795 107.424 17.0274 107.424 14.6195C107.424 12.2115 105.461 10.2595 103.04 10.2595C100.618 10.2595 98.6553 12.2115 98.6553 14.6195C98.6553 17.0274 100.618 18.9795 103.04 18.9795Z" fill="white" stroke="#252C39" stroke-width="1.5" stroke-linecap="round" stroke-linejoin="round"/>
<path d="M230.145 59.6508H103.106V148.954H230.145V59.6508Z" stroke="#252C39" stroke-width="1.5" stroke-linecap="round" stroke-linejoin="round"/>
<rect x="130.435" y="81.1551" width="71.5964" height="46.2942" rx="4.25" stroke="#252C39" stroke-width="1.5"/>
<path d="M374.157 59.6508H247.118V148.954H374.157V59.6508Z" fill="#FF454D"/>
<path d="M103.106 162.056H182.691" stroke="#252C39" stroke-width="1.5" stroke-linecap="round" stroke-linejoin="round"/>
<path d="M103.106 173.594H156.262" stroke="#252C39" stroke-width="1.5" stroke-linecap="round" stroke-linejoin="round"/>
<path d="M359.896 250.544C365.092 244.74 367.981 237.252 368.023 229.481C368.023 210.511 350.684 195.13 329.271 195.13C307.858 195.13 290.52 210.544 290.52 229.481C290.52 245.27 302.699 258.02 317.446 262.214C324.698 264.273 332.083 262.798 339.38 261.862C344.304 261.239 349.295 261.362 354.183 262.225C358.977 263.062 363.76 264.692 368.654 263.459C364.691 259.952 361.68 255.511 359.896 250.544Z" fill="#FF454D" stroke="#FF454D" stroke-width="1.5" stroke-linecap="round" stroke-linejoin="round"/>
<path d="M259.906 213.583C252.527 205.34 248.421 194.705 248.358 183.668C248.358 156.716 272.993 134.861 303.374 134.861C333.756 134.861 358.39 156.716 358.39 183.668C358.39 206.096 341.074 224.219 320.126 230.175C309.829 233.104 299.333 231.001 288.97 229.669C281.972 228.786 274.879 228.961 267.933 230.186C261.113 231.375 254.315 233.687 247.373 231.937C253.036 226.964 257.346 220.651 259.906 213.583Z" fill="white" stroke="#252C39" stroke-width="1.5" stroke-linecap="round" stroke-linejoin="round"/>
<path d="M281.862 180.564C285.598 180.564 288.626 177.552 288.626 173.836C288.626 170.121 285.598 167.109 281.862 167.109C278.125 167.109 275.097 170.121 275.097 173.836C275.097 177.552 278.125 180.564 281.862 180.564Z" stroke="#252C39" stroke-width="1.5" stroke-linecap="round" stroke-linejoin="round"/>
<path d="M270.081 192.763C270.086 190.117 270.984 187.55 272.631 185.473C274.277 183.395 276.578 181.927 279.163 181.304C281.748 180.681 284.469 180.939 286.89 182.036C289.31 183.134 291.29 185.007 292.513 187.357" stroke="#252C39" stroke-width="1.5" stroke-linecap="round" stroke-linejoin="round"/>
<path d="M323.526 180.564C327.262 180.564 330.291 177.552 330.291 173.836C330.291 170.121 327.262 167.109 323.526 167.109C319.789 167.109 316.761 170.121 316.761 173.836C316.761 177.552 319.789 180.564 323.526 180.564Z" stroke="#252C39" stroke-width="1.5" stroke-linecap="round" stroke-linejoin="round"/>
<path d="M335.306 192.763C335.3 190.117 334.403 187.55 332.756 185.473C331.109 183.395 328.809 181.927 326.224 181.304C323.638 180.681 320.917 180.939 318.497 182.036C316.077 183.134 314.096 185.007 312.874 187.357" stroke="#252C39" stroke-width="1.5" stroke-linecap="round" stroke-linejoin="round"/>
<path d="M302.588 183.283C307.082 183.283 310.726 179.66 310.726 175.191C310.726 170.721 307.082 167.098 302.588 167.098C298.094 167.098 294.45 170.721 294.45 175.191C294.45 179.66 298.094 183.283 302.588 183.283Z" stroke="#252C39" stroke-width="1.5" stroke-linecap="round" stroke-linejoin="round"/>
<path d="M288.428 197.938C288.531 194.243 290.08 190.735 292.744 188.159C295.408 185.582 298.978 184.141 302.694 184.141C306.41 184.141 309.98 185.582 312.644 188.159C315.308 190.735 316.856 194.243 316.96 197.938" stroke="#252C39" stroke-width="1.5" stroke-linecap="round" stroke-linejoin="round"/>
<path d="M131.013 93.9523H202.665" stroke="#252C39" stroke-width="1.5"/>
<path fill-rule="evenodd" clip-rule="evenodd" d="M188.616 101.15H179.279V106.78L173.647 106.78L173.647 116.117H179.279V121.747H188.616V116.117H194.244V106.78L188.616 106.78V101.15Z" fill="#FF454D"/>
</g>
<defs>
<clipPath id="clip0_480_3097">
<rect width="304" height="264" fill="white" transform="translate(71.2637 1)"/>
</clipPath>
</defs>
</svg>
