<svg width="446" height="291" viewBox="0 0 446 291" fill="none" xmlns="http://www.w3.org/2000/svg">
<path d="M139.84 78.1162C136.01 72.1162 129.84 68.1162 124.37 63.5262C118.9 58.9362 113.82 52.9162 113.67 45.7962C113.67 44.4462 113.88 42.9262 114.97 42.1162C116.04 41.5261 117.294 41.3619 118.48 41.6562C127.974 42.958 137.001 46.5817 144.76 52.2062" fill="white"/>
<path d="M139.84 78.1162C136.01 72.1162 129.84 68.1162 124.37 63.5262C118.9 58.9362 113.82 52.9162 113.67 45.7962C113.67 44.4462 113.88 42.9262 114.97 42.1162C116.04 41.5261 117.294 41.3619 118.48 41.6562C127.974 42.958 137.001 46.5817 144.76 52.2062" stroke="#252C39" stroke-width="1.5" stroke-linecap="round" stroke-linejoin="round"/>
<path d="M144.16 230.436H137.05C136.765 230.477 136.475 230.457 136.198 230.38C135.921 230.302 135.663 230.168 135.44 229.986C135.203 229.66 135.071 229.269 135.06 228.866C134.14 220.356 139.7 206.036 144.9 199.236C140.15 204.056 132.42 203.756 125.68 203.116C124.34 189.486 132.82 174.876 144.16 167.216C140.9 166.846 137.68 168.026 134.65 169.276C131.62 170.526 128.53 171.906 125.25 171.956C121.97 172.006 118.4 170.346 117.35 167.246C115.95 163.156 119.29 159.106 122.35 156.066L141.35 137.236" fill="white"/>
<path d="M144.16 230.436H137.05C136.765 230.477 136.475 230.457 136.198 230.38C135.921 230.302 135.663 230.168 135.44 229.986C135.203 229.66 135.071 229.269 135.06 228.866C134.14 220.356 139.7 206.036 144.9 199.236C140.15 204.056 132.42 203.756 125.68 203.116C124.34 189.486 132.82 174.876 144.16 167.216C140.9 166.846 137.68 168.026 134.65 169.276C131.62 170.526 128.53 171.906 125.25 171.956C121.97 172.006 118.4 170.346 117.35 167.246C115.95 163.156 119.29 159.106 122.35 156.066L141.35 137.236" stroke="#252C39" stroke-width="1.5" stroke-linecap="round" stroke-linejoin="round"/>
<path d="M244.32 263.896H178.43C159.967 263.896 145 248.929 145 230.466V34.7362C145 16.2733 159.967 1.30615 178.43 1.30615H244.32C262.783 1.30615 277.75 16.2733 277.75 34.7362V64.6913" stroke="#252C39" stroke-width="1.5" stroke-linecap="round" stroke-linejoin="round"/>
<path d="M218.981 288.281C210.741 280.791 208.28 274.876 205.85 264.016" stroke="#252C39" stroke-width="1.5" stroke-linecap="round" stroke-linejoin="round"/>
<path d="M249.61 226.556H156.43V35.7461H265.16V68.7195" fill="white"/>
<path d="M249.61 226.556H156.43V35.7461H265.16V68.7195" stroke="#252C39" stroke-width="1.5" stroke-linecap="round" stroke-linejoin="round"/>
<path d="M262.62 269.726C257.9 258.466 253.82 228.876 254.86 216.726C255.72 206.576 258.32 196.666 260.86 186.786C264.86 170.726 268.67 154.206 266.86 137.786C265.05 121.366 257.76 105.786 257.65 89.3561C257.65 82.9261 258.83 76.1361 263.07 71.3061C267.31 66.4761 275.19 64.4761 280.33 68.3061C284.49 71.4161 285.67 77.0461 286.59 82.1661C292.84 116.826 301.3 151.066 310.93 184.946C313.25 193.136 315.65 201.296 318.05 209.466L322.95 226.186L340.305 285.356" stroke="#252C39" stroke-width="1.5" stroke-linecap="round" stroke-linejoin="round"/>
<path d="M285.921 92.6562H278.031C277.346 92.7118 276.658 92.5949 276.031 92.3162C275.449 91.9341 274.976 91.4067 274.661 90.7862C270.715 84.1097 269.236 76.2609 270.481 68.6062" stroke="#FF454D" stroke-width="1.5" stroke-miterlimit="10"/>
<path d="M236.53 125.666C239.155 122.714 240.616 118.907 240.64 114.956C240.64 105.296 231.87 97.4662 221.04 97.4662C210.21 97.4662 201.45 105.296 201.45 114.956C201.45 122.956 207.61 129.476 215.07 131.616C218.74 132.616 222.48 131.906 226.17 131.436C228.662 131.116 231.187 131.176 233.66 131.616C236.09 132.046 238.51 132.876 240.98 132.246C238.967 130.462 237.437 128.199 236.53 125.666Z" stroke="#252C39" stroke-width="1.5" stroke-linecap="round" stroke-linejoin="round"/>
<path d="M185.92 106.866C182.187 102.668 180.111 97.2539 180.08 91.6361C180.08 77.9161 192.54 66.7961 207.92 66.7961C223.3 66.7961 235.76 77.9161 235.76 91.6361C235.76 103.056 227 112.276 216.4 115.306C211.19 116.796 205.88 115.726 200.63 115.046C197.09 114.596 193.502 114.687 189.99 115.316C186.55 115.916 183.1 117.096 179.59 116.206C182.45 113.673 184.627 110.461 185.92 106.866Z" fill="white" stroke="#252C39" stroke-width="1.5" stroke-linecap="round" stroke-linejoin="round"/>
<path d="M212.121 81.9362H203.641V101.736H212.121V81.9362Z" fill="#FF454D"/>
<path d="M197.98 87.5962V96.0762H217.78V87.5962H197.98Z" fill="#FF454D"/>
<path d="M244.29 177.206H177.29V198.206H244.29V177.206Z" fill="#FF454D"/>
</svg>
