<svg width="635" height="251" viewBox="0 0 635 251" fill="none" xmlns="http://www.w3.org/2000/svg">
<path d="M8.74432 167.855C8.66761 167.207 8.35653 166.704 7.81108 166.346C7.26563 165.988 6.59659 165.809 5.80398 165.809C5.22443 165.809 4.71733 165.903 4.28267 166.09C3.85227 166.278 3.51563 166.536 3.27273 166.864C3.03409 167.192 2.91477 167.565 2.91477 167.983C2.91477 168.332 2.99787 168.632 3.16406 168.884C3.33452 169.131 3.55185 169.338 3.81605 169.504C4.08026 169.666 4.35724 169.8 4.64702 169.907C4.93679 170.009 5.20312 170.092 5.44602 170.156L6.77557 170.514C7.11648 170.603 7.49574 170.727 7.91335 170.884C8.33523 171.042 8.73793 171.257 9.12145 171.53C9.50923 171.799 9.82884 172.144 10.0803 172.566C10.3317 172.987 10.4574 173.505 10.4574 174.119C10.4574 174.826 10.272 175.465 9.90128 176.036C9.5348 176.608 8.99787 177.061 8.29048 177.398C7.58736 177.735 6.73295 177.903 5.72727 177.903C4.78977 177.903 3.97798 177.752 3.2919 177.449C2.61009 177.147 2.07315 176.725 1.68111 176.184C1.29332 175.642 1.07386 175.014 1.02273 174.298H2.65909C2.7017 174.792 2.8679 175.201 3.15767 175.525C3.4517 175.845 3.82244 176.083 4.26989 176.241C4.72159 176.394 5.20739 176.471 5.72727 176.471C6.33239 176.471 6.87571 176.373 7.35724 176.177C7.83878 175.977 8.22017 175.7 8.50142 175.346C8.78267 174.988 8.9233 174.571 8.9233 174.093C8.9233 173.659 8.80185 173.305 8.55895 173.032C8.31605 172.759 7.99645 172.538 7.60014 172.367C7.20384 172.197 6.77557 172.048 6.31534 171.92L4.70455 171.46C3.68182 171.166 2.87216 170.746 2.27557 170.201C1.67898 169.655 1.38068 168.941 1.38068 168.059C1.38068 167.326 1.57884 166.687 1.97514 166.142C2.37571 165.592 2.91264 165.166 3.58594 164.863C4.26349 164.556 5.01989 164.403 5.85511 164.403C6.69886 164.403 7.44886 164.554 8.10511 164.857C8.76136 165.155 9.28125 165.564 9.66477 166.084C10.0526 166.604 10.2571 167.194 10.2784 167.855H8.74432ZM16.8478 177.877C15.9615 177.877 15.1838 177.666 14.5147 177.245C13.85 176.823 13.3301 176.233 12.9551 175.474C12.5843 174.715 12.399 173.829 12.399 172.815C12.399 171.792 12.5843 170.899 12.9551 170.137C13.3301 169.374 13.85 168.782 14.5147 168.36C15.1838 167.938 15.9615 167.727 16.8478 167.727C17.7342 167.727 18.5098 167.938 19.1745 168.36C19.8436 168.782 20.3635 169.374 20.7342 170.137C21.1092 170.899 21.2967 171.792 21.2967 172.815C21.2967 173.829 21.1092 174.715 20.7342 175.474C20.3635 176.233 19.8436 176.823 19.1745 177.245C18.5098 177.666 17.7342 177.877 16.8478 177.877ZM16.8478 176.522C17.5211 176.522 18.0751 176.35 18.5098 176.005C18.9444 175.659 19.2662 175.206 19.475 174.643C19.6838 174.081 19.7882 173.471 19.7882 172.815C19.7882 172.159 19.6838 171.547 19.475 170.98C19.2662 170.414 18.9444 169.956 18.5098 169.606C18.0751 169.257 17.5211 169.082 16.8478 169.082C16.1745 169.082 15.6206 169.257 15.1859 169.606C14.7512 169.956 14.4295 170.414 14.2207 170.98C14.0119 171.547 13.9075 172.159 13.9075 172.815C13.9075 173.471 14.0119 174.081 14.2207 174.643C14.4295 175.206 14.7512 175.659 15.1859 176.005C15.6206 176.35 16.1745 176.522 16.8478 176.522ZM30.554 170.054L29.1989 170.437C29.1136 170.211 28.9879 169.992 28.8217 169.779C28.6598 169.561 28.4382 169.382 28.157 169.242C27.8757 169.101 27.5156 169.031 27.0767 169.031C26.4759 169.031 25.9751 169.169 25.5746 169.446C25.1783 169.719 24.9801 170.066 24.9801 170.488C24.9801 170.863 25.1165 171.159 25.3892 171.377C25.6619 171.594 26.0881 171.775 26.6676 171.92L28.125 172.278C29.0028 172.491 29.657 172.817 30.0874 173.256C30.5178 173.691 30.733 174.251 30.733 174.937C30.733 175.5 30.571 176.002 30.2472 176.446C29.9276 176.889 29.4801 177.238 28.9048 177.494C28.3295 177.75 27.6605 177.877 26.8977 177.877C25.8963 177.877 25.0675 177.66 24.4112 177.225C23.755 176.791 23.3395 176.156 23.1648 175.321L24.5966 174.963C24.733 175.491 24.9908 175.887 25.37 176.152C25.7536 176.416 26.2543 176.548 26.8722 176.548C27.5753 176.548 28.1335 176.399 28.5469 176.1C28.9645 175.798 29.1733 175.436 29.1733 175.014C29.1733 174.673 29.054 174.387 28.8153 174.157C28.5767 173.923 28.2102 173.748 27.7159 173.633L26.0795 173.25C25.1804 173.036 24.5199 172.706 24.098 172.259C23.6804 171.807 23.4716 171.242 23.4716 170.565C23.4716 170.011 23.6271 169.521 23.9382 169.095C24.2536 168.669 24.6818 168.334 25.223 168.091C25.7685 167.848 26.3864 167.727 27.0767 167.727C28.0483 167.727 28.8111 167.94 29.3651 168.366C29.9233 168.792 30.3196 169.355 30.554 170.054ZM37.2736 167.855V169.133H32.1855V167.855H37.2736ZM33.6685 165.502H35.177V174.86C35.177 175.286 35.2388 175.606 35.3624 175.819C35.4902 176.028 35.6522 176.169 35.8482 176.241C36.0485 176.309 36.2594 176.343 36.481 176.343C36.6472 176.343 36.7836 176.335 36.8901 176.318C36.9966 176.296 37.0819 176.279 37.1458 176.267L37.4526 177.622C37.3503 177.66 37.2076 177.698 37.0243 177.737C36.8411 177.779 36.6088 177.801 36.3276 177.801C35.9015 177.801 35.4838 177.709 35.0748 177.526C34.6699 177.343 34.3333 177.063 34.0648 176.688C33.8006 176.313 33.6685 175.84 33.6685 175.269V165.502ZM43.5538 177.877C42.6078 177.877 41.7917 177.669 41.1056 177.251C40.4238 176.829 39.8975 176.241 39.5268 175.487C39.1603 174.728 38.9771 173.846 38.9771 172.84C38.9771 171.835 39.1603 170.948 39.5268 170.181C39.8975 169.41 40.4132 168.809 41.0737 168.379C41.7385 167.944 42.514 167.727 43.4004 167.727C43.9118 167.727 44.4167 167.812 44.9153 167.983C45.4139 168.153 45.8677 168.43 46.2768 168.813C46.6859 169.193 47.0119 169.696 47.2548 170.322C47.4977 170.948 47.6191 171.72 47.6191 172.636V173.275H40.051V171.971H46.0851C46.0851 171.417 45.9743 170.923 45.7527 170.488C45.5353 170.054 45.2243 169.71 44.8194 169.459C44.4189 169.208 43.9458 169.082 43.4004 169.082C42.7995 169.082 42.2797 169.231 41.8407 169.529C41.4061 169.823 41.0716 170.207 40.8372 170.68C40.6028 171.153 40.4856 171.66 40.4856 172.201V173.071C40.4856 173.812 40.6135 174.441 40.8691 174.956C41.1291 175.468 41.4892 175.858 41.9494 176.126C42.4096 176.39 42.9444 176.522 43.5538 176.522C43.9501 176.522 44.3081 176.467 44.6277 176.356C44.9515 176.241 45.2306 176.071 45.465 175.845C45.6994 175.615 45.8805 175.329 46.0083 174.988L47.4657 175.397C47.3123 175.892 47.0545 176.326 46.6923 176.701C46.3301 177.072 45.8826 177.362 45.35 177.571C44.8173 177.775 44.2186 177.877 43.5538 177.877ZM51.4224 171.767V177.673H49.9139V167.855H51.3713V169.389H51.4991C51.7292 168.89 52.0787 168.49 52.5474 168.187C53.0162 167.88 53.6213 167.727 54.3627 167.727C55.0275 167.727 55.6092 167.863 56.1078 168.136C56.6064 168.404 56.9941 168.813 57.2711 169.363C57.5481 169.909 57.6866 170.599 57.6866 171.434V177.673H56.1781V171.536C56.1781 170.765 55.9778 170.164 55.5772 169.734C55.1767 169.299 54.627 169.082 53.9281 169.082C53.4466 169.082 53.0162 169.186 52.6369 169.395C52.2619 169.604 51.9657 169.909 51.7484 170.309C51.5311 170.71 51.4224 171.196 51.4224 171.767ZM60.4432 177.673V167.855H61.9517V177.673H60.4432ZM61.2102 166.218C60.9162 166.218 60.6626 166.118 60.4496 165.918C60.2408 165.718 60.1364 165.477 60.1364 165.196C60.1364 164.914 60.2408 164.674 60.4496 164.473C60.6626 164.273 60.9162 164.173 61.2102 164.173C61.5043 164.173 61.7557 164.273 61.9645 164.473C62.1776 164.674 62.2841 164.914 62.2841 165.196C62.2841 165.477 62.1776 165.718 61.9645 165.918C61.7557 166.118 61.5043 166.218 61.2102 166.218ZM64.9192 177.673V164.582H66.4277V169.414H66.5556C66.6664 169.244 66.8198 169.027 67.0158 168.762C67.2161 168.494 67.5016 168.255 67.8723 168.046C68.2473 167.833 68.7544 167.727 69.3936 167.727C70.2203 167.727 70.949 167.934 71.5797 168.347C72.2104 168.76 72.7026 169.346 73.0563 170.105C73.41 170.863 73.5868 171.758 73.5868 172.789C73.5868 173.829 73.41 174.73 73.0563 175.493C72.7026 176.252 72.2125 176.84 71.5861 177.257C70.9597 177.671 70.2374 177.877 69.4192 177.877C68.7885 177.877 68.2836 177.773 67.9043 177.564C67.525 177.351 67.2331 177.11 67.0286 176.842C66.824 176.569 66.6664 176.343 66.5556 176.164H66.3766V177.673H64.9192ZM66.4022 172.764C66.4022 173.505 66.5108 174.159 66.7282 174.726C66.9455 175.289 67.263 175.73 67.6806 176.049C68.0982 176.365 68.6096 176.522 69.2147 176.522C69.8453 176.522 70.3716 176.356 70.7935 176.024C71.2196 175.687 71.5392 175.235 71.7523 174.669C71.9696 174.098 72.0783 173.463 72.0783 172.764C72.0783 172.073 71.9718 171.451 71.7587 170.897C71.5499 170.339 71.2324 169.898 70.8063 169.574C70.3844 169.246 69.8539 169.082 69.2147 169.082C68.601 169.082 68.0854 169.237 67.6678 169.549C67.2502 169.855 66.9348 170.286 66.7218 170.84C66.5087 171.389 66.4022 172.031 66.4022 172.764ZM75.8944 177.673V167.855H77.4029V177.673H75.8944ZM76.6614 166.218C76.3674 166.218 76.1138 166.118 75.9007 165.918C75.6919 165.718 75.5875 165.477 75.5875 165.196C75.5875 164.914 75.6919 164.674 75.9007 164.473C76.1138 164.273 76.3674 164.173 76.6614 164.173C76.9554 164.173 77.2069 164.273 77.4157 164.473C77.6287 164.674 77.7353 164.914 77.7353 165.196C77.7353 165.477 77.6287 165.718 77.4157 165.918C77.2069 166.118 76.9554 166.218 76.6614 166.218ZM81.6744 164.582V177.673H80.1658V164.582H81.6744ZM84.4373 177.673V167.855H85.9458V177.673H84.4373ZM85.2044 166.218C84.9103 166.218 84.6568 166.118 84.4437 165.918C84.2349 165.718 84.1305 165.477 84.1305 165.196C84.1305 164.914 84.2349 164.674 84.4437 164.473C84.6568 164.273 84.9103 164.173 85.2044 164.173C85.4984 164.173 85.7498 164.273 85.9586 164.473C86.1717 164.674 86.2782 164.914 86.2782 165.196C86.2782 165.477 86.1717 165.718 85.9586 165.918C85.7498 166.118 85.4984 166.218 85.2044 166.218ZM92.9787 167.855V169.133H87.8906V167.855H92.9787ZM89.3736 165.502H90.8821V174.86C90.8821 175.286 90.9439 175.606 91.0675 175.819C91.1953 176.028 91.3572 176.169 91.5533 176.241C91.7536 176.309 91.9645 176.343 92.1861 176.343C92.3523 176.343 92.4886 176.335 92.5952 176.318C92.7017 176.296 92.7869 176.279 92.8509 176.267L93.1577 177.622C93.0554 177.66 92.9126 177.698 92.7294 177.737C92.5462 177.779 92.3139 177.801 92.0327 177.801C91.6065 177.801 91.1889 177.709 90.7798 177.526C90.375 177.343 90.0384 177.063 89.7699 176.688C89.5057 176.313 89.3736 175.84 89.3736 175.269V165.502ZM98.1371 177.903C97.5149 177.903 96.9503 177.786 96.4432 177.551C95.9361 177.313 95.5334 176.97 95.2351 176.522C94.9368 176.071 94.7876 175.525 94.7876 174.886C94.7876 174.323 94.8984 173.867 95.12 173.518C95.3416 173.164 95.6378 172.887 96.0085 172.687C96.3793 172.487 96.7884 172.338 97.2358 172.24C97.6875 172.137 98.1413 172.056 98.5973 171.997C99.1939 171.92 99.6776 171.862 100.048 171.824C100.423 171.782 100.696 171.711 100.866 171.613C101.041 171.515 101.129 171.345 101.129 171.102V171.051C101.129 170.42 100.956 169.93 100.611 169.581C100.27 169.231 99.7521 169.056 99.0575 169.056C98.3374 169.056 97.7727 169.214 97.3636 169.529C96.9545 169.845 96.6669 170.181 96.5007 170.539L95.0689 170.028C95.3246 169.431 95.6655 168.967 96.0916 168.634C96.522 168.298 96.9908 168.063 97.4979 167.931C98.0092 167.795 98.5121 167.727 99.0064 167.727C99.3217 167.727 99.6839 167.765 100.093 167.842C100.506 167.914 100.905 168.066 101.288 168.296C101.676 168.526 101.998 168.873 102.254 169.338C102.509 169.802 102.637 170.424 102.637 171.204V177.673H101.129V176.343H101.052C100.95 176.556 100.779 176.784 100.54 177.027C100.302 177.27 99.9844 177.477 99.5881 177.647C99.1918 177.818 98.7081 177.903 98.1371 177.903ZM98.3672 176.548C98.9638 176.548 99.4666 176.431 99.8757 176.196C100.289 175.962 100.6 175.659 100.809 175.289C101.022 174.918 101.129 174.528 101.129 174.119V172.738C101.065 172.815 100.924 172.885 100.707 172.949C100.494 173.009 100.246 173.062 99.9652 173.109C99.6882 173.152 99.4176 173.19 99.1534 173.224C98.8935 173.254 98.6825 173.279 98.5206 173.301C98.1286 173.352 97.7621 173.435 97.4212 173.55C97.0845 173.661 96.8118 173.829 96.603 174.055C96.3984 174.277 96.2962 174.579 96.2962 174.963C96.2962 175.487 96.4901 175.883 96.8778 176.152C97.2699 176.416 97.7663 176.548 98.3672 176.548ZM98.4695 166.525L96.4751 163.559H98.2393L99.799 166.525H98.4695Z" fill="white"/>
<path d="M1.58523 227.673V214.582H6.00852C7.03125 214.582 7.87074 214.757 8.52699 215.106C9.18324 215.451 9.66903 215.926 9.98438 216.532C10.2997 217.137 10.4574 217.825 10.4574 218.596C10.4574 219.367 10.2997 220.051 9.98438 220.648C9.66903 221.245 9.18537 221.713 8.53338 222.054C7.88139 222.391 7.0483 222.559 6.03409 222.559H2.45455V221.127H5.98295C6.68182 221.127 7.24432 221.025 7.67045 220.821C8.10085 220.616 8.41193 220.326 8.60369 219.951C8.79972 219.572 8.89773 219.12 8.89773 218.596C8.89773 218.072 8.79972 217.614 8.60369 217.222C8.40767 216.83 8.09446 216.527 7.66406 216.314C7.23366 216.097 6.66477 215.988 5.95739 215.988H3.17045V227.673H1.58523ZM7.74716 221.792L10.9688 227.673H9.12784L5.95739 221.792H7.74716ZM16.9054 227.877C15.9593 227.877 15.1433 227.669 14.4572 227.251C13.7754 226.829 13.2491 226.241 12.8784 225.487C12.5119 224.728 12.3287 223.846 12.3287 222.84C12.3287 221.835 12.5119 220.948 12.8784 220.181C13.2491 219.41 13.7647 218.809 14.4252 218.379C15.09 217.944 15.8656 217.727 16.752 217.727C17.2633 217.727 17.7683 217.812 18.2669 217.983C18.7654 218.153 19.2193 218.43 19.6284 218.813C20.0375 219.193 20.3635 219.696 20.6064 220.322C20.8493 220.948 20.9707 221.72 20.9707 222.636V223.275H13.4025V221.971H19.4366C19.4366 221.417 19.3258 220.923 19.1042 220.488C18.8869 220.054 18.5758 219.71 18.171 219.459C17.7704 219.208 17.2974 219.082 16.752 219.082C16.1511 219.082 15.6312 219.231 15.1923 219.529C14.7576 219.823 14.4231 220.207 14.1887 220.68C13.9544 221.153 13.8372 221.66 13.8372 222.201V223.071C13.8372 223.812 13.965 224.441 14.2207 224.956C14.4806 225.468 14.8407 225.858 15.301 226.126C15.7612 226.39 16.296 226.522 16.9054 226.522C17.3017 226.522 17.6596 226.467 17.9792 226.356C18.3031 226.241 18.5822 226.071 18.8166 225.845C19.051 225.615 19.2321 225.329 19.3599 224.988L20.8173 225.397C20.6639 225.892 20.4061 226.326 20.0439 226.701C19.6816 227.072 19.2342 227.362 18.7015 227.571C18.1689 227.775 17.5701 227.877 16.9054 227.877ZM27.5353 217.855V219.133H22.4473V217.855H27.5353ZM23.9302 215.502H25.4387V224.86C25.4387 225.286 25.5005 225.606 25.6241 225.819C25.752 226.028 25.9139 226.169 26.1099 226.241C26.3102 226.309 26.5211 226.343 26.7427 226.343C26.9089 226.343 27.0453 226.335 27.1518 226.318C27.2583 226.296 27.3436 226.279 27.4075 226.267L27.7143 227.622C27.612 227.66 27.4693 227.698 27.286 227.737C27.1028 227.779 26.8706 227.801 26.5893 227.801C26.1632 227.801 25.7456 227.709 25.3365 227.526C24.9316 227.343 24.595 227.063 24.3265 226.688C24.0623 226.313 23.9302 225.84 23.9302 225.269V215.502ZM33.8155 227.877C32.8695 227.877 32.0534 227.669 31.3674 227.251C30.6855 226.829 30.1593 226.241 29.7885 225.487C29.4221 224.728 29.2388 223.846 29.2388 222.84C29.2388 221.835 29.4221 220.948 29.7885 220.181C30.1593 219.41 30.6749 218.809 31.3354 218.379C32.0002 217.944 32.7757 217.727 33.6621 217.727C34.1735 217.727 34.6784 217.812 35.177 217.983C35.6756 218.153 36.1294 218.43 36.5385 218.813C36.9476 219.193 37.2736 219.696 37.5165 220.322C37.7594 220.948 37.8809 221.72 37.8809 222.636V223.275H30.3127V221.971H36.3468C36.3468 221.417 36.236 220.923 36.0144 220.488C35.7971 220.054 35.486 219.71 35.0811 219.459C34.6806 219.208 34.2076 219.082 33.6621 219.082C33.0613 219.082 32.5414 219.231 32.1025 219.529C31.6678 219.823 31.3333 220.207 31.0989 220.68C30.8645 221.153 30.7473 221.66 30.7473 222.201V223.071C30.7473 223.812 30.8752 224.441 31.1309 224.956C31.3908 225.468 31.7509 225.858 32.2111 226.126C32.6713 226.39 33.2061 226.522 33.8155 226.522C34.2118 226.522 34.5698 226.467 34.8894 226.356C35.2132 226.241 35.4924 226.071 35.7267 225.845C35.9611 225.615 36.1422 225.329 36.2701 224.988L37.7275 225.397C37.574 225.892 37.3162 226.326 36.954 226.701C36.5918 227.072 36.1444 227.362 35.6117 227.571C35.079 227.775 34.4803 227.877 33.8155 227.877ZM41.6841 221.767V227.673H40.1756V217.855H41.633V219.389H41.7608C41.9909 218.89 42.3404 218.49 42.8091 218.187C43.2779 217.88 43.883 217.727 44.6245 217.727C45.2892 217.727 45.8709 217.863 46.3695 218.136C46.8681 218.404 47.2559 218.813 47.5328 219.363C47.8098 219.909 47.9483 220.599 47.9483 221.434V227.673H46.4398V221.536C46.4398 220.765 46.2395 220.164 45.839 219.734C45.4384 219.299 44.8887 219.082 44.1898 219.082C43.7083 219.082 43.2779 219.186 42.8986 219.395C42.5236 219.604 42.2275 219.909 42.0101 220.309C41.7928 220.71 41.6841 221.196 41.6841 221.767ZM54.9748 217.855V219.133H49.8867V217.855H54.9748ZM51.3697 215.502H52.8782V224.86C52.8782 225.286 52.94 225.606 53.0636 225.819C53.1914 226.028 53.3533 226.169 53.5494 226.241C53.7496 226.309 53.9606 226.343 54.1822 226.343C54.3484 226.343 54.4847 226.335 54.5913 226.318C54.6978 226.296 54.783 226.279 54.8469 226.267L55.1538 227.622C55.0515 227.66 54.9087 227.698 54.7255 227.737C54.5423 227.779 54.31 227.801 54.0288 227.801C53.6026 227.801 53.185 227.709 52.7759 227.526C52.3711 227.343 52.0344 227.063 51.766 226.688C51.5018 226.313 51.3697 225.84 51.3697 225.269V215.502ZM57.244 227.673V217.855H58.7525V227.673H57.244ZM58.011 216.218C57.717 216.218 57.4634 216.118 57.2504 215.918C57.0415 215.718 56.9371 215.477 56.9371 215.196C56.9371 214.914 57.0415 214.674 57.2504 214.473C57.4634 214.273 57.717 214.173 58.011 214.173C58.305 214.173 58.5565 214.273 58.7653 214.473C58.9783 214.674 59.0849 214.914 59.0849 215.196C59.0849 215.477 58.9783 215.718 58.7653 215.918C58.5565 216.118 58.305 216.218 58.011 216.218ZM65.5041 227.877C64.6177 227.877 63.84 227.666 63.171 227.245C62.5062 226.823 61.9863 226.233 61.6113 225.474C61.2406 224.715 61.0552 223.829 61.0552 222.815C61.0552 221.792 61.2406 220.899 61.6113 220.137C61.9863 219.374 62.5062 218.782 63.171 218.36C63.84 217.938 64.6177 217.727 65.5041 217.727C66.3904 217.727 67.166 217.938 67.8308 218.36C68.4998 218.782 69.0197 219.374 69.3904 220.137C69.7654 220.899 69.9529 221.792 69.9529 222.815C69.9529 223.829 69.7654 224.715 69.3904 225.474C69.0197 226.233 68.4998 226.823 67.8308 227.245C67.166 227.666 66.3904 227.877 65.5041 227.877ZM65.5041 226.522C66.1774 226.522 66.7314 226.35 67.166 226.005C67.6007 225.659 67.9224 225.206 68.1312 224.643C68.34 224.081 68.4444 223.471 68.4444 222.815C68.4444 222.159 68.34 221.547 68.1312 220.98C67.9224 220.414 67.6007 219.956 67.166 219.606C66.7314 219.257 66.1774 219.082 65.5041 219.082C64.8308 219.082 64.2768 219.257 63.8422 219.606C63.4075 219.956 63.0858 220.414 62.877 220.98C62.6681 221.547 62.5637 222.159 62.5637 222.815C62.5637 223.471 62.6681 224.081 62.877 224.643C63.0858 225.206 63.4075 225.659 63.8422 226.005C64.2768 226.35 64.8308 226.522 65.5041 226.522ZM73.7642 221.767V227.673H72.2557V217.855H73.7131V219.389H73.8409C74.071 218.89 74.4205 218.49 74.8892 218.187C75.358 217.88 75.9631 217.727 76.7045 217.727C77.3693 217.727 77.951 217.863 78.4496 218.136C78.9482 218.404 79.3359 218.813 79.6129 219.363C79.8899 219.909 80.0284 220.599 80.0284 221.434V227.673H78.5199V221.536C78.5199 220.765 78.3196 220.164 77.919 219.734C77.5185 219.299 76.9688 219.082 76.2699 219.082C75.7884 219.082 75.358 219.186 74.9787 219.395C74.6037 219.604 74.3075 219.909 74.0902 220.309C73.8729 220.71 73.7642 221.196 73.7642 221.767Z" fill="white"/>
<path d="M11.9659 14.5819V27.6729H10.4318L3.2983 17.3944H3.17045V27.6729H1.58523V14.5819H3.11932L10.2784 24.8859H10.4062V14.5819H11.9659ZM21.1209 23.6586V17.8547H22.6294V27.6729H21.1209V26.0109H21.0186C20.7885 26.5095 20.4306 26.9335 19.9448 27.2829C19.459 27.6281 18.8453 27.8007 18.1039 27.8007C17.4902 27.8007 16.9448 27.6665 16.4675 27.398C15.9902 27.1253 15.6152 26.7162 15.3425 26.1707C15.0698 25.621 14.9334 24.9285 14.9334 24.0933V17.8547H16.4419V23.991C16.4419 24.7069 16.6422 25.278 17.0428 25.7041C17.4476 26.1302 17.9632 26.3433 18.5897 26.3433C18.9647 26.3433 19.3461 26.2474 19.7338 26.0557C20.1259 25.8639 20.454 25.5699 20.7182 25.1736C20.9867 24.7773 21.1209 24.2723 21.1209 23.6586ZM29.381 27.8774C28.4947 27.8774 27.717 27.6665 27.0479 27.2446C26.3832 26.8227 25.8633 26.2325 25.4883 25.474C25.1175 24.7155 24.9322 23.8291 24.9322 22.8149C24.9322 21.7922 25.1175 20.8994 25.4883 20.1366C25.8633 19.3738 26.3832 18.7815 27.0479 18.3596C27.717 17.9378 28.4947 17.7268 29.381 17.7268C30.2674 17.7268 31.043 17.9378 31.7077 18.3596C32.3768 18.7815 32.8967 19.3738 33.2674 20.1366C33.6424 20.8994 33.8299 21.7922 33.8299 22.8149C33.8299 23.8291 33.6424 24.7155 33.2674 25.474C32.8967 26.2325 32.3768 26.8227 31.7077 27.2446C31.043 27.6665 30.2674 27.8774 29.381 27.8774ZM29.381 26.5223C30.0543 26.5223 30.6083 26.3497 31.043 26.0045C31.4776 25.6594 31.7994 25.2055 32.0082 24.643C32.217 24.0805 32.3214 23.4711 32.3214 22.8149C32.3214 22.1586 32.217 21.5471 32.0082 20.9804C31.7994 20.4136 31.4776 19.9555 31.043 19.6061C30.6083 19.2567 30.0543 19.0819 29.381 19.0819C28.7077 19.0819 28.1538 19.2567 27.7191 19.6061C27.2844 19.9555 26.9627 20.4136 26.7539 20.9804C26.5451 21.5471 26.4407 22.1586 26.4407 22.8149C26.4407 23.4711 26.5451 24.0805 26.7539 24.643C26.9627 25.2055 27.2844 25.6594 27.7191 26.0045C28.1538 26.3497 28.7077 26.5223 29.381 26.5223ZM43.8095 17.8547L40.1788 27.6729H38.6447L35.014 17.8547H36.6504L39.3606 25.6785H39.4629L42.1731 17.8547H43.8095ZM45.8006 27.6729V17.8547H47.3091V27.6729H45.8006ZM46.5676 16.2183C46.2736 16.2183 46.0201 16.1182 45.807 15.9179C45.5982 15.7176 45.4938 15.4768 45.4938 15.1956C45.4938 14.9143 45.5982 14.6736 45.807 14.4733C46.0201 14.273 46.2736 14.1729 46.5676 14.1729C46.8617 14.1729 47.1131 14.273 47.3219 14.4733C47.535 14.6736 47.6415 14.9143 47.6415 15.1956C47.6415 15.4768 47.535 15.7176 47.3219 15.9179C47.1131 16.1182 46.8617 16.2183 46.5676 16.2183ZM63.163 17.8547L59.5323 27.6729H57.9982L54.3675 17.8547H56.0039L58.7141 25.6785H58.8164L61.5266 17.8547H63.163ZM68.7912 27.8774C67.9048 27.8774 67.1271 27.6665 66.4581 27.2446C65.7933 26.8227 65.2734 26.2325 64.8984 25.474C64.5277 24.7155 64.3423 23.8291 64.3423 22.8149C64.3423 21.7922 64.5277 20.8994 64.8984 20.1366C65.2734 19.3738 65.7933 18.7815 66.4581 18.3596C67.1271 17.9378 67.9048 17.7268 68.7912 17.7268C69.6776 17.7268 70.4531 17.9378 71.1179 18.3596C71.7869 18.7815 72.3068 19.3738 72.6776 20.1366C73.0526 20.8994 73.2401 21.7922 73.2401 22.8149C73.2401 23.8291 73.0526 24.7155 72.6776 25.474C72.3068 26.2325 71.7869 26.8227 71.1179 27.2446C70.4531 27.6665 69.6776 27.8774 68.7912 27.8774ZM68.7912 26.5223C69.4645 26.5223 70.0185 26.3497 70.4531 26.0045C70.8878 25.6594 71.2095 25.2055 71.4183 24.643C71.6271 24.0805 71.7315 23.4711 71.7315 22.8149C71.7315 22.1586 71.6271 21.5471 71.4183 20.9804C71.2095 20.4136 70.8878 19.9555 70.4531 19.6061C70.0185 19.2567 69.4645 19.0819 68.7912 19.0819C68.1179 19.0819 67.5639 19.2567 67.1293 19.6061C66.6946 19.9555 66.3729 20.4136 66.1641 20.9804C65.9553 21.5471 65.8509 22.1586 65.8509 22.8149C65.8509 23.4711 65.9553 24.0805 66.1641 24.643C66.3729 25.2055 66.6946 25.6594 67.1293 26.0045C67.5639 26.3497 68.1179 26.5223 68.7912 26.5223ZM77.0513 14.5819V27.6729H75.5428V14.5819H77.0513ZM83.8029 27.8774C82.9165 27.8774 82.1388 27.6665 81.4698 27.2446C80.805 26.8227 80.2852 26.2325 79.9102 25.474C79.5394 24.7155 79.354 23.8291 79.354 22.8149C79.354 21.7922 79.5394 20.8994 79.9102 20.1366C80.2852 19.3738 80.805 18.7815 81.4698 18.3596C82.1388 17.9378 82.9165 17.7268 83.8029 17.7268C84.6893 17.7268 85.4648 17.9378 86.1296 18.3596C86.7987 18.7815 87.3185 19.3738 87.6893 20.1366C88.0643 20.8994 88.2518 21.7922 88.2518 22.8149C88.2518 23.8291 88.0643 24.7155 87.6893 25.474C87.3185 26.2325 86.7987 26.8227 86.1296 27.2446C85.4648 27.6665 84.6893 27.8774 83.8029 27.8774ZM83.8029 26.5223C84.4762 26.5223 85.0302 26.3497 85.4648 26.0045C85.8995 25.6594 86.2212 25.2055 86.43 24.643C86.6388 24.0805 86.7433 23.4711 86.7433 22.8149C86.7433 22.1586 86.6388 21.5471 86.43 20.9804C86.2212 20.4136 85.8995 19.9555 85.4648 19.6061C85.0302 19.2567 84.4762 19.0819 83.8029 19.0819C83.1296 19.0819 82.5756 19.2567 82.141 19.6061C81.7063 19.9555 81.3846 20.4136 81.1758 20.9804C80.967 21.5471 80.8626 22.1586 80.8626 22.8149C80.8626 23.4711 80.967 24.0805 81.1758 24.643C81.3846 25.2055 81.7063 25.6594 82.141 26.0045C82.5756 26.3497 83.1296 26.5223 83.8029 26.5223ZM92.063 21.7666V27.6729H90.5545V17.8547H92.0119V19.3888H92.1397C92.3699 18.8902 92.7193 18.4896 93.188 18.1871C93.6568 17.8802 94.2619 17.7268 95.0034 17.7268C95.6681 17.7268 96.2498 17.8632 96.7484 18.1359C97.247 18.4044 97.6348 18.8135 97.9118 19.3632C98.1887 19.9086 98.3272 20.599 98.3272 21.4342V27.6729H96.8187V21.5365C96.8187 20.7652 96.6184 20.1643 96.2179 19.7339C95.8173 19.2993 95.2676 19.0819 94.5687 19.0819C94.0872 19.0819 93.6568 19.1863 93.2775 19.3952C92.9025 19.604 92.6064 19.9086 92.389 20.3092C92.1717 20.7098 92.063 21.1956 92.063 21.7666ZM105.354 17.8547V19.1331H100.266V17.8547H105.354ZM101.749 15.5024H103.257V24.8604C103.257 25.2865 103.319 25.6061 103.442 25.8192C103.57 26.028 103.732 26.1686 103.928 26.241C104.129 26.3092 104.339 26.3433 104.561 26.3433C104.727 26.3433 104.864 26.3348 104.97 26.3177C105.077 26.2964 105.162 26.2794 105.226 26.2666L105.533 27.6217C105.43 27.6601 105.288 27.6984 105.104 27.7368C104.921 27.7794 104.689 27.8007 104.408 27.8007C103.982 27.8007 103.564 27.7091 103.155 27.5258C102.75 27.3426 102.413 27.0635 102.145 26.6885C101.881 26.3135 101.749 25.8405 101.749 25.2694V15.5024ZM110.512 27.903C109.89 27.903 109.325 27.7858 108.818 27.5514C108.311 27.3128 107.908 26.9697 107.61 26.5223C107.312 26.0706 107.163 25.5251 107.163 24.8859C107.163 24.3234 107.273 23.8675 107.495 23.518C107.717 23.1643 108.013 22.8873 108.384 22.6871C108.754 22.4868 109.163 22.3376 109.611 22.2396C110.063 22.1373 110.516 22.0564 110.972 21.9967C111.569 21.92 112.053 21.8625 112.423 21.8241C112.798 21.7815 113.071 21.7112 113.241 21.6132C113.416 21.5152 113.504 21.3447 113.504 21.1018V21.0507C113.504 20.42 113.331 19.93 112.986 19.5805C112.645 19.2311 112.127 19.0564 111.433 19.0564C110.712 19.0564 110.148 19.214 109.739 19.5294C109.33 19.8447 109.042 20.1814 108.876 20.5393L107.444 20.028C107.7 19.4314 108.04 18.9669 108.467 18.6345C108.897 18.2979 109.366 18.0635 109.873 17.9314C110.384 17.795 110.887 17.7268 111.381 17.7268C111.697 17.7268 112.059 17.7652 112.468 17.8419C112.881 17.9143 113.28 18.0656 113.663 18.2957C114.051 18.5258 114.373 18.8731 114.629 19.3376C114.884 19.8021 115.012 20.4243 115.012 21.2041V27.6729H113.504V26.3433H113.427C113.325 26.5564 113.154 26.7844 112.915 27.0273C112.677 27.2702 112.359 27.4768 111.963 27.6473C111.567 27.8177 111.083 27.903 110.512 27.903ZM110.742 26.5479C111.339 26.5479 111.842 26.4307 112.251 26.1963C112.664 25.9619 112.975 25.6594 113.184 25.2886C113.397 24.9179 113.504 24.528 113.504 24.1189V22.7382C113.44 22.8149 113.299 22.8852 113.082 22.9491C112.869 23.0088 112.621 23.0621 112.34 23.1089C112.063 23.1515 111.793 23.1899 111.528 23.224C111.268 23.2538 111.058 23.2794 110.896 23.3007C110.504 23.3518 110.137 23.4349 109.796 23.55C109.46 23.6608 109.187 23.8291 108.978 24.055C108.773 24.2765 108.671 24.5791 108.671 24.9626C108.671 25.4868 108.865 25.8831 109.253 26.1515C109.645 26.4157 110.141 26.5479 110.742 26.5479ZM117.765 27.6729V17.8547H119.223V19.3376H119.325C119.504 18.8518 119.828 18.4577 120.297 18.1551C120.765 17.8525 121.294 17.7013 121.882 17.7013C121.993 17.7013 122.131 17.7034 122.297 17.7077C122.464 17.7119 122.589 17.7183 122.675 17.7268V19.2609C122.623 19.2481 122.506 19.229 122.323 19.2034C122.144 19.1736 121.954 19.1586 121.754 19.1586C121.277 19.1586 120.851 19.2588 120.476 19.4591C120.105 19.6551 119.811 19.9278 119.594 20.2773C119.381 20.6224 119.274 21.0166 119.274 21.4598V27.6729H117.765ZM124.463 27.6729V17.8547H125.971V27.6729H124.463ZM125.23 16.2183C124.936 16.2183 124.682 16.1182 124.469 15.9179C124.26 15.7176 124.156 15.4768 124.156 15.1956C124.156 14.9143 124.26 14.6736 124.469 14.4733C124.682 14.273 124.936 14.1729 125.23 14.1729C125.524 14.1729 125.775 14.273 125.984 14.4733C126.197 14.6736 126.304 14.9143 126.304 15.1956C126.304 15.4768 126.197 15.7176 125.984 15.9179C125.775 16.1182 125.524 16.2183 125.23 16.2183Z" fill="white"/>
<path d="M5.625 77.6729H1.58523V64.5819H5.80398C7.07386 64.5819 8.16051 64.844 9.06392 65.3682C9.96733 65.888 10.6598 66.6359 11.1413 67.6118C11.6229 68.5834 11.8636 69.7467 11.8636 71.1018C11.8636 72.4655 11.6207 73.6395 11.1349 74.6238C10.6491 75.604 9.94176 76.3582 9.01278 76.8866C8.08381 77.4108 6.95455 77.6729 5.625 77.6729ZM3.17045 76.2666H5.52273C6.60511 76.2666 7.50213 76.0578 8.21378 75.6402C8.92543 75.2226 9.45597 74.6281 9.8054 73.8568C10.1548 73.0855 10.3295 72.1672 10.3295 71.1018C10.3295 70.045 10.157 69.1352 9.81179 68.3724C9.46662 67.6054 8.95099 67.0173 8.26491 66.6082C7.57884 66.1949 6.72443 65.9882 5.7017 65.9882H3.17045V76.2666ZM14.3182 77.6729V67.8547H15.8267V77.6729H14.3182ZM15.0852 66.2183C14.7912 66.2183 14.5376 66.1182 14.3246 65.9179C14.1158 65.7176 14.0114 65.4768 14.0114 65.1956C14.0114 64.9143 14.1158 64.6736 14.3246 64.4733C14.5376 64.273 14.7912 64.1729 15.0852 64.1729C15.3793 64.1729 15.6307 64.273 15.8395 64.4733C16.0526 64.6736 16.1591 64.9143 16.1591 65.1956C16.1591 65.4768 16.0526 65.7176 15.8395 65.9179C15.6307 66.1182 15.3793 66.2183 15.0852 66.2183ZM26.6181 67.8547L22.9874 77.6729H21.4533L17.8226 67.8547H19.459L22.1692 75.6785H22.2715L24.9817 67.8547H26.6181ZM32.3741 77.8774C31.4281 77.8774 30.612 77.6686 29.926 77.251C29.2441 76.8291 28.7179 76.241 28.3471 75.4868C27.9806 74.7282 27.7974 73.8461 27.7974 72.8405C27.7974 71.8348 27.9806 70.9484 28.3471 70.1814C28.7179 69.4101 29.2335 68.8092 29.894 68.3788C30.5588 67.9442 31.3343 67.7268 32.2207 67.7268C32.7321 67.7268 33.237 67.8121 33.7356 67.9825C34.2342 68.153 34.688 68.43 35.0971 68.8135C35.5062 69.1927 35.8322 69.6956 36.0751 70.322C36.318 70.9484 36.4395 71.7197 36.4395 72.6359V73.2751H28.8713V71.9711H34.9054C34.9054 71.4172 34.7946 70.9229 34.573 70.4882C34.3556 70.0535 34.0446 69.7105 33.6397 69.4591C33.2392 69.2077 32.7662 69.0819 32.2207 69.0819C31.6199 69.0819 31.1 69.2311 30.661 69.5294C30.2264 69.8234 29.8919 70.2069 29.6575 70.68C29.4231 71.153 29.3059 71.6601 29.3059 72.2013V73.0706C29.3059 73.8121 29.4338 74.4406 29.6895 74.9562C29.9494 75.4676 30.3095 75.8575 30.7697 76.126C31.2299 76.3902 31.7647 76.5223 32.3741 76.5223C32.7704 76.5223 33.1284 76.4669 33.448 76.3561C33.7718 76.241 34.051 76.0706 34.2853 75.8447C34.5197 75.6146 34.7008 75.3291 34.8287 74.9882L36.286 75.3973C36.1326 75.8916 35.8748 76.3263 35.5126 76.7013C35.1504 77.072 34.7029 77.3618 34.1703 77.5706C33.6376 77.7751 33.0389 77.8774 32.3741 77.8774ZM38.7342 77.6729V67.8547H40.1916V69.3376H40.2939C40.4728 68.8518 40.7967 68.4577 41.2654 68.1551C41.7342 67.8525 42.2626 67.7013 42.8507 67.7013C42.9615 67.7013 43.1 67.7034 43.2662 67.7077C43.4324 67.7119 43.5581 67.7183 43.6433 67.7268V69.2609C43.5922 69.2481 43.475 69.229 43.2917 69.2034C43.1127 69.1736 42.9231 69.1586 42.7228 69.1586C42.2456 69.1586 41.8194 69.2588 41.4444 69.4591C41.0737 69.6551 40.7797 69.9278 40.5623 70.2773C40.3493 70.6224 40.2427 71.0166 40.2427 71.4598V77.6729H38.7342ZM52.386 70.0535L51.0309 70.4371C50.9457 70.2112 50.82 69.9917 50.6538 69.7787C50.4918 69.5613 50.2702 69.3824 49.989 69.2417C49.7077 69.1011 49.3477 69.0308 48.9087 69.0308C48.3079 69.0308 47.8072 69.1693 47.4066 69.4463C47.0103 69.719 46.8121 70.0663 46.8121 70.4882C46.8121 70.8632 46.9485 71.1594 47.2212 71.3767C47.494 71.594 47.9201 71.7751 48.4996 71.92L49.957 72.278C50.8349 72.491 51.489 72.817 51.9194 73.2559C52.3498 73.6906 52.565 74.251 52.565 74.9371C52.565 75.4996 52.4031 76.0024 52.0792 76.4456C51.7596 76.8888 51.3121 77.2382 50.7369 77.4939C50.1616 77.7496 49.4925 77.8774 48.7298 77.8774C47.7283 77.8774 46.8995 77.6601 46.2433 77.2254C45.587 76.7907 45.1715 76.1558 44.9968 75.3206L46.4286 74.9626C46.565 75.491 46.8228 75.8873 47.2021 76.1515C47.5856 76.4157 48.0863 76.5479 48.7042 76.5479C49.4073 76.5479 49.9656 76.3987 50.3789 76.1004C50.7965 75.7979 51.0053 75.4356 51.0053 75.0138C51.0053 74.6729 50.886 74.3873 50.6474 74.1572C50.4087 73.9229 50.0423 73.7481 49.5479 73.6331L47.9116 73.2496C47.0124 73.0365 46.3519 72.7062 45.93 72.2588C45.5124 71.8071 45.3036 71.2425 45.3036 70.5649C45.3036 70.0109 45.4592 69.5209 45.7702 69.0947C46.0856 68.6686 46.5138 68.3341 47.055 68.0912C47.6005 67.8483 48.2184 67.7268 48.9087 67.7268C49.8803 67.7268 50.6431 67.9399 51.1971 68.366C51.7553 68.7922 52.1516 69.3547 52.386 70.0535ZM54.8358 77.6729V67.8547H56.3443V77.6729H54.8358ZM55.6028 66.2183C55.3088 66.2183 55.0552 66.1182 54.8422 65.9179C54.6333 65.7176 54.5289 65.4768 54.5289 65.1956C54.5289 64.9143 54.6333 64.6736 54.8422 64.4733C55.0552 64.273 55.3088 64.1729 55.6028 64.1729C55.8968 64.1729 56.1483 64.273 56.3571 64.4733C56.5701 64.6736 56.6767 64.9143 56.6767 65.1956C56.6767 65.4768 56.5701 65.7176 56.3571 65.9179C56.1483 66.1182 55.8968 66.2183 55.6028 66.2183ZM63.3771 67.8547V69.1331H58.2891V67.8547H63.3771ZM59.772 65.5024H61.2805V74.8604C61.2805 75.2865 61.3423 75.6061 61.4659 75.8192C61.5938 76.028 61.7557 76.1686 61.9517 76.241C62.152 76.3092 62.3629 76.3433 62.5845 76.3433C62.7507 76.3433 62.8871 76.3348 62.9936 76.3177C63.1001 76.2964 63.1854 76.2794 63.2493 76.2666L63.5561 77.6217C63.4538 77.6601 63.3111 77.6984 63.1278 77.7368C62.9446 77.7794 62.7124 77.8007 62.4311 77.8007C62.005 77.8007 61.5874 77.7091 61.1783 77.5258C60.7734 77.3426 60.4368 77.0635 60.1683 76.6885C59.9041 76.3135 59.772 75.8405 59.772 75.2694V65.5024ZM68.5355 77.903C67.9134 77.903 67.3487 77.7858 66.8416 77.5514C66.3345 77.3128 65.9318 76.9697 65.6335 76.5223C65.3352 76.0706 65.1861 75.5251 65.1861 74.8859C65.1861 74.3234 65.2969 73.8675 65.5185 73.518C65.7401 73.1643 66.0362 72.8873 66.407 72.6871C66.7777 72.4868 67.1868 72.3376 67.6342 72.2396C68.0859 72.1373 68.5398 72.0564 68.9957 71.9967C69.5923 71.92 70.076 71.8625 70.4467 71.8241C70.8217 71.7815 71.0945 71.7112 71.2649 71.6132C71.4396 71.5152 71.527 71.3447 71.527 71.1018V71.0507C71.527 70.42 71.3544 69.93 71.0092 69.5805C70.6683 69.2311 70.1506 69.0564 69.456 69.0564C68.7358 69.0564 68.1712 69.214 67.7621 69.5294C67.353 69.8447 67.0653 70.1814 66.8991 70.5393L65.4673 70.028C65.723 69.4314 66.0639 68.9669 66.4901 68.6345C66.9205 68.2979 67.3892 68.0635 67.8963 67.9314C68.4077 67.795 68.9105 67.7268 69.4048 67.7268C69.7202 67.7268 70.0824 67.7652 70.4915 67.8419C70.9048 67.9143 71.3033 68.0656 71.6868 68.2957C72.0746 68.5258 72.3963 68.8731 72.652 69.3376C72.9077 69.8021 73.0355 70.4243 73.0355 71.2041V77.6729H71.527V76.3433H71.4503C71.348 76.5564 71.1776 76.7844 70.9389 77.0273C70.7003 77.2702 70.3828 77.4768 69.9865 77.6473C69.5902 77.8177 69.1065 77.903 68.5355 77.903ZM68.7656 76.5479C69.3622 76.5479 69.8651 76.4307 70.2741 76.1963C70.6875 75.9619 70.9986 75.6594 71.2074 75.2886C71.4205 74.9179 71.527 74.528 71.527 74.1189V72.7382C71.4631 72.8149 71.3224 72.8852 71.1051 72.9491C70.892 73.0088 70.6449 73.0621 70.3636 73.1089C70.0866 73.1515 69.8161 73.1899 69.5518 73.224C69.2919 73.2538 69.081 73.2794 68.919 73.3007C68.527 73.3518 68.1605 73.4349 67.8196 73.55C67.483 73.6608 67.2102 73.8291 67.0014 74.055C66.7969 74.2765 66.6946 74.5791 66.6946 74.9626C66.6946 75.4868 66.8885 75.8831 67.2763 76.1515C67.6683 76.4157 68.1648 76.5479 68.7656 76.5479ZM68.8679 66.5251L66.8736 63.5592H68.6378L70.1974 66.5251H68.8679ZM83.7406 77.903C83.1184 77.903 82.5538 77.7858 82.0467 77.5514C81.5396 77.3128 81.1369 76.9697 80.8386 76.5223C80.5403 76.0706 80.3912 75.5251 80.3912 74.8859C80.3912 74.3234 80.502 73.8675 80.7235 73.518C80.9451 73.1643 81.2413 72.8873 81.612 72.6871C81.9828 72.4868 82.3919 72.3376 82.8393 72.2396C83.291 72.1373 83.7449 72.0564 84.2008 71.9967C84.7974 71.92 85.2811 71.8625 85.6518 71.8241C86.0268 71.7815 86.2995 71.7112 86.47 71.6132C86.6447 71.5152 86.7321 71.3447 86.7321 71.1018V71.0507C86.7321 70.42 86.5595 69.93 86.2143 69.5805C85.8734 69.2311 85.3556 69.0564 84.661 69.0564C83.9409 69.0564 83.3762 69.214 82.9672 69.5294C82.5581 69.8447 82.2704 70.1814 82.1042 70.5393L80.6724 70.028C80.9281 69.4314 81.269 68.9669 81.6951 68.6345C82.1255 68.2979 82.5943 68.0635 83.1014 67.9314C83.6127 67.795 84.1156 67.7268 84.6099 67.7268C84.9252 67.7268 85.2875 67.7652 85.6966 67.8419C86.1099 67.9143 86.5083 68.0656 86.8919 68.2957C87.2797 68.5258 87.6014 68.8731 87.8571 69.3376C88.1127 69.8021 88.2406 70.4243 88.2406 71.2041V77.6729H86.7321V76.3433H86.6554C86.5531 76.5564 86.3826 76.7844 86.144 77.0273C85.9054 77.2702 85.5879 77.4768 85.1916 77.6473C84.7953 77.8177 84.3116 77.903 83.7406 77.903ZM83.9707 76.5479C84.5673 76.5479 85.0701 76.4307 85.4792 76.1963C85.8926 75.9619 86.2037 75.6594 86.4125 75.2886C86.6255 74.9179 86.7321 74.528 86.7321 74.1189V72.7382C86.6681 72.8149 86.5275 72.8852 86.3102 72.9491C86.0971 73.0088 85.85 73.0621 85.5687 73.1089C85.2917 73.1515 85.0211 73.1899 84.7569 73.224C84.497 73.2538 84.286 73.2794 84.1241 73.3007C83.7321 73.3518 83.3656 73.4349 83.0247 73.55C82.688 73.6608 82.4153 73.8291 82.2065 74.055C82.002 74.2765 81.8997 74.5791 81.8997 74.9626C81.8997 75.4868 82.0936 75.8831 82.4814 76.1515C82.8734 76.4157 83.3699 76.5479 83.9707 76.5479ZM90.994 77.6729V67.8547H92.4513V69.3376H92.5536C92.7326 68.8518 93.0565 68.4577 93.5252 68.1551C93.994 67.8525 94.5224 67.7013 95.1104 67.7013C95.2212 67.7013 95.3597 67.7034 95.5259 67.7077C95.6921 67.7119 95.8178 67.7183 95.9031 67.7268V69.2609C95.8519 69.2481 95.7347 69.229 95.5515 69.2034C95.3725 69.1736 95.1829 69.1586 94.9826 69.1586C94.5053 69.1586 94.0792 69.2588 93.7042 69.4591C93.3335 69.6551 93.0394 69.9278 92.8221 70.2773C92.609 70.6224 92.5025 71.0166 92.5025 71.4598V77.6729H90.994ZM101.509 77.8774C100.563 77.8774 99.7468 77.6686 99.0607 77.251C98.3789 76.8291 97.8526 76.241 97.4819 75.4868C97.1154 74.7282 96.9322 73.8461 96.9322 72.8405C96.9322 71.8348 97.1154 70.9484 97.4819 70.1814C97.8526 69.4101 98.3683 68.8092 99.0288 68.3788C99.6935 67.9442 100.469 67.7268 101.355 67.7268C101.867 67.7268 102.372 67.8121 102.87 67.9825C103.369 68.153 103.823 68.43 104.232 68.8135C104.641 69.1927 104.967 69.6956 105.21 70.322C105.453 70.9484 105.574 71.7197 105.574 72.6359V73.2751H98.006V71.9711H104.04C104.04 71.4172 103.929 70.9229 103.708 70.4882C103.49 70.0535 103.179 69.7105 102.775 69.4591C102.374 69.2077 101.901 69.0819 101.355 69.0819C100.755 69.0819 100.235 69.2311 99.7958 69.5294C99.3612 69.8234 99.0266 70.2069 98.7923 70.68C98.5579 71.153 98.4407 71.6601 98.4407 72.2013V73.0706C98.4407 73.8121 98.5685 74.4406 98.8242 74.9562C99.0842 75.4676 99.4442 75.8575 99.9045 76.126C100.365 76.3902 100.9 76.5223 101.509 76.5223C101.905 76.5223 102.263 76.4669 102.583 76.3561C102.907 76.241 103.186 76.0706 103.42 75.8447C103.654 75.6146 103.836 75.3291 103.963 74.9882L105.421 75.3973C105.267 75.8916 105.01 76.3263 104.647 76.7013C104.285 77.072 103.838 77.3618 103.305 77.5706C102.772 77.7751 102.174 77.8774 101.509 77.8774ZM111.985 77.8774C111.039 77.8774 110.223 77.6686 109.537 77.251C108.855 76.8291 108.329 76.241 107.958 75.4868C107.592 74.7282 107.409 73.8461 107.409 72.8405C107.409 71.8348 107.592 70.9484 107.958 70.1814C108.329 69.4101 108.845 68.8092 109.505 68.3788C110.17 67.9442 110.946 67.7268 111.832 67.7268C112.343 67.7268 112.848 67.8121 113.347 67.9825C113.846 68.153 114.299 68.43 114.708 68.8135C115.118 69.1927 115.444 69.6956 115.686 70.322C115.929 70.9484 116.051 71.7197 116.051 72.6359V73.2751H108.483V71.9711H114.517C114.517 71.4172 114.406 70.9229 114.184 70.4882C113.967 70.0535 113.656 69.7105 113.251 69.4591C112.85 69.2077 112.377 69.0819 111.832 69.0819C111.231 69.0819 110.711 69.2311 110.272 69.5294C109.838 69.8234 109.503 70.2069 109.269 70.68C109.034 71.153 108.917 71.6601 108.917 72.2013V73.0706C108.917 73.8121 109.045 74.4406 109.301 74.9562C109.561 75.4676 109.921 75.8575 110.381 76.126C110.841 76.3902 111.376 76.5223 111.985 76.5223C112.382 76.5223 112.74 76.4669 113.059 76.3561C113.383 76.241 113.662 76.0706 113.897 75.8447C114.131 75.6146 114.312 75.3291 114.44 74.9882L115.897 75.3973C115.744 75.8916 115.486 76.3263 115.124 76.7013C114.762 77.072 114.314 77.3618 113.782 77.5706C113.249 77.7751 112.65 77.8774 111.985 77.8774ZM127.371 81.5592C126.642 81.5592 126.016 81.4655 125.492 81.278C124.968 81.0947 124.531 80.8518 124.181 80.5493C123.836 80.251 123.561 79.9314 123.357 79.5905L124.559 78.7467C124.695 78.9257 124.868 79.1302 125.076 79.3604C125.285 79.5947 125.571 79.7971 125.933 79.9676C126.299 80.1423 126.779 80.2297 127.371 80.2297C128.164 80.2297 128.818 80.0379 129.333 79.6544C129.849 79.2709 130.107 78.67 130.107 77.8518V75.8575H129.979C129.868 76.0365 129.711 76.2581 129.506 76.5223C129.306 76.7822 129.016 77.0145 128.637 77.219C128.262 77.4193 127.755 77.5194 127.115 77.5194C126.323 77.5194 125.611 77.3319 124.98 76.9569C124.354 76.5819 123.858 76.0365 123.491 75.3206C123.129 74.6047 122.948 73.7354 122.948 72.7126C122.948 71.7069 123.125 70.8312 123.478 70.0855C123.832 69.3355 124.324 68.7559 124.955 68.3469C125.586 67.9335 126.314 67.7268 127.141 67.7268C127.78 67.7268 128.287 67.8334 128.662 68.0464C129.042 68.2552 129.331 68.4939 129.532 68.7623C129.736 69.0265 129.894 69.2439 130.005 69.4143H130.158V67.8547H131.615V77.9541C131.615 78.7979 131.424 79.4839 131.04 80.0123C130.661 80.545 130.15 80.9349 129.506 81.1821C128.867 81.4335 128.155 81.5592 127.371 81.5592ZM127.32 76.1643C127.925 76.1643 128.436 76.0258 128.854 75.7488C129.272 75.4719 129.589 75.0734 129.806 74.5535C130.024 74.0336 130.132 73.4115 130.132 72.6871C130.132 71.9797 130.026 71.3554 129.813 70.8142C129.6 70.273 129.284 69.849 128.867 69.5422C128.449 69.2354 127.934 69.0819 127.32 69.0819C126.681 69.0819 126.148 69.2439 125.722 69.5677C125.3 69.8916 124.983 70.3263 124.77 70.8717C124.561 71.4172 124.456 72.0223 124.456 72.6871C124.456 73.3689 124.563 73.9719 124.776 74.496C124.993 75.0159 125.313 75.425 125.735 75.7233C126.161 76.0173 126.689 76.1643 127.32 76.1643ZM138.493 77.8774C137.547 77.8774 136.731 77.6686 136.045 77.251C135.363 76.8291 134.837 76.241 134.466 75.4868C134.1 74.7282 133.917 73.8461 133.917 72.8405C133.917 71.8348 134.1 70.9484 134.466 70.1814C134.837 69.4101 135.353 68.8092 136.013 68.3788C136.678 67.9442 137.453 67.7268 138.34 67.7268C138.851 67.7268 139.356 67.8121 139.855 67.9825C140.353 68.153 140.807 68.43 141.216 68.8135C141.625 69.1927 141.951 69.6956 142.194 70.322C142.437 70.9484 142.559 71.7197 142.559 72.6359V73.2751H134.99V71.9711H141.025C141.025 71.4172 140.914 70.9229 140.692 70.4882C140.475 70.0535 140.164 69.7105 139.759 69.4591C139.358 69.2077 138.885 69.0819 138.34 69.0819C137.739 69.0819 137.219 69.2311 136.78 69.5294C136.346 69.8234 136.011 70.2069 135.777 70.68C135.542 71.153 135.425 71.6601 135.425 72.2013V73.0706C135.425 73.8121 135.553 74.4406 135.809 74.9562C136.069 75.4676 136.429 75.8575 136.889 76.126C137.349 76.3902 137.884 76.5223 138.493 76.5223C138.89 76.5223 139.248 76.4669 139.567 76.3561C139.891 76.241 140.17 76.0706 140.404 75.8447C140.639 75.6146 140.82 75.3291 140.948 74.9882L142.405 75.3973C142.252 75.8916 141.994 76.3263 141.632 76.7013C141.27 77.072 140.822 77.3618 140.289 77.5706C139.757 77.7751 139.158 77.8774 138.493 77.8774ZM148.842 77.8774C147.956 77.8774 147.178 77.6665 146.509 77.2446C145.844 76.8227 145.324 76.2325 144.949 75.474C144.578 74.7155 144.393 73.8291 144.393 72.8149C144.393 71.7922 144.578 70.8994 144.949 70.1366C145.324 69.3738 145.844 68.7815 146.509 68.3596C147.178 67.9378 147.956 67.7268 148.842 67.7268C149.728 67.7268 150.504 67.9378 151.169 68.3596C151.838 68.7815 152.358 69.3738 152.728 70.1366C153.103 70.8994 153.291 71.7922 153.291 72.8149C153.291 73.8291 153.103 74.7155 152.728 75.474C152.358 76.2325 151.838 76.8227 151.169 77.2446C150.504 77.6665 149.728 77.8774 148.842 77.8774ZM148.842 76.5223C149.515 76.5223 150.069 76.3497 150.504 76.0045C150.939 75.6594 151.26 75.2055 151.469 74.643C151.678 74.0805 151.782 73.4711 151.782 72.8149C151.782 72.1586 151.678 71.5471 151.469 70.9804C151.26 70.4136 150.939 69.9555 150.504 69.6061C150.069 69.2567 149.515 69.0819 148.842 69.0819C148.169 69.0819 147.615 69.2567 147.18 69.6061C146.745 69.9555 146.424 70.4136 146.215 70.9804C146.006 71.5471 145.902 72.1586 145.902 72.8149C145.902 73.4711 146.006 74.0805 146.215 74.643C146.424 75.2055 146.745 75.6594 147.18 76.0045C147.615 76.3497 148.169 76.5223 148.842 76.5223ZM159.557 81.5592C158.828 81.5592 158.202 81.4655 157.677 81.278C157.153 81.0947 156.716 80.8518 156.367 80.5493C156.022 80.251 155.747 79.9314 155.542 79.5905L156.744 78.7467C156.881 78.9257 157.053 79.1302 157.262 79.3604C157.471 79.5947 157.756 79.7971 158.118 79.9676C158.485 80.1423 158.964 80.2297 159.557 80.2297C160.349 80.2297 161.003 80.0379 161.519 79.6544C162.035 79.2709 162.292 78.67 162.292 77.8518V75.8575H162.165C162.054 76.0365 161.896 76.2581 161.692 76.5223C161.491 76.7822 161.202 77.0145 160.822 77.219C160.447 77.4193 159.94 77.5194 159.301 77.5194C158.508 77.5194 157.797 77.3319 157.166 76.9569C156.54 76.5819 156.043 76.0365 155.677 75.3206C155.314 74.6047 155.133 73.7354 155.133 72.7126C155.133 71.7069 155.31 70.8312 155.664 70.0855C156.018 69.3355 156.51 68.7559 157.14 68.3469C157.771 67.9335 158.5 67.7268 159.327 67.7268C159.966 67.7268 160.473 67.8334 160.848 68.0464C161.227 68.2552 161.517 68.4939 161.717 68.7623C161.922 69.0265 162.079 69.2439 162.19 69.4143H162.344V67.8547H163.801V77.9541C163.801 78.7979 163.609 79.4839 163.226 80.0123C162.846 80.545 162.335 80.9349 161.692 81.1821C161.052 81.4335 160.341 81.5592 159.557 81.5592ZM159.506 76.1643C160.111 76.1643 160.622 76.0258 161.04 75.7488C161.457 75.4719 161.775 75.0734 161.992 74.5535C162.209 74.0336 162.318 73.4115 162.318 72.6871C162.318 71.9797 162.211 71.3554 161.998 70.8142C161.785 70.273 161.47 69.849 161.052 69.5422C160.635 69.2354 160.119 69.0819 159.506 69.0819C158.866 69.0819 158.334 69.2439 157.907 69.5677C157.486 69.8916 157.168 70.3263 156.955 70.8717C156.746 71.4172 156.642 72.0223 156.642 72.6871C156.642 73.3689 156.748 73.9719 156.961 74.496C157.179 75.0159 157.498 75.425 157.92 75.7233C158.346 76.0173 158.875 76.1643 159.506 76.1643ZM166.562 77.6729V67.8547H168.02V69.3376H168.122C168.301 68.8518 168.625 68.4577 169.094 68.1551C169.562 67.8525 170.091 67.7013 170.679 67.7013C170.79 67.7013 170.928 67.7034 171.094 67.7077C171.26 67.7119 171.386 67.7183 171.471 67.7268V69.2609C171.42 69.2481 171.303 69.229 171.12 69.2034C170.941 69.1736 170.751 69.1586 170.551 69.1586C170.074 69.1586 169.648 69.2588 169.273 69.4591C168.902 69.6551 168.608 69.9278 168.39 70.2773C168.177 70.6224 168.071 71.0166 168.071 71.4598V77.6729H166.562ZM176.149 77.903C175.527 77.903 174.962 77.7858 174.455 77.5514C173.948 77.3128 173.545 76.9697 173.247 76.5223C172.949 76.0706 172.799 75.5251 172.799 74.8859C172.799 74.3234 172.91 73.8675 173.132 73.518C173.353 73.1643 173.65 72.8873 174.02 72.6871C174.391 72.4868 174.8 72.3376 175.248 72.2396C175.699 72.1373 176.153 72.0564 176.609 71.9967C177.206 71.92 177.689 71.8625 178.06 71.8241C178.435 71.7815 178.708 71.7112 178.878 71.6132C179.053 71.5152 179.14 71.3447 179.14 71.1018V71.0507C179.14 70.42 178.968 69.93 178.623 69.5805C178.282 69.2311 177.764 69.0564 177.069 69.0564C176.349 69.0564 175.784 69.214 175.375 69.5294C174.966 69.8447 174.679 70.1814 174.512 70.5393L173.081 70.028C173.336 69.4314 173.677 68.9669 174.103 68.6345C174.534 68.2979 175.002 68.0635 175.51 67.9314C176.021 67.795 176.524 67.7268 177.018 67.7268C177.333 67.7268 177.696 67.7652 178.105 67.8419C178.518 67.9143 178.917 68.0656 179.3 68.2957C179.688 68.5258 180.01 68.8731 180.265 69.3376C180.521 69.8021 180.649 70.4243 180.649 71.2041V77.6729H179.14V76.3433H179.064C178.961 76.5564 178.791 76.7844 178.552 77.0273C178.314 77.2702 177.996 77.4768 177.6 77.6473C177.203 77.8177 176.72 77.903 176.149 77.903ZM176.379 76.5479C176.975 76.5479 177.478 76.4307 177.887 76.1963C178.301 75.9619 178.612 75.6594 178.821 75.2886C179.034 74.9179 179.14 74.528 179.14 74.1189V72.7382C179.076 72.8149 178.936 72.8852 178.718 72.9491C178.505 73.0088 178.258 73.0621 177.977 73.1089C177.7 73.1515 177.429 73.1899 177.165 73.224C176.905 73.2538 176.694 73.2794 176.532 73.3007C176.14 73.3518 175.774 73.4349 175.433 73.55C175.096 73.6608 174.824 73.8291 174.615 74.055C174.41 74.2765 174.308 74.5791 174.308 74.9626C174.308 75.4868 174.502 75.8831 174.89 76.1515C175.282 76.4157 175.778 76.5479 176.379 76.5479ZM187.774 67.8547V69.1331H182.482V67.8547H187.774ZM184.067 77.6729V66.4996C184.067 65.9371 184.199 65.4683 184.463 65.0933C184.727 64.7183 185.07 64.4371 185.492 64.2496C185.914 64.0621 186.36 63.9683 186.828 63.9683C187.199 63.9683 187.502 63.9981 187.736 64.0578C187.97 64.1175 188.145 64.1729 188.26 64.224L187.825 65.528C187.749 65.5024 187.642 65.4704 187.506 65.4321C187.374 65.3937 187.199 65.3746 186.982 65.3746C186.483 65.3746 186.123 65.5003 185.901 65.7517C185.684 66.0031 185.575 66.3717 185.575 66.8575V77.6729H184.067ZM189.888 77.6729V67.8547H191.397V77.6729H189.888ZM190.656 66.2183C190.362 66.2183 190.108 66.1182 189.895 65.9179C189.686 65.7176 189.582 65.4768 189.582 65.1956C189.582 64.9143 189.686 64.6736 189.895 64.4733C190.108 64.273 190.362 64.1729 190.656 64.1729C190.95 64.1729 191.201 64.273 191.41 64.4733C191.623 64.6736 191.729 64.9143 191.729 65.1956C191.729 65.4768 191.623 65.7176 191.41 65.9179C191.201 66.1182 190.95 66.2183 190.656 66.2183ZM198.149 77.8774C197.228 77.8774 196.436 77.6601 195.771 77.2254C195.106 76.7907 194.595 76.192 194.237 75.4292C193.879 74.6665 193.7 73.795 193.7 72.8149C193.7 71.8177 193.883 70.9378 194.249 70.175C194.62 69.4079 195.136 68.8092 195.796 68.3788C196.461 67.9442 197.237 67.7268 198.123 67.7268C198.813 67.7268 199.436 67.8547 199.99 68.1104C200.544 68.366 200.997 68.724 201.351 69.1842C201.705 69.6444 201.924 70.1814 202.009 70.795H200.501C200.386 70.3476 200.13 69.9513 199.734 69.6061C199.342 69.2567 198.813 69.0819 198.149 69.0819C197.561 69.0819 197.045 69.2354 196.602 69.5422C196.163 69.8447 195.82 70.273 195.573 70.827C195.33 71.3767 195.208 72.0223 195.208 72.7638C195.208 73.5223 195.328 74.1828 195.566 74.7453C195.809 75.3078 196.15 75.7446 196.589 76.0557C197.032 76.3667 197.552 76.5223 198.149 76.5223C198.541 76.5223 198.896 76.4541 199.216 76.3177C199.536 76.1814 199.806 75.9854 200.028 75.7297C200.249 75.474 200.407 75.1672 200.501 74.8092H202.009C201.924 75.3888 201.713 75.9108 201.377 76.3753C201.044 76.8355 200.603 77.202 200.053 77.4747C199.508 77.7432 198.873 77.8774 198.149 77.8774ZM205.723 71.7666V77.6729H204.215V64.5819H205.723V69.3888H205.851C206.081 68.8817 206.426 68.479 206.887 68.1807C207.351 67.8781 207.969 67.7268 208.74 67.7268C209.409 67.7268 209.995 67.8611 210.498 68.1295C211.001 68.3937 211.391 68.8007 211.668 69.3504C211.949 69.8959 212.09 70.5905 212.09 71.4342V77.6729H210.581V71.5365C210.581 70.7567 210.379 70.1537 209.974 69.7275C209.573 69.2971 209.017 69.0819 208.306 69.0819C207.811 69.0819 207.368 69.1863 206.976 69.3952C206.588 69.604 206.281 69.9086 206.056 70.3092C205.834 70.7098 205.723 71.1956 205.723 71.7666ZM218.966 77.8774C218.02 77.8774 217.204 77.6686 216.518 77.251C215.836 76.8291 215.31 76.241 214.939 75.4868C214.572 74.7282 214.389 73.8461 214.389 72.8405C214.389 71.8348 214.572 70.9484 214.939 70.1814C215.31 69.4101 215.825 68.8092 216.486 68.3788C217.151 67.9442 217.926 67.7268 218.812 67.7268C219.324 67.7268 219.829 67.8121 220.327 67.9825C220.826 68.153 221.28 68.43 221.689 68.8135C222.098 69.1927 222.424 69.6956 222.667 70.322C222.91 70.9484 223.031 71.7197 223.031 72.6359V73.2751H215.463V71.9711H221.497C221.497 71.4172 221.386 70.9229 221.165 70.4882C220.947 70.0535 220.636 69.7105 220.232 69.4591C219.831 69.2077 219.358 69.0819 218.812 69.0819C218.212 69.0819 217.692 69.2311 217.253 69.5294C216.818 69.8234 216.484 70.2069 216.249 70.68C216.015 71.153 215.898 71.6601 215.898 72.2013V73.0706C215.898 73.8121 216.026 74.4406 216.281 74.9562C216.541 75.4676 216.901 75.8575 217.362 76.126C217.822 76.3902 218.357 76.5223 218.966 76.5223C219.362 76.5223 219.72 76.4669 220.04 76.3561C220.364 76.241 220.643 76.0706 220.877 75.8447C221.112 75.6146 221.293 75.3291 221.42 74.9882L222.878 75.3973C222.724 75.8916 222.467 76.3263 222.104 76.7013C221.742 77.072 221.295 77.3618 220.762 77.5706C220.229 77.7751 219.631 77.8774 218.966 77.8774Z" fill="white"/>
<path d="M5.625 127.673H1.58523V114.582H5.80398C7.07386 114.582 8.16051 114.844 9.06392 115.368C9.96733 115.888 10.6598 116.636 11.1413 117.612C11.6229 118.583 11.8636 119.747 11.8636 121.102C11.8636 122.465 11.6207 123.639 11.1349 124.624C10.6491 125.604 9.94176 126.358 9.01278 126.887C8.08381 127.411 6.95455 127.673 5.625 127.673ZM3.17045 126.267H5.52273C6.60511 126.267 7.50213 126.058 8.21378 125.64C8.92543 125.223 9.45597 124.628 9.8054 123.857C10.1548 123.085 10.3295 122.167 10.3295 121.102C10.3295 120.045 10.157 119.135 9.81179 118.372C9.46662 117.605 8.95099 117.017 8.26491 116.608C7.57884 116.195 6.72443 115.988 5.7017 115.988H3.17045V126.267ZM14.3182 127.673V117.855H15.8267V127.673H14.3182ZM15.0852 116.218C14.7912 116.218 14.5376 116.118 14.3246 115.918C14.1158 115.718 14.0114 115.477 14.0114 115.196C14.0114 114.914 14.1158 114.674 14.3246 114.473C14.5376 114.273 14.7912 114.173 15.0852 114.173C15.3793 114.173 15.6307 114.273 15.8395 114.473C16.0526 114.674 16.1591 114.914 16.1591 115.196C16.1591 115.477 16.0526 115.718 15.8395 115.918C15.6307 116.118 15.3793 116.218 15.0852 116.218ZM26.6181 117.855L22.9874 127.673H21.4533L17.8226 117.855H19.459L22.1692 125.679H22.2715L24.9817 117.855H26.6181ZM32.3741 127.877C31.4281 127.877 30.612 127.669 29.926 127.251C29.2441 126.829 28.7179 126.241 28.3471 125.487C27.9806 124.728 27.7974 123.846 27.7974 122.84C27.7974 121.835 27.9806 120.948 28.3471 120.181C28.7179 119.41 29.2335 118.809 29.894 118.379C30.5588 117.944 31.3343 117.727 32.2207 117.727C32.7321 117.727 33.237 117.812 33.7356 117.983C34.2342 118.153 34.688 118.43 35.0971 118.813C35.5062 119.193 35.8322 119.696 36.0751 120.322C36.318 120.948 36.4395 121.72 36.4395 122.636V123.275H28.8713V121.971H34.9054C34.9054 121.417 34.7946 120.923 34.573 120.488C34.3556 120.054 34.0446 119.71 33.6397 119.459C33.2392 119.208 32.7662 119.082 32.2207 119.082C31.6199 119.082 31.1 119.231 30.661 119.529C30.2264 119.823 29.8919 120.207 29.6575 120.68C29.4231 121.153 29.3059 121.66 29.3059 122.201V123.071C29.3059 123.812 29.4338 124.441 29.6895 124.956C29.9494 125.468 30.3095 125.858 30.7697 126.126C31.2299 126.39 31.7647 126.522 32.3741 126.522C32.7704 126.522 33.1284 126.467 33.448 126.356C33.7718 126.241 34.051 126.071 34.2853 125.845C34.5197 125.615 34.7008 125.329 34.8287 124.988L36.286 125.397C36.1326 125.892 35.8748 126.326 35.5126 126.701C35.1504 127.072 34.7029 127.362 34.1703 127.571C33.6376 127.775 33.0389 127.877 32.3741 127.877ZM38.7342 127.673V117.855H40.1916V119.338H40.2939C40.4728 118.852 40.7967 118.458 41.2654 118.155C41.7342 117.853 42.2626 117.701 42.8507 117.701C42.9615 117.701 43.1 117.703 43.2662 117.708C43.4324 117.712 43.5581 117.718 43.6433 117.727V119.261C43.5922 119.248 43.475 119.229 43.2917 119.203C43.1127 119.174 42.9231 119.159 42.7228 119.159C42.2456 119.159 41.8194 119.259 41.4444 119.459C41.0737 119.655 40.7797 119.928 40.5623 120.277C40.3493 120.622 40.2427 121.017 40.2427 121.46V127.673H38.7342ZM52.386 120.054L51.0309 120.437C50.9457 120.211 50.82 119.992 50.6538 119.779C50.4918 119.561 50.2702 119.382 49.989 119.242C49.7077 119.101 49.3477 119.031 48.9087 119.031C48.3079 119.031 47.8072 119.169 47.4066 119.446C47.0103 119.719 46.8121 120.066 46.8121 120.488C46.8121 120.863 46.9485 121.159 47.2212 121.377C47.494 121.594 47.9201 121.775 48.4996 121.92L49.957 122.278C50.8349 122.491 51.489 122.817 51.9194 123.256C52.3498 123.691 52.565 124.251 52.565 124.937C52.565 125.5 52.4031 126.002 52.0792 126.446C51.7596 126.889 51.3121 127.238 50.7369 127.494C50.1616 127.75 49.4925 127.877 48.7298 127.877C47.7283 127.877 46.8995 127.66 46.2433 127.225C45.587 126.791 45.1715 126.156 44.9968 125.321L46.4286 124.963C46.565 125.491 46.8228 125.887 47.2021 126.152C47.5856 126.416 48.0863 126.548 48.7042 126.548C49.4073 126.548 49.9656 126.399 50.3789 126.1C50.7965 125.798 51.0053 125.436 51.0053 125.014C51.0053 124.673 50.886 124.387 50.6474 124.157C50.4087 123.923 50.0423 123.748 49.5479 123.633L47.9116 123.25C47.0124 123.036 46.3519 122.706 45.93 122.259C45.5124 121.807 45.3036 121.242 45.3036 120.565C45.3036 120.011 45.4592 119.521 45.7702 119.095C46.0856 118.669 46.5138 118.334 47.055 118.091C47.6005 117.848 48.2184 117.727 48.9087 117.727C49.8803 117.727 50.6431 117.94 51.1971 118.366C51.7553 118.792 52.1516 119.355 52.386 120.054ZM54.8358 127.673V117.855H56.3443V127.673H54.8358ZM55.6028 116.218C55.3088 116.218 55.0552 116.118 54.8422 115.918C54.6333 115.718 54.5289 115.477 54.5289 115.196C54.5289 114.914 54.6333 114.674 54.8422 114.473C55.0552 114.273 55.3088 114.173 55.6028 114.173C55.8968 114.173 56.1483 114.273 56.3571 114.473C56.5701 114.674 56.6767 114.914 56.6767 115.196C56.6767 115.477 56.5701 115.718 56.3571 115.918C56.1483 116.118 55.8968 116.218 55.6028 116.218ZM63.3771 117.855V119.133H58.2891V117.855H63.3771ZM59.772 115.502H61.2805V124.86C61.2805 125.286 61.3423 125.606 61.4659 125.819C61.5938 126.028 61.7557 126.169 61.9517 126.241C62.152 126.309 62.3629 126.343 62.5845 126.343C62.7507 126.343 62.8871 126.335 62.9936 126.318C63.1001 126.296 63.1854 126.279 63.2493 126.267L63.5561 127.622C63.4538 127.66 63.3111 127.698 63.1278 127.737C62.9446 127.779 62.7124 127.801 62.4311 127.801C62.005 127.801 61.5874 127.709 61.1783 127.526C60.7734 127.343 60.4368 127.063 60.1683 126.688C59.9041 126.313 59.772 125.84 59.772 125.269V115.502ZM68.5355 127.903C67.9134 127.903 67.3487 127.786 66.8416 127.551C66.3345 127.313 65.9318 126.97 65.6335 126.522C65.3352 126.071 65.1861 125.525 65.1861 124.886C65.1861 124.323 65.2969 123.867 65.5185 123.518C65.7401 123.164 66.0362 122.887 66.407 122.687C66.7777 122.487 67.1868 122.338 67.6342 122.24C68.0859 122.137 68.5398 122.056 68.9957 121.997C69.5923 121.92 70.076 121.862 70.4467 121.824C70.8217 121.782 71.0945 121.711 71.2649 121.613C71.4396 121.515 71.527 121.345 71.527 121.102V121.051C71.527 120.42 71.3544 119.93 71.0092 119.581C70.6683 119.231 70.1506 119.056 69.456 119.056C68.7358 119.056 68.1712 119.214 67.7621 119.529C67.353 119.845 67.0653 120.181 66.8991 120.539L65.4673 120.028C65.723 119.431 66.0639 118.967 66.4901 118.634C66.9205 118.298 67.3892 118.063 67.8963 117.931C68.4077 117.795 68.9105 117.727 69.4048 117.727C69.7202 117.727 70.0824 117.765 70.4915 117.842C70.9048 117.914 71.3033 118.066 71.6868 118.296C72.0746 118.526 72.3963 118.873 72.652 119.338C72.9077 119.802 73.0355 120.424 73.0355 121.204V127.673H71.527V126.343H71.4503C71.348 126.556 71.1776 126.784 70.9389 127.027C70.7003 127.27 70.3828 127.477 69.9865 127.647C69.5902 127.818 69.1065 127.903 68.5355 127.903ZM68.7656 126.548C69.3622 126.548 69.8651 126.431 70.2741 126.196C70.6875 125.962 70.9986 125.659 71.2074 125.289C71.4205 124.918 71.527 124.528 71.527 124.119V122.738C71.4631 122.815 71.3224 122.885 71.1051 122.949C70.892 123.009 70.6449 123.062 70.3636 123.109C70.0866 123.152 69.8161 123.19 69.5518 123.224C69.2919 123.254 69.081 123.279 68.919 123.301C68.527 123.352 68.1605 123.435 67.8196 123.55C67.483 123.661 67.2102 123.829 67.0014 124.055C66.7969 124.277 66.6946 124.579 66.6946 124.963C66.6946 125.487 66.8885 125.883 67.2763 126.152C67.6683 126.416 68.1648 126.548 68.7656 126.548ZM68.8679 116.525L66.8736 113.559H68.6378L70.1974 116.525H68.8679ZM87.8059 120.054L86.4508 120.437C86.3656 120.211 86.2399 119.992 86.0737 119.779C85.9118 119.561 85.6902 119.382 85.4089 119.242C85.1277 119.101 84.7676 119.031 84.3287 119.031C83.7278 119.031 83.2271 119.169 82.8265 119.446C82.4302 119.719 82.2321 120.066 82.2321 120.488C82.2321 120.863 82.3684 121.159 82.6412 121.377C82.9139 121.594 83.34 121.775 83.9196 121.92L85.377 122.278C86.2548 122.491 86.9089 122.817 87.3393 123.256C87.7697 123.691 87.9849 124.251 87.9849 124.937C87.9849 125.5 87.823 126.002 87.4991 126.446C87.1795 126.889 86.7321 127.238 86.1568 127.494C85.5815 127.75 84.9125 127.877 84.1497 127.877C83.1483 127.877 82.3194 127.66 81.6632 127.225C81.0069 126.791 80.5914 126.156 80.4167 125.321L81.8485 124.963C81.9849 125.491 82.2427 125.887 82.622 126.152C83.0055 126.416 83.5062 126.548 84.1241 126.548C84.8272 126.548 85.3855 126.399 85.7988 126.1C86.2164 125.798 86.4252 125.436 86.4252 125.014C86.4252 124.673 86.3059 124.387 86.0673 124.157C85.8287 123.923 85.4622 123.748 84.9679 123.633L83.3315 123.25C82.4324 123.036 81.7718 122.706 81.35 122.259C80.9324 121.807 80.7235 121.242 80.7235 120.565C80.7235 120.011 80.8791 119.521 81.1902 119.095C81.5055 118.669 81.9338 118.334 82.475 118.091C83.0204 117.848 83.6383 117.727 84.3287 117.727C85.3002 117.727 86.063 117.94 86.617 118.366C87.1752 118.792 87.5716 119.355 87.8059 120.054ZM94.2443 127.877C93.358 127.877 92.5803 127.666 91.9112 127.245C91.2464 126.823 90.7266 126.233 90.3516 125.474C89.9808 124.715 89.7955 123.829 89.7955 122.815C89.7955 121.792 89.9808 120.899 90.3516 120.137C90.7266 119.374 91.2464 118.782 91.9112 118.36C92.5803 117.938 93.358 117.727 94.2443 117.727C95.1307 117.727 95.9063 117.938 96.571 118.36C97.2401 118.782 97.7599 119.374 98.1307 120.137C98.5057 120.899 98.6932 121.792 98.6932 122.815C98.6932 123.829 98.5057 124.715 98.1307 125.474C97.7599 126.233 97.2401 126.823 96.571 127.245C95.9063 127.666 95.1307 127.877 94.2443 127.877ZM94.2443 126.522C94.9176 126.522 95.4716 126.35 95.9062 126.005C96.3409 125.659 96.6626 125.206 96.8714 124.643C97.0803 124.081 97.1847 123.471 97.1847 122.815C97.1847 122.159 97.0803 121.547 96.8714 120.98C96.6626 120.414 96.3409 119.956 95.9062 119.606C95.4716 119.257 94.9176 119.082 94.2443 119.082C93.571 119.082 93.017 119.257 92.5824 119.606C92.1477 119.956 91.826 120.414 91.6172 120.98C91.4084 121.547 91.304 122.159 91.304 122.815C91.304 123.471 91.4084 124.081 91.6172 124.643C91.826 125.206 92.1477 125.659 92.5824 126.005C93.017 126.35 93.571 126.522 94.2443 126.522ZM104.985 127.877C104.064 127.877 103.271 127.66 102.607 127.225C101.942 126.791 101.431 126.192 101.073 125.429C100.715 124.666 100.536 123.795 100.536 122.815C100.536 121.818 100.719 120.938 101.085 120.175C101.456 119.408 101.972 118.809 102.632 118.379C103.297 117.944 104.073 117.727 104.959 117.727C105.649 117.727 106.271 117.855 106.825 118.11C107.379 118.366 107.833 118.724 108.187 119.184C108.541 119.644 108.76 120.181 108.845 120.795H107.337C107.222 120.348 106.966 119.951 106.57 119.606C106.178 119.257 105.649 119.082 104.985 119.082C104.396 119.082 103.881 119.235 103.438 119.542C102.999 119.845 102.656 120.273 102.409 120.827C102.166 121.377 102.044 122.022 102.044 122.764C102.044 123.522 102.164 124.183 102.402 124.745C102.645 125.308 102.986 125.745 103.425 126.056C103.868 126.367 104.388 126.522 104.985 126.522C105.377 126.522 105.732 126.454 106.052 126.318C106.372 126.181 106.642 125.985 106.864 125.73C107.085 125.474 107.243 125.167 107.337 124.809H108.845C108.76 125.389 108.549 125.911 108.213 126.375C107.88 126.835 107.439 127.202 106.889 127.475C106.344 127.743 105.709 127.877 104.985 127.877ZM111.051 127.673V117.855H112.559V127.673H111.051ZM111.818 116.218C111.524 116.218 111.27 116.118 111.057 115.918C110.848 115.718 110.744 115.477 110.744 115.196C110.744 114.914 110.848 114.674 111.057 114.473C111.27 114.273 111.524 114.173 111.818 114.173C112.112 114.173 112.363 114.273 112.572 114.473C112.785 114.674 112.892 114.914 112.892 115.196C112.892 115.477 112.785 115.718 112.572 115.918C112.363 116.118 112.112 116.218 111.818 116.218ZM119.311 127.877C118.424 127.877 117.647 127.666 116.978 127.245C116.313 126.823 115.793 126.233 115.418 125.474C115.047 124.715 114.862 123.829 114.862 122.815C114.862 121.792 115.047 120.899 115.418 120.137C115.793 119.374 116.313 118.782 116.978 118.36C117.647 117.938 118.424 117.727 119.311 117.727C120.197 117.727 120.973 117.938 121.637 118.36C122.306 118.782 122.826 119.374 123.197 120.137C123.572 120.899 123.76 121.792 123.76 122.815C123.76 123.829 123.572 124.715 123.197 125.474C122.826 126.233 122.306 126.823 121.637 127.245C120.973 127.666 120.197 127.877 119.311 127.877ZM119.311 126.522C119.984 126.522 120.538 126.35 120.973 126.005C121.407 125.659 121.729 125.206 121.938 124.643C122.147 124.081 122.251 123.471 122.251 122.815C122.251 122.159 122.147 121.547 121.938 120.98C121.729 120.414 121.407 119.956 120.973 119.606C120.538 119.257 119.984 119.082 119.311 119.082C118.637 119.082 118.083 119.257 117.649 119.606C117.214 119.956 116.892 120.414 116.684 120.98C116.475 121.547 116.37 122.159 116.37 122.815C116.37 123.471 116.475 124.081 116.684 124.643C116.892 125.206 117.214 125.659 117.649 126.005C118.083 126.35 118.637 126.522 119.311 126.522ZM131.687 121.358V122.764H125.96V121.358H131.687ZM138.049 127.877C137.231 127.877 136.509 127.671 135.882 127.257C135.256 126.84 134.766 126.252 134.412 125.493C134.058 124.73 133.881 123.829 133.881 122.789C133.881 121.758 134.058 120.863 134.412 120.105C134.766 119.346 135.258 118.76 135.888 118.347C136.519 117.934 137.248 117.727 138.075 117.727C138.714 117.727 139.219 117.833 139.589 118.046C139.964 118.255 140.25 118.494 140.446 118.762C140.646 119.027 140.802 119.244 140.913 119.414H141.04V114.582H142.549V127.673H141.092V126.164H140.913C140.802 126.343 140.644 126.569 140.44 126.842C140.235 127.11 139.943 127.351 139.564 127.564C139.185 127.773 138.68 127.877 138.049 127.877ZM138.254 126.522C138.859 126.522 139.37 126.365 139.788 126.049C140.205 125.73 140.523 125.289 140.74 124.726C140.957 124.159 141.066 123.505 141.066 122.764C141.066 122.031 140.96 121.389 140.746 120.84C140.533 120.286 140.218 119.855 139.8 119.549C139.383 119.237 138.867 119.082 138.254 119.082C137.614 119.082 137.082 119.246 136.656 119.574C136.234 119.898 135.916 120.339 135.703 120.897C135.494 121.451 135.39 122.073 135.39 122.764C135.39 123.463 135.496 124.098 135.71 124.669C135.927 125.235 136.246 125.687 136.668 126.024C137.094 126.356 137.623 126.522 138.254 126.522ZM149.638 127.877C148.692 127.877 147.876 127.669 147.19 127.251C146.508 126.829 145.982 126.241 145.611 125.487C145.244 124.728 145.061 123.846 145.061 122.84C145.061 121.835 145.244 120.948 145.611 120.181C145.982 119.41 146.497 118.809 147.158 118.379C147.822 117.944 148.598 117.727 149.484 117.727C149.996 117.727 150.501 117.812 150.999 117.983C151.498 118.153 151.952 118.43 152.361 118.813C152.77 119.193 153.096 119.696 153.339 120.322C153.582 120.948 153.703 121.72 153.703 122.636V123.275H146.135V121.971H152.169C152.169 121.417 152.058 120.923 151.837 120.488C151.619 120.054 151.308 119.71 150.903 119.459C150.503 119.208 150.03 119.082 149.484 119.082C148.884 119.082 148.364 119.231 147.925 119.529C147.49 119.823 147.156 120.207 146.921 120.68C146.687 121.153 146.57 121.66 146.57 122.201V123.071C146.57 123.812 146.697 124.441 146.953 124.956C147.213 125.468 147.573 125.858 148.033 126.126C148.494 126.39 149.028 126.522 149.638 126.522C150.034 126.522 150.392 126.467 150.712 126.356C151.036 126.241 151.315 126.071 151.549 125.845C151.783 125.615 151.964 125.329 152.092 124.988L153.55 125.397C153.396 125.892 153.138 126.326 152.776 126.701C152.414 127.072 151.967 127.362 151.434 127.571C150.901 127.775 150.303 127.877 149.638 127.877ZM155.998 127.673V117.855H157.455V119.389H157.583C157.788 118.865 158.118 118.458 158.574 118.168C159.03 117.874 159.577 117.727 160.217 117.727C160.864 117.727 161.403 117.874 161.834 118.168C162.268 118.458 162.607 118.865 162.85 119.389H162.952C163.204 118.882 163.581 118.479 164.084 118.181C164.587 117.878 165.19 117.727 165.893 117.727C166.771 117.727 167.489 118.002 168.047 118.551C168.605 119.097 168.884 119.947 168.884 121.102V127.673H167.376V121.102C167.376 120.377 167.178 119.86 166.781 119.549C166.385 119.237 165.918 119.082 165.381 119.082C164.691 119.082 164.156 119.291 163.777 119.708C163.398 120.122 163.208 120.646 163.208 121.281V127.673H161.674V120.948C161.674 120.39 161.493 119.941 161.131 119.6C160.768 119.255 160.302 119.082 159.731 119.082C159.339 119.082 158.972 119.186 158.631 119.395C158.295 119.604 158.022 119.894 157.813 120.264C157.609 120.631 157.506 121.055 157.506 121.536V127.673H155.998ZM175.631 127.877C174.745 127.877 173.967 127.666 173.298 127.245C172.633 126.823 172.113 126.233 171.738 125.474C171.368 124.715 171.182 123.829 171.182 122.815C171.182 121.792 171.368 120.899 171.738 120.137C172.113 119.374 172.633 118.782 173.298 118.36C173.967 117.938 174.745 117.727 175.631 117.727C176.517 117.727 177.293 117.938 177.958 118.36C178.627 118.782 179.147 119.374 179.517 120.137C179.892 120.899 180.08 121.792 180.08 122.815C180.08 123.829 179.892 124.715 179.517 125.474C179.147 126.233 178.627 126.823 177.958 127.245C177.293 127.666 176.517 127.877 175.631 127.877ZM175.631 126.522C176.304 126.522 176.858 126.35 177.293 126.005C177.728 125.659 178.049 125.206 178.258 124.643C178.467 124.081 178.571 123.471 178.571 122.815C178.571 122.159 178.467 121.547 178.258 120.98C178.049 120.414 177.728 119.956 177.293 119.606C176.858 119.257 176.304 119.082 175.631 119.082C174.958 119.082 174.404 119.257 173.969 119.606C173.534 119.956 173.213 120.414 173.004 120.98C172.795 121.547 172.691 122.159 172.691 122.815C172.691 123.471 172.795 124.081 173.004 124.643C173.213 125.206 173.534 125.659 173.969 126.005C174.404 126.35 174.958 126.522 175.631 126.522ZM186.346 131.559C185.617 131.559 184.991 131.465 184.466 131.278C183.942 131.095 183.506 130.852 183.156 130.549C182.811 130.251 182.536 129.931 182.331 129.59L183.533 128.747C183.67 128.926 183.842 129.13 184.051 129.36C184.26 129.595 184.545 129.797 184.907 129.968C185.274 130.142 185.753 130.23 186.346 130.23C187.138 130.23 187.792 130.038 188.308 129.654C188.824 129.271 189.081 128.67 189.081 127.852V125.858H188.954C188.843 126.036 188.685 126.258 188.481 126.522C188.28 126.782 187.991 127.014 187.611 127.219C187.236 127.419 186.729 127.519 186.09 127.519C185.297 127.519 184.586 127.332 183.955 126.957C183.329 126.582 182.832 126.036 182.466 125.321C182.104 124.605 181.922 123.735 181.922 122.713C181.922 121.707 182.099 120.831 182.453 120.085C182.807 119.335 183.299 118.756 183.93 118.347C184.56 117.934 185.289 117.727 186.116 117.727C186.755 117.727 187.262 117.833 187.637 118.046C188.016 118.255 188.306 118.494 188.506 118.762C188.711 119.027 188.868 119.244 188.979 119.414H189.133V117.855H190.59V127.954C190.59 128.798 190.398 129.484 190.015 130.012C189.635 130.545 189.124 130.935 188.481 131.182C187.841 131.434 187.13 131.559 186.346 131.559ZM186.295 126.164C186.9 126.164 187.411 126.026 187.829 125.749C188.246 125.472 188.564 125.073 188.781 124.554C188.998 124.034 189.107 123.411 189.107 122.687C189.107 121.98 189.001 121.355 188.787 120.814C188.574 120.273 188.259 119.849 187.841 119.542C187.424 119.235 186.908 119.082 186.295 119.082C185.655 119.082 185.123 119.244 184.697 119.568C184.275 119.892 183.957 120.326 183.744 120.872C183.535 121.417 183.431 122.022 183.431 122.687C183.431 123.369 183.537 123.972 183.751 124.496C183.968 125.016 184.287 125.425 184.709 125.723C185.135 126.017 185.664 126.164 186.295 126.164ZM193.351 127.673V117.855H194.809V119.338H194.911C195.09 118.852 195.414 118.458 195.883 118.155C196.351 117.853 196.88 117.701 197.468 117.701C197.579 117.701 197.717 117.703 197.883 117.708C198.05 117.712 198.175 117.718 198.26 117.727V119.261C198.209 119.248 198.092 119.229 197.909 119.203C197.73 119.174 197.54 119.159 197.34 119.159C196.863 119.159 196.437 119.259 196.062 119.459C195.691 119.655 195.397 119.928 195.18 120.277C194.966 120.622 194.86 121.017 194.86 121.46V127.673H193.351ZM202.938 127.903C202.316 127.903 201.751 127.786 201.244 127.551C200.737 127.313 200.334 126.97 200.036 126.522C199.738 126.071 199.588 125.525 199.588 124.886C199.588 124.323 199.699 123.867 199.921 123.518C200.142 123.164 200.439 122.887 200.809 122.687C201.18 122.487 201.589 122.338 202.037 122.24C202.488 122.137 202.942 122.056 203.398 121.997C203.995 121.92 204.478 121.862 204.849 121.824C205.224 121.782 205.497 121.711 205.667 121.613C205.842 121.515 205.929 121.345 205.929 121.102V121.051C205.929 120.42 205.757 119.93 205.412 119.581C205.071 119.231 204.553 119.056 203.858 119.056C203.138 119.056 202.574 119.214 202.164 119.529C201.755 119.845 201.468 120.181 201.301 120.539L199.87 120.028C200.125 119.431 200.466 118.967 200.892 118.634C201.323 118.298 201.792 118.063 202.299 117.931C202.81 117.795 203.313 117.727 203.807 117.727C204.123 117.727 204.485 117.765 204.894 117.842C205.307 117.914 205.706 118.066 206.089 118.296C206.477 118.526 206.799 118.873 207.054 119.338C207.31 119.802 207.438 120.424 207.438 121.204V127.673H205.929V126.343H205.853C205.75 126.556 205.58 126.784 205.341 127.027C205.103 127.27 204.785 127.477 204.389 127.647C203.993 127.818 203.509 127.903 202.938 127.903ZM203.168 126.548C203.765 126.548 204.267 126.431 204.676 126.196C205.09 125.962 205.401 125.659 205.61 125.289C205.823 124.918 205.929 124.528 205.929 124.119V122.738C205.865 122.815 205.725 122.885 205.507 122.949C205.294 123.009 205.047 123.062 204.766 123.109C204.489 123.152 204.218 123.19 203.954 123.224C203.694 123.254 203.483 123.279 203.321 123.301C202.929 123.352 202.563 123.435 202.222 123.55C201.885 123.661 201.613 123.829 201.404 124.055C201.199 124.277 201.097 124.579 201.097 124.963C201.097 125.487 201.291 125.883 201.679 126.152C202.071 126.416 202.567 126.548 203.168 126.548ZM214.563 117.855V119.133H209.271V117.855H214.563ZM210.856 127.673V116.5C210.856 115.937 210.988 115.468 211.252 115.093C211.517 114.718 211.86 114.437 212.281 114.25C212.703 114.062 213.149 113.968 213.617 113.968C213.988 113.968 214.291 113.998 214.525 114.058C214.759 114.117 214.934 114.173 215.049 114.224L214.615 115.528C214.538 115.502 214.431 115.47 214.295 115.432C214.163 115.394 213.988 115.375 213.771 115.375C213.272 115.375 212.912 115.5 212.691 115.752C212.473 116.003 212.365 116.372 212.365 116.858V127.673H210.856ZM216.678 127.673V117.855H218.186V127.673H216.678ZM217.445 116.218C217.151 116.218 216.897 116.118 216.684 115.918C216.475 115.718 216.371 115.477 216.371 115.196C216.371 114.914 216.475 114.674 216.684 114.473C216.897 114.273 217.151 114.173 217.445 114.173C217.739 114.173 217.99 114.273 218.199 114.473C218.412 114.674 218.518 114.914 218.518 115.196C218.518 115.477 218.412 115.718 218.199 115.918C217.99 116.118 217.739 116.218 217.445 116.218ZM224.938 127.877C224.017 127.877 223.225 127.66 222.56 127.225C221.895 126.791 221.384 126.192 221.026 125.429C220.668 124.666 220.489 123.795 220.489 122.815C220.489 121.818 220.672 120.938 221.039 120.175C221.409 119.408 221.925 118.809 222.585 118.379C223.25 117.944 224.026 117.727 224.912 117.727C225.602 117.727 226.225 117.855 226.779 118.11C227.333 118.366 227.786 118.724 228.14 119.184C228.494 119.644 228.713 120.181 228.798 120.795H227.29C227.175 120.348 226.919 119.951 226.523 119.606C226.131 119.257 225.602 119.082 224.938 119.082C224.35 119.082 223.834 119.235 223.391 119.542C222.952 119.845 222.609 120.273 222.362 120.827C222.119 121.377 221.997 122.022 221.997 122.764C221.997 123.522 222.117 124.183 222.355 124.745C222.598 125.308 222.939 125.745 223.378 126.056C223.821 126.367 224.341 126.522 224.938 126.522C225.33 126.522 225.686 126.454 226.005 126.318C226.325 126.181 226.595 125.985 226.817 125.73C227.039 125.474 227.196 125.167 227.29 124.809H228.798C228.713 125.389 228.502 125.911 228.166 126.375C227.833 126.835 227.392 127.202 226.843 127.475C226.297 127.743 225.662 127.877 224.938 127.877ZM233.893 127.903C233.271 127.903 232.706 127.786 232.199 127.551C231.692 127.313 231.289 126.97 230.991 126.522C230.693 126.071 230.544 125.525 230.544 124.886C230.544 124.323 230.654 123.867 230.876 123.518C231.097 123.164 231.394 122.887 231.764 122.687C232.135 122.487 232.544 122.338 232.992 122.24C233.443 122.137 233.897 122.056 234.353 121.997C234.95 121.92 235.433 121.862 235.804 121.824C236.179 121.782 236.452 121.711 236.622 121.613C236.797 121.515 236.884 121.345 236.884 121.102V121.051C236.884 120.42 236.712 119.93 236.367 119.581C236.026 119.231 235.508 119.056 234.813 119.056C234.093 119.056 233.529 119.214 233.119 119.529C232.71 119.845 232.423 120.181 232.257 120.539L230.825 120.028C231.08 119.431 231.421 118.967 231.847 118.634C232.278 118.298 232.747 118.063 233.254 117.931C233.765 117.795 234.268 117.727 234.762 117.727C235.078 117.727 235.44 117.765 235.849 117.842C236.262 117.914 236.661 118.066 237.044 118.296C237.432 118.526 237.754 118.873 238.009 119.338C238.265 119.802 238.393 120.424 238.393 121.204V127.673H236.884V126.343H236.808C236.705 126.556 236.535 126.784 236.296 127.027C236.058 127.27 235.74 127.477 235.344 127.647C234.948 127.818 234.464 127.903 233.893 127.903ZM234.123 126.548C234.72 126.548 235.222 126.431 235.632 126.196C236.045 125.962 236.356 125.659 236.565 125.289C236.778 124.918 236.884 124.528 236.884 124.119V122.738C236.82 122.815 236.68 122.885 236.463 122.949C236.249 123.009 236.002 123.062 235.721 123.109C235.444 123.152 235.173 123.19 234.909 123.224C234.649 123.254 234.438 123.279 234.276 123.301C233.884 123.352 233.518 123.435 233.177 123.55C232.84 123.661 232.568 123.829 232.359 124.055C232.154 124.277 232.052 124.579 232.052 124.963C232.052 125.487 232.246 125.883 232.634 126.152C233.026 126.416 233.522 126.548 234.123 126.548Z" fill="white"/>
<circle cx="510.69" cy="26.4027" r="6.20106" fill="#FF454D" stroke="#FF454D"/>
<circle cx="540.093" cy="26.4027" r="6.20106" fill="#FF454D" stroke="#FF454D"/>
<circle cx="569.494" cy="26.4027" r="6.20106" stroke="white"/>
<circle cx="598.896" cy="26.4027" r="6.20106" stroke="white"/>
<circle cx="628.299" cy="26.4027" r="6.20106" stroke="white"/>
<circle cx="510.69" cy="75.7016" r="6.20106" fill="#FF454D" stroke="#FF454D"/>
<circle cx="540.093" cy="75.7016" r="6.20106" fill="#FF454D" stroke="#FF454D"/>
<circle cx="569.494" cy="75.7016" r="6.20106" fill="#FF454D" stroke="#FF454D"/>
<circle cx="598.896" cy="75.7016" r="6.20106" fill="#FF454D" stroke="#FF454D"/>
<circle cx="628.299" cy="75.7016" r="6.20106" stroke="white"/>
<circle cx="510.69" cy="125" r="6.20106" fill="#FF454D" stroke="#FF454D"/>
<circle cx="540.093" cy="125" r="6.20106" fill="#FF454D" stroke="#FF454D"/>
<circle cx="569.494" cy="125" r="6.20106" fill="#FF454D" stroke="#FF454D"/>
<circle cx="598.896" cy="125" r="6.20106" fill="#FF454D" stroke="#FF454D"/>
<circle cx="628.299" cy="125" r="6.20106" stroke="white"/>
<circle cx="510.69" cy="174.299" r="6.20106" fill="#FF454D" stroke="#FF454D"/>
<circle cx="540.093" cy="174.299" r="6.20106" fill="#FF454D" stroke="#FF454D"/>
<circle cx="569.494" cy="174.299" r="6.20106" stroke="white"/>
<circle cx="598.896" cy="174.299" r="6.20106" stroke="white"/>
<circle cx="628.299" cy="174.299" r="6.20106" stroke="white"/>
<circle cx="510.69" cy="223.598" r="6.20106" fill="#FF454D" stroke="#FF454D"/>
<circle cx="540.093" cy="223.598" r="6.20106" fill="#FF454D" stroke="#FF454D"/>
<circle cx="569.494" cy="223.598" r="6.20106" fill="#FF454D" stroke="#FF454D"/>
<circle cx="598.896" cy="223.598" r="6.20106" fill="#FF454D" stroke="#FF454D"/>
<circle cx="628.299" cy="223.598" r="6.20106" stroke="white"/>
<path d="M0 0.70166L635 0.701605" stroke="white" stroke-width="0.5"/>
<path d="M0 50.7017L635 50.7016" stroke="white" stroke-width="0.5"/>
<path d="M0 100.702L635 100.702" stroke="white" stroke-width="0.5"/>
<path d="M0 150.702L635 150.702" stroke="white" stroke-width="0.5"/>
<path d="M0 200.702L635 200.702" stroke="white" stroke-width="0.5"/>
<path d="M0 250.702L635 250.702" stroke="white" stroke-width="0.5"/>
</svg>
