<svg width="635" height="251" viewBox="0 0 635 251" fill="none" xmlns="http://www.w3.org/2000/svg">
<path d="M11.9659 14.3783V27.4692H10.4318L3.2983 17.1908H3.17045V27.4692H1.58523V14.3783H3.11932L10.2784 24.6823H10.4062V14.3783H11.9659ZM21.1209 23.455V17.6511H22.6294V27.4692H21.1209V25.8073H21.0186C20.7885 26.3059 20.4306 26.7299 19.9448 27.0793C19.459 27.4245 18.8453 27.5971 18.1039 27.5971C17.4902 27.5971 16.9448 27.4628 16.4675 27.1944C15.9902 26.9217 15.6152 26.5126 15.3425 25.9671C15.0698 25.4174 14.9334 24.7249 14.9334 23.8897V17.6511H16.4419V23.7874C16.4419 24.5033 16.6422 25.0744 17.0428 25.5005C17.4476 25.9266 17.9632 26.1397 18.5897 26.1397C18.9647 26.1397 19.3461 26.0438 19.7338 25.8521C20.1259 25.6603 20.454 25.3663 20.7182 24.9699C20.9867 24.5736 21.1209 24.0687 21.1209 23.455ZM29.381 27.6738C28.4947 27.6738 27.717 27.4628 27.0479 27.041C26.3832 26.6191 25.8633 26.0289 25.4883 25.2704C25.1175 24.5119 24.9322 23.6255 24.9322 22.6113C24.9322 21.5886 25.1175 20.6958 25.4883 19.933C25.8633 19.1702 26.3832 18.5779 27.0479 18.156C27.717 17.7342 28.4947 17.5232 29.381 17.5232C30.2674 17.5232 31.043 17.7342 31.7077 18.156C32.3768 18.5779 32.8967 19.1702 33.2674 19.933C33.6424 20.6958 33.8299 21.5886 33.8299 22.6113C33.8299 23.6255 33.6424 24.5119 33.2674 25.2704C32.8967 26.0289 32.3768 26.6191 31.7077 27.041C31.043 27.4628 30.2674 27.6738 29.381 27.6738ZM29.381 26.3187C30.0543 26.3187 30.6083 26.1461 31.043 25.8009C31.4776 25.4557 31.7994 25.0019 32.0082 24.4394C32.217 23.8769 32.3214 23.2675 32.3214 22.6113C32.3214 21.955 32.217 21.3435 32.0082 20.7768C31.7994 20.21 31.4776 19.7519 31.043 19.4025C30.6083 19.053 30.0543 18.8783 29.381 18.8783C28.7077 18.8783 28.1538 19.053 27.7191 19.4025C27.2844 19.7519 26.9627 20.21 26.7539 20.7768C26.5451 21.3435 26.4407 21.955 26.4407 22.6113C26.4407 23.2675 26.5451 23.8769 26.7539 24.4394C26.9627 25.0019 27.2844 25.4557 27.7191 25.8009C28.1538 26.1461 28.7077 26.3187 29.381 26.3187ZM43.8095 17.6511L40.1788 27.4692H38.6447L35.014 17.6511H36.6504L39.3606 25.4749H39.4629L42.1731 17.6511H43.8095ZM45.8006 27.4692V17.6511H47.3091V27.4692H45.8006ZM46.5676 16.0147C46.2736 16.0147 46.0201 15.9146 45.807 15.7143C45.5982 15.514 45.4938 15.2732 45.4938 14.992C45.4938 14.7107 45.5982 14.4699 45.807 14.2697C46.0201 14.0694 46.2736 13.9692 46.5676 13.9692C46.8617 13.9692 47.1131 14.0694 47.3219 14.2697C47.535 14.4699 47.6415 14.7107 47.6415 14.992C47.6415 15.2732 47.535 15.514 47.3219 15.7143C47.1131 15.9146 46.8617 16.0147 46.5676 16.0147ZM63.163 17.6511L59.5323 27.4692H57.9982L54.3675 17.6511H56.0039L58.7141 25.4749H58.8164L61.5266 17.6511H63.163ZM68.7912 27.6738C67.9048 27.6738 67.1271 27.4628 66.4581 27.041C65.7933 26.6191 65.2734 26.0289 64.8984 25.2704C64.5277 24.5119 64.3423 23.6255 64.3423 22.6113C64.3423 21.5886 64.5277 20.6958 64.8984 19.933C65.2734 19.1702 65.7933 18.5779 66.4581 18.156C67.1271 17.7342 67.9048 17.5232 68.7912 17.5232C69.6776 17.5232 70.4531 17.7342 71.1179 18.156C71.7869 18.5779 72.3068 19.1702 72.6776 19.933C73.0526 20.6958 73.2401 21.5886 73.2401 22.6113C73.2401 23.6255 73.0526 24.5119 72.6776 25.2704C72.3068 26.0289 71.7869 26.6191 71.1179 27.041C70.4531 27.4628 69.6776 27.6738 68.7912 27.6738ZM68.7912 26.3187C69.4645 26.3187 70.0185 26.1461 70.4531 25.8009C70.8878 25.4557 71.2095 25.0019 71.4183 24.4394C71.6271 23.8769 71.7315 23.2675 71.7315 22.6113C71.7315 21.955 71.6271 21.3435 71.4183 20.7768C71.2095 20.21 70.8878 19.7519 70.4531 19.4025C70.0185 19.053 69.4645 18.8783 68.7912 18.8783C68.1179 18.8783 67.5639 19.053 67.1293 19.4025C66.6946 19.7519 66.3729 20.21 66.1641 20.7768C65.9553 21.3435 65.8509 21.955 65.8509 22.6113C65.8509 23.2675 65.9553 23.8769 66.1641 24.4394C66.3729 25.0019 66.6946 25.4557 67.1293 25.8009C67.5639 26.1461 68.1179 26.3187 68.7912 26.3187ZM77.0513 14.3783V27.4692H75.5428V14.3783H77.0513ZM83.8029 27.6738C82.9165 27.6738 82.1388 27.4628 81.4698 27.041C80.805 26.6191 80.2852 26.0289 79.9102 25.2704C79.5394 24.5119 79.354 23.6255 79.354 22.6113C79.354 21.5886 79.5394 20.6958 79.9102 19.933C80.2852 19.1702 80.805 18.5779 81.4698 18.156C82.1388 17.7342 82.9165 17.5232 83.8029 17.5232C84.6893 17.5232 85.4648 17.7342 86.1296 18.156C86.7987 18.5779 87.3185 19.1702 87.6893 19.933C88.0643 20.6958 88.2518 21.5886 88.2518 22.6113C88.2518 23.6255 88.0643 24.5119 87.6893 25.2704C87.3185 26.0289 86.7987 26.6191 86.1296 27.041C85.4648 27.4628 84.6893 27.6738 83.8029 27.6738ZM83.8029 26.3187C84.4762 26.3187 85.0302 26.1461 85.4648 25.8009C85.8995 25.4557 86.2212 25.0019 86.43 24.4394C86.6388 23.8769 86.7433 23.2675 86.7433 22.6113C86.7433 21.955 86.6388 21.3435 86.43 20.7768C86.2212 20.21 85.8995 19.7519 85.4648 19.4025C85.0302 19.053 84.4762 18.8783 83.8029 18.8783C83.1296 18.8783 82.5756 19.053 82.141 19.4025C81.7063 19.7519 81.3846 20.21 81.1758 20.7768C80.967 21.3435 80.8626 21.955 80.8626 22.6113C80.8626 23.2675 80.967 23.8769 81.1758 24.4394C81.3846 25.0019 81.7063 25.4557 82.141 25.8009C82.5756 26.1461 83.1296 26.3187 83.8029 26.3187ZM92.063 21.563V27.4692H90.5545V17.6511H92.0119V19.1851H92.1397C92.3699 18.6866 92.7193 18.286 93.188 17.9834C93.6568 17.6766 94.2619 17.5232 95.0034 17.5232C95.6681 17.5232 96.2498 17.6596 96.7484 17.9323C97.247 18.2008 97.6348 18.6099 97.9118 19.1596C98.1887 19.705 98.3272 20.3954 98.3272 21.2306V27.4692H96.8187V21.3329C96.8187 20.5616 96.6184 19.9607 96.2179 19.5303C95.8173 19.0957 95.2676 18.8783 94.5687 18.8783C94.0872 18.8783 93.6568 18.9827 93.2775 19.1915C92.9025 19.4003 92.6064 19.705 92.389 20.1056C92.1717 20.5062 92.063 20.992 92.063 21.563ZM105.354 17.6511V18.9295H100.266V17.6511H105.354ZM101.749 15.2988H103.257V24.6567C103.257 25.0829 103.319 25.4025 103.442 25.6155C103.57 25.8244 103.732 25.965 103.928 26.0374C104.129 26.1056 104.339 26.1397 104.561 26.1397C104.727 26.1397 104.864 26.1312 104.97 26.1141C105.077 26.0928 105.162 26.0758 105.226 26.063L105.533 27.4181C105.43 27.4565 105.288 27.4948 105.104 27.5332C104.921 27.5758 104.689 27.5971 104.408 27.5971C103.982 27.5971 103.564 27.5055 103.155 27.3222C102.75 27.139 102.413 26.8599 102.145 26.4849C101.881 26.1099 101.749 25.6369 101.749 25.0658V15.2988ZM110.512 27.6994C109.89 27.6994 109.325 27.5822 108.818 27.3478C108.311 27.1092 107.908 26.7661 107.61 26.3187C107.312 25.867 107.163 25.3215 107.163 24.6823C107.163 24.1198 107.273 23.6638 107.495 23.3144C107.717 22.9607 108.013 22.6837 108.384 22.4834C108.754 22.2832 109.163 22.134 109.611 22.036C110.063 21.9337 110.516 21.8528 110.972 21.7931C111.569 21.7164 112.053 21.6589 112.423 21.6205C112.798 21.5779 113.071 21.5076 113.241 21.4096C113.416 21.3116 113.504 21.1411 113.504 20.8982V20.8471C113.504 20.2164 113.331 19.7263 112.986 19.3769C112.645 19.0275 112.127 18.8528 111.433 18.8528C110.712 18.8528 110.148 19.0104 109.739 19.3258C109.33 19.6411 109.042 19.9778 108.876 20.3357L107.444 19.8244C107.7 19.2278 108.04 18.7633 108.467 18.4309C108.897 18.0942 109.366 17.8599 109.873 17.7278C110.384 17.5914 110.887 17.5232 111.381 17.5232C111.697 17.5232 112.059 17.5616 112.468 17.6383C112.881 17.7107 113.28 17.862 113.663 18.0921C114.051 18.3222 114.373 18.6695 114.629 19.134C114.884 19.5985 115.012 20.2207 115.012 21.0005V27.4692H113.504V26.1397H113.427C113.325 26.3528 113.154 26.5807 112.915 26.8236C112.677 27.0665 112.359 27.2732 111.963 27.4437C111.567 27.6141 111.083 27.6994 110.512 27.6994ZM110.742 26.3442C111.339 26.3442 111.842 26.2271 112.251 25.9927C112.664 25.7583 112.975 25.4557 113.184 25.085C113.397 24.7143 113.504 24.3244 113.504 23.9153V22.5346C113.44 22.6113 113.299 22.6816 113.082 22.7455C112.869 22.8052 112.621 22.8584 112.34 22.9053C112.063 22.9479 111.793 22.9863 111.528 23.0204C111.268 23.0502 111.058 23.0758 110.896 23.0971C110.504 23.1482 110.137 23.2313 109.796 23.3464C109.46 23.4572 109.187 23.6255 108.978 23.8513C108.773 24.0729 108.671 24.3755 108.671 24.759C108.671 25.2832 108.865 25.6795 109.253 25.9479C109.645 26.2121 110.141 26.3442 110.742 26.3442ZM117.765 27.4692V17.6511H119.223V19.134H119.325C119.504 18.6482 119.828 18.254 120.297 17.9515C120.765 17.6489 121.294 17.4976 121.882 17.4976C121.993 17.4976 122.131 17.4998 122.297 17.504C122.464 17.5083 122.589 17.5147 122.675 17.5232V19.0573C122.623 19.0445 122.506 19.0253 122.323 18.9998C122.144 18.9699 121.954 18.955 121.754 18.955C121.277 18.955 120.851 19.0552 120.476 19.2555C120.105 19.4515 119.811 19.7242 119.594 20.0736C119.381 20.4188 119.274 20.813 119.274 21.2562V27.4692H117.765ZM124.463 27.4692V17.6511H125.971V27.4692H124.463ZM125.23 16.0147C124.936 16.0147 124.682 15.9146 124.469 15.7143C124.26 15.514 124.156 15.2732 124.156 14.992C124.156 14.7107 124.26 14.4699 124.469 14.2697C124.682 14.0694 124.936 13.9692 125.23 13.9692C125.524 13.9692 125.775 14.0694 125.984 14.2697C126.197 14.4699 126.304 14.7107 126.304 14.992C126.304 15.2732 126.197 15.514 125.984 15.7143C125.775 15.9146 125.524 16.0147 125.23 16.0147Z" fill="white"/>
<path d="M5.625 77.4692H1.58523V64.3783H5.80398C7.07386 64.3783 8.16051 64.6404 9.06392 65.1646C9.96733 65.6844 10.6598 66.4323 11.1413 67.4082C11.6229 68.3797 11.8636 69.5431 11.8636 70.8982C11.8636 72.2619 11.6207 73.4359 11.1349 74.4202C10.6491 75.4003 9.94176 76.1546 9.01278 76.683C8.08381 77.2072 6.95455 77.4692 5.625 77.4692ZM3.17045 76.063H5.52273C6.60511 76.063 7.50213 75.8542 8.21378 75.4366C8.92543 75.019 9.45597 74.4245 9.8054 73.6532C10.1548 72.8819 10.3295 71.9636 10.3295 70.8982C10.3295 69.8414 10.157 68.9316 9.81179 68.1688C9.46662 67.4018 8.95099 66.8137 8.26491 66.4046C7.57884 65.9913 6.72443 65.7846 5.7017 65.7846H3.17045V76.063ZM14.3182 77.4692V67.6511H15.8267V77.4692H14.3182ZM15.0852 66.0147C14.7912 66.0147 14.5376 65.9146 14.3246 65.7143C14.1158 65.514 14.0114 65.2732 14.0114 64.992C14.0114 64.7107 14.1158 64.4699 14.3246 64.2697C14.5376 64.0694 14.7912 63.9692 15.0852 63.9692C15.3793 63.9692 15.6307 64.0694 15.8395 64.2697C16.0526 64.4699 16.1591 64.7107 16.1591 64.992C16.1591 65.2732 16.0526 65.514 15.8395 65.7143C15.6307 65.9146 15.3793 66.0147 15.0852 66.0147ZM26.6181 67.6511L22.9874 77.4692H21.4533L17.8226 67.6511H19.459L22.1692 75.4749H22.2715L24.9817 67.6511H26.6181ZM32.3741 77.6738C31.4281 77.6738 30.612 77.465 29.926 77.0474C29.2441 76.6255 28.7179 76.0374 28.3471 75.2832C27.9806 74.5246 27.7974 73.6425 27.7974 72.6369C27.7974 71.6312 27.9806 70.7448 28.3471 69.9778C28.7179 69.2065 29.2335 68.6056 29.894 68.1752C30.5588 67.7405 31.3343 67.5232 32.2207 67.5232C32.7321 67.5232 33.237 67.6084 33.7356 67.7789C34.2342 67.9494 34.688 68.2263 35.0971 68.6099C35.5062 68.9891 35.8322 69.492 36.0751 70.1184C36.318 70.7448 36.4395 71.5161 36.4395 72.4323V73.0715H28.8713V71.7675H34.9054C34.9054 71.2136 34.7946 70.7192 34.573 70.2846C34.3556 69.8499 34.0446 69.5069 33.6397 69.2555C33.2392 69.004 32.7662 68.8783 32.2207 68.8783C31.6199 68.8783 31.1 69.0275 30.661 69.3258C30.2264 69.6198 29.8919 70.0033 29.6575 70.4763C29.4231 70.9494 29.3059 71.4565 29.3059 71.9976V72.867C29.3059 73.6084 29.4338 74.237 29.6895 74.7526C29.9494 75.264 30.3095 75.6539 30.7697 75.9224C31.2299 76.1866 31.7647 76.3187 32.3741 76.3187C32.7704 76.3187 33.1284 76.2633 33.448 76.1525C33.7718 76.0374 34.051 75.867 34.2853 75.6411C34.5197 75.411 34.7008 75.1255 34.8287 74.7846L36.286 75.1937C36.1326 75.688 35.8748 76.1226 35.5126 76.4976C35.1504 76.8684 34.7029 77.1582 34.1703 77.367C33.6376 77.5715 33.0389 77.6738 32.3741 77.6738ZM38.7342 77.4692V67.6511H40.1916V69.134H40.2939C40.4728 68.6482 40.7967 68.254 41.2654 67.9515C41.7342 67.6489 42.2626 67.4976 42.8507 67.4976C42.9615 67.4976 43.1 67.4998 43.2662 67.504C43.4324 67.5083 43.5581 67.5147 43.6433 67.5232V69.0573C43.5922 69.0445 43.475 69.0253 43.2917 68.9998C43.1127 68.9699 42.9231 68.955 42.7228 68.955C42.2456 68.955 41.8194 69.0552 41.4444 69.2555C41.0737 69.4515 40.7797 69.7242 40.5623 70.0736C40.3493 70.4188 40.2427 70.813 40.2427 71.2562V77.4692H38.7342ZM52.386 69.8499L51.0309 70.2334C50.9457 70.0076 50.82 69.7881 50.6538 69.5751C50.4918 69.3577 50.2702 69.1788 49.989 69.0381C49.7077 68.8975 49.3477 68.8272 48.9087 68.8272C48.3079 68.8272 47.8072 68.9657 47.4066 69.2427C47.0103 69.5154 46.8121 69.8627 46.8121 70.2846C46.8121 70.6596 46.9485 70.9557 47.2212 71.1731C47.494 71.3904 47.9201 71.5715 48.4996 71.7164L49.957 72.0744C50.8349 72.2874 51.489 72.6134 51.9194 73.0523C52.3498 73.487 52.565 74.0474 52.565 74.7334C52.565 75.2959 52.4031 75.7988 52.0792 76.242C51.7596 76.6851 51.3121 77.0346 50.7369 77.2903C50.1616 77.5459 49.4925 77.6738 48.7298 77.6738C47.7283 77.6738 46.8995 77.4565 46.2433 77.0218C45.587 76.5871 45.1715 75.9522 44.9968 75.117L46.4286 74.759C46.565 75.2874 46.8228 75.6837 47.2021 75.9479C47.5856 76.2121 48.0863 76.3442 48.7042 76.3442C49.4073 76.3442 49.9656 76.1951 50.3789 75.8968C50.7965 75.5942 51.0053 75.232 51.0053 74.8101C51.0053 74.4692 50.886 74.1837 50.6474 73.9536C50.4087 73.7192 50.0423 73.5445 49.5479 73.4295L47.9116 73.0459C47.0124 72.8329 46.3519 72.5026 45.93 72.0552C45.5124 71.6035 45.3036 71.0388 45.3036 70.3613C45.3036 69.8073 45.4592 69.3172 45.7702 68.8911C46.0856 68.465 46.5138 68.1305 47.055 67.8876C47.6005 67.6447 48.2184 67.5232 48.9087 67.5232C49.8803 67.5232 50.6431 67.7363 51.1971 68.1624C51.7553 68.5886 52.1516 69.1511 52.386 69.8499ZM54.8358 77.4692V67.6511H56.3443V77.4692H54.8358ZM55.6028 66.0147C55.3088 66.0147 55.0552 65.9146 54.8422 65.7143C54.6333 65.514 54.5289 65.2732 54.5289 64.992C54.5289 64.7107 54.6333 64.4699 54.8422 64.2697C55.0552 64.0694 55.3088 63.9692 55.6028 63.9692C55.8968 63.9692 56.1483 64.0694 56.3571 64.2697C56.5701 64.4699 56.6767 64.7107 56.6767 64.992C56.6767 65.2732 56.5701 65.514 56.3571 65.7143C56.1483 65.9146 55.8968 66.0147 55.6028 66.0147ZM63.3771 67.6511V68.9295H58.2891V67.6511H63.3771ZM59.772 65.2988H61.2805V74.6567C61.2805 75.0829 61.3423 75.4025 61.4659 75.6155C61.5938 75.8244 61.7557 75.965 61.9517 76.0374C62.152 76.1056 62.3629 76.1397 62.5845 76.1397C62.7507 76.1397 62.8871 76.1312 62.9936 76.1141C63.1001 76.0928 63.1854 76.0758 63.2493 76.063L63.5561 77.4181C63.4538 77.4565 63.3111 77.4948 63.1278 77.5332C62.9446 77.5758 62.7124 77.5971 62.4311 77.5971C62.005 77.5971 61.5874 77.5055 61.1783 77.3222C60.7734 77.139 60.4368 76.8599 60.1683 76.4849C59.9041 76.1099 59.772 75.6369 59.772 75.0658V65.2988ZM68.5355 77.6994C67.9134 77.6994 67.3487 77.5822 66.8416 77.3478C66.3345 77.1092 65.9318 76.7661 65.6335 76.3187C65.3352 75.867 65.1861 75.3215 65.1861 74.6823C65.1861 74.1198 65.2969 73.6638 65.5185 73.3144C65.7401 72.9607 66.0362 72.6837 66.407 72.4834C66.7777 72.2832 67.1868 72.134 67.6342 72.036C68.0859 71.9337 68.5398 71.8528 68.9957 71.7931C69.5923 71.7164 70.076 71.6589 70.4467 71.6205C70.8217 71.5779 71.0945 71.5076 71.2649 71.4096C71.4396 71.3116 71.527 71.1411 71.527 70.8982V70.8471C71.527 70.2164 71.3544 69.7263 71.0092 69.3769C70.6683 69.0275 70.1506 68.8528 69.456 68.8528C68.7358 68.8528 68.1712 69.0104 67.7621 69.3258C67.353 69.6411 67.0653 69.9778 66.8991 70.3357L65.4673 69.8244C65.723 69.2278 66.0639 68.7633 66.4901 68.4309C66.9205 68.0942 67.3892 67.8599 67.8963 67.7278C68.4077 67.5914 68.9105 67.5232 69.4048 67.5232C69.7202 67.5232 70.0824 67.5616 70.4915 67.6383C70.9048 67.7107 71.3033 67.862 71.6868 68.0921C72.0746 68.3222 72.3963 68.6695 72.652 69.134C72.9077 69.5985 73.0355 70.2207 73.0355 71.0005V77.4692H71.527V76.1397H71.4503C71.348 76.3528 71.1776 76.5807 70.9389 76.8236C70.7003 77.0665 70.3828 77.2732 69.9865 77.4437C69.5902 77.6141 69.1065 77.6994 68.5355 77.6994ZM68.7656 76.3442C69.3622 76.3442 69.8651 76.2271 70.2741 75.9927C70.6875 75.7583 70.9986 75.4557 71.2074 75.085C71.4205 74.7143 71.527 74.3244 71.527 73.9153V72.5346C71.4631 72.6113 71.3224 72.6816 71.1051 72.7455C70.892 72.8052 70.6449 72.8584 70.3636 72.9053C70.0866 72.9479 69.8161 72.9863 69.5518 73.0204C69.2919 73.0502 69.081 73.0758 68.919 73.0971C68.527 73.1482 68.1605 73.2313 67.8196 73.3464C67.483 73.4572 67.2102 73.6255 67.0014 73.8513C66.7969 74.0729 66.6946 74.3755 66.6946 74.759C66.6946 75.2832 66.8885 75.6795 67.2763 75.9479C67.6683 76.2121 68.1648 76.3442 68.7656 76.3442ZM68.8679 66.3215L66.8736 63.3556H68.6378L70.1974 66.3215H68.8679ZM83.7406 77.6994C83.1184 77.6994 82.5538 77.5822 82.0467 77.3478C81.5396 77.1092 81.1369 76.7661 80.8386 76.3187C80.5403 75.867 80.3912 75.3215 80.3912 74.6823C80.3912 74.1198 80.502 73.6638 80.7235 73.3144C80.9451 72.9607 81.2413 72.6837 81.612 72.4834C81.9828 72.2832 82.3919 72.134 82.8393 72.036C83.291 71.9337 83.7449 71.8528 84.2008 71.7931C84.7974 71.7164 85.2811 71.6589 85.6518 71.6205C86.0268 71.5779 86.2995 71.5076 86.47 71.4096C86.6447 71.3116 86.7321 71.1411 86.7321 70.8982V70.8471C86.7321 70.2164 86.5595 69.7263 86.2143 69.3769C85.8734 69.0275 85.3556 68.8528 84.661 68.8528C83.9409 68.8528 83.3762 69.0104 82.9672 69.3258C82.5581 69.6411 82.2704 69.9778 82.1042 70.3357L80.6724 69.8244C80.9281 69.2278 81.269 68.7633 81.6951 68.4309C82.1255 68.0942 82.5943 67.8599 83.1014 67.7278C83.6127 67.5914 84.1156 67.5232 84.6099 67.5232C84.9252 67.5232 85.2875 67.5616 85.6966 67.6383C86.1099 67.7107 86.5083 67.862 86.8919 68.0921C87.2797 68.3222 87.6014 68.6695 87.8571 69.134C88.1127 69.5985 88.2406 70.2207 88.2406 71.0005V77.4692H86.7321V76.1397H86.6554C86.5531 76.3528 86.3826 76.5807 86.144 76.8236C85.9054 77.0665 85.5879 77.2732 85.1916 77.4437C84.7953 77.6141 84.3116 77.6994 83.7406 77.6994ZM83.9707 76.3442C84.5673 76.3442 85.0701 76.2271 85.4792 75.9927C85.8926 75.7583 86.2037 75.4557 86.4125 75.085C86.6255 74.7143 86.7321 74.3244 86.7321 73.9153V72.5346C86.6681 72.6113 86.5275 72.6816 86.3102 72.7455C86.0971 72.8052 85.85 72.8584 85.5687 72.9053C85.2917 72.9479 85.0211 72.9863 84.7569 73.0204C84.497 73.0502 84.286 73.0758 84.1241 73.0971C83.7321 73.1482 83.3656 73.2313 83.0247 73.3464C82.688 73.4572 82.4153 73.6255 82.2065 73.8513C82.002 74.0729 81.8997 74.3755 81.8997 74.759C81.8997 75.2832 82.0936 75.6795 82.4814 75.9479C82.8734 76.2121 83.3699 76.3442 83.9707 76.3442ZM90.994 77.4692V67.6511H92.4513V69.134H92.5536C92.7326 68.6482 93.0565 68.254 93.5252 67.9515C93.994 67.6489 94.5224 67.4976 95.1104 67.4976C95.2212 67.4976 95.3597 67.4998 95.5259 67.504C95.6921 67.5083 95.8178 67.5147 95.9031 67.5232V69.0573C95.8519 69.0445 95.7347 69.0253 95.5515 68.9998C95.3725 68.9699 95.1829 68.955 94.9826 68.955C94.5053 68.955 94.0792 69.0552 93.7042 69.2555C93.3335 69.4515 93.0394 69.7242 92.8221 70.0736C92.609 70.4188 92.5025 70.813 92.5025 71.2562V77.4692H90.994ZM101.509 77.6738C100.563 77.6738 99.7468 77.465 99.0607 77.0474C98.3789 76.6255 97.8526 76.0374 97.4819 75.2832C97.1154 74.5246 96.9322 73.6425 96.9322 72.6369C96.9322 71.6312 97.1154 70.7448 97.4819 69.9778C97.8526 69.2065 98.3683 68.6056 99.0288 68.1752C99.6935 67.7405 100.469 67.5232 101.355 67.5232C101.867 67.5232 102.372 67.6084 102.87 67.7789C103.369 67.9494 103.823 68.2263 104.232 68.6099C104.641 68.9891 104.967 69.492 105.21 70.1184C105.453 70.7448 105.574 71.5161 105.574 72.4323V73.0715H98.006V71.7675H104.04C104.04 71.2136 103.929 70.7192 103.708 70.2846C103.49 69.8499 103.179 69.5069 102.775 69.2555C102.374 69.004 101.901 68.8783 101.355 68.8783C100.755 68.8783 100.235 69.0275 99.7958 69.3258C99.3612 69.6198 99.0266 70.0033 98.7923 70.4763C98.5579 70.9494 98.4407 71.4565 98.4407 71.9976V72.867C98.4407 73.6084 98.5685 74.237 98.8242 74.7526C99.0842 75.264 99.4442 75.6539 99.9045 75.9224C100.365 76.1866 100.9 76.3187 101.509 76.3187C101.905 76.3187 102.263 76.2633 102.583 76.1525C102.907 76.0374 103.186 75.867 103.42 75.6411C103.654 75.411 103.836 75.1255 103.963 74.7846L105.421 75.1937C105.267 75.688 105.01 76.1226 104.647 76.4976C104.285 76.8684 103.838 77.1582 103.305 77.367C102.772 77.5715 102.174 77.6738 101.509 77.6738ZM111.985 77.6738C111.039 77.6738 110.223 77.465 109.537 77.0474C108.855 76.6255 108.329 76.0374 107.958 75.2832C107.592 74.5246 107.409 73.6425 107.409 72.6369C107.409 71.6312 107.592 70.7448 107.958 69.9778C108.329 69.2065 108.845 68.6056 109.505 68.1752C110.17 67.7405 110.946 67.5232 111.832 67.5232C112.343 67.5232 112.848 67.6084 113.347 67.7789C113.846 67.9494 114.299 68.2263 114.708 68.6099C115.118 68.9891 115.444 69.492 115.686 70.1184C115.929 70.7448 116.051 71.5161 116.051 72.4323V73.0715H108.483V71.7675H114.517C114.517 71.2136 114.406 70.7192 114.184 70.2846C113.967 69.8499 113.656 69.5069 113.251 69.2555C112.85 69.004 112.377 68.8783 111.832 68.8783C111.231 68.8783 110.711 69.0275 110.272 69.3258C109.838 69.6198 109.503 70.0033 109.269 70.4763C109.034 70.9494 108.917 71.4565 108.917 71.9976V72.867C108.917 73.6084 109.045 74.237 109.301 74.7526C109.561 75.264 109.921 75.6539 110.381 75.9224C110.841 76.1866 111.376 76.3187 111.985 76.3187C112.382 76.3187 112.74 76.2633 113.059 76.1525C113.383 76.0374 113.662 75.867 113.897 75.6411C114.131 75.411 114.312 75.1255 114.44 74.7846L115.897 75.1937C115.744 75.688 115.486 76.1226 115.124 76.4976C114.762 76.8684 114.314 77.1582 113.782 77.367C113.249 77.5715 112.65 77.6738 111.985 77.6738ZM127.371 81.3556C126.642 81.3556 126.016 81.2619 125.492 81.0744C124.968 80.8911 124.531 80.6482 124.181 80.3457C123.836 80.0474 123.561 79.7278 123.357 79.3869L124.559 78.5431C124.695 78.7221 124.868 78.9266 125.076 79.1567C125.285 79.3911 125.571 79.5935 125.933 79.764C126.299 79.9387 126.779 80.0261 127.371 80.0261C128.164 80.0261 128.818 79.8343 129.333 79.4508C129.849 79.0672 130.107 78.4664 130.107 77.6482V75.6539H129.979C129.868 75.8329 129.711 76.0545 129.506 76.3187C129.306 76.5786 129.016 76.8109 128.637 77.0154C128.262 77.2157 127.755 77.3158 127.115 77.3158C126.323 77.3158 125.611 77.1283 124.98 76.7533C124.354 76.3783 123.858 75.8329 123.491 75.117C123.129 74.4011 122.948 73.5317 122.948 72.509C122.948 71.5033 123.125 70.6276 123.478 69.8819C123.832 69.1319 124.324 68.5523 124.955 68.1432C125.586 67.7299 126.314 67.5232 127.141 67.5232C127.78 67.5232 128.287 67.6297 128.662 67.8428C129.042 68.0516 129.331 68.2903 129.532 68.5587C129.736 68.8229 129.894 69.0403 130.005 69.2107H130.158V67.6511H131.615V77.7505C131.615 78.5942 131.424 79.2803 131.04 79.8087C130.661 80.3414 130.15 80.7313 129.506 80.9785C128.867 81.2299 128.155 81.3556 127.371 81.3556ZM127.32 75.9607C127.925 75.9607 128.436 75.8222 128.854 75.5452C129.272 75.2682 129.589 74.8698 129.806 74.3499C130.024 73.83 130.132 73.2079 130.132 72.4834C130.132 71.7761 130.026 71.1518 129.813 70.6106C129.6 70.0694 129.284 69.6454 128.867 69.3386C128.449 69.0317 127.934 68.8783 127.32 68.8783C126.681 68.8783 126.148 69.0403 125.722 69.3641C125.3 69.688 124.983 70.1226 124.77 70.6681C124.561 71.2136 124.456 71.8187 124.456 72.4834C124.456 73.1653 124.563 73.7682 124.776 74.2924C124.993 74.8123 125.313 75.2214 125.735 75.5197C126.161 75.8137 126.689 75.9607 127.32 75.9607ZM138.493 77.6738C137.547 77.6738 136.731 77.465 136.045 77.0474C135.363 76.6255 134.837 76.0374 134.466 75.2832C134.1 74.5246 133.917 73.6425 133.917 72.6369C133.917 71.6312 134.1 70.7448 134.466 69.9778C134.837 69.2065 135.353 68.6056 136.013 68.1752C136.678 67.7405 137.453 67.5232 138.34 67.5232C138.851 67.5232 139.356 67.6084 139.855 67.7789C140.353 67.9494 140.807 68.2263 141.216 68.6099C141.625 68.9891 141.951 69.492 142.194 70.1184C142.437 70.7448 142.559 71.5161 142.559 72.4323V73.0715H134.99V71.7675H141.025C141.025 71.2136 140.914 70.7192 140.692 70.2846C140.475 69.8499 140.164 69.5069 139.759 69.2555C139.358 69.004 138.885 68.8783 138.34 68.8783C137.739 68.8783 137.219 69.0275 136.78 69.3258C136.346 69.6198 136.011 70.0033 135.777 70.4763C135.542 70.9494 135.425 71.4565 135.425 71.9976V72.867C135.425 73.6084 135.553 74.237 135.809 74.7526C136.069 75.264 136.429 75.6539 136.889 75.9224C137.349 76.1866 137.884 76.3187 138.493 76.3187C138.89 76.3187 139.248 76.2633 139.567 76.1525C139.891 76.0374 140.17 75.867 140.404 75.6411C140.639 75.411 140.82 75.1255 140.948 74.7846L142.405 75.1937C142.252 75.688 141.994 76.1226 141.632 76.4976C141.27 76.8684 140.822 77.1582 140.289 77.367C139.757 77.5715 139.158 77.6738 138.493 77.6738ZM148.842 77.6738C147.956 77.6738 147.178 77.4628 146.509 77.041C145.844 76.6191 145.324 76.0289 144.949 75.2704C144.578 74.5119 144.393 73.6255 144.393 72.6113C144.393 71.5886 144.578 70.6958 144.949 69.933C145.324 69.1702 145.844 68.5779 146.509 68.156C147.178 67.7342 147.956 67.5232 148.842 67.5232C149.728 67.5232 150.504 67.7342 151.169 68.156C151.838 68.5779 152.358 69.1702 152.728 69.933C153.103 70.6958 153.291 71.5886 153.291 72.6113C153.291 73.6255 153.103 74.5119 152.728 75.2704C152.358 76.0289 151.838 76.6191 151.169 77.041C150.504 77.4628 149.728 77.6738 148.842 77.6738ZM148.842 76.3187C149.515 76.3187 150.069 76.1461 150.504 75.8009C150.939 75.4557 151.26 75.0019 151.469 74.4394C151.678 73.8769 151.782 73.2675 151.782 72.6113C151.782 71.955 151.678 71.3435 151.469 70.7768C151.26 70.21 150.939 69.7519 150.504 69.4025C150.069 69.053 149.515 68.8783 148.842 68.8783C148.169 68.8783 147.615 69.053 147.18 69.4025C146.745 69.7519 146.424 70.21 146.215 70.7768C146.006 71.3435 145.902 71.955 145.902 72.6113C145.902 73.2675 146.006 73.8769 146.215 74.4394C146.424 75.0019 146.745 75.4557 147.18 75.8009C147.615 76.1461 148.169 76.3187 148.842 76.3187ZM159.557 81.3556C158.828 81.3556 158.202 81.2619 157.677 81.0744C157.153 80.8911 156.716 80.6482 156.367 80.3457C156.022 80.0474 155.747 79.7278 155.542 79.3869L156.744 78.5431C156.881 78.7221 157.053 78.9266 157.262 79.1567C157.471 79.3911 157.756 79.5935 158.118 79.764C158.485 79.9387 158.964 80.0261 159.557 80.0261C160.349 80.0261 161.003 79.8343 161.519 79.4508C162.035 79.0672 162.292 78.4664 162.292 77.6482V75.6539H162.165C162.054 75.8329 161.896 76.0545 161.692 76.3187C161.491 76.5786 161.202 76.8109 160.822 77.0154C160.447 77.2157 159.94 77.3158 159.301 77.3158C158.508 77.3158 157.797 77.1283 157.166 76.7533C156.54 76.3783 156.043 75.8329 155.677 75.117C155.314 74.4011 155.133 73.5317 155.133 72.509C155.133 71.5033 155.31 70.6276 155.664 69.8819C156.018 69.1319 156.51 68.5523 157.14 68.1432C157.771 67.7299 158.5 67.5232 159.327 67.5232C159.966 67.5232 160.473 67.6297 160.848 67.8428C161.227 68.0516 161.517 68.2903 161.717 68.5587C161.922 68.8229 162.079 69.0403 162.19 69.2107H162.344V67.6511H163.801V77.7505C163.801 78.5942 163.609 79.2803 163.226 79.8087C162.846 80.3414 162.335 80.7313 161.692 80.9785C161.052 81.2299 160.341 81.3556 159.557 81.3556ZM159.506 75.9607C160.111 75.9607 160.622 75.8222 161.04 75.5452C161.457 75.2682 161.775 74.8698 161.992 74.3499C162.209 73.83 162.318 73.2079 162.318 72.4834C162.318 71.7761 162.211 71.1518 161.998 70.6106C161.785 70.0694 161.47 69.6454 161.052 69.3386C160.635 69.0317 160.119 68.8783 159.506 68.8783C158.866 68.8783 158.334 69.0403 157.907 69.3641C157.486 69.688 157.168 70.1226 156.955 70.6681C156.746 71.2136 156.642 71.8187 156.642 72.4834C156.642 73.1653 156.748 73.7682 156.961 74.2924C157.179 74.8123 157.498 75.2214 157.92 75.5197C158.346 75.8137 158.875 75.9607 159.506 75.9607ZM166.562 77.4692V67.6511H168.02V69.134H168.122C168.301 68.6482 168.625 68.254 169.094 67.9515C169.562 67.6489 170.091 67.4976 170.679 67.4976C170.79 67.4976 170.928 67.4998 171.094 67.504C171.26 67.5083 171.386 67.5147 171.471 67.5232V69.0573C171.42 69.0445 171.303 69.0253 171.12 68.9998C170.941 68.9699 170.751 68.955 170.551 68.955C170.074 68.955 169.648 69.0552 169.273 69.2555C168.902 69.4515 168.608 69.7242 168.39 70.0736C168.177 70.4188 168.071 70.813 168.071 71.2562V77.4692H166.562ZM176.149 77.6994C175.527 77.6994 174.962 77.5822 174.455 77.3478C173.948 77.1092 173.545 76.7661 173.247 76.3187C172.949 75.867 172.799 75.3215 172.799 74.6823C172.799 74.1198 172.91 73.6638 173.132 73.3144C173.353 72.9607 173.65 72.6837 174.02 72.4834C174.391 72.2832 174.8 72.134 175.248 72.036C175.699 71.9337 176.153 71.8528 176.609 71.7931C177.206 71.7164 177.689 71.6589 178.06 71.6205C178.435 71.5779 178.708 71.5076 178.878 71.4096C179.053 71.3116 179.14 71.1411 179.14 70.8982V70.8471C179.14 70.2164 178.968 69.7263 178.623 69.3769C178.282 69.0275 177.764 68.8528 177.069 68.8528C176.349 68.8528 175.784 69.0104 175.375 69.3258C174.966 69.6411 174.679 69.9778 174.512 70.3357L173.081 69.8244C173.336 69.2278 173.677 68.7633 174.103 68.4309C174.534 68.0942 175.002 67.8599 175.51 67.7278C176.021 67.5914 176.524 67.5232 177.018 67.5232C177.333 67.5232 177.696 67.5616 178.105 67.6383C178.518 67.7107 178.917 67.862 179.3 68.0921C179.688 68.3222 180.01 68.6695 180.265 69.134C180.521 69.5985 180.649 70.2207 180.649 71.0005V77.4692H179.14V76.1397H179.064C178.961 76.3528 178.791 76.5807 178.552 76.8236C178.314 77.0665 177.996 77.2732 177.6 77.4437C177.203 77.6141 176.72 77.6994 176.149 77.6994ZM176.379 76.3442C176.975 76.3442 177.478 76.2271 177.887 75.9927C178.301 75.7583 178.612 75.4557 178.821 75.085C179.034 74.7143 179.14 74.3244 179.14 73.9153V72.5346C179.076 72.6113 178.936 72.6816 178.718 72.7455C178.505 72.8052 178.258 72.8584 177.977 72.9053C177.7 72.9479 177.429 72.9863 177.165 73.0204C176.905 73.0502 176.694 73.0758 176.532 73.0971C176.14 73.1482 175.774 73.2313 175.433 73.3464C175.096 73.4572 174.824 73.6255 174.615 73.8513C174.41 74.0729 174.308 74.3755 174.308 74.759C174.308 75.2832 174.502 75.6795 174.89 75.9479C175.282 76.2121 175.778 76.3442 176.379 76.3442ZM187.774 67.6511V68.9295H182.482V67.6511H187.774ZM184.067 77.4692V66.2959C184.067 65.7334 184.199 65.2647 184.463 64.8897C184.727 64.5147 185.07 64.2334 185.492 64.0459C185.914 63.8584 186.36 63.7647 186.828 63.7647C187.199 63.7647 187.502 63.7945 187.736 63.8542C187.97 63.9138 188.145 63.9692 188.26 64.0204L187.825 65.3244C187.749 65.2988 187.642 65.2668 187.506 65.2285C187.374 65.1901 187.199 65.1709 186.982 65.1709C186.483 65.1709 186.123 65.2967 185.901 65.5481C185.684 65.7995 185.575 66.1681 185.575 66.6539V77.4692H184.067ZM189.888 77.4692V67.6511H191.397V77.4692H189.888ZM190.656 66.0147C190.362 66.0147 190.108 65.9146 189.895 65.7143C189.686 65.514 189.582 65.2732 189.582 64.992C189.582 64.7107 189.686 64.4699 189.895 64.2697C190.108 64.0694 190.362 63.9692 190.656 63.9692C190.95 63.9692 191.201 64.0694 191.41 64.2697C191.623 64.4699 191.729 64.7107 191.729 64.992C191.729 65.2732 191.623 65.514 191.41 65.7143C191.201 65.9146 190.95 66.0147 190.656 66.0147ZM198.149 77.6738C197.228 77.6738 196.436 77.4565 195.771 77.0218C195.106 76.5871 194.595 75.9884 194.237 75.2256C193.879 74.4628 193.7 73.5914 193.7 72.6113C193.7 71.6141 193.883 70.7342 194.249 69.9714C194.62 69.2043 195.136 68.6056 195.796 68.1752C196.461 67.7405 197.237 67.5232 198.123 67.5232C198.813 67.5232 199.436 67.6511 199.99 67.9067C200.544 68.1624 200.997 68.5204 201.351 68.9806C201.705 69.4408 201.924 69.9778 202.009 70.5914H200.501C200.386 70.144 200.13 69.7476 199.734 69.4025C199.342 69.053 198.813 68.8783 198.149 68.8783C197.561 68.8783 197.045 69.0317 196.602 69.3386C196.163 69.6411 195.82 70.0694 195.573 70.6234C195.33 71.1731 195.208 71.8187 195.208 72.5601C195.208 73.3187 195.328 73.9792 195.566 74.5417C195.809 75.1042 196.15 75.541 196.589 75.8521C197.032 76.1631 197.552 76.3187 198.149 76.3187C198.541 76.3187 198.896 76.2505 199.216 76.1141C199.536 75.9778 199.806 75.7817 200.028 75.5261C200.249 75.2704 200.407 74.9636 200.501 74.6056H202.009C201.924 75.1851 201.713 75.7072 201.377 76.1717C201.044 76.6319 200.603 76.9984 200.053 77.2711C199.508 77.5396 198.873 77.6738 198.149 77.6738ZM205.723 71.563V77.4692H204.215V64.3783H205.723V69.1851H205.851C206.081 68.678 206.426 68.2753 206.887 67.9771C207.351 67.6745 207.969 67.5232 208.74 67.5232C209.409 67.5232 209.995 67.6574 210.498 67.9259C211.001 68.1901 211.391 68.5971 211.668 69.1468C211.949 69.6922 212.09 70.3869 212.09 71.2306V77.4692H210.581V71.3329C210.581 70.553 210.379 69.9501 209.974 69.5239C209.573 69.0935 209.017 68.8783 208.306 68.8783C207.811 68.8783 207.368 68.9827 206.976 69.1915C206.588 69.4003 206.281 69.705 206.056 70.1056C205.834 70.5062 205.723 70.992 205.723 71.563ZM218.966 77.6738C218.02 77.6738 217.204 77.465 216.518 77.0474C215.836 76.6255 215.31 76.0374 214.939 75.2832C214.572 74.5246 214.389 73.6425 214.389 72.6369C214.389 71.6312 214.572 70.7448 214.939 69.9778C215.31 69.2065 215.825 68.6056 216.486 68.1752C217.151 67.7405 217.926 67.5232 218.812 67.5232C219.324 67.5232 219.829 67.6084 220.327 67.7789C220.826 67.9494 221.28 68.2263 221.689 68.6099C222.098 68.9891 222.424 69.492 222.667 70.1184C222.91 70.7448 223.031 71.5161 223.031 72.4323V73.0715H215.463V71.7675H221.497C221.497 71.2136 221.386 70.7192 221.165 70.2846C220.947 69.8499 220.636 69.5069 220.232 69.2555C219.831 69.004 219.358 68.8783 218.812 68.8783C218.212 68.8783 217.692 69.0275 217.253 69.3258C216.818 69.6198 216.484 70.0033 216.249 70.4763C216.015 70.9494 215.898 71.4565 215.898 71.9976V72.867C215.898 73.6084 216.026 74.237 216.281 74.7526C216.541 75.264 216.901 75.6539 217.362 75.9224C217.822 76.1866 218.357 76.3187 218.966 76.3187C219.362 76.3187 219.72 76.2633 220.04 76.1525C220.364 76.0374 220.643 75.867 220.877 75.6411C221.112 75.411 221.293 75.1255 221.42 74.7846L222.878 75.1937C222.724 75.688 222.467 76.1226 222.104 76.4976C221.742 76.8684 221.295 77.1582 220.762 77.367C220.229 77.5715 219.631 77.6738 218.966 77.6738Z" fill="white"/>
<path d="M5.625 127.469H1.58523V114.378H5.80398C7.07386 114.378 8.16051 114.64 9.06392 115.165C9.96733 115.684 10.6598 116.432 11.1413 117.408C11.6229 118.38 11.8636 119.543 11.8636 120.898C11.8636 122.262 11.6207 123.436 11.1349 124.42C10.6491 125.4 9.94176 126.155 9.01278 126.683C8.08381 127.207 6.95455 127.469 5.625 127.469ZM3.17045 126.063H5.52273C6.60511 126.063 7.50213 125.854 8.21378 125.437C8.92543 125.019 9.45597 124.424 9.8054 123.653C10.1548 122.882 10.3295 121.964 10.3295 120.898C10.3295 119.841 10.157 118.932 9.81179 118.169C9.46662 117.402 8.95099 116.814 8.26491 116.405C7.57884 115.991 6.72443 115.785 5.7017 115.785H3.17045V126.063ZM14.3182 127.469V117.651H15.8267V127.469H14.3182ZM15.0852 116.015C14.7912 116.015 14.5376 115.915 14.3246 115.714C14.1158 115.514 14.0114 115.273 14.0114 114.992C14.0114 114.711 14.1158 114.47 14.3246 114.27C14.5376 114.069 14.7912 113.969 15.0852 113.969C15.3793 113.969 15.6307 114.069 15.8395 114.27C16.0526 114.47 16.1591 114.711 16.1591 114.992C16.1591 115.273 16.0526 115.514 15.8395 115.714C15.6307 115.915 15.3793 116.015 15.0852 116.015ZM26.6181 117.651L22.9874 127.469H21.4533L17.8226 117.651H19.459L22.1692 125.475H22.2715L24.9817 117.651H26.6181ZM32.3741 127.674C31.4281 127.674 30.612 127.465 29.926 127.047C29.2441 126.625 28.7179 126.037 28.3471 125.283C27.9806 124.525 27.7974 123.643 27.7974 122.637C27.7974 121.631 27.9806 120.745 28.3471 119.978C28.7179 119.206 29.2335 118.606 29.894 118.175C30.5588 117.741 31.3343 117.523 32.2207 117.523C32.7321 117.523 33.237 117.608 33.7356 117.779C34.2342 117.949 34.688 118.226 35.0971 118.61C35.5062 118.989 35.8322 119.492 36.0751 120.118C36.318 120.745 36.4395 121.516 36.4395 122.432V123.072H28.8713V121.768H34.9054C34.9054 121.214 34.7946 120.719 34.573 120.285C34.3556 119.85 34.0446 119.507 33.6397 119.255C33.2392 119.004 32.7662 118.878 32.2207 118.878C31.6199 118.878 31.1 119.027 30.661 119.326C30.2264 119.62 29.8919 120.003 29.6575 120.476C29.4231 120.949 29.3059 121.456 29.3059 121.998V122.867C29.3059 123.608 29.4338 124.237 29.6895 124.753C29.9494 125.264 30.3095 125.654 30.7697 125.922C31.2299 126.187 31.7647 126.319 32.3741 126.319C32.7704 126.319 33.1284 126.263 33.448 126.152C33.7718 126.037 34.051 125.867 34.2853 125.641C34.5197 125.411 34.7008 125.125 34.8287 124.785L36.286 125.194C36.1326 125.688 35.8748 126.123 35.5126 126.498C35.1504 126.868 34.7029 127.158 34.1703 127.367C33.6376 127.572 33.0389 127.674 32.3741 127.674ZM38.7342 127.469V117.651H40.1916V119.134H40.2939C40.4728 118.648 40.7967 118.254 41.2654 117.951C41.7342 117.649 42.2626 117.498 42.8507 117.498C42.9615 117.498 43.1 117.5 43.2662 117.504C43.4324 117.508 43.5581 117.515 43.6433 117.523V119.057C43.5922 119.045 43.475 119.025 43.2917 119C43.1127 118.97 42.9231 118.955 42.7228 118.955C42.2456 118.955 41.8194 119.055 41.4444 119.255C41.0737 119.451 40.7797 119.724 40.5623 120.074C40.3493 120.419 40.2427 120.813 40.2427 121.256V127.469H38.7342ZM52.386 119.85L51.0309 120.233C50.9457 120.008 50.82 119.788 50.6538 119.575C50.4918 119.358 50.2702 119.179 49.989 119.038C49.7077 118.898 49.3477 118.827 48.9087 118.827C48.3079 118.827 47.8072 118.966 47.4066 119.243C47.0103 119.515 46.8121 119.863 46.8121 120.285C46.8121 120.66 46.9485 120.956 47.2212 121.173C47.494 121.39 47.9201 121.572 48.4996 121.716L49.957 122.074C50.8349 122.287 51.489 122.613 51.9194 123.052C52.3498 123.487 52.565 124.047 52.565 124.733C52.565 125.296 52.4031 125.799 52.0792 126.242C51.7596 126.685 51.3121 127.035 50.7369 127.29C50.1616 127.546 49.4925 127.674 48.7298 127.674C47.7283 127.674 46.8995 127.456 46.2433 127.022C45.587 126.587 45.1715 125.952 44.9968 125.117L46.4286 124.759C46.565 125.287 46.8228 125.684 47.2021 125.948C47.5856 126.212 48.0863 126.344 48.7042 126.344C49.4073 126.344 49.9656 126.195 50.3789 125.897C50.7965 125.594 51.0053 125.232 51.0053 124.81C51.0053 124.469 50.886 124.184 50.6474 123.954C50.4087 123.719 50.0423 123.545 49.5479 123.429L47.9116 123.046C47.0124 122.833 46.3519 122.503 45.93 122.055C45.5124 121.603 45.3036 121.039 45.3036 120.361C45.3036 119.807 45.4592 119.317 45.7702 118.891C46.0856 118.465 46.5138 118.13 47.055 117.888C47.6005 117.645 48.2184 117.523 48.9087 117.523C49.8803 117.523 50.6431 117.736 51.1971 118.162C51.7553 118.589 52.1516 119.151 52.386 119.85ZM54.8358 127.469V117.651H56.3443V127.469H54.8358ZM55.6028 116.015C55.3088 116.015 55.0552 115.915 54.8422 115.714C54.6333 115.514 54.5289 115.273 54.5289 114.992C54.5289 114.711 54.6333 114.47 54.8422 114.27C55.0552 114.069 55.3088 113.969 55.6028 113.969C55.8968 113.969 56.1483 114.069 56.3571 114.27C56.5701 114.47 56.6767 114.711 56.6767 114.992C56.6767 115.273 56.5701 115.514 56.3571 115.714C56.1483 115.915 55.8968 116.015 55.6028 116.015ZM63.3771 117.651V118.929H58.2891V117.651H63.3771ZM59.772 115.299H61.2805V124.657C61.2805 125.083 61.3423 125.402 61.4659 125.616C61.5938 125.824 61.7557 125.965 61.9517 126.037C62.152 126.106 62.3629 126.14 62.5845 126.14C62.7507 126.14 62.8871 126.131 62.9936 126.114C63.1001 126.093 63.1854 126.076 63.2493 126.063L63.5561 127.418C63.4538 127.456 63.3111 127.495 63.1278 127.533C62.9446 127.576 62.7124 127.597 62.4311 127.597C62.005 127.597 61.5874 127.505 61.1783 127.322C60.7734 127.139 60.4368 126.86 60.1683 126.485C59.9041 126.11 59.772 125.637 59.772 125.066V115.299ZM68.5355 127.699C67.9134 127.699 67.3487 127.582 66.8416 127.348C66.3345 127.109 65.9318 126.766 65.6335 126.319C65.3352 125.867 65.1861 125.322 65.1861 124.682C65.1861 124.12 65.2969 123.664 65.5185 123.314C65.7401 122.961 66.0362 122.684 66.407 122.483C66.7777 122.283 67.1868 122.134 67.6342 122.036C68.0859 121.934 68.5398 121.853 68.9957 121.793C69.5923 121.716 70.076 121.659 70.4467 121.621C70.8217 121.578 71.0945 121.508 71.2649 121.41C71.4396 121.312 71.527 121.141 71.527 120.898V120.847C71.527 120.216 71.3544 119.726 71.0092 119.377C70.6683 119.027 70.1506 118.853 69.456 118.853C68.7358 118.853 68.1712 119.01 67.7621 119.326C67.353 119.641 67.0653 119.978 66.8991 120.336L65.4673 119.824C65.723 119.228 66.0639 118.763 66.4901 118.431C66.9205 118.094 67.3892 117.86 67.8963 117.728C68.4077 117.591 68.9105 117.523 69.4048 117.523C69.7202 117.523 70.0824 117.562 70.4915 117.638C70.9048 117.711 71.3033 117.862 71.6868 118.092C72.0746 118.322 72.3963 118.67 72.652 119.134C72.9077 119.598 73.0355 120.221 73.0355 121V127.469H71.527V126.14H71.4503C71.348 126.353 71.1776 126.581 70.9389 126.824C70.7003 127.067 70.3828 127.273 69.9865 127.444C69.5902 127.614 69.1065 127.699 68.5355 127.699ZM68.7656 126.344C69.3622 126.344 69.8651 126.227 70.2741 125.993C70.6875 125.758 70.9986 125.456 71.2074 125.085C71.4205 124.714 71.527 124.324 71.527 123.915V122.535C71.4631 122.611 71.3224 122.682 71.1051 122.746C70.892 122.805 70.6449 122.858 70.3636 122.905C70.0866 122.948 69.8161 122.986 69.5518 123.02C69.2919 123.05 69.081 123.076 68.919 123.097C68.527 123.148 68.1605 123.231 67.8196 123.346C67.483 123.457 67.2102 123.625 67.0014 123.851C66.7969 124.073 66.6946 124.375 66.6946 124.759C66.6946 125.283 66.8885 125.679 67.2763 125.948C67.6683 126.212 68.1648 126.344 68.7656 126.344ZM68.8679 116.322L66.8736 113.356H68.6378L70.1974 116.322H68.8679ZM87.8059 119.85L86.4508 120.233C86.3656 120.008 86.2399 119.788 86.0737 119.575C85.9118 119.358 85.6902 119.179 85.4089 119.038C85.1277 118.898 84.7676 118.827 84.3287 118.827C83.7278 118.827 83.2271 118.966 82.8265 119.243C82.4302 119.515 82.2321 119.863 82.2321 120.285C82.2321 120.66 82.3684 120.956 82.6412 121.173C82.9139 121.39 83.34 121.572 83.9196 121.716L85.377 122.074C86.2548 122.287 86.9089 122.613 87.3393 123.052C87.7697 123.487 87.9849 124.047 87.9849 124.733C87.9849 125.296 87.823 125.799 87.4991 126.242C87.1795 126.685 86.7321 127.035 86.1568 127.29C85.5815 127.546 84.9125 127.674 84.1497 127.674C83.1483 127.674 82.3194 127.456 81.6632 127.022C81.0069 126.587 80.5914 125.952 80.4167 125.117L81.8485 124.759C81.9849 125.287 82.2427 125.684 82.622 125.948C83.0055 126.212 83.5062 126.344 84.1241 126.344C84.8272 126.344 85.3855 126.195 85.7988 125.897C86.2164 125.594 86.4252 125.232 86.4252 124.81C86.4252 124.469 86.3059 124.184 86.0673 123.954C85.8287 123.719 85.4622 123.545 84.9679 123.429L83.3315 123.046C82.4324 122.833 81.7718 122.503 81.35 122.055C80.9324 121.603 80.7235 121.039 80.7235 120.361C80.7235 119.807 80.8791 119.317 81.1902 118.891C81.5055 118.465 81.9338 118.13 82.475 117.888C83.0204 117.645 83.6383 117.523 84.3287 117.523C85.3002 117.523 86.063 117.736 86.617 118.162C87.1752 118.589 87.5716 119.151 87.8059 119.85ZM94.2443 127.674C93.358 127.674 92.5803 127.463 91.9112 127.041C91.2464 126.619 90.7266 126.029 90.3516 125.27C89.9808 124.512 89.7955 123.625 89.7955 122.611C89.7955 121.589 89.9808 120.696 90.3516 119.933C90.7266 119.17 91.2464 118.578 91.9112 118.156C92.5803 117.734 93.358 117.523 94.2443 117.523C95.1307 117.523 95.9063 117.734 96.571 118.156C97.2401 118.578 97.7599 119.17 98.1307 119.933C98.5057 120.696 98.6932 121.589 98.6932 122.611C98.6932 123.625 98.5057 124.512 98.1307 125.27C97.7599 126.029 97.2401 126.619 96.571 127.041C95.9063 127.463 95.1307 127.674 94.2443 127.674ZM94.2443 126.319C94.9176 126.319 95.4716 126.146 95.9062 125.801C96.3409 125.456 96.6626 125.002 96.8714 124.439C97.0803 123.877 97.1847 123.268 97.1847 122.611C97.1847 121.955 97.0803 121.344 96.8714 120.777C96.6626 120.21 96.3409 119.752 95.9062 119.402C95.4716 119.053 94.9176 118.878 94.2443 118.878C93.571 118.878 93.017 119.053 92.5824 119.402C92.1477 119.752 91.826 120.21 91.6172 120.777C91.4084 121.344 91.304 121.955 91.304 122.611C91.304 123.268 91.4084 123.877 91.6172 124.439C91.826 125.002 92.1477 125.456 92.5824 125.801C93.017 126.146 93.571 126.319 94.2443 126.319ZM104.985 127.674C104.064 127.674 103.271 127.456 102.607 127.022C101.942 126.587 101.431 125.988 101.073 125.226C100.715 124.463 100.536 123.591 100.536 122.611C100.536 121.614 100.719 120.734 101.085 119.971C101.456 119.204 101.972 118.606 102.632 118.175C103.297 117.741 104.073 117.523 104.959 117.523C105.649 117.523 106.271 117.651 106.825 117.907C107.379 118.162 107.833 118.52 108.187 118.981C108.541 119.441 108.76 119.978 108.845 120.591H107.337C107.222 120.144 106.966 119.748 106.57 119.402C106.178 119.053 105.649 118.878 104.985 118.878C104.396 118.878 103.881 119.032 103.438 119.339C102.999 119.641 102.656 120.069 102.409 120.623C102.166 121.173 102.044 121.819 102.044 122.56C102.044 123.319 102.164 123.979 102.402 124.542C102.645 125.104 102.986 125.541 103.425 125.852C103.868 126.163 104.388 126.319 104.985 126.319C105.377 126.319 105.732 126.25 106.052 126.114C106.372 125.978 106.642 125.782 106.864 125.526C107.085 125.27 107.243 124.964 107.337 124.606H108.845C108.76 125.185 108.549 125.707 108.213 126.172C107.88 126.632 107.439 126.998 106.889 127.271C106.344 127.54 105.709 127.674 104.985 127.674ZM111.051 127.469V117.651H112.559V127.469H111.051ZM111.818 116.015C111.524 116.015 111.27 115.915 111.057 115.714C110.848 115.514 110.744 115.273 110.744 114.992C110.744 114.711 110.848 114.47 111.057 114.27C111.27 114.069 111.524 113.969 111.818 113.969C112.112 113.969 112.363 114.069 112.572 114.27C112.785 114.47 112.892 114.711 112.892 114.992C112.892 115.273 112.785 115.514 112.572 115.714C112.363 115.915 112.112 116.015 111.818 116.015ZM119.311 127.674C118.424 127.674 117.647 127.463 116.978 127.041C116.313 126.619 115.793 126.029 115.418 125.27C115.047 124.512 114.862 123.625 114.862 122.611C114.862 121.589 115.047 120.696 115.418 119.933C115.793 119.17 116.313 118.578 116.978 118.156C117.647 117.734 118.424 117.523 119.311 117.523C120.197 117.523 120.973 117.734 121.637 118.156C122.306 118.578 122.826 119.17 123.197 119.933C123.572 120.696 123.76 121.589 123.76 122.611C123.76 123.625 123.572 124.512 123.197 125.27C122.826 126.029 122.306 126.619 121.637 127.041C120.973 127.463 120.197 127.674 119.311 127.674ZM119.311 126.319C119.984 126.319 120.538 126.146 120.973 125.801C121.407 125.456 121.729 125.002 121.938 124.439C122.147 123.877 122.251 123.268 122.251 122.611C122.251 121.955 122.147 121.344 121.938 120.777C121.729 120.21 121.407 119.752 120.973 119.402C120.538 119.053 119.984 118.878 119.311 118.878C118.637 118.878 118.083 119.053 117.649 119.402C117.214 119.752 116.892 120.21 116.684 120.777C116.475 121.344 116.37 121.955 116.37 122.611C116.37 123.268 116.475 123.877 116.684 124.439C116.892 125.002 117.214 125.456 117.649 125.801C118.083 126.146 118.637 126.319 119.311 126.319ZM131.687 121.154V122.56H125.96V121.154H131.687ZM138.049 127.674C137.231 127.674 136.509 127.467 135.882 127.054C135.256 126.636 134.766 126.048 134.412 125.29C134.058 124.527 133.881 123.625 133.881 122.586C133.881 121.554 134.058 120.66 134.412 119.901C134.766 119.143 135.258 118.557 135.888 118.143C136.519 117.73 137.248 117.523 138.075 117.523C138.714 117.523 139.219 117.63 139.589 117.843C139.964 118.052 140.25 118.29 140.446 118.559C140.646 118.823 140.802 119.04 140.913 119.211H141.04V114.378H142.549V127.469H141.092V125.961H140.913C140.802 126.14 140.644 126.366 140.44 126.638C140.235 126.907 139.943 127.148 139.564 127.361C139.185 127.569 138.68 127.674 138.049 127.674ZM138.254 126.319C138.859 126.319 139.37 126.161 139.788 125.846C140.205 125.526 140.523 125.085 140.74 124.523C140.957 123.956 141.066 123.302 141.066 122.56C141.066 121.827 140.96 121.186 140.746 120.636C140.533 120.082 140.218 119.652 139.8 119.345C139.383 119.034 138.867 118.878 138.254 118.878C137.614 118.878 137.082 119.042 136.656 119.371C136.234 119.694 135.916 120.135 135.703 120.694C135.494 121.248 135.39 121.87 135.39 122.56C135.39 123.259 135.496 123.894 135.71 124.465C135.927 125.032 136.246 125.483 136.668 125.82C137.094 126.152 137.623 126.319 138.254 126.319ZM149.638 127.674C148.692 127.674 147.876 127.465 147.19 127.047C146.508 126.625 145.982 126.037 145.611 125.283C145.244 124.525 145.061 123.643 145.061 122.637C145.061 121.631 145.244 120.745 145.611 119.978C145.982 119.206 146.497 118.606 147.158 118.175C147.822 117.741 148.598 117.523 149.484 117.523C149.996 117.523 150.501 117.608 150.999 117.779C151.498 117.949 151.952 118.226 152.361 118.61C152.77 118.989 153.096 119.492 153.339 120.118C153.582 120.745 153.703 121.516 153.703 122.432V123.072H146.135V121.768H152.169C152.169 121.214 152.058 120.719 151.837 120.285C151.619 119.85 151.308 119.507 150.903 119.255C150.503 119.004 150.03 118.878 149.484 118.878C148.884 118.878 148.364 119.027 147.925 119.326C147.49 119.62 147.156 120.003 146.921 120.476C146.687 120.949 146.57 121.456 146.57 121.998V122.867C146.57 123.608 146.697 124.237 146.953 124.753C147.213 125.264 147.573 125.654 148.033 125.922C148.494 126.187 149.028 126.319 149.638 126.319C150.034 126.319 150.392 126.263 150.712 126.152C151.036 126.037 151.315 125.867 151.549 125.641C151.783 125.411 151.964 125.125 152.092 124.785L153.55 125.194C153.396 125.688 153.138 126.123 152.776 126.498C152.414 126.868 151.967 127.158 151.434 127.367C150.901 127.572 150.303 127.674 149.638 127.674ZM155.998 127.469V117.651H157.455V119.185H157.583C157.788 118.661 158.118 118.254 158.574 117.964C159.03 117.67 159.577 117.523 160.217 117.523C160.864 117.523 161.403 117.67 161.834 117.964C162.268 118.254 162.607 118.661 162.85 119.185H162.952C163.204 118.678 163.581 118.275 164.084 117.977C164.587 117.674 165.19 117.523 165.893 117.523C166.771 117.523 167.489 117.798 168.047 118.348C168.605 118.893 168.884 119.743 168.884 120.898V127.469H167.376V120.898C167.376 120.174 167.178 119.656 166.781 119.345C166.385 119.034 165.918 118.878 165.381 118.878C164.691 118.878 164.156 119.087 163.777 119.505C163.398 119.918 163.208 120.442 163.208 121.077V127.469H161.674V120.745C161.674 120.187 161.493 119.737 161.131 119.396C160.768 119.051 160.302 118.878 159.731 118.878C159.339 118.878 158.972 118.983 158.631 119.192C158.295 119.4 158.022 119.69 157.813 120.061C157.609 120.427 157.506 120.851 157.506 121.333V127.469H155.998ZM175.631 127.674C174.745 127.674 173.967 127.463 173.298 127.041C172.633 126.619 172.113 126.029 171.738 125.27C171.368 124.512 171.182 123.625 171.182 122.611C171.182 121.589 171.368 120.696 171.738 119.933C172.113 119.17 172.633 118.578 173.298 118.156C173.967 117.734 174.745 117.523 175.631 117.523C176.517 117.523 177.293 117.734 177.958 118.156C178.627 118.578 179.147 119.17 179.517 119.933C179.892 120.696 180.08 121.589 180.08 122.611C180.08 123.625 179.892 124.512 179.517 125.27C179.147 126.029 178.627 126.619 177.958 127.041C177.293 127.463 176.517 127.674 175.631 127.674ZM175.631 126.319C176.304 126.319 176.858 126.146 177.293 125.801C177.728 125.456 178.049 125.002 178.258 124.439C178.467 123.877 178.571 123.268 178.571 122.611C178.571 121.955 178.467 121.344 178.258 120.777C178.049 120.21 177.728 119.752 177.293 119.402C176.858 119.053 176.304 118.878 175.631 118.878C174.958 118.878 174.404 119.053 173.969 119.402C173.534 119.752 173.213 120.21 173.004 120.777C172.795 121.344 172.691 121.955 172.691 122.611C172.691 123.268 172.795 123.877 173.004 124.439C173.213 125.002 173.534 125.456 173.969 125.801C174.404 126.146 174.958 126.319 175.631 126.319ZM186.346 131.356C185.617 131.356 184.991 131.262 184.466 131.074C183.942 130.891 183.506 130.648 183.156 130.346C182.811 130.047 182.536 129.728 182.331 129.387L183.533 128.543C183.67 128.722 183.842 128.927 184.051 129.157C184.26 129.391 184.545 129.594 184.907 129.764C185.274 129.939 185.753 130.026 186.346 130.026C187.138 130.026 187.792 129.834 188.308 129.451C188.824 129.067 189.081 128.466 189.081 127.648V125.654H188.954C188.843 125.833 188.685 126.054 188.481 126.319C188.28 126.579 187.991 126.811 187.611 127.015C187.236 127.216 186.729 127.316 186.09 127.316C185.297 127.316 184.586 127.128 183.955 126.753C183.329 126.378 182.832 125.833 182.466 125.117C182.104 124.401 181.922 123.532 181.922 122.509C181.922 121.503 182.099 120.628 182.453 119.882C182.807 119.132 183.299 118.552 183.93 118.143C184.56 117.73 185.289 117.523 186.116 117.523C186.755 117.523 187.262 117.63 187.637 117.843C188.016 118.052 188.306 118.29 188.506 118.559C188.711 118.823 188.868 119.04 188.979 119.211H189.133V117.651H190.59V127.75C190.59 128.594 190.398 129.28 190.015 129.809C189.635 130.341 189.124 130.731 188.481 130.978C187.841 131.23 187.13 131.356 186.346 131.356ZM186.295 125.961C186.9 125.961 187.411 125.822 187.829 125.545C188.246 125.268 188.564 124.87 188.781 124.35C188.998 123.83 189.107 123.208 189.107 122.483C189.107 121.776 189.001 121.152 188.787 120.611C188.574 120.069 188.259 119.645 187.841 119.339C187.424 119.032 186.908 118.878 186.295 118.878C185.655 118.878 185.123 119.04 184.697 119.364C184.275 119.688 183.957 120.123 183.744 120.668C183.535 121.214 183.431 121.819 183.431 122.483C183.431 123.165 183.537 123.768 183.751 124.292C183.968 124.812 184.287 125.221 184.709 125.52C185.135 125.814 185.664 125.961 186.295 125.961ZM193.351 127.469V117.651H194.809V119.134H194.911C195.09 118.648 195.414 118.254 195.883 117.951C196.351 117.649 196.88 117.498 197.468 117.498C197.579 117.498 197.717 117.5 197.883 117.504C198.05 117.508 198.175 117.515 198.26 117.523V119.057C198.209 119.045 198.092 119.025 197.909 119C197.73 118.97 197.54 118.955 197.34 118.955C196.863 118.955 196.437 119.055 196.062 119.255C195.691 119.451 195.397 119.724 195.18 120.074C194.966 120.419 194.86 120.813 194.86 121.256V127.469H193.351ZM202.938 127.699C202.316 127.699 201.751 127.582 201.244 127.348C200.737 127.109 200.334 126.766 200.036 126.319C199.738 125.867 199.588 125.322 199.588 124.682C199.588 124.12 199.699 123.664 199.921 123.314C200.142 122.961 200.439 122.684 200.809 122.483C201.18 122.283 201.589 122.134 202.037 122.036C202.488 121.934 202.942 121.853 203.398 121.793C203.995 121.716 204.478 121.659 204.849 121.621C205.224 121.578 205.497 121.508 205.667 121.41C205.842 121.312 205.929 121.141 205.929 120.898V120.847C205.929 120.216 205.757 119.726 205.412 119.377C205.071 119.027 204.553 118.853 203.858 118.853C203.138 118.853 202.574 119.01 202.164 119.326C201.755 119.641 201.468 119.978 201.301 120.336L199.87 119.824C200.125 119.228 200.466 118.763 200.892 118.431C201.323 118.094 201.792 117.86 202.299 117.728C202.81 117.591 203.313 117.523 203.807 117.523C204.123 117.523 204.485 117.562 204.894 117.638C205.307 117.711 205.706 117.862 206.089 118.092C206.477 118.322 206.799 118.67 207.054 119.134C207.31 119.598 207.438 120.221 207.438 121V127.469H205.929V126.14H205.853C205.75 126.353 205.58 126.581 205.341 126.824C205.103 127.067 204.785 127.273 204.389 127.444C203.993 127.614 203.509 127.699 202.938 127.699ZM203.168 126.344C203.765 126.344 204.267 126.227 204.676 125.993C205.09 125.758 205.401 125.456 205.61 125.085C205.823 124.714 205.929 124.324 205.929 123.915V122.535C205.865 122.611 205.725 122.682 205.507 122.746C205.294 122.805 205.047 122.858 204.766 122.905C204.489 122.948 204.218 122.986 203.954 123.02C203.694 123.05 203.483 123.076 203.321 123.097C202.929 123.148 202.563 123.231 202.222 123.346C201.885 123.457 201.613 123.625 201.404 123.851C201.199 124.073 201.097 124.375 201.097 124.759C201.097 125.283 201.291 125.679 201.679 125.948C202.071 126.212 202.567 126.344 203.168 126.344ZM214.563 117.651V118.929H209.271V117.651H214.563ZM210.856 127.469V116.296C210.856 115.733 210.988 115.265 211.252 114.89C211.517 114.515 211.86 114.233 212.281 114.046C212.703 113.858 213.149 113.765 213.617 113.765C213.988 113.765 214.291 113.795 214.525 113.854C214.759 113.914 214.934 113.969 215.049 114.02L214.615 115.324C214.538 115.299 214.431 115.267 214.295 115.228C214.163 115.19 213.988 115.171 213.771 115.171C213.272 115.171 212.912 115.297 212.691 115.548C212.473 115.799 212.365 116.168 212.365 116.654V127.469H210.856ZM216.678 127.469V117.651H218.186V127.469H216.678ZM217.445 116.015C217.151 116.015 216.897 115.915 216.684 115.714C216.475 115.514 216.371 115.273 216.371 114.992C216.371 114.711 216.475 114.47 216.684 114.27C216.897 114.069 217.151 113.969 217.445 113.969C217.739 113.969 217.99 114.069 218.199 114.27C218.412 114.47 218.518 114.711 218.518 114.992C218.518 115.273 218.412 115.514 218.199 115.714C217.99 115.915 217.739 116.015 217.445 116.015ZM224.938 127.674C224.017 127.674 223.225 127.456 222.56 127.022C221.895 126.587 221.384 125.988 221.026 125.226C220.668 124.463 220.489 123.591 220.489 122.611C220.489 121.614 220.672 120.734 221.039 119.971C221.409 119.204 221.925 118.606 222.585 118.175C223.25 117.741 224.026 117.523 224.912 117.523C225.602 117.523 226.225 117.651 226.779 117.907C227.333 118.162 227.786 118.52 228.14 118.981C228.494 119.441 228.713 119.978 228.798 120.591H227.29C227.175 120.144 226.919 119.748 226.523 119.402C226.131 119.053 225.602 118.878 224.938 118.878C224.35 118.878 223.834 119.032 223.391 119.339C222.952 119.641 222.609 120.069 222.362 120.623C222.119 121.173 221.997 121.819 221.997 122.56C221.997 123.319 222.117 123.979 222.355 124.542C222.598 125.104 222.939 125.541 223.378 125.852C223.821 126.163 224.341 126.319 224.938 126.319C225.33 126.319 225.686 126.25 226.005 126.114C226.325 125.978 226.595 125.782 226.817 125.526C227.039 125.27 227.196 124.964 227.29 124.606H228.798C228.713 125.185 228.502 125.707 228.166 126.172C227.833 126.632 227.392 126.998 226.843 127.271C226.297 127.54 225.662 127.674 224.938 127.674ZM233.893 127.699C233.271 127.699 232.706 127.582 232.199 127.348C231.692 127.109 231.289 126.766 230.991 126.319C230.693 125.867 230.544 125.322 230.544 124.682C230.544 124.12 230.654 123.664 230.876 123.314C231.097 122.961 231.394 122.684 231.764 122.483C232.135 122.283 232.544 122.134 232.992 122.036C233.443 121.934 233.897 121.853 234.353 121.793C234.95 121.716 235.433 121.659 235.804 121.621C236.179 121.578 236.452 121.508 236.622 121.41C236.797 121.312 236.884 121.141 236.884 120.898V120.847C236.884 120.216 236.712 119.726 236.367 119.377C236.026 119.027 235.508 118.853 234.813 118.853C234.093 118.853 233.529 119.01 233.119 119.326C232.71 119.641 232.423 119.978 232.257 120.336L230.825 119.824C231.08 119.228 231.421 118.763 231.847 118.431C232.278 118.094 232.747 117.86 233.254 117.728C233.765 117.591 234.268 117.523 234.762 117.523C235.078 117.523 235.44 117.562 235.849 117.638C236.262 117.711 236.661 117.862 237.044 118.092C237.432 118.322 237.754 118.67 238.009 119.134C238.265 119.598 238.393 120.221 238.393 121V127.469H236.884V126.14H236.808C236.705 126.353 236.535 126.581 236.296 126.824C236.058 127.067 235.74 127.273 235.344 127.444C234.948 127.614 234.464 127.699 233.893 127.699ZM234.123 126.344C234.72 126.344 235.222 126.227 235.632 125.993C236.045 125.758 236.356 125.456 236.565 125.085C236.778 124.714 236.884 124.324 236.884 123.915V122.535C236.82 122.611 236.68 122.682 236.463 122.746C236.249 122.805 236.002 122.858 235.721 122.905C235.444 122.948 235.173 122.986 234.909 123.02C234.649 123.05 234.438 123.076 234.276 123.097C233.884 123.148 233.518 123.231 233.177 123.346C232.84 123.457 232.568 123.625 232.359 123.851C232.154 124.073 232.052 124.375 232.052 124.759C232.052 125.283 232.246 125.679 232.634 125.948C233.026 126.212 233.522 126.344 234.123 126.344Z" fill="white"/>
<path d="M8.74432 167.651C8.66761 167.003 8.35653 166.5 7.81108 166.143C7.26563 165.785 6.59659 165.606 5.80398 165.606C5.22443 165.606 4.71733 165.699 4.28267 165.887C3.85227 166.074 3.51563 166.332 3.27273 166.66C3.03409 166.988 2.91477 167.361 2.91477 167.779C2.91477 168.128 2.99787 168.429 3.16406 168.68C3.33452 168.927 3.55185 169.134 3.81605 169.3C4.08026 169.462 4.35724 169.596 4.64702 169.703C4.93679 169.805 5.20312 169.888 5.44602 169.952L6.77557 170.31C7.11648 170.4 7.49574 170.523 7.91335 170.681C8.33523 170.839 8.73793 171.054 9.12145 171.326C9.50923 171.595 9.82884 171.94 10.0803 172.362C10.3317 172.784 10.4574 173.302 10.4574 173.915C10.4574 174.623 10.272 175.262 9.90128 175.833C9.5348 176.404 8.99787 176.858 8.29048 177.194C7.58736 177.531 6.73295 177.699 5.72727 177.699C4.78977 177.699 3.97798 177.548 3.2919 177.246C2.61009 176.943 2.07315 176.521 1.68111 175.98C1.29332 175.439 1.07386 174.81 1.02273 174.094H2.65909C2.7017 174.589 2.8679 174.998 3.15767 175.322C3.4517 175.641 3.82244 175.88 4.26989 176.037C4.72159 176.191 5.20739 176.268 5.72727 176.268C6.33239 176.268 6.87571 176.17 7.35724 175.973C7.83878 175.773 8.22017 175.496 8.50142 175.143C8.78267 174.785 8.9233 174.367 8.9233 173.89C8.9233 173.455 8.80185 173.101 8.55895 172.829C8.31605 172.556 7.99645 172.334 7.60014 172.164C7.20384 171.993 6.77557 171.844 6.31534 171.716L4.70455 171.256C3.68182 170.962 2.87216 170.542 2.27557 169.997C1.67898 169.451 1.38068 168.738 1.38068 167.856C1.38068 167.123 1.57884 166.483 1.97514 165.938C2.37571 165.388 2.91264 164.962 3.58594 164.66C4.26349 164.353 5.01989 164.199 5.85511 164.199C6.69886 164.199 7.44886 164.351 8.10511 164.653C8.76136 164.951 9.28125 165.361 9.66477 165.88C10.0526 166.4 10.2571 166.991 10.2784 167.651H8.74432ZM16.8478 177.674C15.9615 177.674 15.1838 177.463 14.5147 177.041C13.85 176.619 13.3301 176.029 12.9551 175.27C12.5843 174.512 12.399 173.625 12.399 172.611C12.399 171.589 12.5843 170.696 12.9551 169.933C13.3301 169.17 13.85 168.578 14.5147 168.156C15.1838 167.734 15.9615 167.523 16.8478 167.523C17.7342 167.523 18.5098 167.734 19.1745 168.156C19.8436 168.578 20.3635 169.17 20.7342 169.933C21.1092 170.696 21.2967 171.589 21.2967 172.611C21.2967 173.625 21.1092 174.512 20.7342 175.27C20.3635 176.029 19.8436 176.619 19.1745 177.041C18.5098 177.463 17.7342 177.674 16.8478 177.674ZM16.8478 176.319C17.5211 176.319 18.0751 176.146 18.5098 175.801C18.9444 175.456 19.2662 175.002 19.475 174.439C19.6838 173.877 19.7882 173.268 19.7882 172.611C19.7882 171.955 19.6838 171.344 19.475 170.777C19.2662 170.21 18.9444 169.752 18.5098 169.402C18.0751 169.053 17.5211 168.878 16.8478 168.878C16.1745 168.878 15.6206 169.053 15.1859 169.402C14.7512 169.752 14.4295 170.21 14.2207 170.777C14.0119 171.344 13.9075 171.955 13.9075 172.611C13.9075 173.268 14.0119 173.877 14.2207 174.439C14.4295 175.002 14.7512 175.456 15.1859 175.801C15.6206 176.146 16.1745 176.319 16.8478 176.319ZM30.554 169.85L29.1989 170.233C29.1136 170.008 28.9879 169.788 28.8217 169.575C28.6598 169.358 28.4382 169.179 28.157 169.038C27.8757 168.898 27.5156 168.827 27.0767 168.827C26.4759 168.827 25.9751 168.966 25.5746 169.243C25.1783 169.515 24.9801 169.863 24.9801 170.285C24.9801 170.66 25.1165 170.956 25.3892 171.173C25.6619 171.39 26.0881 171.572 26.6676 171.716L28.125 172.074C29.0028 172.287 29.657 172.613 30.0874 173.052C30.5178 173.487 30.733 174.047 30.733 174.733C30.733 175.296 30.571 175.799 30.2472 176.242C29.9276 176.685 29.4801 177.035 28.9048 177.29C28.3295 177.546 27.6605 177.674 26.8977 177.674C25.8963 177.674 25.0675 177.456 24.4112 177.022C23.755 176.587 23.3395 175.952 23.1648 175.117L24.5966 174.759C24.733 175.287 24.9908 175.684 25.37 175.948C25.7536 176.212 26.2543 176.344 26.8722 176.344C27.5753 176.344 28.1335 176.195 28.5469 175.897C28.9645 175.594 29.1733 175.232 29.1733 174.81C29.1733 174.469 29.054 174.184 28.8153 173.954C28.5767 173.719 28.2102 173.545 27.7159 173.429L26.0795 173.046C25.1804 172.833 24.5199 172.503 24.098 172.055C23.6804 171.603 23.4716 171.039 23.4716 170.361C23.4716 169.807 23.6271 169.317 23.9382 168.891C24.2536 168.465 24.6818 168.13 25.223 167.888C25.7685 167.645 26.3864 167.523 27.0767 167.523C28.0483 167.523 28.8111 167.736 29.3651 168.162C29.9233 168.589 30.3196 169.151 30.554 169.85ZM37.2736 167.651V168.929H32.1855V167.651H37.2736ZM33.6685 165.299H35.177V174.657C35.177 175.083 35.2388 175.402 35.3624 175.616C35.4902 175.824 35.6522 175.965 35.8482 176.037C36.0485 176.106 36.2594 176.14 36.481 176.14C36.6472 176.14 36.7836 176.131 36.8901 176.114C36.9966 176.093 37.0819 176.076 37.1458 176.063L37.4526 177.418C37.3503 177.456 37.2076 177.495 37.0243 177.533C36.8411 177.576 36.6088 177.597 36.3276 177.597C35.9015 177.597 35.4838 177.505 35.0748 177.322C34.6699 177.139 34.3333 176.86 34.0648 176.485C33.8006 176.11 33.6685 175.637 33.6685 175.066V165.299ZM43.5538 177.674C42.6078 177.674 41.7917 177.465 41.1056 177.047C40.4238 176.625 39.8975 176.037 39.5268 175.283C39.1603 174.525 38.9771 173.643 38.9771 172.637C38.9771 171.631 39.1603 170.745 39.5268 169.978C39.8975 169.206 40.4132 168.606 41.0737 168.175C41.7385 167.741 42.514 167.523 43.4004 167.523C43.9118 167.523 44.4167 167.608 44.9153 167.779C45.4139 167.949 45.8677 168.226 46.2768 168.61C46.6859 168.989 47.0119 169.492 47.2548 170.118C47.4977 170.745 47.6191 171.516 47.6191 172.432V173.072H40.051V171.768H46.0851C46.0851 171.214 45.9743 170.719 45.7527 170.285C45.5353 169.85 45.2243 169.507 44.8194 169.255C44.4189 169.004 43.9458 168.878 43.4004 168.878C42.7995 168.878 42.2797 169.027 41.8407 169.326C41.4061 169.62 41.0716 170.003 40.8372 170.476C40.6028 170.949 40.4856 171.456 40.4856 171.998V172.867C40.4856 173.608 40.6135 174.237 40.8691 174.753C41.1291 175.264 41.4892 175.654 41.9494 175.922C42.4096 176.187 42.9444 176.319 43.5538 176.319C43.9501 176.319 44.3081 176.263 44.6277 176.152C44.9515 176.037 45.2306 175.867 45.465 175.641C45.6994 175.411 45.8805 175.125 46.0083 174.785L47.4657 175.194C47.3123 175.688 47.0545 176.123 46.6923 176.498C46.3301 176.868 45.8826 177.158 45.35 177.367C44.8173 177.572 44.2186 177.674 43.5538 177.674ZM51.4224 171.563V177.469H49.9139V167.651H51.3713V169.185H51.4991C51.7292 168.687 52.0787 168.286 52.5474 167.983C53.0162 167.677 53.6213 167.523 54.3627 167.523C55.0275 167.523 55.6092 167.66 56.1078 167.932C56.6064 168.201 56.9941 168.61 57.2711 169.16C57.5481 169.705 57.6866 170.395 57.6866 171.231V177.469H56.1781V171.333C56.1781 170.562 55.9778 169.961 55.5772 169.53C55.1767 169.096 54.627 168.878 53.9281 168.878C53.4466 168.878 53.0162 168.983 52.6369 169.192C52.2619 169.4 51.9657 169.705 51.7484 170.106C51.5311 170.506 51.4224 170.992 51.4224 171.563ZM60.4432 177.469V167.651H61.9517V177.469H60.4432ZM61.2102 166.015C60.9162 166.015 60.6626 165.915 60.4496 165.714C60.2408 165.514 60.1364 165.273 60.1364 164.992C60.1364 164.711 60.2408 164.47 60.4496 164.27C60.6626 164.069 60.9162 163.969 61.2102 163.969C61.5043 163.969 61.7557 164.069 61.9645 164.27C62.1776 164.47 62.2841 164.711 62.2841 164.992C62.2841 165.273 62.1776 165.514 61.9645 165.714C61.7557 165.915 61.5043 166.015 61.2102 166.015ZM64.9192 177.469V164.378H66.4277V169.211H66.5556C66.6664 169.04 66.8198 168.823 67.0158 168.559C67.2161 168.29 67.5016 168.052 67.8723 167.843C68.2473 167.63 68.7544 167.523 69.3936 167.523C70.2203 167.523 70.949 167.73 71.5797 168.143C72.2104 168.557 72.7026 169.143 73.0563 169.901C73.41 170.66 73.5868 171.554 73.5868 172.586C73.5868 173.625 73.41 174.527 73.0563 175.29C72.7026 176.048 72.2125 176.636 71.5861 177.054C70.9597 177.467 70.2374 177.674 69.4192 177.674C68.7885 177.674 68.2836 177.569 67.9043 177.361C67.525 177.148 67.2331 176.907 67.0286 176.638C66.824 176.366 66.6664 176.14 66.5556 175.961H66.3766V177.469H64.9192ZM66.4022 172.56C66.4022 173.302 66.5108 173.956 66.7282 174.523C66.9455 175.085 67.263 175.526 67.6806 175.846C68.0982 176.161 68.6096 176.319 69.2147 176.319C69.8453 176.319 70.3716 176.152 70.7935 175.82C71.2196 175.483 71.5392 175.032 71.7523 174.465C71.9696 173.894 72.0783 173.259 72.0783 172.56C72.0783 171.87 71.9718 171.248 71.7587 170.694C71.5499 170.135 71.2324 169.694 70.8063 169.371C70.3844 169.042 69.8539 168.878 69.2147 168.878C68.601 168.878 68.0854 169.034 67.6678 169.345C67.2502 169.652 66.9348 170.082 66.7218 170.636C66.5087 171.186 66.4022 171.827 66.4022 172.56ZM75.8944 177.469V167.651H77.4029V177.469H75.8944ZM76.6614 166.015C76.3674 166.015 76.1138 165.915 75.9007 165.714C75.6919 165.514 75.5875 165.273 75.5875 164.992C75.5875 164.711 75.6919 164.47 75.9007 164.27C76.1138 164.069 76.3674 163.969 76.6614 163.969C76.9554 163.969 77.2069 164.069 77.4157 164.27C77.6287 164.47 77.7353 164.711 77.7353 164.992C77.7353 165.273 77.6287 165.514 77.4157 165.714C77.2069 165.915 76.9554 166.015 76.6614 166.015ZM81.6744 164.378V177.469H80.1658V164.378H81.6744ZM84.4373 177.469V167.651H85.9458V177.469H84.4373ZM85.2044 166.015C84.9103 166.015 84.6568 165.915 84.4437 165.714C84.2349 165.514 84.1305 165.273 84.1305 164.992C84.1305 164.711 84.2349 164.47 84.4437 164.27C84.6568 164.069 84.9103 163.969 85.2044 163.969C85.4984 163.969 85.7498 164.069 85.9586 164.27C86.1717 164.47 86.2782 164.711 86.2782 164.992C86.2782 165.273 86.1717 165.514 85.9586 165.714C85.7498 165.915 85.4984 166.015 85.2044 166.015ZM92.9787 167.651V168.929H87.8906V167.651H92.9787ZM89.3736 165.299H90.8821V174.657C90.8821 175.083 90.9439 175.402 91.0675 175.616C91.1953 175.824 91.3572 175.965 91.5533 176.037C91.7536 176.106 91.9645 176.14 92.1861 176.14C92.3523 176.14 92.4886 176.131 92.5952 176.114C92.7017 176.093 92.7869 176.076 92.8509 176.063L93.1577 177.418C93.0554 177.456 92.9126 177.495 92.7294 177.533C92.5462 177.576 92.3139 177.597 92.0327 177.597C91.6065 177.597 91.1889 177.505 90.7798 177.322C90.375 177.139 90.0384 176.86 89.7699 176.485C89.5057 176.11 89.3736 175.637 89.3736 175.066V165.299ZM98.1371 177.699C97.5149 177.699 96.9503 177.582 96.4432 177.348C95.9361 177.109 95.5334 176.766 95.2351 176.319C94.9368 175.867 94.7876 175.322 94.7876 174.682C94.7876 174.12 94.8984 173.664 95.12 173.314C95.3416 172.961 95.6378 172.684 96.0085 172.483C96.3793 172.283 96.7884 172.134 97.2358 172.036C97.6875 171.934 98.1413 171.853 98.5973 171.793C99.1939 171.716 99.6776 171.659 100.048 171.621C100.423 171.578 100.696 171.508 100.866 171.41C101.041 171.312 101.129 171.141 101.129 170.898V170.847C101.129 170.216 100.956 169.726 100.611 169.377C100.27 169.027 99.7521 168.853 99.0575 168.853C98.3374 168.853 97.7727 169.01 97.3636 169.326C96.9545 169.641 96.6669 169.978 96.5007 170.336L95.0689 169.824C95.3246 169.228 95.6655 168.763 96.0916 168.431C96.522 168.094 96.9908 167.86 97.4979 167.728C98.0092 167.591 98.5121 167.523 99.0064 167.523C99.3217 167.523 99.6839 167.562 100.093 167.638C100.506 167.711 100.905 167.862 101.288 168.092C101.676 168.322 101.998 168.67 102.254 169.134C102.509 169.598 102.637 170.221 102.637 171V177.469H101.129V176.14H101.052C100.95 176.353 100.779 176.581 100.54 176.824C100.302 177.067 99.9844 177.273 99.5881 177.444C99.1918 177.614 98.7081 177.699 98.1371 177.699ZM98.3672 176.344C98.9638 176.344 99.4666 176.227 99.8757 175.993C100.289 175.758 100.6 175.456 100.809 175.085C101.022 174.714 101.129 174.324 101.129 173.915V172.535C101.065 172.611 100.924 172.682 100.707 172.746C100.494 172.805 100.246 172.858 99.9652 172.905C99.6882 172.948 99.4176 172.986 99.1534 173.02C98.8935 173.05 98.6825 173.076 98.5206 173.097C98.1286 173.148 97.7621 173.231 97.4212 173.346C97.0845 173.457 96.8118 173.625 96.603 173.851C96.3984 174.073 96.2962 174.375 96.2962 174.759C96.2962 175.283 96.4901 175.679 96.8778 175.948C97.2699 176.212 97.7663 176.344 98.3672 176.344ZM98.4695 166.322L96.4751 163.356H98.2393L99.799 166.322H98.4695Z" fill="white"/>
<path d="M1.58523 227.469V214.378H6.00852C7.03125 214.378 7.87074 214.553 8.52699 214.902C9.18324 215.248 9.66903 215.723 9.98438 216.328C10.2997 216.933 10.4574 217.621 10.4574 218.393C10.4574 219.164 10.2997 219.848 9.98438 220.444C9.66903 221.041 9.18537 221.51 8.53338 221.851C7.88139 222.187 7.0483 222.356 6.03409 222.356H2.45455V220.924H5.98295C6.68182 220.924 7.24432 220.822 7.67045 220.617C8.10085 220.412 8.41193 220.123 8.60369 219.748C8.79972 219.368 8.89773 218.917 8.89773 218.393C8.89773 217.868 8.79972 217.41 8.60369 217.018C8.40767 216.626 8.09446 216.324 7.66406 216.111C7.23366 215.893 6.66477 215.785 5.95739 215.785H3.17045V227.469H1.58523ZM7.74716 221.589L10.9688 227.469H9.12784L5.95739 221.589H7.74716ZM16.9054 227.674C15.9593 227.674 15.1433 227.465 14.4572 227.047C13.7754 226.625 13.2491 226.037 12.8784 225.283C12.5119 224.525 12.3287 223.643 12.3287 222.637C12.3287 221.631 12.5119 220.745 12.8784 219.978C13.2491 219.206 13.7647 218.606 14.4252 218.175C15.09 217.741 15.8656 217.523 16.752 217.523C17.2633 217.523 17.7683 217.608 18.2669 217.779C18.7654 217.949 19.2193 218.226 19.6284 218.61C20.0375 218.989 20.3635 219.492 20.6064 220.118C20.8493 220.745 20.9707 221.516 20.9707 222.432V223.072H13.4025V221.768H19.4366C19.4366 221.214 19.3258 220.719 19.1042 220.285C18.8869 219.85 18.5758 219.507 18.171 219.255C17.7704 219.004 17.2974 218.878 16.752 218.878C16.1511 218.878 15.6312 219.027 15.1923 219.326C14.7576 219.62 14.4231 220.003 14.1887 220.476C13.9544 220.949 13.8372 221.456 13.8372 221.998V222.867C13.8372 223.608 13.965 224.237 14.2207 224.753C14.4806 225.264 14.8407 225.654 15.301 225.922C15.7612 226.187 16.296 226.319 16.9054 226.319C17.3017 226.319 17.6596 226.263 17.9792 226.152C18.3031 226.037 18.5822 225.867 18.8166 225.641C19.051 225.411 19.2321 225.125 19.3599 224.785L20.8173 225.194C20.6639 225.688 20.4061 226.123 20.0439 226.498C19.6816 226.868 19.2342 227.158 18.7015 227.367C18.1689 227.572 17.5701 227.674 16.9054 227.674ZM27.5353 217.651V218.929H22.4473V217.651H27.5353ZM23.9302 215.299H25.4387V224.657C25.4387 225.083 25.5005 225.402 25.6241 225.616C25.752 225.824 25.9139 225.965 26.1099 226.037C26.3102 226.106 26.5211 226.14 26.7427 226.14C26.9089 226.14 27.0453 226.131 27.1518 226.114C27.2583 226.093 27.3436 226.076 27.4075 226.063L27.7143 227.418C27.612 227.456 27.4693 227.495 27.286 227.533C27.1028 227.576 26.8706 227.597 26.5893 227.597C26.1632 227.597 25.7456 227.505 25.3365 227.322C24.9316 227.139 24.595 226.86 24.3265 226.485C24.0623 226.11 23.9302 225.637 23.9302 225.066V215.299ZM33.8155 227.674C32.8695 227.674 32.0534 227.465 31.3674 227.047C30.6855 226.625 30.1593 226.037 29.7885 225.283C29.4221 224.525 29.2388 223.643 29.2388 222.637C29.2388 221.631 29.4221 220.745 29.7885 219.978C30.1593 219.206 30.6749 218.606 31.3354 218.175C32.0002 217.741 32.7757 217.523 33.6621 217.523C34.1735 217.523 34.6784 217.608 35.177 217.779C35.6756 217.949 36.1294 218.226 36.5385 218.61C36.9476 218.989 37.2736 219.492 37.5165 220.118C37.7594 220.745 37.8809 221.516 37.8809 222.432V223.072H30.3127V221.768H36.3468C36.3468 221.214 36.236 220.719 36.0144 220.285C35.7971 219.85 35.486 219.507 35.0811 219.255C34.6806 219.004 34.2076 218.878 33.6621 218.878C33.0613 218.878 32.5414 219.027 32.1025 219.326C31.6678 219.62 31.3333 220.003 31.0989 220.476C30.8645 220.949 30.7473 221.456 30.7473 221.998V222.867C30.7473 223.608 30.8752 224.237 31.1309 224.753C31.3908 225.264 31.7509 225.654 32.2111 225.922C32.6713 226.187 33.2061 226.319 33.8155 226.319C34.2118 226.319 34.5698 226.263 34.8894 226.152C35.2132 226.037 35.4924 225.867 35.7267 225.641C35.9611 225.411 36.1422 225.125 36.2701 224.785L37.7275 225.194C37.574 225.688 37.3162 226.123 36.954 226.498C36.5918 226.868 36.1444 227.158 35.6117 227.367C35.079 227.572 34.4803 227.674 33.8155 227.674ZM41.6841 221.563V227.469H40.1756V217.651H41.633V219.185H41.7608C41.9909 218.687 42.3404 218.286 42.8091 217.983C43.2779 217.677 43.883 217.523 44.6245 217.523C45.2892 217.523 45.8709 217.66 46.3695 217.932C46.8681 218.201 47.2559 218.61 47.5328 219.16C47.8098 219.705 47.9483 220.395 47.9483 221.231V227.469H46.4398V221.333C46.4398 220.562 46.2395 219.961 45.839 219.53C45.4384 219.096 44.8887 218.878 44.1898 218.878C43.7083 218.878 43.2779 218.983 42.8986 219.192C42.5236 219.4 42.2275 219.705 42.0101 220.106C41.7928 220.506 41.6841 220.992 41.6841 221.563ZM54.9748 217.651V218.929H49.8867V217.651H54.9748ZM51.3697 215.299H52.8782V224.657C52.8782 225.083 52.94 225.402 53.0636 225.616C53.1914 225.824 53.3533 225.965 53.5494 226.037C53.7496 226.106 53.9606 226.14 54.1822 226.14C54.3484 226.14 54.4847 226.131 54.5913 226.114C54.6978 226.093 54.783 226.076 54.8469 226.063L55.1538 227.418C55.0515 227.456 54.9087 227.495 54.7255 227.533C54.5423 227.576 54.31 227.597 54.0288 227.597C53.6026 227.597 53.185 227.505 52.7759 227.322C52.3711 227.139 52.0344 226.86 51.766 226.485C51.5018 226.11 51.3697 225.637 51.3697 225.066V215.299ZM57.244 227.469V217.651H58.7525V227.469H57.244ZM58.011 216.015C57.717 216.015 57.4634 215.915 57.2504 215.714C57.0415 215.514 56.9371 215.273 56.9371 214.992C56.9371 214.711 57.0415 214.47 57.2504 214.27C57.4634 214.069 57.717 213.969 58.011 213.969C58.305 213.969 58.5565 214.069 58.7653 214.27C58.9783 214.47 59.0849 214.711 59.0849 214.992C59.0849 215.273 58.9783 215.514 58.7653 215.714C58.5565 215.915 58.305 216.015 58.011 216.015ZM65.5041 227.674C64.6177 227.674 63.84 227.463 63.171 227.041C62.5062 226.619 61.9863 226.029 61.6113 225.27C61.2406 224.512 61.0552 223.625 61.0552 222.611C61.0552 221.589 61.2406 220.696 61.6113 219.933C61.9863 219.17 62.5062 218.578 63.171 218.156C63.84 217.734 64.6177 217.523 65.5041 217.523C66.3904 217.523 67.166 217.734 67.8308 218.156C68.4998 218.578 69.0197 219.17 69.3904 219.933C69.7654 220.696 69.9529 221.589 69.9529 222.611C69.9529 223.625 69.7654 224.512 69.3904 225.27C69.0197 226.029 68.4998 226.619 67.8308 227.041C67.166 227.463 66.3904 227.674 65.5041 227.674ZM65.5041 226.319C66.1774 226.319 66.7314 226.146 67.166 225.801C67.6007 225.456 67.9224 225.002 68.1312 224.439C68.34 223.877 68.4444 223.268 68.4444 222.611C68.4444 221.955 68.34 221.344 68.1312 220.777C67.9224 220.21 67.6007 219.752 67.166 219.402C66.7314 219.053 66.1774 218.878 65.5041 218.878C64.8308 218.878 64.2768 219.053 63.8422 219.402C63.4075 219.752 63.0858 220.21 62.877 220.777C62.6681 221.344 62.5637 221.955 62.5637 222.611C62.5637 223.268 62.6681 223.877 62.877 224.439C63.0858 225.002 63.4075 225.456 63.8422 225.801C64.2768 226.146 64.8308 226.319 65.5041 226.319ZM73.7642 221.563V227.469H72.2557V217.651H73.7131V219.185H73.8409C74.071 218.687 74.4205 218.286 74.8892 217.983C75.358 217.677 75.9631 217.523 76.7045 217.523C77.3693 217.523 77.951 217.66 78.4496 217.932C78.9482 218.201 79.3359 218.61 79.6129 219.16C79.8899 219.705 80.0284 220.395 80.0284 221.231V227.469H78.5199V221.333C78.5199 220.562 78.3196 219.961 77.919 219.53C77.5185 219.096 76.9688 218.878 76.2699 218.878C75.7884 218.878 75.358 218.983 74.9787 219.192C74.6037 219.4 74.3075 219.705 74.0902 220.106C73.8729 220.506 73.7642 220.992 73.7642 221.563Z" fill="white"/>
<circle cx="510.69" cy="26.1991" r="6.20106" fill="#FF454D" stroke="#FF454D"/>
<circle cx="540.093" cy="26.1991" r="6.20106" fill="#FF454D" stroke="#FF454D"/>
<circle cx="569.494" cy="26.1991" r="6.20106" stroke="white"/>
<circle cx="598.896" cy="26.1991" r="6.20106" stroke="white"/>
<circle cx="628.299" cy="26.1991" r="6.20106" stroke="white"/>
<circle cx="510.69" cy="75.4979" r="6.20106" fill="#FF454D" stroke="#FF454D"/>
<circle cx="540.093" cy="75.4979" r="6.20106" fill="#FF454D" stroke="#FF454D"/>
<circle cx="569.494" cy="75.4979" r="6.20106" fill="#FF454D" stroke="#FF454D"/>
<circle cx="598.896" cy="75.4979" r="6.20106" stroke="white"/>
<circle cx="628.299" cy="75.4979" r="6.20106" stroke="white"/>
<circle cx="510.69" cy="124.797" r="6.20106" fill="#FF454D" stroke="#FF454D"/>
<circle cx="540.093" cy="124.797" r="6.20106" fill="#FF454D" stroke="#FF454D"/>
<circle cx="569.494" cy="124.797" r="6.20106" fill="#FF454D" stroke="#FF454D"/>
<circle cx="598.896" cy="124.797" r="6.20106" stroke="white"/>
<circle cx="628.299" cy="124.797" r="6.20106" stroke="white"/>
<circle cx="510.69" cy="174.096" r="6.20106" fill="#FF454D" stroke="#FF454D"/>
<circle cx="540.093" cy="174.096" r="6.20106" fill="#FF454D" stroke="#FF454D"/>
<circle cx="569.494" cy="174.096" r="6.20106" fill="#FF454D" stroke="#FF454D"/>
<circle cx="598.896" cy="174.096" r="6.20106" fill="#FF454D" stroke="#FF454D"/>
<circle cx="628.299" cy="174.096" r="6.20106" stroke="white"/>
<circle cx="510.69" cy="223.394" r="6.20106" fill="#FF454D" stroke="#FF454D"/>
<circle cx="540.093" cy="223.394" r="6.20106" fill="#FF454D" stroke="#FF454D"/>
<circle cx="569.494" cy="223.394" r="6.20106" fill="#FF454D" stroke="#FF454D"/>
<circle cx="598.896" cy="223.394" r="6.20106" fill="#FF454D" stroke="#FF454D"/>
<circle cx="628.299" cy="223.394" r="6.20106" stroke="white"/>
<path d="M0 0.498047L635 0.497991" stroke="white" stroke-width="0.5"/>
<path d="M0 50.498L635 50.498" stroke="white" stroke-width="0.5"/>
<path d="M0 100.498L635 100.498" stroke="white" stroke-width="0.5"/>
<path d="M0 150.498L635 150.498" stroke="white" stroke-width="0.5"/>
<path d="M0 200.499L635 200.498" stroke="white" stroke-width="0.5"/>
<path d="M0 250.499L635 250.498" stroke="white" stroke-width="0.5"/>
</svg>
