<svg width="635" height="251" viewBox="0 0 635 251" fill="none" xmlns="http://www.w3.org/2000/svg">
<path d="M11.9659 14.4228V27.5137H10.4318L3.2983 17.2353H3.17045V27.5137H1.58523V14.4228H3.11932L10.2784 24.7267H10.4062V14.4228H11.9659ZM21.1209 23.4995V17.6955H22.6294V27.5137H21.1209V25.8517H21.0186C20.7885 26.3503 20.4306 26.7743 19.9448 27.1238C19.459 27.4689 18.8453 27.6415 18.1039 27.6415C17.4902 27.6415 16.9448 27.5073 16.4675 27.2388C15.9902 26.9661 15.6152 26.557 15.3425 26.0115C15.0698 25.4618 14.9334 24.7694 14.9334 23.9341V17.6955H16.4419V23.8319C16.4419 24.5478 16.6422 25.1188 17.0428 25.5449C17.4476 25.9711 17.9632 26.1841 18.5897 26.1841C18.9647 26.1841 19.3461 26.0882 19.7338 25.8965C20.1259 25.7047 20.454 25.4107 20.7182 25.0144C20.9867 24.6181 21.1209 24.1131 21.1209 23.4995ZM29.381 27.7182C28.4947 27.7182 27.717 27.5073 27.0479 27.0854C26.3832 26.6635 25.8633 26.0733 25.4883 25.3148C25.1175 24.5563 24.9322 23.6699 24.9322 22.6557C24.9322 21.633 25.1175 20.7402 25.4883 19.9774C25.8633 19.2147 26.3832 18.6223 27.0479 18.2005C27.717 17.7786 28.4947 17.5676 29.381 17.5676C30.2674 17.5676 31.043 17.7786 31.7077 18.2005C32.3768 18.6223 32.8967 19.2147 33.2674 19.9774C33.6424 20.7402 33.8299 21.633 33.8299 22.6557C33.8299 23.6699 33.6424 24.5563 33.2674 25.3148C32.8967 26.0733 32.3768 26.6635 31.7077 27.0854C31.043 27.5073 30.2674 27.7182 29.381 27.7182ZM29.381 26.3631C30.0543 26.3631 30.6083 26.1905 31.043 25.8453C31.4776 25.5002 31.7994 25.0463 32.0082 24.4838C32.217 23.9213 32.3214 23.312 32.3214 22.6557C32.3214 21.9995 32.217 21.388 32.0082 20.8212C31.7994 20.2544 31.4776 19.7963 31.043 19.4469C30.6083 19.0975 30.0543 18.9228 29.381 18.9228C28.7077 18.9228 28.1538 19.0975 27.7191 19.4469C27.2844 19.7963 26.9627 20.2544 26.7539 20.8212C26.5451 21.388 26.4407 21.9995 26.4407 22.6557C26.4407 23.312 26.5451 23.9213 26.7539 24.4838C26.9627 25.0463 27.2844 25.5002 27.7191 25.8453C28.1538 26.1905 28.7077 26.3631 29.381 26.3631ZM43.8095 17.6955L40.1788 27.5137H38.6447L35.014 17.6955H36.6504L39.3606 25.5194H39.4629L42.1731 17.6955H43.8095ZM45.8006 27.5137V17.6955H47.3091V27.5137H45.8006ZM46.5676 16.0591C46.2736 16.0591 46.0201 15.959 45.807 15.7587C45.5982 15.5584 45.4938 15.3176 45.4938 15.0364C45.4938 14.7551 45.5982 14.5144 45.807 14.3141C46.0201 14.1138 46.2736 14.0137 46.5676 14.0137C46.8617 14.0137 47.1131 14.1138 47.3219 14.3141C47.535 14.5144 47.6415 14.7551 47.6415 15.0364C47.6415 15.3176 47.535 15.5584 47.3219 15.7587C47.1131 15.959 46.8617 16.0591 46.5676 16.0591ZM63.163 17.6955L59.5323 27.5137H57.9982L54.3675 17.6955H56.0039L58.7141 25.5194H58.8164L61.5266 17.6955H63.163ZM68.7912 27.7182C67.9048 27.7182 67.1271 27.5073 66.4581 27.0854C65.7933 26.6635 65.2734 26.0733 64.8984 25.3148C64.5277 24.5563 64.3423 23.6699 64.3423 22.6557C64.3423 21.633 64.5277 20.7402 64.8984 19.9774C65.2734 19.2147 65.7933 18.6223 66.4581 18.2005C67.1271 17.7786 67.9048 17.5676 68.7912 17.5676C69.6776 17.5676 70.4531 17.7786 71.1179 18.2005C71.7869 18.6223 72.3068 19.2147 72.6776 19.9774C73.0526 20.7402 73.2401 21.633 73.2401 22.6557C73.2401 23.6699 73.0526 24.5563 72.6776 25.3148C72.3068 26.0733 71.7869 26.6635 71.1179 27.0854C70.4531 27.5073 69.6776 27.7182 68.7912 27.7182ZM68.7912 26.3631C69.4645 26.3631 70.0185 26.1905 70.4531 25.8453C70.8878 25.5002 71.2095 25.0463 71.4183 24.4838C71.6271 23.9213 71.7315 23.312 71.7315 22.6557C71.7315 21.9995 71.6271 21.388 71.4183 20.8212C71.2095 20.2544 70.8878 19.7963 70.4531 19.4469C70.0185 19.0975 69.4645 18.9228 68.7912 18.9228C68.1179 18.9228 67.5639 19.0975 67.1293 19.4469C66.6946 19.7963 66.3729 20.2544 66.1641 20.8212C65.9553 21.388 65.8509 21.9995 65.8509 22.6557C65.8509 23.312 65.9553 23.9213 66.1641 24.4838C66.3729 25.0463 66.6946 25.5002 67.1293 25.8453C67.5639 26.1905 68.1179 26.3631 68.7912 26.3631ZM77.0513 14.4228V27.5137H75.5428V14.4228H77.0513ZM83.8029 27.7182C82.9165 27.7182 82.1388 27.5073 81.4698 27.0854C80.805 26.6635 80.2852 26.0733 79.9102 25.3148C79.5394 24.5563 79.354 23.6699 79.354 22.6557C79.354 21.633 79.5394 20.7402 79.9102 19.9774C80.2852 19.2147 80.805 18.6223 81.4698 18.2005C82.1388 17.7786 82.9165 17.5676 83.8029 17.5676C84.6893 17.5676 85.4648 17.7786 86.1296 18.2005C86.7987 18.6223 87.3185 19.2147 87.6893 19.9774C88.0643 20.7402 88.2518 21.633 88.2518 22.6557C88.2518 23.6699 88.0643 24.5563 87.6893 25.3148C87.3185 26.0733 86.7987 26.6635 86.1296 27.0854C85.4648 27.5073 84.6893 27.7182 83.8029 27.7182ZM83.8029 26.3631C84.4762 26.3631 85.0302 26.1905 85.4648 25.8453C85.8995 25.5002 86.2212 25.0463 86.43 24.4838C86.6388 23.9213 86.7433 23.312 86.7433 22.6557C86.7433 21.9995 86.6388 21.388 86.43 20.8212C86.2212 20.2544 85.8995 19.7963 85.4648 19.4469C85.0302 19.0975 84.4762 18.9228 83.8029 18.9228C83.1296 18.9228 82.5756 19.0975 82.141 19.4469C81.7063 19.7963 81.3846 20.2544 81.1758 20.8212C80.967 21.388 80.8626 21.9995 80.8626 22.6557C80.8626 23.312 80.967 23.9213 81.1758 24.4838C81.3846 25.0463 81.7063 25.5002 82.141 25.8453C82.5756 26.1905 83.1296 26.3631 83.8029 26.3631ZM92.063 21.6074V27.5137H90.5545V17.6955H92.0119V19.2296H92.1397C92.3699 18.731 92.7193 18.3304 93.188 18.0279C93.6568 17.7211 94.2619 17.5676 95.0034 17.5676C95.6681 17.5676 96.2498 17.704 96.7484 17.9767C97.247 18.2452 97.6348 18.6543 97.9118 19.204C98.1887 19.7495 98.3272 20.4398 98.3272 21.275V27.5137H96.8187V21.3773C96.8187 20.606 96.6184 20.0051 96.2179 19.5748C95.8173 19.1401 95.2676 18.9228 94.5687 18.9228C94.0872 18.9228 93.6568 19.0272 93.2775 19.236C92.9025 19.4448 92.6064 19.7495 92.389 20.15C92.1717 20.5506 92.063 21.0364 92.063 21.6074ZM105.354 17.6955V18.9739H100.266V17.6955H105.354ZM101.749 15.3432H103.257V24.7012C103.257 25.1273 103.319 25.4469 103.442 25.66C103.57 25.8688 103.732 26.0094 103.928 26.0819C104.129 26.15 104.339 26.1841 104.561 26.1841C104.727 26.1841 104.864 26.1756 104.97 26.1586C105.077 26.1373 105.162 26.1202 105.226 26.1074L105.533 27.4625C105.43 27.5009 105.288 27.5392 105.104 27.5776C104.921 27.6202 104.689 27.6415 104.408 27.6415C103.982 27.6415 103.564 27.5499 103.155 27.3667C102.75 27.1834 102.413 26.9043 102.145 26.5293C101.881 26.1543 101.749 25.6813 101.749 25.1103V15.3432ZM110.512 27.7438C109.89 27.7438 109.325 27.6266 108.818 27.3922C108.311 27.1536 107.908 26.8105 107.61 26.3631C107.312 25.9114 107.163 25.3659 107.163 24.7267C107.163 24.1642 107.273 23.7083 107.495 23.3588C107.717 23.0051 108.013 22.7282 108.384 22.5279C108.754 22.3276 109.163 22.1784 109.611 22.0804C110.063 21.9782 110.516 21.8972 110.972 21.8375C111.569 21.7608 112.053 21.7033 112.423 21.6649C112.798 21.6223 113.071 21.552 113.241 21.454C113.416 21.356 113.504 21.1855 113.504 20.9426V20.8915C113.504 20.2608 113.331 19.7708 112.986 19.4213C112.645 19.0719 112.127 18.8972 111.433 18.8972C110.712 18.8972 110.148 19.0549 109.739 19.3702C109.33 19.6855 109.042 20.0222 108.876 20.3801L107.444 19.8688C107.7 19.2722 108.04 18.8077 108.467 18.4753C108.897 18.1387 109.366 17.9043 109.873 17.7722C110.384 17.6358 110.887 17.5676 111.381 17.5676C111.697 17.5676 112.059 17.606 112.468 17.6827C112.881 17.7551 113.28 17.9064 113.663 18.1365C114.051 18.3667 114.373 18.714 114.629 19.1784C114.884 19.6429 115.012 20.2651 115.012 21.0449V27.5137H113.504V26.1841H113.427C113.325 26.3972 113.154 26.6252 112.915 26.8681C112.677 27.111 112.359 27.3176 111.963 27.4881C111.567 27.6586 111.083 27.7438 110.512 27.7438ZM110.742 26.3887C111.339 26.3887 111.842 26.2715 112.251 26.0371C112.664 25.8027 112.975 25.5002 113.184 25.1294C113.397 24.7587 113.504 24.3688 113.504 23.9597V22.579C113.44 22.6557 113.299 22.726 113.082 22.7899C112.869 22.8496 112.621 22.9029 112.34 22.9498C112.063 22.9924 111.793 23.0307 111.528 23.0648C111.268 23.0946 111.058 23.1202 110.896 23.1415C110.504 23.1926 110.137 23.2757 109.796 23.3908C109.46 23.5016 109.187 23.6699 108.978 23.8958C108.773 24.1174 108.671 24.4199 108.671 24.8034C108.671 25.3276 108.865 25.7239 109.253 25.9924C109.645 26.2566 110.141 26.3887 110.742 26.3887ZM117.765 27.5137V17.6955H119.223V19.1784H119.325C119.504 18.6926 119.828 18.2985 120.297 17.9959C120.765 17.6934 121.294 17.5421 121.882 17.5421C121.993 17.5421 122.131 17.5442 122.297 17.5485C122.464 17.5527 122.589 17.5591 122.675 17.5676V19.1017C122.623 19.089 122.506 19.0698 122.323 19.0442C122.144 19.0144 121.954 18.9995 121.754 18.9995C121.277 18.9995 120.851 19.0996 120.476 19.2999C120.105 19.4959 119.811 19.7686 119.594 20.1181C119.381 20.4632 119.274 20.8574 119.274 21.3006V27.5137H117.765ZM124.463 27.5137V17.6955H125.971V27.5137H124.463ZM125.23 16.0591C124.936 16.0591 124.682 15.959 124.469 15.7587C124.26 15.5584 124.156 15.3176 124.156 15.0364C124.156 14.7551 124.26 14.5144 124.469 14.3141C124.682 14.1138 124.936 14.0137 125.23 14.0137C125.524 14.0137 125.775 14.1138 125.984 14.3141C126.197 14.5144 126.304 14.7551 126.304 15.0364C126.304 15.3176 126.197 15.5584 125.984 15.7587C125.775 15.959 125.524 16.0591 125.23 16.0591Z" fill="white"/>
<path d="M5.625 77.5137H1.58523V64.4228H5.80398C7.07386 64.4228 8.16051 64.6848 9.06392 65.209C9.96733 65.7289 10.6598 66.4767 11.1413 67.4526C11.6229 68.4242 11.8636 69.5875 11.8636 70.9426C11.8636 72.3063 11.6207 73.4803 11.1349 74.4647C10.6491 75.4448 9.94176 76.199 9.01278 76.7275C8.08381 77.2516 6.95455 77.5137 5.625 77.5137ZM3.17045 76.1074H5.52273C6.60511 76.1074 7.50213 75.8986 8.21378 75.481C8.92543 75.0634 9.45597 74.4689 9.8054 73.6976C10.1548 72.9263 10.3295 72.008 10.3295 70.9426C10.3295 69.8858 10.157 68.976 9.81179 68.2132C9.46662 67.4462 8.95099 66.8581 8.26491 66.449C7.57884 66.0357 6.72443 65.829 5.7017 65.829H3.17045V76.1074ZM14.3182 77.5137V67.6955H15.8267V77.5137H14.3182ZM15.0852 66.0591C14.7912 66.0591 14.5376 65.959 14.3246 65.7587C14.1158 65.5584 14.0114 65.3176 14.0114 65.0364C14.0114 64.7551 14.1158 64.5144 14.3246 64.3141C14.5376 64.1138 14.7912 64.0137 15.0852 64.0137C15.3793 64.0137 15.6307 64.1138 15.8395 64.3141C16.0526 64.5144 16.1591 64.7551 16.1591 65.0364C16.1591 65.3176 16.0526 65.5584 15.8395 65.7587C15.6307 65.959 15.3793 66.0591 15.0852 66.0591ZM26.6181 67.6955L22.9874 77.5137H21.4533L17.8226 67.6955H19.459L22.1692 75.5194H22.2715L24.9817 67.6955H26.6181ZM32.3741 77.7182C31.4281 77.7182 30.612 77.5094 29.926 77.0918C29.2441 76.6699 28.7179 76.0819 28.3471 75.3276C27.9806 74.5691 27.7974 73.687 27.7974 72.6813C27.7974 71.6756 27.9806 70.7892 28.3471 70.0222C28.7179 69.2509 29.2335 68.65 29.894 68.2196C30.5588 67.785 31.3343 67.5676 32.2207 67.5676C32.7321 67.5676 33.237 67.6529 33.7356 67.8233C34.2342 67.9938 34.688 68.2708 35.0971 68.6543C35.5062 69.0336 35.8322 69.5364 36.0751 70.1628C36.318 70.7892 36.4395 71.5605 36.4395 72.4767V73.1159H28.8713V71.812H34.9054C34.9054 71.258 34.7946 70.7637 34.573 70.329C34.3556 69.8944 34.0446 69.5513 33.6397 69.2999C33.2392 69.0485 32.7662 68.9228 32.2207 68.9228C31.6199 68.9228 31.1 69.0719 30.661 69.3702C30.2264 69.6642 29.8919 70.0478 29.6575 70.5208C29.4231 70.9938 29.3059 71.5009 29.3059 72.0421V72.9114C29.3059 73.6529 29.4338 74.2814 29.6895 74.7971C29.9494 75.3084 30.3095 75.6983 30.7697 75.9668C31.2299 76.231 31.7647 76.3631 32.3741 76.3631C32.7704 76.3631 33.1284 76.3077 33.448 76.1969C33.7718 76.0819 34.051 75.9114 34.2853 75.6855C34.5197 75.4554 34.7008 75.1699 34.8287 74.829L36.286 75.2381C36.1326 75.7324 35.8748 76.1671 35.5126 76.5421C35.1504 76.9128 34.7029 77.2026 34.1703 77.4114C33.6376 77.6159 33.0389 77.7182 32.3741 77.7182ZM38.7342 77.5137V67.6955H40.1916V69.1784H40.2939C40.4728 68.6926 40.7967 68.2985 41.2654 67.9959C41.7342 67.6934 42.2626 67.5421 42.8507 67.5421C42.9615 67.5421 43.1 67.5442 43.2662 67.5485C43.4324 67.5527 43.5581 67.5591 43.6433 67.5676V69.1017C43.5922 69.089 43.475 69.0698 43.2917 69.0442C43.1127 69.0144 42.9231 68.9995 42.7228 68.9995C42.2456 68.9995 41.8194 69.0996 41.4444 69.2999C41.0737 69.4959 40.7797 69.7686 40.5623 70.1181C40.3493 70.4632 40.2427 70.8574 40.2427 71.3006V77.5137H38.7342ZM52.386 69.8944L51.0309 70.2779C50.9457 70.052 50.82 69.8326 50.6538 69.6195C50.4918 69.4022 50.2702 69.2232 49.989 69.0826C49.7077 68.9419 49.3477 68.8716 48.9087 68.8716C48.3079 68.8716 47.8072 69.0101 47.4066 69.2871C47.0103 69.5598 46.8121 69.9071 46.8121 70.329C46.8121 70.704 46.9485 71.0002 47.2212 71.2175C47.494 71.4348 47.9201 71.6159 48.4996 71.7608L49.957 72.1188C50.8349 72.3319 51.489 72.6578 51.9194 73.0968C52.3498 73.5314 52.565 74.0918 52.565 74.7779C52.565 75.3404 52.4031 75.8432 52.0792 76.2864C51.7596 76.7296 51.3121 77.079 50.7369 77.3347C50.1616 77.5904 49.4925 77.7182 48.7298 77.7182C47.7283 77.7182 46.8995 77.5009 46.2433 77.0662C45.587 76.6316 45.1715 75.9966 44.9968 75.1614L46.4286 74.8034C46.565 75.3319 46.8228 75.7282 47.2021 75.9924C47.5856 76.2566 48.0863 76.3887 48.7042 76.3887C49.4073 76.3887 49.9656 76.2395 50.3789 75.9412C50.7965 75.6387 51.0053 75.2765 51.0053 74.8546C51.0053 74.5137 50.886 74.2282 50.6474 73.998C50.4087 73.7637 50.0423 73.589 49.5479 73.4739L47.9116 73.0904C47.0124 72.8773 46.3519 72.5471 45.93 72.0996C45.5124 71.6479 45.3036 71.0833 45.3036 70.4057C45.3036 69.8517 45.4592 69.3617 45.7702 68.9355C46.0856 68.5094 46.5138 68.1749 47.055 67.932C47.6005 67.6891 48.2184 67.5676 48.9087 67.5676C49.8803 67.5676 50.6431 67.7807 51.1971 68.2069C51.7553 68.633 52.1516 69.1955 52.386 69.8944ZM54.8358 77.5137V67.6955H56.3443V77.5137H54.8358ZM55.6028 66.0591C55.3088 66.0591 55.0552 65.959 54.8422 65.7587C54.6333 65.5584 54.5289 65.3176 54.5289 65.0364C54.5289 64.7551 54.6333 64.5144 54.8422 64.3141C55.0552 64.1138 55.3088 64.0137 55.6028 64.0137C55.8968 64.0137 56.1483 64.1138 56.3571 64.3141C56.5701 64.5144 56.6767 64.7551 56.6767 65.0364C56.6767 65.3176 56.5701 65.5584 56.3571 65.7587C56.1483 65.959 55.8968 66.0591 55.6028 66.0591ZM63.3771 67.6955V68.9739H58.2891V67.6955H63.3771ZM59.772 65.3432H61.2805V74.7012C61.2805 75.1273 61.3423 75.4469 61.4659 75.66C61.5938 75.8688 61.7557 76.0094 61.9517 76.0819C62.152 76.15 62.3629 76.1841 62.5845 76.1841C62.7507 76.1841 62.8871 76.1756 62.9936 76.1586C63.1001 76.1373 63.1854 76.1202 63.2493 76.1074L63.5561 77.4625C63.4538 77.5009 63.3111 77.5392 63.1278 77.5776C62.9446 77.6202 62.7124 77.6415 62.4311 77.6415C62.005 77.6415 61.5874 77.5499 61.1783 77.3667C60.7734 77.1834 60.4368 76.9043 60.1683 76.5293C59.9041 76.1543 59.772 75.6813 59.772 75.1103V65.3432ZM68.5355 77.7438C67.9134 77.7438 67.3487 77.6266 66.8416 77.3922C66.3345 77.1536 65.9318 76.8105 65.6335 76.3631C65.3352 75.9114 65.1861 75.3659 65.1861 74.7267C65.1861 74.1642 65.2969 73.7083 65.5185 73.3588C65.7401 73.0051 66.0362 72.7282 66.407 72.5279C66.7777 72.3276 67.1868 72.1784 67.6342 72.0804C68.0859 71.9782 68.5398 71.8972 68.9957 71.8375C69.5923 71.7608 70.076 71.7033 70.4467 71.6649C70.8217 71.6223 71.0945 71.552 71.2649 71.454C71.4396 71.356 71.527 71.1855 71.527 70.9426V70.8915C71.527 70.2608 71.3544 69.7708 71.0092 69.4213C70.6683 69.0719 70.1506 68.8972 69.456 68.8972C68.7358 68.8972 68.1712 69.0549 67.7621 69.3702C67.353 69.6855 67.0653 70.0222 66.8991 70.3801L65.4673 69.8688C65.723 69.2722 66.0639 68.8077 66.4901 68.4753C66.9205 68.1387 67.3892 67.9043 67.8963 67.7722C68.4077 67.6358 68.9105 67.5676 69.4048 67.5676C69.7202 67.5676 70.0824 67.606 70.4915 67.6827C70.9048 67.7551 71.3033 67.9064 71.6868 68.1365C72.0746 68.3667 72.3963 68.714 72.652 69.1784C72.9077 69.6429 73.0355 70.2651 73.0355 71.0449V77.5137H71.527V76.1841H71.4503C71.348 76.3972 71.1776 76.6252 70.9389 76.8681C70.7003 77.111 70.3828 77.3176 69.9865 77.4881C69.5902 77.6586 69.1065 77.7438 68.5355 77.7438ZM68.7656 76.3887C69.3622 76.3887 69.8651 76.2715 70.2741 76.0371C70.6875 75.8027 70.9986 75.5002 71.2074 75.1294C71.4205 74.7587 71.527 74.3688 71.527 73.9597V72.579C71.4631 72.6557 71.3224 72.726 71.1051 72.7899C70.892 72.8496 70.6449 72.9029 70.3636 72.9498C70.0866 72.9924 69.8161 73.0307 69.5518 73.0648C69.2919 73.0946 69.081 73.1202 68.919 73.1415C68.527 73.1926 68.1605 73.2757 67.8196 73.3908C67.483 73.5016 67.2102 73.6699 67.0014 73.8958C66.7969 74.1174 66.6946 74.4199 66.6946 74.8034C66.6946 75.3276 66.8885 75.7239 67.2763 75.9924C67.6683 76.2566 68.1648 76.3887 68.7656 76.3887ZM68.8679 66.3659L66.8736 63.4H68.6378L70.1974 66.3659H68.8679ZM83.7406 77.7438C83.1184 77.7438 82.5538 77.6266 82.0467 77.3922C81.5396 77.1536 81.1369 76.8105 80.8386 76.3631C80.5403 75.9114 80.3912 75.3659 80.3912 74.7267C80.3912 74.1642 80.502 73.7083 80.7235 73.3588C80.9451 73.0051 81.2413 72.7282 81.612 72.5279C81.9828 72.3276 82.3919 72.1784 82.8393 72.0804C83.291 71.9782 83.7449 71.8972 84.2008 71.8375C84.7974 71.7608 85.2811 71.7033 85.6518 71.6649C86.0268 71.6223 86.2995 71.552 86.47 71.454C86.6447 71.356 86.7321 71.1855 86.7321 70.9426V70.8915C86.7321 70.2608 86.5595 69.7708 86.2143 69.4213C85.8734 69.0719 85.3556 68.8972 84.661 68.8972C83.9409 68.8972 83.3762 69.0549 82.9672 69.3702C82.5581 69.6855 82.2704 70.0222 82.1042 70.3801L80.6724 69.8688C80.9281 69.2722 81.269 68.8077 81.6951 68.4753C82.1255 68.1387 82.5943 67.9043 83.1014 67.7722C83.6127 67.6358 84.1156 67.5676 84.6099 67.5676C84.9252 67.5676 85.2875 67.606 85.6966 67.6827C86.1099 67.7551 86.5083 67.9064 86.8919 68.1365C87.2797 68.3667 87.6014 68.714 87.8571 69.1784C88.1127 69.6429 88.2406 70.2651 88.2406 71.0449V77.5137H86.7321V76.1841H86.6554C86.5531 76.3972 86.3826 76.6252 86.144 76.8681C85.9054 77.111 85.5879 77.3176 85.1916 77.4881C84.7953 77.6586 84.3116 77.7438 83.7406 77.7438ZM83.9707 76.3887C84.5673 76.3887 85.0701 76.2715 85.4792 76.0371C85.8926 75.8027 86.2037 75.5002 86.4125 75.1294C86.6255 74.7587 86.7321 74.3688 86.7321 73.9597V72.579C86.6681 72.6557 86.5275 72.726 86.3102 72.7899C86.0971 72.8496 85.85 72.9029 85.5687 72.9498C85.2917 72.9924 85.0211 73.0307 84.7569 73.0648C84.497 73.0946 84.286 73.1202 84.1241 73.1415C83.7321 73.1926 83.3656 73.2757 83.0247 73.3908C82.688 73.5016 82.4153 73.6699 82.2065 73.8958C82.002 74.1174 81.8997 74.4199 81.8997 74.8034C81.8997 75.3276 82.0936 75.7239 82.4814 75.9924C82.8734 76.2566 83.3699 76.3887 83.9707 76.3887ZM90.994 77.5137V67.6955H92.4513V69.1784H92.5536C92.7326 68.6926 93.0565 68.2985 93.5252 67.9959C93.994 67.6934 94.5224 67.5421 95.1104 67.5421C95.2212 67.5421 95.3597 67.5442 95.5259 67.5485C95.6921 67.5527 95.8178 67.5591 95.9031 67.5676V69.1017C95.8519 69.089 95.7347 69.0698 95.5515 69.0442C95.3725 69.0144 95.1829 68.9995 94.9826 68.9995C94.5053 68.9995 94.0792 69.0996 93.7042 69.2999C93.3335 69.4959 93.0394 69.7686 92.8221 70.1181C92.609 70.4632 92.5025 70.8574 92.5025 71.3006V77.5137H90.994ZM101.509 77.7182C100.563 77.7182 99.7468 77.5094 99.0607 77.0918C98.3789 76.6699 97.8526 76.0819 97.4819 75.3276C97.1154 74.5691 96.9322 73.687 96.9322 72.6813C96.9322 71.6756 97.1154 70.7892 97.4819 70.0222C97.8526 69.2509 98.3683 68.65 99.0288 68.2196C99.6935 67.785 100.469 67.5676 101.355 67.5676C101.867 67.5676 102.372 67.6529 102.87 67.8233C103.369 67.9938 103.823 68.2708 104.232 68.6543C104.641 69.0336 104.967 69.5364 105.21 70.1628C105.453 70.7892 105.574 71.5605 105.574 72.4767V73.1159H98.006V71.812H104.04C104.04 71.258 103.929 70.7637 103.708 70.329C103.49 69.8944 103.179 69.5513 102.775 69.2999C102.374 69.0485 101.901 68.9228 101.355 68.9228C100.755 68.9228 100.235 69.0719 99.7958 69.3702C99.3612 69.6642 99.0266 70.0478 98.7923 70.5208C98.5579 70.9938 98.4407 71.5009 98.4407 72.0421V72.9114C98.4407 73.6529 98.5685 74.2814 98.8242 74.7971C99.0842 75.3084 99.4442 75.6983 99.9045 75.9668C100.365 76.231 100.9 76.3631 101.509 76.3631C101.905 76.3631 102.263 76.3077 102.583 76.1969C102.907 76.0819 103.186 75.9114 103.42 75.6855C103.654 75.4554 103.836 75.1699 103.963 74.829L105.421 75.2381C105.267 75.7324 105.01 76.1671 104.647 76.5421C104.285 76.9128 103.838 77.2026 103.305 77.4114C102.772 77.6159 102.174 77.7182 101.509 77.7182ZM111.985 77.7182C111.039 77.7182 110.223 77.5094 109.537 77.0918C108.855 76.6699 108.329 76.0819 107.958 75.3276C107.592 74.5691 107.409 73.687 107.409 72.6813C107.409 71.6756 107.592 70.7892 107.958 70.0222C108.329 69.2509 108.845 68.65 109.505 68.2196C110.17 67.785 110.946 67.5676 111.832 67.5676C112.343 67.5676 112.848 67.6529 113.347 67.8233C113.846 67.9938 114.299 68.2708 114.708 68.6543C115.118 69.0336 115.444 69.5364 115.686 70.1628C115.929 70.7892 116.051 71.5605 116.051 72.4767V73.1159H108.483V71.812H114.517C114.517 71.258 114.406 70.7637 114.184 70.329C113.967 69.8944 113.656 69.5513 113.251 69.2999C112.85 69.0485 112.377 68.9228 111.832 68.9228C111.231 68.9228 110.711 69.0719 110.272 69.3702C109.838 69.6642 109.503 70.0478 109.269 70.5208C109.034 70.9938 108.917 71.5009 108.917 72.0421V72.9114C108.917 73.6529 109.045 74.2814 109.301 74.7971C109.561 75.3084 109.921 75.6983 110.381 75.9668C110.841 76.231 111.376 76.3631 111.985 76.3631C112.382 76.3631 112.74 76.3077 113.059 76.1969C113.383 76.0819 113.662 75.9114 113.897 75.6855C114.131 75.4554 114.312 75.1699 114.44 74.829L115.897 75.2381C115.744 75.7324 115.486 76.1671 115.124 76.5421C114.762 76.9128 114.314 77.2026 113.782 77.4114C113.249 77.6159 112.65 77.7182 111.985 77.7182ZM127.371 81.4C126.642 81.4 126.016 81.3063 125.492 81.1188C124.968 80.9355 124.531 80.6926 124.181 80.3901C123.836 80.0918 123.561 79.7722 123.357 79.4313L124.559 78.5875C124.695 78.7665 124.868 78.9711 125.076 79.2012C125.285 79.4355 125.571 79.638 125.933 79.8084C126.299 79.9831 126.779 80.0705 127.371 80.0705C128.164 80.0705 128.818 79.8787 129.333 79.4952C129.849 79.1117 130.107 78.5108 130.107 77.6926V75.6983H129.979C129.868 75.8773 129.711 76.0989 129.506 76.3631C129.306 76.623 129.016 76.8553 128.637 77.0598C128.262 77.2601 127.755 77.3603 127.115 77.3603C126.323 77.3603 125.611 77.1728 124.98 76.7978C124.354 76.4228 123.858 75.8773 123.491 75.1614C123.129 74.4455 122.948 73.5762 122.948 72.5534C122.948 71.5478 123.125 70.6721 123.478 69.9263C123.832 69.1763 124.324 68.5968 124.955 68.1877C125.586 67.7743 126.314 67.5676 127.141 67.5676C127.78 67.5676 128.287 67.6742 128.662 67.8873C129.042 68.0961 129.331 68.3347 129.532 68.6032C129.736 68.8674 129.894 69.0847 130.005 69.2551H130.158V67.6955H131.615V77.7949C131.615 78.6387 131.424 79.3248 131.04 79.8532C130.661 80.3858 130.15 80.7757 129.506 81.0229C128.867 81.2743 128.155 81.4 127.371 81.4ZM127.32 76.0051C127.925 76.0051 128.436 75.8667 128.854 75.5897C129.272 75.3127 129.589 74.9142 129.806 74.3944C130.024 73.8745 130.132 73.2523 130.132 72.5279C130.132 71.8205 130.026 71.1962 129.813 70.655C129.6 70.1138 129.284 69.6898 128.867 69.383C128.449 69.0762 127.934 68.9228 127.32 68.9228C126.681 68.9228 126.148 69.0847 125.722 69.4086C125.3 69.7324 124.983 70.1671 124.77 70.7125C124.561 71.258 124.456 71.8631 124.456 72.5279C124.456 73.2097 124.563 73.8127 124.776 74.3368C124.993 74.8567 125.313 75.2658 125.735 75.5641C126.161 75.8581 126.689 76.0051 127.32 76.0051ZM138.493 77.7182C137.547 77.7182 136.731 77.5094 136.045 77.0918C135.363 76.6699 134.837 76.0819 134.466 75.3276C134.1 74.5691 133.917 73.687 133.917 72.6813C133.917 71.6756 134.1 70.7892 134.466 70.0222C134.837 69.2509 135.353 68.65 136.013 68.2196C136.678 67.785 137.453 67.5676 138.34 67.5676C138.851 67.5676 139.356 67.6529 139.855 67.8233C140.353 67.9938 140.807 68.2708 141.216 68.6543C141.625 69.0336 141.951 69.5364 142.194 70.1628C142.437 70.7892 142.559 71.5605 142.559 72.4767V73.1159H134.99V71.812H141.025C141.025 71.258 140.914 70.7637 140.692 70.329C140.475 69.8944 140.164 69.5513 139.759 69.2999C139.358 69.0485 138.885 68.9228 138.34 68.9228C137.739 68.9228 137.219 69.0719 136.78 69.3702C136.346 69.6642 136.011 70.0478 135.777 70.5208C135.542 70.9938 135.425 71.5009 135.425 72.0421V72.9114C135.425 73.6529 135.553 74.2814 135.809 74.7971C136.069 75.3084 136.429 75.6983 136.889 75.9668C137.349 76.231 137.884 76.3631 138.493 76.3631C138.89 76.3631 139.248 76.3077 139.567 76.1969C139.891 76.0819 140.17 75.9114 140.404 75.6855C140.639 75.4554 140.82 75.1699 140.948 74.829L142.405 75.2381C142.252 75.7324 141.994 76.1671 141.632 76.5421C141.27 76.9128 140.822 77.2026 140.289 77.4114C139.757 77.6159 139.158 77.7182 138.493 77.7182ZM148.842 77.7182C147.956 77.7182 147.178 77.5073 146.509 77.0854C145.844 76.6635 145.324 76.0733 144.949 75.3148C144.578 74.5563 144.393 73.6699 144.393 72.6557C144.393 71.633 144.578 70.7402 144.949 69.9774C145.324 69.2147 145.844 68.6223 146.509 68.2005C147.178 67.7786 147.956 67.5676 148.842 67.5676C149.728 67.5676 150.504 67.7786 151.169 68.2005C151.838 68.6223 152.358 69.2147 152.728 69.9774C153.103 70.7402 153.291 71.633 153.291 72.6557C153.291 73.6699 153.103 74.5563 152.728 75.3148C152.358 76.0733 151.838 76.6635 151.169 77.0854C150.504 77.5073 149.728 77.7182 148.842 77.7182ZM148.842 76.3631C149.515 76.3631 150.069 76.1905 150.504 75.8453C150.939 75.5002 151.26 75.0463 151.469 74.4838C151.678 73.9213 151.782 73.312 151.782 72.6557C151.782 71.9995 151.678 71.388 151.469 70.8212C151.26 70.2544 150.939 69.7963 150.504 69.4469C150.069 69.0975 149.515 68.9228 148.842 68.9228C148.169 68.9228 147.615 69.0975 147.18 69.4469C146.745 69.7963 146.424 70.2544 146.215 70.8212C146.006 71.388 145.902 71.9995 145.902 72.6557C145.902 73.312 146.006 73.9213 146.215 74.4838C146.424 75.0463 146.745 75.5002 147.18 75.8453C147.615 76.1905 148.169 76.3631 148.842 76.3631ZM159.557 81.4C158.828 81.4 158.202 81.3063 157.677 81.1188C157.153 80.9355 156.716 80.6926 156.367 80.3901C156.022 80.0918 155.747 79.7722 155.542 79.4313L156.744 78.5875C156.881 78.7665 157.053 78.9711 157.262 79.2012C157.471 79.4355 157.756 79.638 158.118 79.8084C158.485 79.9831 158.964 80.0705 159.557 80.0705C160.349 80.0705 161.003 79.8787 161.519 79.4952C162.035 79.1117 162.292 78.5108 162.292 77.6926V75.6983H162.165C162.054 75.8773 161.896 76.0989 161.692 76.3631C161.491 76.623 161.202 76.8553 160.822 77.0598C160.447 77.2601 159.94 77.3603 159.301 77.3603C158.508 77.3603 157.797 77.1728 157.166 76.7978C156.54 76.4228 156.043 75.8773 155.677 75.1614C155.314 74.4455 155.133 73.5762 155.133 72.5534C155.133 71.5478 155.31 70.6721 155.664 69.9263C156.018 69.1763 156.51 68.5968 157.14 68.1877C157.771 67.7743 158.5 67.5676 159.327 67.5676C159.966 67.5676 160.473 67.6742 160.848 67.8873C161.227 68.0961 161.517 68.3347 161.717 68.6032C161.922 68.8674 162.079 69.0847 162.19 69.2551H162.344V67.6955H163.801V77.7949C163.801 78.6387 163.609 79.3248 163.226 79.8532C162.846 80.3858 162.335 80.7757 161.692 81.0229C161.052 81.2743 160.341 81.4 159.557 81.4ZM159.506 76.0051C160.111 76.0051 160.622 75.8667 161.04 75.5897C161.457 75.3127 161.775 74.9142 161.992 74.3944C162.209 73.8745 162.318 73.2523 162.318 72.5279C162.318 71.8205 162.211 71.1962 161.998 70.655C161.785 70.1138 161.47 69.6898 161.052 69.383C160.635 69.0762 160.119 68.9228 159.506 68.9228C158.866 68.9228 158.334 69.0847 157.907 69.4086C157.486 69.7324 157.168 70.1671 156.955 70.7125C156.746 71.258 156.642 71.8631 156.642 72.5279C156.642 73.2097 156.748 73.8127 156.961 74.3368C157.179 74.8567 157.498 75.2658 157.92 75.5641C158.346 75.8581 158.875 76.0051 159.506 76.0051ZM166.562 77.5137V67.6955H168.02V69.1784H168.122C168.301 68.6926 168.625 68.2985 169.094 67.9959C169.562 67.6934 170.091 67.5421 170.679 67.5421C170.79 67.5421 170.928 67.5442 171.094 67.5485C171.26 67.5527 171.386 67.5591 171.471 67.5676V69.1017C171.42 69.089 171.303 69.0698 171.12 69.0442C170.941 69.0144 170.751 68.9995 170.551 68.9995C170.074 68.9995 169.648 69.0996 169.273 69.2999C168.902 69.4959 168.608 69.7686 168.39 70.1181C168.177 70.4632 168.071 70.8574 168.071 71.3006V77.5137H166.562ZM176.149 77.7438C175.527 77.7438 174.962 77.6266 174.455 77.3922C173.948 77.1536 173.545 76.8105 173.247 76.3631C172.949 75.9114 172.799 75.3659 172.799 74.7267C172.799 74.1642 172.91 73.7083 173.132 73.3588C173.353 73.0051 173.65 72.7282 174.02 72.5279C174.391 72.3276 174.8 72.1784 175.248 72.0804C175.699 71.9782 176.153 71.8972 176.609 71.8375C177.206 71.7608 177.689 71.7033 178.06 71.6649C178.435 71.6223 178.708 71.552 178.878 71.454C179.053 71.356 179.14 71.1855 179.14 70.9426V70.8915C179.14 70.2608 178.968 69.7708 178.623 69.4213C178.282 69.0719 177.764 68.8972 177.069 68.8972C176.349 68.8972 175.784 69.0549 175.375 69.3702C174.966 69.6855 174.679 70.0222 174.512 70.3801L173.081 69.8688C173.336 69.2722 173.677 68.8077 174.103 68.4753C174.534 68.1387 175.002 67.9043 175.51 67.7722C176.021 67.6358 176.524 67.5676 177.018 67.5676C177.333 67.5676 177.696 67.606 178.105 67.6827C178.518 67.7551 178.917 67.9064 179.3 68.1365C179.688 68.3667 180.01 68.714 180.265 69.1784C180.521 69.6429 180.649 70.2651 180.649 71.0449V77.5137H179.14V76.1841H179.064C178.961 76.3972 178.791 76.6252 178.552 76.8681C178.314 77.111 177.996 77.3176 177.6 77.4881C177.203 77.6586 176.72 77.7438 176.149 77.7438ZM176.379 76.3887C176.975 76.3887 177.478 76.2715 177.887 76.0371C178.301 75.8027 178.612 75.5002 178.821 75.1294C179.034 74.7587 179.14 74.3688 179.14 73.9597V72.579C179.076 72.6557 178.936 72.726 178.718 72.7899C178.505 72.8496 178.258 72.9029 177.977 72.9498C177.7 72.9924 177.429 73.0307 177.165 73.0648C176.905 73.0946 176.694 73.1202 176.532 73.1415C176.14 73.1926 175.774 73.2757 175.433 73.3908C175.096 73.5016 174.824 73.6699 174.615 73.8958C174.41 74.1174 174.308 74.4199 174.308 74.8034C174.308 75.3276 174.502 75.7239 174.89 75.9924C175.282 76.2566 175.778 76.3887 176.379 76.3887ZM187.774 67.6955V68.9739H182.482V67.6955H187.774ZM184.067 77.5137V66.3404C184.067 65.7779 184.199 65.3091 184.463 64.9341C184.727 64.5591 185.07 64.2779 185.492 64.0904C185.914 63.9029 186.36 63.8091 186.828 63.8091C187.199 63.8091 187.502 63.839 187.736 63.8986C187.97 63.9583 188.145 64.0137 188.26 64.0648L187.825 65.3688C187.749 65.3432 187.642 65.3113 187.506 65.2729C187.374 65.2346 187.199 65.2154 186.982 65.2154C186.483 65.2154 186.123 65.3411 185.901 65.5925C185.684 65.8439 185.575 66.2125 185.575 66.6983V77.5137H184.067ZM189.888 77.5137V67.6955H191.397V77.5137H189.888ZM190.656 66.0591C190.362 66.0591 190.108 65.959 189.895 65.7587C189.686 65.5584 189.582 65.3176 189.582 65.0364C189.582 64.7551 189.686 64.5144 189.895 64.3141C190.108 64.1138 190.362 64.0137 190.656 64.0137C190.95 64.0137 191.201 64.1138 191.41 64.3141C191.623 64.5144 191.729 64.7551 191.729 65.0364C191.729 65.3176 191.623 65.5584 191.41 65.7587C191.201 65.959 190.95 66.0591 190.656 66.0591ZM198.149 77.7182C197.228 77.7182 196.436 77.5009 195.771 77.0662C195.106 76.6316 194.595 76.0328 194.237 75.2701C193.879 74.5073 193.7 73.6358 193.7 72.6557C193.7 71.6586 193.883 70.7786 194.249 70.0158C194.62 69.2488 195.136 68.65 195.796 68.2196C196.461 67.785 197.237 67.5676 198.123 67.5676C198.813 67.5676 199.436 67.6955 199.99 67.9512C200.544 68.2069 200.997 68.5648 201.351 69.025C201.705 69.4853 201.924 70.0222 202.009 70.6358H200.501C200.386 70.1884 200.13 69.7921 199.734 69.4469C199.342 69.0975 198.813 68.9228 198.149 68.9228C197.561 68.9228 197.045 69.0762 196.602 69.383C196.163 69.6855 195.82 70.1138 195.573 70.6678C195.33 71.2175 195.208 71.8631 195.208 72.6046C195.208 73.3631 195.328 74.0236 195.566 74.5861C195.809 75.1486 196.15 75.5854 196.589 75.8965C197.032 76.2076 197.552 76.3631 198.149 76.3631C198.541 76.3631 198.896 76.2949 199.216 76.1586C199.536 76.0222 199.806 75.8262 200.028 75.5705C200.249 75.3148 200.407 75.008 200.501 74.65H202.009C201.924 75.2296 201.713 75.7516 201.377 76.2161C201.044 76.6763 200.603 77.0428 200.053 77.3155C199.508 77.584 198.873 77.7182 198.149 77.7182ZM205.723 71.6074V77.5137H204.215V64.4228H205.723V69.2296H205.851C206.081 68.7225 206.426 68.3198 206.887 68.0215C207.351 67.7189 207.969 67.5676 208.74 67.5676C209.409 67.5676 209.995 67.7019 210.498 67.9703C211.001 68.2346 211.391 68.6415 211.668 69.1912C211.949 69.7367 212.09 70.4313 212.09 71.275V77.5137H210.581V71.3773C210.581 70.5975 210.379 69.9945 209.974 69.5684C209.573 69.138 209.017 68.9228 208.306 68.9228C207.811 68.9228 207.368 69.0272 206.976 69.236C206.588 69.4448 206.281 69.7495 206.056 70.15C205.834 70.5506 205.723 71.0364 205.723 71.6074ZM218.966 77.7182C218.02 77.7182 217.204 77.5094 216.518 77.0918C215.836 76.6699 215.31 76.0819 214.939 75.3276C214.572 74.5691 214.389 73.687 214.389 72.6813C214.389 71.6756 214.572 70.7892 214.939 70.0222C215.31 69.2509 215.825 68.65 216.486 68.2196C217.151 67.785 217.926 67.5676 218.812 67.5676C219.324 67.5676 219.829 67.6529 220.327 67.8233C220.826 67.9938 221.28 68.2708 221.689 68.6543C222.098 69.0336 222.424 69.5364 222.667 70.1628C222.91 70.7892 223.031 71.5605 223.031 72.4767V73.1159H215.463V71.812H221.497C221.497 71.258 221.386 70.7637 221.165 70.329C220.947 69.8944 220.636 69.5513 220.232 69.2999C219.831 69.0485 219.358 68.9228 218.812 68.9228C218.212 68.9228 217.692 69.0719 217.253 69.3702C216.818 69.6642 216.484 70.0478 216.249 70.5208C216.015 70.9938 215.898 71.5009 215.898 72.0421V72.9114C215.898 73.6529 216.026 74.2814 216.281 74.7971C216.541 75.3084 216.901 75.6983 217.362 75.9668C217.822 76.231 218.357 76.3631 218.966 76.3631C219.362 76.3631 219.72 76.3077 220.04 76.1969C220.364 76.0819 220.643 75.9114 220.877 75.6855C221.112 75.4554 221.293 75.1699 221.42 74.829L222.878 75.2381C222.724 75.7324 222.467 76.1671 222.104 76.5421C221.742 76.9128 221.295 77.2026 220.762 77.4114C220.229 77.6159 219.631 77.7182 218.966 77.7182Z" fill="white"/>
<path d="M5.625 127.514H1.58523V114.423H5.80398C7.07386 114.423 8.16051 114.685 9.06392 115.209C9.96733 115.729 10.6598 116.477 11.1413 117.453C11.6229 118.424 11.8636 119.588 11.8636 120.943C11.8636 122.306 11.6207 123.48 11.1349 124.465C10.6491 125.445 9.94176 126.199 9.01278 126.727C8.08381 127.252 6.95455 127.514 5.625 127.514ZM3.17045 126.107H5.52273C6.60511 126.107 7.50213 125.899 8.21378 125.481C8.92543 125.063 9.45597 124.469 9.8054 123.698C10.1548 122.926 10.3295 122.008 10.3295 120.943C10.3295 119.886 10.157 118.976 9.81179 118.213C9.46662 117.446 8.95099 116.858 8.26491 116.449C7.57884 116.036 6.72443 115.829 5.7017 115.829H3.17045V126.107ZM14.3182 127.514V117.695H15.8267V127.514H14.3182ZM15.0852 116.059C14.7912 116.059 14.5376 115.959 14.3246 115.759C14.1158 115.558 14.0114 115.318 14.0114 115.036C14.0114 114.755 14.1158 114.514 14.3246 114.314C14.5376 114.114 14.7912 114.014 15.0852 114.014C15.3793 114.014 15.6307 114.114 15.8395 114.314C16.0526 114.514 16.1591 114.755 16.1591 115.036C16.1591 115.318 16.0526 115.558 15.8395 115.759C15.6307 115.959 15.3793 116.059 15.0852 116.059ZM26.6181 117.695L22.9874 127.514H21.4533L17.8226 117.695H19.459L22.1692 125.519H22.2715L24.9817 117.695H26.6181ZM32.3741 127.718C31.4281 127.718 30.612 127.509 29.926 127.092C29.2441 126.67 28.7179 126.082 28.3471 125.328C27.9806 124.569 27.7974 123.687 27.7974 122.681C27.7974 121.676 27.9806 120.789 28.3471 120.022C28.7179 119.251 29.2335 118.65 29.894 118.22C30.5588 117.785 31.3343 117.568 32.2207 117.568C32.7321 117.568 33.237 117.653 33.7356 117.823C34.2342 117.994 34.688 118.271 35.0971 118.654C35.5062 119.034 35.8322 119.536 36.0751 120.163C36.318 120.789 36.4395 121.561 36.4395 122.477V123.116H28.8713V121.812H34.9054C34.9054 121.258 34.7946 120.764 34.573 120.329C34.3556 119.894 34.0446 119.551 33.6397 119.3C33.2392 119.048 32.7662 118.923 32.2207 118.923C31.6199 118.923 31.1 119.072 30.661 119.37C30.2264 119.664 29.8919 120.048 29.6575 120.521C29.4231 120.994 29.3059 121.501 29.3059 122.042V122.911C29.3059 123.653 29.4338 124.281 29.6895 124.797C29.9494 125.308 30.3095 125.698 30.7697 125.967C31.2299 126.231 31.7647 126.363 32.3741 126.363C32.7704 126.363 33.1284 126.308 33.448 126.197C33.7718 126.082 34.051 125.911 34.2853 125.686C34.5197 125.455 34.7008 125.17 34.8287 124.829L36.286 125.238C36.1326 125.732 35.8748 126.167 35.5126 126.542C35.1504 126.913 34.7029 127.203 34.1703 127.411C33.6376 127.616 33.0389 127.718 32.3741 127.718ZM38.7342 127.514V117.695H40.1916V119.178H40.2939C40.4728 118.693 40.7967 118.298 41.2654 117.996C41.7342 117.693 42.2626 117.542 42.8507 117.542C42.9615 117.542 43.1 117.544 43.2662 117.548C43.4324 117.553 43.5581 117.559 43.6433 117.568V119.102C43.5922 119.089 43.475 119.07 43.2917 119.044C43.1127 119.014 42.9231 118.999 42.7228 118.999C42.2456 118.999 41.8194 119.1 41.4444 119.3C41.0737 119.496 40.7797 119.769 40.5623 120.118C40.3493 120.463 40.2427 120.857 40.2427 121.301V127.514H38.7342ZM52.386 119.894L51.0309 120.278C50.9457 120.052 50.82 119.833 50.6538 119.619C50.4918 119.402 50.2702 119.223 49.989 119.083C49.7077 118.942 49.3477 118.872 48.9087 118.872C48.3079 118.872 47.8072 119.01 47.4066 119.287C47.0103 119.56 46.8121 119.907 46.8121 120.329C46.8121 120.704 46.9485 121 47.2212 121.218C47.494 121.435 47.9201 121.616 48.4996 121.761L49.957 122.119C50.8349 122.332 51.489 122.658 51.9194 123.097C52.3498 123.531 52.565 124.092 52.565 124.778C52.565 125.34 52.4031 125.843 52.0792 126.286C51.7596 126.73 51.3121 127.079 50.7369 127.335C50.1616 127.59 49.4925 127.718 48.7298 127.718C47.7283 127.718 46.8995 127.501 46.2433 127.066C45.587 126.632 45.1715 125.997 44.9968 125.161L46.4286 124.803C46.565 125.332 46.8228 125.728 47.2021 125.992C47.5856 126.257 48.0863 126.389 48.7042 126.389C49.4073 126.389 49.9656 126.24 50.3789 125.941C50.7965 125.639 51.0053 125.276 51.0053 124.855C51.0053 124.514 50.886 124.228 50.6474 123.998C50.4087 123.764 50.0423 123.589 49.5479 123.474L47.9116 123.09C47.0124 122.877 46.3519 122.547 45.93 122.1C45.5124 121.648 45.3036 121.083 45.3036 120.406C45.3036 119.852 45.4592 119.362 45.7702 118.936C46.0856 118.509 46.5138 118.175 47.055 117.932C47.6005 117.689 48.2184 117.568 48.9087 117.568C49.8803 117.568 50.6431 117.781 51.1971 118.207C51.7553 118.633 52.1516 119.195 52.386 119.894ZM54.8358 127.514V117.695H56.3443V127.514H54.8358ZM55.6028 116.059C55.3088 116.059 55.0552 115.959 54.8422 115.759C54.6333 115.558 54.5289 115.318 54.5289 115.036C54.5289 114.755 54.6333 114.514 54.8422 114.314C55.0552 114.114 55.3088 114.014 55.6028 114.014C55.8968 114.014 56.1483 114.114 56.3571 114.314C56.5701 114.514 56.6767 114.755 56.6767 115.036C56.6767 115.318 56.5701 115.558 56.3571 115.759C56.1483 115.959 55.8968 116.059 55.6028 116.059ZM63.3771 117.695V118.974H58.2891V117.695H63.3771ZM59.772 115.343H61.2805V124.701C61.2805 125.127 61.3423 125.447 61.4659 125.66C61.5938 125.869 61.7557 126.009 61.9517 126.082C62.152 126.15 62.3629 126.184 62.5845 126.184C62.7507 126.184 62.8871 126.176 62.9936 126.159C63.1001 126.137 63.1854 126.12 63.2493 126.107L63.5561 127.463C63.4538 127.501 63.3111 127.539 63.1278 127.578C62.9446 127.62 62.7124 127.642 62.4311 127.642C62.005 127.642 61.5874 127.55 61.1783 127.367C60.7734 127.183 60.4368 126.904 60.1683 126.529C59.9041 126.154 59.772 125.681 59.772 125.11V115.343ZM68.5355 127.744C67.9134 127.744 67.3487 127.627 66.8416 127.392C66.3345 127.154 65.9318 126.811 65.6335 126.363C65.3352 125.911 65.1861 125.366 65.1861 124.727C65.1861 124.164 65.2969 123.708 65.5185 123.359C65.7401 123.005 66.0362 122.728 66.407 122.528C66.7777 122.328 67.1868 122.178 67.6342 122.08C68.0859 121.978 68.5398 121.897 68.9957 121.838C69.5923 121.761 70.076 121.703 70.4467 121.665C70.8217 121.622 71.0945 121.552 71.2649 121.454C71.4396 121.356 71.527 121.186 71.527 120.943V120.892C71.527 120.261 71.3544 119.771 71.0092 119.421C70.6683 119.072 70.1506 118.897 69.456 118.897C68.7358 118.897 68.1712 119.055 67.7621 119.37C67.353 119.686 67.0653 120.022 66.8991 120.38L65.4673 119.869C65.723 119.272 66.0639 118.808 66.4901 118.475C66.9205 118.139 67.3892 117.904 67.8963 117.772C68.4077 117.636 68.9105 117.568 69.4048 117.568C69.7202 117.568 70.0824 117.606 70.4915 117.683C70.9048 117.755 71.3033 117.906 71.6868 118.137C72.0746 118.367 72.3963 118.714 72.652 119.178C72.9077 119.643 73.0355 120.265 73.0355 121.045V127.514H71.527V126.184H71.4503C71.348 126.397 71.1776 126.625 70.9389 126.868C70.7003 127.111 70.3828 127.318 69.9865 127.488C69.5902 127.659 69.1065 127.744 68.5355 127.744ZM68.7656 126.389C69.3622 126.389 69.8651 126.271 70.2741 126.037C70.6875 125.803 70.9986 125.5 71.2074 125.129C71.4205 124.759 71.527 124.369 71.527 123.96V122.579C71.4631 122.656 71.3224 122.726 71.1051 122.79C70.892 122.85 70.6449 122.903 70.3636 122.95C70.0866 122.992 69.8161 123.031 69.5518 123.065C69.2919 123.095 69.081 123.12 68.919 123.142C68.527 123.193 68.1605 123.276 67.8196 123.391C67.483 123.502 67.2102 123.67 67.0014 123.896C66.7969 124.117 66.6946 124.42 66.6946 124.803C66.6946 125.328 66.8885 125.724 67.2763 125.992C67.6683 126.257 68.1648 126.389 68.7656 126.389ZM68.8679 116.366L66.8736 113.4H68.6378L70.1974 116.366H68.8679ZM87.8059 119.894L86.4508 120.278C86.3656 120.052 86.2399 119.833 86.0737 119.619C85.9118 119.402 85.6902 119.223 85.4089 119.083C85.1277 118.942 84.7676 118.872 84.3287 118.872C83.7278 118.872 83.2271 119.01 82.8265 119.287C82.4302 119.56 82.2321 119.907 82.2321 120.329C82.2321 120.704 82.3684 121 82.6412 121.218C82.9139 121.435 83.34 121.616 83.9196 121.761L85.377 122.119C86.2548 122.332 86.9089 122.658 87.3393 123.097C87.7697 123.531 87.9849 124.092 87.9849 124.778C87.9849 125.34 87.823 125.843 87.4991 126.286C87.1795 126.73 86.7321 127.079 86.1568 127.335C85.5815 127.59 84.9125 127.718 84.1497 127.718C83.1483 127.718 82.3194 127.501 81.6632 127.066C81.0069 126.632 80.5914 125.997 80.4167 125.161L81.8485 124.803C81.9849 125.332 82.2427 125.728 82.622 125.992C83.0055 126.257 83.5062 126.389 84.1241 126.389C84.8272 126.389 85.3855 126.24 85.7988 125.941C86.2164 125.639 86.4252 125.276 86.4252 124.855C86.4252 124.514 86.3059 124.228 86.0673 123.998C85.8287 123.764 85.4622 123.589 84.9679 123.474L83.3315 123.09C82.4324 122.877 81.7718 122.547 81.35 122.1C80.9324 121.648 80.7235 121.083 80.7235 120.406C80.7235 119.852 80.8791 119.362 81.1902 118.936C81.5055 118.509 81.9338 118.175 82.475 117.932C83.0204 117.689 83.6383 117.568 84.3287 117.568C85.3002 117.568 86.063 117.781 86.617 118.207C87.1752 118.633 87.5716 119.195 87.8059 119.894ZM94.2443 127.718C93.358 127.718 92.5803 127.507 91.9112 127.085C91.2464 126.664 90.7266 126.073 90.3516 125.315C89.9808 124.556 89.7955 123.67 89.7955 122.656C89.7955 121.633 89.9808 120.74 90.3516 119.977C90.7266 119.215 91.2464 118.622 91.9112 118.2C92.5803 117.779 93.358 117.568 94.2443 117.568C95.1307 117.568 95.9063 117.779 96.571 118.2C97.2401 118.622 97.7599 119.215 98.1307 119.977C98.5057 120.74 98.6932 121.633 98.6932 122.656C98.6932 123.67 98.5057 124.556 98.1307 125.315C97.7599 126.073 97.2401 126.664 96.571 127.085C95.9063 127.507 95.1307 127.718 94.2443 127.718ZM94.2443 126.363C94.9176 126.363 95.4716 126.191 95.9062 125.845C96.3409 125.5 96.6626 125.046 96.8714 124.484C97.0803 123.921 97.1847 123.312 97.1847 122.656C97.1847 121.999 97.0803 121.388 96.8714 120.821C96.6626 120.254 96.3409 119.796 95.9062 119.447C95.4716 119.097 94.9176 118.923 94.2443 118.923C93.571 118.923 93.017 119.097 92.5824 119.447C92.1477 119.796 91.826 120.254 91.6172 120.821C91.4084 121.388 91.304 121.999 91.304 122.656C91.304 123.312 91.4084 123.921 91.6172 124.484C91.826 125.046 92.1477 125.5 92.5824 125.845C93.017 126.191 93.571 126.363 94.2443 126.363ZM104.985 127.718C104.064 127.718 103.271 127.501 102.607 127.066C101.942 126.632 101.431 126.033 101.073 125.27C100.715 124.507 100.536 123.636 100.536 122.656C100.536 121.659 100.719 120.779 101.085 120.016C101.456 119.249 101.972 118.65 102.632 118.22C103.297 117.785 104.073 117.568 104.959 117.568C105.649 117.568 106.271 117.695 106.825 117.951C107.379 118.207 107.833 118.565 108.187 119.025C108.541 119.485 108.76 120.022 108.845 120.636H107.337C107.222 120.188 106.966 119.792 106.57 119.447C106.178 119.097 105.649 118.923 104.985 118.923C104.396 118.923 103.881 119.076 103.438 119.383C102.999 119.686 102.656 120.114 102.409 120.668C102.166 121.218 102.044 121.863 102.044 122.605C102.044 123.363 102.164 124.024 102.402 124.586C102.645 125.149 102.986 125.585 103.425 125.896C103.868 126.208 104.388 126.363 104.985 126.363C105.377 126.363 105.732 126.295 106.052 126.159C106.372 126.022 106.642 125.826 106.864 125.57C107.085 125.315 107.243 125.008 107.337 124.65H108.845C108.76 125.23 108.549 125.752 108.213 126.216C107.88 126.676 107.439 127.043 106.889 127.316C106.344 127.584 105.709 127.718 104.985 127.718ZM111.051 127.514V117.695H112.559V127.514H111.051ZM111.818 116.059C111.524 116.059 111.27 115.959 111.057 115.759C110.848 115.558 110.744 115.318 110.744 115.036C110.744 114.755 110.848 114.514 111.057 114.314C111.27 114.114 111.524 114.014 111.818 114.014C112.112 114.014 112.363 114.114 112.572 114.314C112.785 114.514 112.892 114.755 112.892 115.036C112.892 115.318 112.785 115.558 112.572 115.759C112.363 115.959 112.112 116.059 111.818 116.059ZM119.311 127.718C118.424 127.718 117.647 127.507 116.978 127.085C116.313 126.664 115.793 126.073 115.418 125.315C115.047 124.556 114.862 123.67 114.862 122.656C114.862 121.633 115.047 120.74 115.418 119.977C115.793 119.215 116.313 118.622 116.978 118.2C117.647 117.779 118.424 117.568 119.311 117.568C120.197 117.568 120.973 117.779 121.637 118.2C122.306 118.622 122.826 119.215 123.197 119.977C123.572 120.74 123.76 121.633 123.76 122.656C123.76 123.67 123.572 124.556 123.197 125.315C122.826 126.073 122.306 126.664 121.637 127.085C120.973 127.507 120.197 127.718 119.311 127.718ZM119.311 126.363C119.984 126.363 120.538 126.191 120.973 125.845C121.407 125.5 121.729 125.046 121.938 124.484C122.147 123.921 122.251 123.312 122.251 122.656C122.251 121.999 122.147 121.388 121.938 120.821C121.729 120.254 121.407 119.796 120.973 119.447C120.538 119.097 119.984 118.923 119.311 118.923C118.637 118.923 118.083 119.097 117.649 119.447C117.214 119.796 116.892 120.254 116.684 120.821C116.475 121.388 116.37 121.999 116.37 122.656C116.37 123.312 116.475 123.921 116.684 124.484C116.892 125.046 117.214 125.5 117.649 125.845C118.083 126.191 118.637 126.363 119.311 126.363ZM131.687 121.198V122.605H125.96V121.198H131.687ZM138.049 127.718C137.231 127.718 136.509 127.512 135.882 127.098C135.256 126.681 134.766 126.093 134.412 125.334C134.058 124.571 133.881 123.67 133.881 122.63C133.881 121.599 134.058 120.704 134.412 119.945C134.766 119.187 135.258 118.601 135.888 118.188C136.519 117.774 137.248 117.568 138.075 117.568C138.714 117.568 139.219 117.674 139.589 117.887C139.964 118.096 140.25 118.335 140.446 118.603C140.646 118.867 140.802 119.085 140.913 119.255H141.04V114.423H142.549V127.514H141.092V126.005H140.913C140.802 126.184 140.644 126.41 140.44 126.683C140.235 126.951 139.943 127.192 139.564 127.405C139.185 127.614 138.68 127.718 138.049 127.718ZM138.254 126.363C138.859 126.363 139.37 126.205 139.788 125.89C140.205 125.57 140.523 125.129 140.74 124.567C140.957 124 141.066 123.346 141.066 122.605C141.066 121.872 140.96 121.23 140.746 120.681C140.533 120.127 140.218 119.696 139.8 119.389C139.383 119.078 138.867 118.923 138.254 118.923C137.614 118.923 137.082 119.087 136.656 119.415C136.234 119.739 135.916 120.18 135.703 120.738C135.494 121.292 135.39 121.914 135.39 122.605C135.39 123.303 135.496 123.938 135.71 124.509C135.927 125.076 136.246 125.528 136.668 125.865C137.094 126.197 137.623 126.363 138.254 126.363ZM149.638 127.718C148.692 127.718 147.876 127.509 147.19 127.092C146.508 126.67 145.982 126.082 145.611 125.328C145.244 124.569 145.061 123.687 145.061 122.681C145.061 121.676 145.244 120.789 145.611 120.022C145.982 119.251 146.497 118.65 147.158 118.22C147.822 117.785 148.598 117.568 149.484 117.568C149.996 117.568 150.501 117.653 150.999 117.823C151.498 117.994 151.952 118.271 152.361 118.654C152.77 119.034 153.096 119.536 153.339 120.163C153.582 120.789 153.703 121.561 153.703 122.477V123.116H146.135V121.812H152.169C152.169 121.258 152.058 120.764 151.837 120.329C151.619 119.894 151.308 119.551 150.903 119.3C150.503 119.048 150.03 118.923 149.484 118.923C148.884 118.923 148.364 119.072 147.925 119.37C147.49 119.664 147.156 120.048 146.921 120.521C146.687 120.994 146.57 121.501 146.57 122.042V122.911C146.57 123.653 146.697 124.281 146.953 124.797C147.213 125.308 147.573 125.698 148.033 125.967C148.494 126.231 149.028 126.363 149.638 126.363C150.034 126.363 150.392 126.308 150.712 126.197C151.036 126.082 151.315 125.911 151.549 125.686C151.783 125.455 151.964 125.17 152.092 124.829L153.55 125.238C153.396 125.732 153.138 126.167 152.776 126.542C152.414 126.913 151.967 127.203 151.434 127.411C150.901 127.616 150.303 127.718 149.638 127.718ZM155.998 127.514V117.695H157.455V119.23H157.583C157.788 118.705 158.118 118.298 158.574 118.009C159.03 117.715 159.577 117.568 160.217 117.568C160.864 117.568 161.403 117.715 161.834 118.009C162.268 118.298 162.607 118.705 162.85 119.23H162.952C163.204 118.722 163.581 118.32 164.084 118.021C164.587 117.719 165.19 117.568 165.893 117.568C166.771 117.568 167.489 117.843 168.047 118.392C168.605 118.938 168.884 119.788 168.884 120.943V127.514H167.376V120.943C167.376 120.218 167.178 119.7 166.781 119.389C166.385 119.078 165.918 118.923 165.381 118.923C164.691 118.923 164.156 119.132 163.777 119.549C163.398 119.963 163.208 120.487 163.208 121.122V127.514H161.674V120.789C161.674 120.231 161.493 119.781 161.131 119.441C160.768 119.095 160.302 118.923 159.731 118.923C159.339 118.923 158.972 119.027 158.631 119.236C158.295 119.445 158.022 119.735 157.813 120.105C157.609 120.472 157.506 120.896 157.506 121.377V127.514H155.998ZM175.631 127.718C174.745 127.718 173.967 127.507 173.298 127.085C172.633 126.664 172.113 126.073 171.738 125.315C171.368 124.556 171.182 123.67 171.182 122.656C171.182 121.633 171.368 120.74 171.738 119.977C172.113 119.215 172.633 118.622 173.298 118.2C173.967 117.779 174.745 117.568 175.631 117.568C176.517 117.568 177.293 117.779 177.958 118.2C178.627 118.622 179.147 119.215 179.517 119.977C179.892 120.74 180.08 121.633 180.08 122.656C180.08 123.67 179.892 124.556 179.517 125.315C179.147 126.073 178.627 126.664 177.958 127.085C177.293 127.507 176.517 127.718 175.631 127.718ZM175.631 126.363C176.304 126.363 176.858 126.191 177.293 125.845C177.728 125.5 178.049 125.046 178.258 124.484C178.467 123.921 178.571 123.312 178.571 122.656C178.571 121.999 178.467 121.388 178.258 120.821C178.049 120.254 177.728 119.796 177.293 119.447C176.858 119.097 176.304 118.923 175.631 118.923C174.958 118.923 174.404 119.097 173.969 119.447C173.534 119.796 173.213 120.254 173.004 120.821C172.795 121.388 172.691 121.999 172.691 122.656C172.691 123.312 172.795 123.921 173.004 124.484C173.213 125.046 173.534 125.5 173.969 125.845C174.404 126.191 174.958 126.363 175.631 126.363ZM186.346 131.4C185.617 131.4 184.991 131.306 184.466 131.119C183.942 130.936 183.506 130.693 183.156 130.39C182.811 130.092 182.536 129.772 182.331 129.431L183.533 128.588C183.67 128.767 183.842 128.971 184.051 129.201C184.26 129.436 184.545 129.638 184.907 129.808C185.274 129.983 185.753 130.07 186.346 130.07C187.138 130.07 187.792 129.879 188.308 129.495C188.824 129.112 189.081 128.511 189.081 127.693V125.698H188.954C188.843 125.877 188.685 126.099 188.481 126.363C188.28 126.623 187.991 126.855 187.611 127.06C187.236 127.26 186.729 127.36 186.09 127.36C185.297 127.36 184.586 127.173 183.955 126.798C183.329 126.423 182.832 125.877 182.466 125.161C182.104 124.445 181.922 123.576 181.922 122.553C181.922 121.548 182.099 120.672 182.453 119.926C182.807 119.176 183.299 118.597 183.93 118.188C184.56 117.774 185.289 117.568 186.116 117.568C186.755 117.568 187.262 117.674 187.637 117.887C188.016 118.096 188.306 118.335 188.506 118.603C188.711 118.867 188.868 119.085 188.979 119.255H189.133V117.695H190.59V127.795C190.59 128.639 190.398 129.325 190.015 129.853C189.635 130.386 189.124 130.776 188.481 131.023C187.841 131.274 187.13 131.4 186.346 131.4ZM186.295 126.005C186.9 126.005 187.411 125.867 187.829 125.59C188.246 125.313 188.564 124.914 188.781 124.394C188.998 123.874 189.107 123.252 189.107 122.528C189.107 121.82 189.001 121.196 188.787 120.655C188.574 120.114 188.259 119.69 187.841 119.383C187.424 119.076 186.908 118.923 186.295 118.923C185.655 118.923 185.123 119.085 184.697 119.409C184.275 119.732 183.957 120.167 183.744 120.713C183.535 121.258 183.431 121.863 183.431 122.528C183.431 123.21 183.537 123.813 183.751 124.337C183.968 124.857 184.287 125.266 184.709 125.564C185.135 125.858 185.664 126.005 186.295 126.005ZM193.351 127.514V117.695H194.809V119.178H194.911C195.09 118.693 195.414 118.298 195.883 117.996C196.351 117.693 196.88 117.542 197.468 117.542C197.579 117.542 197.717 117.544 197.883 117.548C198.05 117.553 198.175 117.559 198.26 117.568V119.102C198.209 119.089 198.092 119.07 197.909 119.044C197.73 119.014 197.54 118.999 197.34 118.999C196.863 118.999 196.437 119.1 196.062 119.3C195.691 119.496 195.397 119.769 195.18 120.118C194.966 120.463 194.86 120.857 194.86 121.301V127.514H193.351ZM202.938 127.744C202.316 127.744 201.751 127.627 201.244 127.392C200.737 127.154 200.334 126.811 200.036 126.363C199.738 125.911 199.588 125.366 199.588 124.727C199.588 124.164 199.699 123.708 199.921 123.359C200.142 123.005 200.439 122.728 200.809 122.528C201.18 122.328 201.589 122.178 202.037 122.08C202.488 121.978 202.942 121.897 203.398 121.838C203.995 121.761 204.478 121.703 204.849 121.665C205.224 121.622 205.497 121.552 205.667 121.454C205.842 121.356 205.929 121.186 205.929 120.943V120.892C205.929 120.261 205.757 119.771 205.412 119.421C205.071 119.072 204.553 118.897 203.858 118.897C203.138 118.897 202.574 119.055 202.164 119.37C201.755 119.686 201.468 120.022 201.301 120.38L199.87 119.869C200.125 119.272 200.466 118.808 200.892 118.475C201.323 118.139 201.792 117.904 202.299 117.772C202.81 117.636 203.313 117.568 203.807 117.568C204.123 117.568 204.485 117.606 204.894 117.683C205.307 117.755 205.706 117.906 206.089 118.137C206.477 118.367 206.799 118.714 207.054 119.178C207.31 119.643 207.438 120.265 207.438 121.045V127.514H205.929V126.184H205.853C205.75 126.397 205.58 126.625 205.341 126.868C205.103 127.111 204.785 127.318 204.389 127.488C203.993 127.659 203.509 127.744 202.938 127.744ZM203.168 126.389C203.765 126.389 204.267 126.271 204.676 126.037C205.09 125.803 205.401 125.5 205.61 125.129C205.823 124.759 205.929 124.369 205.929 123.96V122.579C205.865 122.656 205.725 122.726 205.507 122.79C205.294 122.85 205.047 122.903 204.766 122.95C204.489 122.992 204.218 123.031 203.954 123.065C203.694 123.095 203.483 123.12 203.321 123.142C202.929 123.193 202.563 123.276 202.222 123.391C201.885 123.502 201.613 123.67 201.404 123.896C201.199 124.117 201.097 124.42 201.097 124.803C201.097 125.328 201.291 125.724 201.679 125.992C202.071 126.257 202.567 126.389 203.168 126.389ZM214.563 117.695V118.974H209.271V117.695H214.563ZM210.856 127.514V116.34C210.856 115.778 210.988 115.309 211.252 114.934C211.517 114.559 211.86 114.278 212.281 114.09C212.703 113.903 213.149 113.809 213.617 113.809C213.988 113.809 214.291 113.839 214.525 113.899C214.759 113.958 214.934 114.014 215.049 114.065L214.615 115.369C214.538 115.343 214.431 115.311 214.295 115.273C214.163 115.235 213.988 115.215 213.771 115.215C213.272 115.215 212.912 115.341 212.691 115.593C212.473 115.844 212.365 116.213 212.365 116.698V127.514H210.856ZM216.678 127.514V117.695H218.186V127.514H216.678ZM217.445 116.059C217.151 116.059 216.897 115.959 216.684 115.759C216.475 115.558 216.371 115.318 216.371 115.036C216.371 114.755 216.475 114.514 216.684 114.314C216.897 114.114 217.151 114.014 217.445 114.014C217.739 114.014 217.99 114.114 218.199 114.314C218.412 114.514 218.518 114.755 218.518 115.036C218.518 115.318 218.412 115.558 218.199 115.759C217.99 115.959 217.739 116.059 217.445 116.059ZM224.938 127.718C224.017 127.718 223.225 127.501 222.56 127.066C221.895 126.632 221.384 126.033 221.026 125.27C220.668 124.507 220.489 123.636 220.489 122.656C220.489 121.659 220.672 120.779 221.039 120.016C221.409 119.249 221.925 118.65 222.585 118.22C223.25 117.785 224.026 117.568 224.912 117.568C225.602 117.568 226.225 117.695 226.779 117.951C227.333 118.207 227.786 118.565 228.14 119.025C228.494 119.485 228.713 120.022 228.798 120.636H227.29C227.175 120.188 226.919 119.792 226.523 119.447C226.131 119.097 225.602 118.923 224.938 118.923C224.35 118.923 223.834 119.076 223.391 119.383C222.952 119.686 222.609 120.114 222.362 120.668C222.119 121.218 221.997 121.863 221.997 122.605C221.997 123.363 222.117 124.024 222.355 124.586C222.598 125.149 222.939 125.585 223.378 125.896C223.821 126.208 224.341 126.363 224.938 126.363C225.33 126.363 225.686 126.295 226.005 126.159C226.325 126.022 226.595 125.826 226.817 125.57C227.039 125.315 227.196 125.008 227.29 124.65H228.798C228.713 125.23 228.502 125.752 228.166 126.216C227.833 126.676 227.392 127.043 226.843 127.316C226.297 127.584 225.662 127.718 224.938 127.718ZM233.893 127.744C233.271 127.744 232.706 127.627 232.199 127.392C231.692 127.154 231.289 126.811 230.991 126.363C230.693 125.911 230.544 125.366 230.544 124.727C230.544 124.164 230.654 123.708 230.876 123.359C231.097 123.005 231.394 122.728 231.764 122.528C232.135 122.328 232.544 122.178 232.992 122.08C233.443 121.978 233.897 121.897 234.353 121.838C234.95 121.761 235.433 121.703 235.804 121.665C236.179 121.622 236.452 121.552 236.622 121.454C236.797 121.356 236.884 121.186 236.884 120.943V120.892C236.884 120.261 236.712 119.771 236.367 119.421C236.026 119.072 235.508 118.897 234.813 118.897C234.093 118.897 233.529 119.055 233.119 119.37C232.71 119.686 232.423 120.022 232.257 120.38L230.825 119.869C231.08 119.272 231.421 118.808 231.847 118.475C232.278 118.139 232.747 117.904 233.254 117.772C233.765 117.636 234.268 117.568 234.762 117.568C235.078 117.568 235.44 117.606 235.849 117.683C236.262 117.755 236.661 117.906 237.044 118.137C237.432 118.367 237.754 118.714 238.009 119.178C238.265 119.643 238.393 120.265 238.393 121.045V127.514H236.884V126.184H236.808C236.705 126.397 236.535 126.625 236.296 126.868C236.058 127.111 235.74 127.318 235.344 127.488C234.948 127.659 234.464 127.744 233.893 127.744ZM234.123 126.389C234.72 126.389 235.222 126.271 235.632 126.037C236.045 125.803 236.356 125.5 236.565 125.129C236.778 124.759 236.884 124.369 236.884 123.96V122.579C236.82 122.656 236.68 122.726 236.463 122.79C236.249 122.85 236.002 122.903 235.721 122.95C235.444 122.992 235.173 123.031 234.909 123.065C234.649 123.095 234.438 123.12 234.276 123.142C233.884 123.193 233.518 123.276 233.177 123.391C232.84 123.502 232.568 123.67 232.359 123.896C232.154 124.117 232.052 124.42 232.052 124.803C232.052 125.328 232.246 125.724 232.634 125.992C233.026 126.257 233.522 126.389 234.123 126.389Z" fill="white"/>
<path d="M8.74432 167.695C8.66761 167.048 8.35653 166.545 7.81108 166.187C7.26563 165.829 6.59659 165.65 5.80398 165.65C5.22443 165.65 4.71733 165.744 4.28267 165.931C3.85227 166.119 3.51563 166.377 3.27273 166.705C3.03409 167.033 2.91477 167.406 2.91477 167.823C2.91477 168.173 2.99787 168.473 3.16406 168.725C3.33452 168.972 3.55185 169.178 3.81605 169.345C4.08026 169.507 4.35724 169.641 4.64702 169.747C4.93679 169.85 5.20312 169.933 5.44602 169.997L6.77557 170.355C7.11648 170.444 7.49574 170.568 7.91335 170.725C8.33523 170.883 8.73793 171.098 9.12145 171.371C9.50923 171.639 9.82884 171.985 10.0803 172.406C10.3317 172.828 10.4574 173.346 10.4574 173.96C10.4574 174.667 10.272 175.306 9.90128 175.877C9.5348 176.448 8.99787 176.902 8.29048 177.239C7.58736 177.575 6.73295 177.744 5.72727 177.744C4.78977 177.744 3.97798 177.593 3.2919 177.29C2.61009 176.987 2.07315 176.566 1.68111 176.024C1.29332 175.483 1.07386 174.855 1.02273 174.139H2.65909C2.7017 174.633 2.8679 175.042 3.15767 175.366C3.4517 175.686 3.82244 175.924 4.26989 176.082C4.72159 176.235 5.20739 176.312 5.72727 176.312C6.33239 176.312 6.87571 176.214 7.35724 176.018C7.83878 175.818 8.22017 175.541 8.50142 175.187C8.78267 174.829 8.9233 174.411 8.9233 173.934C8.9233 173.499 8.80185 173.146 8.55895 172.873C8.31605 172.6 7.99645 172.379 7.60014 172.208C7.20384 172.038 6.77557 171.889 6.31534 171.761L4.70455 171.301C3.68182 171.007 2.87216 170.587 2.27557 170.041C1.67898 169.496 1.38068 168.782 1.38068 167.9C1.38068 167.167 1.57884 166.528 1.97514 165.982C2.37571 165.433 2.91264 165.007 3.58594 164.704C4.26349 164.397 5.01989 164.244 5.85511 164.244C6.69886 164.244 7.44886 164.395 8.10511 164.698C8.76136 164.996 9.28125 165.405 9.66477 165.925C10.0526 166.445 10.2571 167.035 10.2784 167.695H8.74432ZM16.8478 177.718C15.9615 177.718 15.1838 177.507 14.5147 177.085C13.85 176.664 13.3301 176.073 12.9551 175.315C12.5843 174.556 12.399 173.67 12.399 172.656C12.399 171.633 12.5843 170.74 12.9551 169.977C13.3301 169.215 13.85 168.622 14.5147 168.2C15.1838 167.779 15.9615 167.568 16.8478 167.568C17.7342 167.568 18.5098 167.779 19.1745 168.2C19.8436 168.622 20.3635 169.215 20.7342 169.977C21.1092 170.74 21.2967 171.633 21.2967 172.656C21.2967 173.67 21.1092 174.556 20.7342 175.315C20.3635 176.073 19.8436 176.664 19.1745 177.085C18.5098 177.507 17.7342 177.718 16.8478 177.718ZM16.8478 176.363C17.5211 176.363 18.0751 176.191 18.5098 175.845C18.9444 175.5 19.2662 175.046 19.475 174.484C19.6838 173.921 19.7882 173.312 19.7882 172.656C19.7882 171.999 19.6838 171.388 19.475 170.821C19.2662 170.254 18.9444 169.796 18.5098 169.447C18.0751 169.097 17.5211 168.923 16.8478 168.923C16.1745 168.923 15.6206 169.097 15.1859 169.447C14.7512 169.796 14.4295 170.254 14.2207 170.821C14.0119 171.388 13.9075 171.999 13.9075 172.656C13.9075 173.312 14.0119 173.921 14.2207 174.484C14.4295 175.046 14.7512 175.5 15.1859 175.845C15.6206 176.191 16.1745 176.363 16.8478 176.363ZM30.554 169.894L29.1989 170.278C29.1136 170.052 28.9879 169.833 28.8217 169.619C28.6598 169.402 28.4382 169.223 28.157 169.083C27.8757 168.942 27.5156 168.872 27.0767 168.872C26.4759 168.872 25.9751 169.01 25.5746 169.287C25.1783 169.56 24.9801 169.907 24.9801 170.329C24.9801 170.704 25.1165 171 25.3892 171.218C25.6619 171.435 26.0881 171.616 26.6676 171.761L28.125 172.119C29.0028 172.332 29.657 172.658 30.0874 173.097C30.5178 173.531 30.733 174.092 30.733 174.778C30.733 175.34 30.571 175.843 30.2472 176.286C29.9276 176.73 29.4801 177.079 28.9048 177.335C28.3295 177.59 27.6605 177.718 26.8977 177.718C25.8963 177.718 25.0675 177.501 24.4112 177.066C23.755 176.632 23.3395 175.997 23.1648 175.161L24.5966 174.803C24.733 175.332 24.9908 175.728 25.37 175.992C25.7536 176.257 26.2543 176.389 26.8722 176.389C27.5753 176.389 28.1335 176.24 28.5469 175.941C28.9645 175.639 29.1733 175.276 29.1733 174.855C29.1733 174.514 29.054 174.228 28.8153 173.998C28.5767 173.764 28.2102 173.589 27.7159 173.474L26.0795 173.09C25.1804 172.877 24.5199 172.547 24.098 172.1C23.6804 171.648 23.4716 171.083 23.4716 170.406C23.4716 169.852 23.6271 169.362 23.9382 168.936C24.2536 168.509 24.6818 168.175 25.223 167.932C25.7685 167.689 26.3864 167.568 27.0767 167.568C28.0483 167.568 28.8111 167.781 29.3651 168.207C29.9233 168.633 30.3196 169.195 30.554 169.894ZM37.2736 167.695V168.974H32.1855V167.695H37.2736ZM33.6685 165.343H35.177V174.701C35.177 175.127 35.2388 175.447 35.3624 175.66C35.4902 175.869 35.6522 176.009 35.8482 176.082C36.0485 176.15 36.2594 176.184 36.481 176.184C36.6472 176.184 36.7836 176.176 36.8901 176.159C36.9966 176.137 37.0819 176.12 37.1458 176.107L37.4526 177.463C37.3503 177.501 37.2076 177.539 37.0243 177.578C36.8411 177.62 36.6088 177.642 36.3276 177.642C35.9015 177.642 35.4838 177.55 35.0748 177.367C34.6699 177.183 34.3333 176.904 34.0648 176.529C33.8006 176.154 33.6685 175.681 33.6685 175.11V165.343ZM43.5538 177.718C42.6078 177.718 41.7917 177.509 41.1056 177.092C40.4238 176.67 39.8975 176.082 39.5268 175.328C39.1603 174.569 38.9771 173.687 38.9771 172.681C38.9771 171.676 39.1603 170.789 39.5268 170.022C39.8975 169.251 40.4132 168.65 41.0737 168.22C41.7385 167.785 42.514 167.568 43.4004 167.568C43.9118 167.568 44.4167 167.653 44.9153 167.823C45.4139 167.994 45.8677 168.271 46.2768 168.654C46.6859 169.034 47.0119 169.536 47.2548 170.163C47.4977 170.789 47.6191 171.561 47.6191 172.477V173.116H40.051V171.812H46.0851C46.0851 171.258 45.9743 170.764 45.7527 170.329C45.5353 169.894 45.2243 169.551 44.8194 169.3C44.4189 169.048 43.9458 168.923 43.4004 168.923C42.7995 168.923 42.2797 169.072 41.8407 169.37C41.4061 169.664 41.0716 170.048 40.8372 170.521C40.6028 170.994 40.4856 171.501 40.4856 172.042V172.911C40.4856 173.653 40.6135 174.281 40.8691 174.797C41.1291 175.308 41.4892 175.698 41.9494 175.967C42.4096 176.231 42.9444 176.363 43.5538 176.363C43.9501 176.363 44.3081 176.308 44.6277 176.197C44.9515 176.082 45.2306 175.911 45.465 175.686C45.6994 175.455 45.8805 175.17 46.0083 174.829L47.4657 175.238C47.3123 175.732 47.0545 176.167 46.6923 176.542C46.3301 176.913 45.8826 177.203 45.35 177.411C44.8173 177.616 44.2186 177.718 43.5538 177.718ZM51.4224 171.607V177.514H49.9139V167.695H51.3713V169.23H51.4991C51.7292 168.731 52.0787 168.33 52.5474 168.028C53.0162 167.721 53.6213 167.568 54.3627 167.568C55.0275 167.568 55.6092 167.704 56.1078 167.977C56.6064 168.245 56.9941 168.654 57.2711 169.204C57.5481 169.749 57.6866 170.44 57.6866 171.275V177.514H56.1781V171.377C56.1781 170.606 55.9778 170.005 55.5772 169.575C55.1767 169.14 54.627 168.923 53.9281 168.923C53.4466 168.923 53.0162 169.027 52.6369 169.236C52.2619 169.445 51.9657 169.749 51.7484 170.15C51.5311 170.551 51.4224 171.036 51.4224 171.607ZM60.4432 177.514V167.695H61.9517V177.514H60.4432ZM61.2102 166.059C60.9162 166.059 60.6626 165.959 60.4496 165.759C60.2408 165.558 60.1364 165.318 60.1364 165.036C60.1364 164.755 60.2408 164.514 60.4496 164.314C60.6626 164.114 60.9162 164.014 61.2102 164.014C61.5043 164.014 61.7557 164.114 61.9645 164.314C62.1776 164.514 62.2841 164.755 62.2841 165.036C62.2841 165.318 62.1776 165.558 61.9645 165.759C61.7557 165.959 61.5043 166.059 61.2102 166.059ZM64.9192 177.514V164.423H66.4277V169.255H66.5556C66.6664 169.085 66.8198 168.867 67.0158 168.603C67.2161 168.335 67.5016 168.096 67.8723 167.887C68.2473 167.674 68.7544 167.568 69.3936 167.568C70.2203 167.568 70.949 167.774 71.5797 168.188C72.2104 168.601 72.7026 169.187 73.0563 169.945C73.41 170.704 73.5868 171.599 73.5868 172.63C73.5868 173.67 73.41 174.571 73.0563 175.334C72.7026 176.093 72.2125 176.681 71.5861 177.098C70.9597 177.512 70.2374 177.718 69.4192 177.718C68.7885 177.718 68.2836 177.614 67.9043 177.405C67.525 177.192 67.2331 176.951 67.0286 176.683C66.824 176.41 66.6664 176.184 66.5556 176.005H66.3766V177.514H64.9192ZM66.4022 172.605C66.4022 173.346 66.5108 174 66.7282 174.567C66.9455 175.129 67.263 175.57 67.6806 175.89C68.0982 176.205 68.6096 176.363 69.2147 176.363C69.8453 176.363 70.3716 176.197 70.7935 175.865C71.2196 175.528 71.5392 175.076 71.7523 174.509C71.9696 173.938 72.0783 173.303 72.0783 172.605C72.0783 171.914 71.9718 171.292 71.7587 170.738C71.5499 170.18 71.2324 169.739 70.8063 169.415C70.3844 169.087 69.8539 168.923 69.2147 168.923C68.601 168.923 68.0854 169.078 67.6678 169.389C67.2502 169.696 66.9348 170.127 66.7218 170.681C66.5087 171.23 66.4022 171.872 66.4022 172.605ZM75.8944 177.514V167.695H77.4029V177.514H75.8944ZM76.6614 166.059C76.3674 166.059 76.1138 165.959 75.9007 165.759C75.6919 165.558 75.5875 165.318 75.5875 165.036C75.5875 164.755 75.6919 164.514 75.9007 164.314C76.1138 164.114 76.3674 164.014 76.6614 164.014C76.9554 164.014 77.2069 164.114 77.4157 164.314C77.6287 164.514 77.7353 164.755 77.7353 165.036C77.7353 165.318 77.6287 165.558 77.4157 165.759C77.2069 165.959 76.9554 166.059 76.6614 166.059ZM81.6744 164.423V177.514H80.1658V164.423H81.6744ZM84.4373 177.514V167.695H85.9458V177.514H84.4373ZM85.2044 166.059C84.9103 166.059 84.6568 165.959 84.4437 165.759C84.2349 165.558 84.1305 165.318 84.1305 165.036C84.1305 164.755 84.2349 164.514 84.4437 164.314C84.6568 164.114 84.9103 164.014 85.2044 164.014C85.4984 164.014 85.7498 164.114 85.9586 164.314C86.1717 164.514 86.2782 164.755 86.2782 165.036C86.2782 165.318 86.1717 165.558 85.9586 165.759C85.7498 165.959 85.4984 166.059 85.2044 166.059ZM92.9787 167.695V168.974H87.8906V167.695H92.9787ZM89.3736 165.343H90.8821V174.701C90.8821 175.127 90.9439 175.447 91.0675 175.66C91.1953 175.869 91.3572 176.009 91.5533 176.082C91.7536 176.15 91.9645 176.184 92.1861 176.184C92.3523 176.184 92.4886 176.176 92.5952 176.159C92.7017 176.137 92.7869 176.12 92.8509 176.107L93.1577 177.463C93.0554 177.501 92.9126 177.539 92.7294 177.578C92.5462 177.62 92.3139 177.642 92.0327 177.642C91.6065 177.642 91.1889 177.55 90.7798 177.367C90.375 177.183 90.0384 176.904 89.7699 176.529C89.5057 176.154 89.3736 175.681 89.3736 175.11V165.343ZM98.1371 177.744C97.5149 177.744 96.9503 177.627 96.4432 177.392C95.9361 177.154 95.5334 176.811 95.2351 176.363C94.9368 175.911 94.7876 175.366 94.7876 174.727C94.7876 174.164 94.8984 173.708 95.12 173.359C95.3416 173.005 95.6378 172.728 96.0085 172.528C96.3793 172.328 96.7884 172.178 97.2358 172.08C97.6875 171.978 98.1413 171.897 98.5973 171.838C99.1939 171.761 99.6776 171.703 100.048 171.665C100.423 171.622 100.696 171.552 100.866 171.454C101.041 171.356 101.129 171.186 101.129 170.943V170.892C101.129 170.261 100.956 169.771 100.611 169.421C100.27 169.072 99.7521 168.897 99.0575 168.897C98.3374 168.897 97.7727 169.055 97.3636 169.37C96.9545 169.686 96.6669 170.022 96.5007 170.38L95.0689 169.869C95.3246 169.272 95.6655 168.808 96.0916 168.475C96.522 168.139 96.9908 167.904 97.4979 167.772C98.0092 167.636 98.5121 167.568 99.0064 167.568C99.3217 167.568 99.6839 167.606 100.093 167.683C100.506 167.755 100.905 167.906 101.288 168.137C101.676 168.367 101.998 168.714 102.254 169.178C102.509 169.643 102.637 170.265 102.637 171.045V177.514H101.129V176.184H101.052C100.95 176.397 100.779 176.625 100.54 176.868C100.302 177.111 99.9844 177.318 99.5881 177.488C99.1918 177.659 98.7081 177.744 98.1371 177.744ZM98.3672 176.389C98.9638 176.389 99.4666 176.271 99.8757 176.037C100.289 175.803 100.6 175.5 100.809 175.129C101.022 174.759 101.129 174.369 101.129 173.96V172.579C101.065 172.656 100.924 172.726 100.707 172.79C100.494 172.85 100.246 172.903 99.9652 172.95C99.6882 172.992 99.4176 173.031 99.1534 173.065C98.8935 173.095 98.6825 173.12 98.5206 173.142C98.1286 173.193 97.7621 173.276 97.4212 173.391C97.0845 173.502 96.8118 173.67 96.603 173.896C96.3984 174.117 96.2962 174.42 96.2962 174.803C96.2962 175.328 96.4901 175.724 96.8778 175.992C97.2699 176.257 97.7663 176.389 98.3672 176.389ZM98.4695 166.366L96.4751 163.4H98.2393L99.799 166.366H98.4695Z" fill="white"/>
<path d="M1.58523 227.514V214.423H6.00852C7.03125 214.423 7.87074 214.597 8.52699 214.947C9.18324 215.292 9.66903 215.767 9.98438 216.372C10.2997 216.977 10.4574 217.666 10.4574 218.437C10.4574 219.208 10.2997 219.892 9.98438 220.489C9.66903 221.085 9.18537 221.554 8.53338 221.895C7.88139 222.232 7.0483 222.4 6.03409 222.4H2.45455V220.968H5.98295C6.68182 220.968 7.24432 220.866 7.67045 220.661C8.10085 220.457 8.41193 220.167 8.60369 219.792C8.79972 219.413 8.89773 218.961 8.89773 218.437C8.89773 217.913 8.79972 217.455 8.60369 217.063C8.40767 216.671 8.09446 216.368 7.66406 216.155C7.23366 215.938 6.66477 215.829 5.95739 215.829H3.17045V227.514H1.58523ZM7.74716 221.633L10.9688 227.514H9.12784L5.95739 221.633H7.74716ZM16.9054 227.718C15.9593 227.718 15.1433 227.509 14.4572 227.092C13.7754 226.67 13.2491 226.082 12.8784 225.328C12.5119 224.569 12.3287 223.687 12.3287 222.681C12.3287 221.676 12.5119 220.789 12.8784 220.022C13.2491 219.251 13.7647 218.65 14.4252 218.22C15.09 217.785 15.8656 217.568 16.752 217.568C17.2633 217.568 17.7683 217.653 18.2669 217.823C18.7654 217.994 19.2193 218.271 19.6284 218.654C20.0375 219.034 20.3635 219.536 20.6064 220.163C20.8493 220.789 20.9707 221.561 20.9707 222.477V223.116H13.4025V221.812H19.4366C19.4366 221.258 19.3258 220.764 19.1042 220.329C18.8869 219.894 18.5758 219.551 18.171 219.3C17.7704 219.048 17.2974 218.923 16.752 218.923C16.1511 218.923 15.6312 219.072 15.1923 219.37C14.7576 219.664 14.4231 220.048 14.1887 220.521C13.9544 220.994 13.8372 221.501 13.8372 222.042V222.911C13.8372 223.653 13.965 224.281 14.2207 224.797C14.4806 225.308 14.8407 225.698 15.301 225.967C15.7612 226.231 16.296 226.363 16.9054 226.363C17.3017 226.363 17.6596 226.308 17.9792 226.197C18.3031 226.082 18.5822 225.911 18.8166 225.686C19.051 225.455 19.2321 225.17 19.3599 224.829L20.8173 225.238C20.6639 225.732 20.4061 226.167 20.0439 226.542C19.6816 226.913 19.2342 227.203 18.7015 227.411C18.1689 227.616 17.5701 227.718 16.9054 227.718ZM27.5353 217.695V218.974H22.4473V217.695H27.5353ZM23.9302 215.343H25.4387V224.701C25.4387 225.127 25.5005 225.447 25.6241 225.66C25.752 225.869 25.9139 226.009 26.1099 226.082C26.3102 226.15 26.5211 226.184 26.7427 226.184C26.9089 226.184 27.0453 226.176 27.1518 226.159C27.2583 226.137 27.3436 226.12 27.4075 226.107L27.7143 227.463C27.612 227.501 27.4693 227.539 27.286 227.578C27.1028 227.62 26.8706 227.642 26.5893 227.642C26.1632 227.642 25.7456 227.55 25.3365 227.367C24.9316 227.183 24.595 226.904 24.3265 226.529C24.0623 226.154 23.9302 225.681 23.9302 225.11V215.343ZM33.8155 227.718C32.8695 227.718 32.0534 227.509 31.3674 227.092C30.6855 226.67 30.1593 226.082 29.7885 225.328C29.4221 224.569 29.2388 223.687 29.2388 222.681C29.2388 221.676 29.4221 220.789 29.7885 220.022C30.1593 219.251 30.6749 218.65 31.3354 218.22C32.0002 217.785 32.7757 217.568 33.6621 217.568C34.1735 217.568 34.6784 217.653 35.177 217.823C35.6756 217.994 36.1294 218.271 36.5385 218.654C36.9476 219.034 37.2736 219.536 37.5165 220.163C37.7594 220.789 37.8809 221.561 37.8809 222.477V223.116H30.3127V221.812H36.3468C36.3468 221.258 36.236 220.764 36.0144 220.329C35.7971 219.894 35.486 219.551 35.0811 219.3C34.6806 219.048 34.2076 218.923 33.6621 218.923C33.0613 218.923 32.5414 219.072 32.1025 219.37C31.6678 219.664 31.3333 220.048 31.0989 220.521C30.8645 220.994 30.7473 221.501 30.7473 222.042V222.911C30.7473 223.653 30.8752 224.281 31.1309 224.797C31.3908 225.308 31.7509 225.698 32.2111 225.967C32.6713 226.231 33.2061 226.363 33.8155 226.363C34.2118 226.363 34.5698 226.308 34.8894 226.197C35.2132 226.082 35.4924 225.911 35.7267 225.686C35.9611 225.455 36.1422 225.17 36.2701 224.829L37.7275 225.238C37.574 225.732 37.3162 226.167 36.954 226.542C36.5918 226.913 36.1444 227.203 35.6117 227.411C35.079 227.616 34.4803 227.718 33.8155 227.718ZM41.6841 221.607V227.514H40.1756V217.695H41.633V219.23H41.7608C41.9909 218.731 42.3404 218.33 42.8091 218.028C43.2779 217.721 43.883 217.568 44.6245 217.568C45.2892 217.568 45.8709 217.704 46.3695 217.977C46.8681 218.245 47.2559 218.654 47.5328 219.204C47.8098 219.749 47.9483 220.44 47.9483 221.275V227.514H46.4398V221.377C46.4398 220.606 46.2395 220.005 45.839 219.575C45.4384 219.14 44.8887 218.923 44.1898 218.923C43.7083 218.923 43.2779 219.027 42.8986 219.236C42.5236 219.445 42.2275 219.749 42.0101 220.15C41.7928 220.551 41.6841 221.036 41.6841 221.607ZM54.9748 217.695V218.974H49.8867V217.695H54.9748ZM51.3697 215.343H52.8782V224.701C52.8782 225.127 52.94 225.447 53.0636 225.66C53.1914 225.869 53.3533 226.009 53.5494 226.082C53.7496 226.15 53.9606 226.184 54.1822 226.184C54.3484 226.184 54.4847 226.176 54.5913 226.159C54.6978 226.137 54.783 226.12 54.8469 226.107L55.1538 227.463C55.0515 227.501 54.9087 227.539 54.7255 227.578C54.5423 227.62 54.31 227.642 54.0288 227.642C53.6026 227.642 53.185 227.55 52.7759 227.367C52.3711 227.183 52.0344 226.904 51.766 226.529C51.5018 226.154 51.3697 225.681 51.3697 225.11V215.343ZM57.244 227.514V217.695H58.7525V227.514H57.244ZM58.011 216.059C57.717 216.059 57.4634 215.959 57.2504 215.759C57.0415 215.558 56.9371 215.318 56.9371 215.036C56.9371 214.755 57.0415 214.514 57.2504 214.314C57.4634 214.114 57.717 214.014 58.011 214.014C58.305 214.014 58.5565 214.114 58.7653 214.314C58.9783 214.514 59.0849 214.755 59.0849 215.036C59.0849 215.318 58.9783 215.558 58.7653 215.759C58.5565 215.959 58.305 216.059 58.011 216.059ZM65.5041 227.718C64.6177 227.718 63.84 227.507 63.171 227.085C62.5062 226.664 61.9863 226.073 61.6113 225.315C61.2406 224.556 61.0552 223.67 61.0552 222.656C61.0552 221.633 61.2406 220.74 61.6113 219.977C61.9863 219.215 62.5062 218.622 63.171 218.2C63.84 217.779 64.6177 217.568 65.5041 217.568C66.3904 217.568 67.166 217.779 67.8308 218.2C68.4998 218.622 69.0197 219.215 69.3904 219.977C69.7654 220.74 69.9529 221.633 69.9529 222.656C69.9529 223.67 69.7654 224.556 69.3904 225.315C69.0197 226.073 68.4998 226.664 67.8308 227.085C67.166 227.507 66.3904 227.718 65.5041 227.718ZM65.5041 226.363C66.1774 226.363 66.7314 226.191 67.166 225.845C67.6007 225.5 67.9224 225.046 68.1312 224.484C68.34 223.921 68.4444 223.312 68.4444 222.656C68.4444 221.999 68.34 221.388 68.1312 220.821C67.9224 220.254 67.6007 219.796 67.166 219.447C66.7314 219.097 66.1774 218.923 65.5041 218.923C64.8308 218.923 64.2768 219.097 63.8422 219.447C63.4075 219.796 63.0858 220.254 62.877 220.821C62.6681 221.388 62.5637 221.999 62.5637 222.656C62.5637 223.312 62.6681 223.921 62.877 224.484C63.0858 225.046 63.4075 225.5 63.8422 225.845C64.2768 226.191 64.8308 226.363 65.5041 226.363ZM73.7642 221.607V227.514H72.2557V217.695H73.7131V219.23H73.8409C74.071 218.731 74.4205 218.33 74.8892 218.028C75.358 217.721 75.9631 217.568 76.7045 217.568C77.3693 217.568 77.951 217.704 78.4496 217.977C78.9482 218.245 79.3359 218.654 79.6129 219.204C79.8899 219.749 80.0284 220.44 80.0284 221.275V227.514H78.5199V221.377C78.5199 220.606 78.3196 220.005 77.919 219.575C77.5185 219.14 76.9688 218.923 76.2699 218.923C75.7884 218.923 75.358 219.027 74.9787 219.236C74.6037 219.445 74.3075 219.749 74.0902 220.15C73.8729 220.551 73.7642 221.036 73.7642 221.607Z" fill="white"/>
<circle cx="510.69" cy="26.2431" r="6.20106" fill="#FF454D" stroke="#FF454D"/>
<circle cx="540.093" cy="26.2431" r="6.20106" fill="#FF454D" stroke="#FF454D"/>
<circle cx="569.494" cy="26.2431" r="6.20106" fill="#FF454D" stroke="#FF454D"/>
<circle cx="598.896" cy="26.2431" r="6.20106" stroke="white"/>
<circle cx="628.299" cy="26.2431" r="6.20106" stroke="white"/>
<circle cx="510.69" cy="75.5419" r="6.20106" fill="#FF454D" stroke="#FF454D"/>
<circle cx="540.093" cy="75.5419" r="6.20106" fill="#FF454D" stroke="#FF454D"/>
<circle cx="569.494" cy="75.5419" r="6.20106" fill="#FF454D" stroke="#FF454D"/>
<circle cx="598.896" cy="75.5419" r="6.20106" fill="#FF454D" stroke="#FF454D"/>
<circle cx="628.299" cy="75.5419" r="6.20106" stroke="white"/>
<circle cx="510.69" cy="124.841" r="6.20106" fill="#FF454D" stroke="#FF454D"/>
<circle cx="540.093" cy="124.841" r="6.20106" fill="#FF454D" stroke="#FF454D"/>
<circle cx="569.494" cy="124.841" r="6.20106" stroke="white"/>
<circle cx="598.896" cy="124.841" r="6.20106" stroke="white"/>
<circle cx="628.299" cy="124.841" r="6.20106" stroke="white"/>
<circle cx="510.69" cy="174.14" r="6.20106" fill="#FF454D" stroke="#FF454D"/>
<circle cx="540.093" cy="174.14" r="6.20106" fill="#FF454D" stroke="#FF454D"/>
<circle cx="569.494" cy="174.14" r="6.20106" fill="#FF454D" stroke="#FF454D"/>
<circle cx="598.896" cy="174.14" r="6.20106" stroke="white"/>
<circle cx="628.299" cy="174.14" r="6.20106" stroke="white"/>
<circle cx="510.69" cy="223.438" r="6.20106" fill="#FF454D" stroke="#FF454D"/>
<circle cx="540.093" cy="223.438" r="6.20106" fill="#FF454D" stroke="#FF454D"/>
<circle cx="569.494" cy="223.438" r="6.20106" stroke="white"/>
<circle cx="598.896" cy="223.438" r="6.20106" stroke="white"/>
<circle cx="628.299" cy="223.438" r="6.20106" stroke="white"/>
<path d="M0 0.541992L635 0.541937" stroke="white" stroke-width="0.5"/>
<path d="M0 50.542L635 50.5419" stroke="white" stroke-width="0.5"/>
<path d="M0 100.542L635 100.542" stroke="white" stroke-width="0.5"/>
<path d="M0 150.542L635 150.542" stroke="white" stroke-width="0.5"/>
<path d="M0 200.543L635 200.543" stroke="white" stroke-width="0.5"/>
<path d="M0 250.543L635 250.543" stroke="white" stroke-width="0.5"/>
</svg>
