<svg width="131" height="119" viewBox="0 0 131 119" fill="none" xmlns="http://www.w3.org/2000/svg">
<rect x="12.8754" y="73.9187" width="13.2196" height="13.2196" transform="rotate(-45 12.8754 73.9187)" stroke="#252C39" stroke-width="0.5"/>
<path d="M43.2133 78.2365V69.5092H46.3241C47.0031 69.5092 47.5656 69.6328 48.0116 69.8799C48.4576 70.1271 48.7914 70.4651 49.013 70.8941C49.2346 71.3203 49.3454 71.8004 49.3454 72.3345C49.3454 72.8714 49.2332 73.3543 49.0088 73.7833C48.7872 74.2095 48.452 74.5475 48.0031 74.7975C47.5571 75.0447 46.996 75.1683 46.3199 75.1683H44.1807V74.0518H46.2005C46.6295 74.0518 46.9775 73.9779 47.2446 73.8302C47.5116 73.6796 47.7076 73.4751 47.8326 73.2166C47.9576 72.958 48.0201 72.664 48.0201 72.3345C48.0201 72.0049 47.9576 71.7123 47.8326 71.4566C47.7076 71.2009 47.5102 71.0007 47.2403 70.8558C46.9733 70.7109 46.621 70.6384 46.1835 70.6384H44.5301V78.2365H43.2133ZM50.7868 78.2365V71.691H52.0184V72.7308H52.0865C52.2059 72.3785 52.4161 72.1015 52.7172 71.8998C53.0212 71.6953 53.365 71.593 53.7485 71.593C53.828 71.593 53.9218 71.5958 54.0297 71.6015C54.1405 71.6072 54.2272 71.6143 54.2897 71.6228V72.8416C54.2385 72.8274 54.1476 72.8117 54.0169 72.7947C53.8863 72.7748 53.7556 72.7649 53.6249 72.7649C53.3238 72.7649 53.0553 72.8288 52.8195 72.9566C52.5865 73.0816 52.4019 73.2563 52.2655 73.4808C52.1292 73.7024 52.061 73.9552 52.061 74.2393V78.2365H50.7868ZM57.915 78.3686C57.3014 78.3686 56.7659 78.2279 56.3085 77.9467C55.8511 77.6654 55.496 77.272 55.2432 76.7663C54.9903 76.2606 54.8639 75.6697 54.8639 74.9936C54.8639 74.3146 54.9903 73.7208 55.2432 73.2123C55.496 72.7038 55.8511 72.3089 56.3085 72.0276C56.7659 71.7464 57.3014 71.6058 57.915 71.6058C58.5287 71.6058 59.0642 71.7464 59.5216 72.0276C59.9789 72.3089 60.3341 72.7038 60.5869 73.2123C60.8397 73.7208 60.9662 74.3146 60.9662 74.9936C60.9662 75.6697 60.8397 76.2606 60.5869 76.7663C60.3341 77.272 59.9789 77.6654 59.5216 77.9467C59.0642 78.2279 58.5287 78.3686 57.915 78.3686ZM57.9193 77.299C58.317 77.299 58.6466 77.1938 58.9079 76.9836C59.1693 76.7734 59.3625 76.4936 59.4875 76.1441C59.6153 75.7947 59.6792 75.4097 59.6792 74.9893C59.6792 74.5717 59.6153 74.1882 59.4875 73.8387C59.3625 73.4865 59.1693 73.2038 58.9079 72.9907C58.6466 72.7776 58.317 72.6711 57.9193 72.6711C57.5187 72.6711 57.1863 72.7776 56.9221 72.9907C56.6608 73.2038 56.4662 73.4865 56.3383 73.8387C56.2133 74.1882 56.1508 74.5717 56.1508 74.9893C56.1508 75.4097 56.2133 75.7947 56.3383 76.1441C56.4662 76.4936 56.6608 76.7734 56.9221 76.9836C57.1863 77.1938 57.5187 77.299 57.9193 77.299ZM65.1327 80.8274C64.6128 80.8274 64.1654 80.7592 63.7904 80.6228C63.4182 80.4865 63.1142 80.3061 62.8785 80.0816C62.6427 79.8572 62.4665 79.6115 62.35 79.3444L63.4452 78.8927C63.5219 79.0177 63.6242 79.1498 63.752 79.289C63.8827 79.4311 64.0588 79.5518 64.2804 79.6512C64.5049 79.7507 64.7932 79.8004 65.1455 79.8004C65.6285 79.8004 66.0276 79.6825 66.3429 79.4467C66.6583 79.2137 66.816 78.8416 66.816 78.3302V77.0433H66.735C66.6583 77.1825 66.5475 77.3373 66.4026 77.5078C66.2606 77.6782 66.0645 77.8259 65.8145 77.9509C65.5645 78.0759 65.2392 78.1384 64.8387 78.1384C64.3216 78.1384 63.8557 78.0177 63.441 77.7762C63.029 77.5319 62.7023 77.1725 62.4608 76.6981C62.2222 76.2208 62.1029 75.6342 62.1029 74.9382C62.1029 74.2421 62.2208 73.6455 62.4566 73.1484C62.6952 72.6512 63.0219 72.2705 63.4367 72.0063C63.8515 71.7393 64.3216 71.6058 64.8472 71.6058C65.2535 71.6058 65.5816 71.674 65.8316 71.8103C66.0816 71.9438 66.2762 72.1001 66.4154 72.2791C66.5574 72.458 66.6668 72.6157 66.7435 72.7521H66.8373V71.691H68.0858V78.3813C68.0858 78.9438 67.9552 79.4055 67.6938 79.7663C67.4324 80.1271 67.0787 80.3941 66.6327 80.5674C66.1895 80.7407 65.6895 80.8274 65.1327 80.8274ZM65.1199 77.0816C65.4864 77.0816 65.7961 76.9964 66.0489 76.8259C66.3046 76.6526 66.4978 76.4055 66.6285 76.0845C66.762 75.7606 66.8287 75.3728 66.8287 74.9211C66.8287 74.4808 66.7634 74.093 66.6327 73.7578C66.502 73.4225 66.3103 73.1612 66.0574 72.9737C65.8046 72.7833 65.4921 72.6882 65.1199 72.6882C64.7364 72.6882 64.4168 72.7876 64.1611 72.9865C63.9054 73.1825 63.7123 73.4495 63.5816 73.7876C63.4537 74.1257 63.3898 74.5035 63.3898 74.9211C63.3898 75.3501 63.4552 75.7265 63.5858 76.0504C63.7165 76.3742 63.9097 76.6271 64.1654 76.8089C64.4239 76.9907 64.7421 77.0816 65.1199 77.0816ZM72.6157 78.3686C71.9708 78.3686 71.4154 78.2308 70.9495 77.9552C70.4864 77.6768 70.1285 77.2862 69.8756 76.7833C69.6256 76.2776 69.5006 75.6853 69.5006 75.0063C69.5006 74.3359 69.6256 73.745 69.8756 73.2336C70.1285 72.7222 70.4807 72.3231 70.9324 72.0362C71.387 71.7492 71.9182 71.6058 72.5262 71.6058C72.8955 71.6058 73.2535 71.6668 73.6 71.789C73.9466 71.9112 74.2577 72.1029 74.5333 72.3643C74.8088 72.6257 75.0262 72.9651 75.1853 73.3828C75.3444 73.7975 75.4239 74.3018 75.4239 74.8955V75.3472H70.2208V74.3927H74.1753C74.1753 74.0575 74.1071 73.7606 73.9708 73.5021C73.8344 73.2407 73.6427 73.0347 73.3955 72.8842C73.1512 72.7336 72.8642 72.6583 72.5347 72.6583C72.1767 72.6583 71.8642 72.7464 71.5972 72.9225C71.333 73.0958 71.1285 73.3231 70.9836 73.6043C70.8415 73.8828 70.7705 74.1853 70.7705 74.512V75.2578C70.7705 75.6953 70.8472 76.0674 71.0006 76.3742C71.1569 76.6811 71.3742 76.9154 71.6526 77.0774C71.931 77.2365 72.2563 77.316 72.6285 77.316C72.8699 77.316 73.0901 77.2819 73.289 77.2137C73.4878 77.1427 73.6597 77.0376 73.8046 76.8984C73.9495 76.7592 74.0603 76.5873 74.137 76.3828L75.3429 76.6001C75.2463 76.9552 75.0731 77.2663 74.8231 77.5333C74.5759 77.7975 74.2648 78.0035 73.8898 78.1512C73.5177 78.2961 73.0929 78.3686 72.6157 78.3686ZM79.893 71.691V72.7137H76.3177V71.691H79.893ZM77.2765 70.1228H78.5507V76.3146C78.5507 76.5617 78.5876 76.7478 78.6615 76.8728C78.7353 76.995 78.8305 77.0788 78.947 77.1242C79.0663 77.1668 79.1956 77.1882 79.3348 77.1882C79.437 77.1882 79.5265 77.1811 79.6032 77.1668C79.6799 77.1526 79.7396 77.1413 79.7822 77.1328L80.0123 78.1853C79.9385 78.2137 79.8334 78.2421 79.697 78.2705C79.5606 78.3018 79.3902 78.3188 79.1856 78.3217C78.8504 78.3274 78.5379 78.2677 78.2481 78.1427C77.9584 78.0177 77.724 77.8245 77.545 77.5632C77.366 77.3018 77.2765 76.9737 77.2765 76.5788V70.1228ZM84.3579 71.691V72.7137H80.7826V71.691H84.3579ZM81.7414 70.1228H83.0155V76.3146C83.0155 76.5617 83.0525 76.7478 83.1263 76.8728C83.2002 76.995 83.2954 77.0788 83.4118 77.1242C83.5312 77.1668 83.6604 77.1882 83.7996 77.1882C83.9019 77.1882 83.9914 77.1811 84.0681 77.1668C84.1448 77.1526 84.2044 77.1413 84.2471 77.1328L84.4772 78.1853C84.4033 78.2137 84.2982 78.2421 84.1618 78.2705C84.0255 78.3018 83.855 78.3188 83.6505 78.3217C83.3152 78.3274 83.0027 78.2677 82.713 78.1427C82.4232 78.0177 82.1888 77.8245 82.0098 77.5632C81.8309 77.3018 81.7414 76.9737 81.7414 76.5788V70.1228ZM85.7673 78.2365V71.691H87.0414V78.2365H85.7673ZM86.4108 70.6811C86.1892 70.6811 85.9988 70.6072 85.8397 70.4595C85.6835 70.3089 85.6054 70.1299 85.6054 69.9225C85.6054 69.7123 85.6835 69.5333 85.8397 69.3856C85.9988 69.235 86.1892 69.1597 86.4108 69.1597C86.6324 69.1597 86.8213 69.235 86.9775 69.3856C87.1366 69.5333 87.2162 69.7123 87.2162 69.9225C87.2162 70.1299 87.1366 70.3089 86.9775 70.4595C86.8213 70.6072 86.6324 70.6811 86.4108 70.6811Z" fill="#252C39"/>
<path d="M49.1196 43.8827C49.0372 43.6242 48.9264 43.3927 48.7872 43.1881C48.6508 42.9807 48.4875 42.8046 48.2971 42.6597C48.1068 42.512 47.8895 42.3998 47.6451 42.3231C47.4037 42.2464 47.138 42.208 46.8483 42.208C46.3568 42.208 45.9136 42.3344 45.5187 42.5873C45.1238 42.8401 44.8113 43.2109 44.5812 43.6995C44.3539 44.1853 44.2403 44.7805 44.2403 45.485C44.2403 46.1924 44.3554 46.7904 44.5855 47.279C44.8156 47.7677 45.1309 48.1384 45.5315 48.3913C45.9321 48.6441 46.388 48.7705 46.8994 48.7705C47.3738 48.7705 47.7872 48.6739 48.1395 48.4807C48.4946 48.2876 48.7687 48.0148 48.9619 47.6626C49.1579 47.3075 49.2559 46.8898 49.2559 46.4097L49.5968 46.4736H47.0997V45.387H50.5301V46.3799C50.5301 47.1128 50.3738 47.7492 50.0613 48.289C49.7517 48.8259 49.3227 49.2407 48.7744 49.5333C48.2289 49.8259 47.6039 49.9722 46.8994 49.9722C46.1096 49.9722 45.4164 49.7904 44.8199 49.4268C44.2261 49.0631 43.763 48.5475 43.4307 47.8799C43.0983 47.2094 42.9321 46.414 42.9321 45.4935C42.9321 44.7975 43.0287 44.1725 43.2218 43.6185C43.415 43.0646 43.6863 42.5944 44.0358 42.208C44.388 41.8188 44.8014 41.5219 45.2758 41.3174C45.7531 41.11 46.2744 41.0063 46.8397 41.0063C47.3113 41.0063 47.7503 41.0759 48.1565 41.2151C48.5656 41.3543 48.9292 41.5518 49.2474 41.8075C49.5684 42.0631 49.8341 42.3671 50.0443 42.7194C50.2545 43.0688 50.3966 43.4566 50.4704 43.8827H49.1196ZM52.0993 49.8529V43.3075H53.3309V44.3472H53.399C53.5184 43.995 53.7286 43.718 54.0297 43.5163C54.3337 43.3117 54.6775 43.2094 55.061 43.2094C55.1405 43.2094 55.2343 43.2123 55.3422 43.218C55.453 43.2236 55.5397 43.2307 55.6022 43.2393V44.458C55.551 44.4438 55.4601 44.4282 55.3294 44.4111C55.1988 44.3913 55.0681 44.3813 54.9374 44.3813C54.6363 44.3813 54.3678 44.4452 54.132 44.5731C53.899 44.6981 53.7144 44.8728 53.578 45.0972C53.4417 45.3188 53.3735 45.5717 53.3735 45.8557V49.8529H52.0993ZM60.8511 47.1384V43.3075H62.1295V49.8529H60.8767V48.7194H60.8085C60.6579 49.0688 60.4164 49.36 60.0841 49.593C59.7545 49.8231 59.344 49.9381 58.8525 49.9381C58.4321 49.9381 58.0599 49.8458 57.7361 49.6611C57.415 49.4736 57.1622 49.1967 56.9775 48.8302C56.7957 48.4637 56.7048 48.0106 56.7048 47.4708V43.3075H57.9789V47.3174C57.9789 47.7634 58.1025 48.1185 58.3497 48.3827C58.5968 48.6469 58.9179 48.779 59.3128 48.779C59.5514 48.779 59.7886 48.7194 60.0244 48.6001C60.263 48.4807 60.4605 48.3003 60.6167 48.0589C60.7758 47.8174 60.8539 47.5106 60.8511 47.1384ZM63.8415 52.3075V43.3075H65.0858V44.3685H65.1924C65.2662 44.2322 65.3728 44.0745 65.512 43.8955C65.6512 43.7165 65.8444 43.5603 66.0915 43.4268C66.3387 43.2904 66.6654 43.2222 67.0716 43.2222C67.6 43.2222 68.0716 43.3557 68.4864 43.6228C68.9012 43.8898 69.2265 44.2748 69.4623 44.7776C69.7009 45.2805 69.8202 45.8856 69.8202 46.593C69.8202 47.3003 69.7023 47.9069 69.4665 48.4126C69.2307 48.9154 68.9069 49.3032 68.4949 49.5759C68.083 49.8458 67.6128 49.9807 67.0844 49.9807C66.6867 49.9807 66.3614 49.914 66.1086 49.7805C65.8586 49.6469 65.6625 49.4907 65.5205 49.3117C65.3785 49.1327 65.2691 48.9736 65.1924 48.8344H65.1157V52.3075H63.8415ZM65.0901 46.5802C65.0901 47.0404 65.1569 47.4438 65.2904 47.7904C65.4239 48.137 65.6171 48.4083 65.8699 48.6043C66.1228 48.7975 66.4324 48.8941 66.7989 48.8941C67.1796 48.8941 67.4978 48.7932 67.7535 48.5915C68.0091 48.387 68.2023 48.11 68.333 47.7606C68.4665 47.4111 68.5333 47.0177 68.5333 46.5802C68.5333 46.1484 68.4679 45.7606 68.3373 45.4168C68.2094 45.0731 68.0162 44.8018 67.7577 44.6029C67.502 44.404 67.1824 44.3046 66.7989 44.3046C66.4296 44.3046 66.1171 44.3998 65.8614 44.5901C65.6086 44.7805 65.4168 45.0461 65.2861 45.387C65.1554 45.7279 65.0901 46.1256 65.0901 46.5802ZM71.2478 52.3075V43.3075H72.4921V44.3685H72.5986C72.6725 44.2322 72.779 44.0745 72.9182 43.8955C73.0574 43.7165 73.2506 43.5603 73.4978 43.4268C73.7449 43.2904 74.0716 43.2222 74.4779 43.2222C75.0063 43.2222 75.4779 43.3557 75.8927 43.6228C76.3074 43.8898 76.6327 44.2748 76.8685 44.7776C77.1071 45.2805 77.2265 45.8856 77.2265 46.593C77.2265 47.3003 77.1086 47.9069 76.8728 48.4126C76.637 48.9154 76.3131 49.3032 75.9012 49.5759C75.4892 49.8458 75.0191 49.9807 74.4907 49.9807C74.0929 49.9807 73.7677 49.914 73.5148 49.7805C73.2648 49.6469 73.0688 49.4907 72.9267 49.3117C72.7847 49.1327 72.6753 48.9736 72.5986 48.8344H72.5219V52.3075H71.2478ZM72.4963 46.5802C72.4963 47.0404 72.5631 47.4438 72.6966 47.7904C72.8302 48.137 73.0233 48.4083 73.2762 48.6043C73.529 48.7975 73.8387 48.8941 74.2052 48.8941C74.5858 48.8941 74.904 48.7932 75.1597 48.5915C75.4154 48.387 75.6086 48.11 75.7392 47.7606C75.8728 47.4111 75.9395 47.0177 75.9395 46.5802C75.9395 46.1484 75.8742 45.7606 75.7435 45.4168C75.6157 45.0731 75.4225 44.8018 75.164 44.6029C74.9083 44.404 74.5887 44.3046 74.2052 44.3046C73.8358 44.3046 73.5233 44.3998 73.2677 44.5901C73.0148 44.7805 72.8231 45.0461 72.6924 45.387C72.5617 45.7279 72.4963 46.1256 72.4963 46.5802ZM78.654 49.8529V43.3075H79.9282V49.8529H78.654ZM79.2975 42.2975C79.0759 42.2975 78.8856 42.2236 78.7265 42.0759C78.5702 41.9253 78.4921 41.7464 78.4921 41.539C78.4921 41.3288 78.5702 41.1498 78.7265 41.0021C78.8856 40.8515 79.0759 40.7762 79.2975 40.7762C79.5191 40.7762 79.708 40.8515 79.8642 41.0021C80.0233 41.1498 80.1029 41.3288 80.1029 41.539C80.1029 41.7464 80.0233 41.9253 79.8642 42.0759C79.708 42.2236 79.5191 42.2975 79.2975 42.2975Z" fill="#252C39"/>
<path d="M43.9505 22.469H42.5528L45.6934 13.7417H47.2147L50.3554 22.469H48.9576L46.4903 15.3269H46.4221L43.9505 22.469ZM44.1849 19.0514H48.719V20.1593H44.1849V19.0514ZM54.1586 15.9235V16.9463H50.5834V15.9235H54.1586ZM51.5422 14.3554H52.8163V20.5471C52.8163 20.7943 52.8532 20.9804 52.9271 21.1054C53.001 21.2275 53.0961 21.3113 53.2126 21.3568C53.3319 21.3994 53.4612 21.4207 53.6004 21.4207C53.7027 21.4207 53.7922 21.4136 53.8689 21.3994C53.9456 21.3852 54.0052 21.3738 54.0478 21.3653L54.278 22.4179C54.2041 22.4463 54.099 22.4747 53.9626 22.5031C53.8262 22.5343 53.6558 22.5514 53.4512 22.5542C53.116 22.5599 52.8035 22.5002 52.5137 22.3752C52.224 22.2502 51.9896 22.0571 51.8106 21.7957C51.6316 21.5343 51.5422 21.2062 51.5422 20.8113V14.3554ZM58.6235 15.9235V16.9463H55.0482V15.9235H58.6235ZM56.007 14.3554H57.2812V20.5471C57.2812 20.7943 57.3181 20.9804 57.3919 21.1054C57.4658 21.2275 57.561 21.3113 57.6775 21.3568C57.7968 21.3994 57.926 21.4207 58.0652 21.4207C58.1675 21.4207 58.257 21.4136 58.3337 21.3994C58.4104 21.3852 58.4701 21.3738 58.5127 21.3653L58.7428 22.4179C58.6689 22.4463 58.5638 22.4747 58.4275 22.5031C58.2911 22.5343 58.1206 22.5514 57.9161 22.5542C57.5809 22.5599 57.2684 22.5002 56.9786 22.3752C56.6888 22.2502 56.4544 22.0571 56.2755 21.7957C56.0965 21.5343 56.007 21.2062 56.007 20.8113V14.3554ZM62.7197 22.6011C62.1061 22.6011 61.5706 22.4605 61.1132 22.1792C60.6558 21.898 60.3007 21.5045 60.0478 20.9988C59.795 20.4931 59.6686 19.9022 59.6686 19.2261C59.6686 18.5471 59.795 17.9534 60.0478 17.4448C60.3007 16.9363 60.6558 16.5414 61.1132 16.2602C61.5706 15.9789 62.1061 15.8383 62.7197 15.8383C63.3334 15.8383 63.8689 15.9789 64.3262 16.2602C64.7836 16.5414 65.1387 16.9363 65.3916 17.4448C65.6444 17.9534 65.7709 18.5471 65.7709 19.2261C65.7709 19.9022 65.6444 20.4931 65.3916 20.9988C65.1387 21.5045 64.7836 21.898 64.3262 22.1792C63.8689 22.4605 63.3334 22.6011 62.7197 22.6011ZM62.724 21.5315C63.1217 21.5315 63.4512 21.4264 63.7126 21.2162C63.974 21.0059 64.1672 20.7261 64.2922 20.3767C64.42 20.0272 64.4839 19.6423 64.4839 19.2218C64.4839 18.8042 64.42 18.4207 64.2922 18.0713C64.1672 17.719 63.974 17.4363 63.7126 17.2233C63.4512 17.0102 63.1217 16.9037 62.724 16.9037C62.3234 16.9037 61.991 17.0102 61.7268 17.2233C61.4655 17.4363 61.2709 17.719 61.143 18.0713C61.018 18.4207 60.9555 18.8042 60.9555 19.2218C60.9555 19.6423 61.018 20.0272 61.143 20.3767C61.2709 20.7261 61.4655 21.0059 61.7268 21.2162C61.991 21.4264 62.3234 21.5315 62.724 21.5315ZM67.1931 22.469V15.9235H68.4246V16.9633H68.4928C68.6121 16.611 68.8223 16.3341 69.1235 16.1323C69.4275 15.9278 69.7712 15.8255 70.1547 15.8255C70.2343 15.8255 70.328 15.8284 70.436 15.8341C70.5468 15.8397 70.6334 15.8468 70.6959 15.8554V17.0741C70.6448 17.0599 70.5539 17.0443 70.4232 17.0272C70.2925 17.0073 70.1618 16.9974 70.0312 16.9974C69.73 16.9974 69.4615 17.0613 69.2258 17.1892C68.9928 17.3142 68.8081 17.4889 68.6718 17.7133C68.5354 17.9349 68.4672 18.1877 68.4672 18.4718V22.469H67.1931ZM71.7986 22.469V15.9235H73.0727V22.469H71.7986ZM72.442 14.9136C72.2204 14.9136 72.0301 14.8397 71.871 14.692C71.7147 14.5414 71.6366 14.3625 71.6366 14.1551C71.6366 13.9448 71.7147 13.7659 71.871 13.6181C72.0301 13.4676 72.2204 13.3923 72.442 13.3923C72.6636 13.3923 72.8525 13.4676 73.0088 13.6181C73.1679 13.7659 73.2474 13.9448 73.2474 14.1551C73.2474 14.3625 73.1679 14.5414 73.0088 14.692C72.8525 14.8397 72.6636 14.9136 72.442 14.9136ZM82.8674 17.5216L81.7126 17.7261C81.6643 17.5784 81.5876 17.4377 81.4825 17.3042C81.3802 17.1707 81.241 17.0613 81.0649 16.9761C80.8887 16.8909 80.6686 16.8483 80.4044 16.8483C80.0436 16.8483 79.7424 16.9292 79.501 17.0912C79.2595 17.2502 79.1387 17.4562 79.1387 17.7091C79.1387 17.9278 79.2197 18.1039 79.3816 18.2375C79.5436 18.371 79.8049 18.4804 80.1657 18.5656L81.2055 18.8042C81.8078 18.9434 82.2566 19.1579 82.5521 19.4477C82.8476 19.7375 82.9953 20.1139 82.9953 20.5769C82.9953 20.969 82.8816 21.3184 82.6544 21.6252C82.4299 21.9292 82.116 22.1679 81.7126 22.3412C81.312 22.5144 80.8476 22.6011 80.3191 22.6011C79.5862 22.6011 78.9882 22.4448 78.5251 22.1323C78.062 21.817 77.778 21.3696 77.6728 20.79L78.9044 20.6025C78.9811 20.9235 79.1387 21.1664 79.3774 21.3312C79.616 21.4931 79.9271 21.5741 80.3106 21.5741C80.7282 21.5741 81.062 21.4875 81.312 21.3142C81.562 21.138 81.687 20.9235 81.687 20.6707C81.687 20.4662 81.6103 20.2943 81.4569 20.1551C81.3064 20.0159 81.0748 19.9108 80.7623 19.8397L79.6544 19.5968C79.0436 19.4576 78.5919 19.236 78.2993 18.9321C78.0095 18.6281 77.8646 18.2431 77.8646 17.7772C77.8646 17.3909 77.9726 17.0528 78.1885 16.763C78.4044 16.4733 78.7027 16.2474 79.0834 16.0855C79.464 15.9207 79.9001 15.8383 80.3916 15.8383C81.099 15.8383 81.6558 15.9917 82.062 16.2985C82.4683 16.6025 82.7368 17.0102 82.8674 17.5216ZM84.3962 22.469V15.9235H85.6704V22.469H84.3962ZM85.0397 14.9136C84.8181 14.9136 84.6277 14.8397 84.4687 14.692C84.3124 14.5414 84.2343 14.3625 84.2343 14.1551C84.2343 13.9448 84.3124 13.7659 84.4687 13.6181C84.6277 13.4676 84.8181 13.3923 85.0397 13.3923C85.2613 13.3923 85.4502 13.4676 85.6064 13.6181C85.7655 13.7659 85.8451 13.9448 85.8451 14.1551C85.8451 14.3625 85.7655 14.5414 85.6064 14.692C85.4502 14.8397 85.2613 14.9136 85.0397 14.9136ZM88.6586 18.5826V22.469H87.3845V15.9235H88.6075V16.9889H88.6885C88.839 16.6423 89.0748 16.3639 89.3959 16.1537C89.7197 15.9434 90.1274 15.8383 90.6189 15.8383C91.0649 15.8383 91.4555 15.9321 91.7907 16.1196C92.126 16.3042 92.3859 16.5798 92.5706 16.9463C92.7552 17.3127 92.8476 17.7659 92.8476 18.3056V22.469H91.5734V18.4591C91.5734 17.9846 91.4498 17.6139 91.2027 17.3468C90.9555 17.0769 90.616 16.942 90.1842 16.942C89.8887 16.942 89.626 17.0059 89.3959 17.1338C89.1686 17.2616 88.9882 17.4491 88.8547 17.6963C88.724 17.9406 88.6586 18.236 88.6586 18.5826ZM97.3007 25.0599C96.7808 25.0599 96.3334 24.9917 95.9584 24.8554C95.5862 24.719 95.2822 24.5386 95.0464 24.3142C94.8106 24.0897 94.6345 23.844 94.518 23.5769L95.6132 23.1252C95.6899 23.2502 95.7922 23.3823 95.92 23.5216C96.0507 23.6636 96.2268 23.7843 96.4484 23.8838C96.6728 23.9832 96.9612 24.0329 97.3135 24.0329C97.7964 24.0329 98.1956 23.915 98.5109 23.6792C98.8262 23.4463 98.9839 23.0741 98.9839 22.5627V21.2758H98.903C98.8262 21.415 98.7155 21.5698 98.5706 21.7403C98.4285 21.9108 98.2325 22.0585 97.9825 22.1835C97.7325 22.3085 97.4072 22.371 97.0066 22.371C96.4896 22.371 96.0237 22.2502 95.6089 22.0088C95.197 21.7644 94.8703 21.4051 94.6288 20.9306C94.3902 20.4534 94.2709 19.8667 94.2709 19.1707C94.2709 18.4747 94.3887 17.8781 94.6245 17.3809C94.8632 16.8838 95.1899 16.5031 95.6047 16.2389C96.0194 15.9718 96.4896 15.8383 97.0152 15.8383C97.4214 15.8383 97.7495 15.9065 97.9995 16.0429C98.2495 16.1764 98.4441 16.3326 98.5834 16.5116C98.7254 16.6906 98.8348 16.8483 98.9115 16.9846H99.0052V15.9235H100.254V22.6139C100.254 23.1764 100.123 23.638 99.8618 23.9988C99.6004 24.3596 99.2467 24.6267 98.8007 24.8C98.3575 24.9733 97.8575 25.0599 97.3007 25.0599ZM97.2879 21.3142C97.6544 21.3142 97.964 21.2289 98.2169 21.0585C98.4726 20.8852 98.6657 20.638 98.7964 20.317C98.9299 19.9931 98.9967 19.6054 98.9967 19.1537C98.9967 18.7133 98.9314 18.3255 98.8007 17.9903C98.67 17.6551 98.4782 17.3937 98.2254 17.2062C97.9726 17.0159 97.6601 16.9207 97.2879 16.9207C96.9044 16.9207 96.5848 17.0201 96.3291 17.219C96.0734 17.415 95.8802 17.6821 95.7495 18.0201C95.6217 18.3582 95.5578 18.736 95.5578 19.1537C95.5578 19.5826 95.6231 19.9591 95.7538 20.2829C95.8845 20.6068 96.0777 20.8596 96.3334 21.0414C96.5919 21.2233 96.9101 21.3142 97.2879 21.3142ZM104.72 22.6011C104.106 22.6011 103.571 22.4605 103.113 22.1792C102.656 21.898 102.301 21.5045 102.048 20.9988C101.795 20.4931 101.669 19.9022 101.669 19.2261C101.669 18.5471 101.795 17.9534 102.048 17.4448C102.301 16.9363 102.656 16.5414 103.113 16.2602C103.571 15.9789 104.106 15.8383 104.72 15.8383C105.333 15.8383 105.869 15.9789 106.326 16.2602C106.784 16.5414 107.139 16.9363 107.392 17.4448C107.644 17.9534 107.771 18.5471 107.771 19.2261C107.771 19.9022 107.644 20.4931 107.392 20.9988C107.139 21.5045 106.784 21.898 106.326 22.1792C105.869 22.4605 105.333 22.6011 104.72 22.6011ZM104.724 21.5315C105.122 21.5315 105.451 21.4264 105.713 21.2162C105.974 21.0059 106.167 20.7261 106.292 20.3767C106.42 20.0272 106.484 19.6423 106.484 19.2218C106.484 18.8042 106.42 18.4207 106.292 18.0713C106.167 17.719 105.974 17.4363 105.713 17.2233C105.451 17.0102 105.122 16.9037 104.724 16.9037C104.323 16.9037 103.991 17.0102 103.727 17.2233C103.465 17.4363 103.271 17.719 103.143 18.0713C103.018 18.4207 102.956 18.8042 102.956 19.2218C102.956 19.6423 103.018 20.0272 103.143 20.3767C103.271 20.7261 103.465 21.0059 103.727 21.2162C103.991 21.4264 104.323 21.5315 104.724 21.5315ZM110.467 13.7417V22.469H109.193V13.7417H110.467ZM112.181 22.469V15.9235H113.456V22.469H112.181ZM112.825 14.9136C112.603 14.9136 112.413 14.8397 112.254 14.692C112.098 14.5414 112.019 14.3625 112.019 14.1551C112.019 13.9448 112.098 13.7659 112.254 13.6181C112.413 13.4676 112.603 13.3923 112.825 13.3923C113.046 13.3923 113.235 13.4676 113.392 13.6181C113.551 13.7659 113.63 13.9448 113.63 14.1551C113.63 14.3625 113.551 14.5414 113.392 14.692C113.235 14.8397 113.046 14.9136 112.825 14.9136Z" fill="#252C39"/>
<path d="M47.9733 97.8554C47.9278 97.452 47.7403 97.1395 47.4108 96.9179C47.0812 96.6934 46.6664 96.5812 46.1664 96.5812C45.8085 96.5812 45.4988 96.6381 45.2375 96.7517C44.9761 96.8625 44.773 97.0159 44.6281 97.2119C44.4861 97.4051 44.415 97.6253 44.415 97.8724C44.415 98.0798 44.4633 98.2588 44.5599 98.4094C44.6593 98.5599 44.7886 98.6863 44.9477 98.7886C45.1096 98.8881 45.2829 98.9719 45.4676 99.04C45.6522 99.1054 45.8298 99.1594 46.0003 99.202L46.8525 99.4236C47.1309 99.4917 47.4164 99.5841 47.7091 99.7006C48.0017 99.817 48.273 99.9704 48.523 100.161C48.773 100.351 48.9747 100.587 49.1281 100.868C49.2843 101.149 49.3625 101.486 49.3625 101.878C49.3625 102.372 49.2346 102.811 48.9789 103.195C48.7261 103.578 48.3582 103.881 47.8753 104.103C47.3951 104.324 46.8142 104.435 46.1324 104.435C45.4789 104.435 44.9136 104.331 44.4363 104.124C43.9591 103.916 43.5855 103.622 43.3156 103.242C43.0457 102.858 42.8966 102.404 42.8682 101.878H44.1892C44.2147 102.193 44.317 102.456 44.496 102.666C44.6778 102.874 44.9093 103.029 45.1906 103.131C45.4747 103.23 45.7858 103.28 46.1238 103.28C46.496 103.28 46.827 103.222 47.1167 103.105C47.4093 102.986 47.6395 102.821 47.8071 102.611C47.9747 102.398 48.0585 102.149 48.0585 101.865C48.0585 101.607 47.9846 101.395 47.8369 101.23C47.692 101.066 47.4946 100.929 47.2446 100.821C46.9974 100.713 46.7176 100.618 46.4051 100.536L45.3738 100.255C44.675 100.064 44.121 99.7844 43.7119 99.415C43.3057 99.0457 43.1025 98.5571 43.1025 97.9491C43.1025 97.4463 43.2389 97.0074 43.5116 96.6324C43.7843 96.2574 44.1537 95.9662 44.6196 95.7588C45.0855 95.5486 45.6111 95.4434 46.1963 95.4434C46.7872 95.4434 47.3085 95.5471 47.7602 95.7545C48.2147 95.9619 48.5727 96.2474 48.8341 96.6111C49.0954 96.9719 49.2318 97.3866 49.2432 97.8554H47.9733ZM53.8891 97.7446V98.7673H50.3138V97.7446H53.8891ZM51.2726 96.1764H52.5468V102.368C52.5468 102.615 52.5837 102.801 52.6576 102.926C52.7314 103.049 52.8266 103.132 52.9431 103.178C53.0624 103.22 53.1917 103.242 53.3309 103.242C53.4331 103.242 53.5226 103.235 53.5993 103.22C53.676 103.206 53.7357 103.195 53.7783 103.186L54.0084 104.239C53.9346 104.267 53.8294 104.296 53.6931 104.324C53.5567 104.355 53.3863 104.372 53.1817 104.375C52.8465 104.381 52.534 104.321 52.2442 104.196C51.9544 104.071 51.7201 103.878 51.5411 103.617C51.3621 103.355 51.2726 103.027 51.2726 102.632V96.1764ZM57.2034 104.435C56.7886 104.435 56.4136 104.358 56.0784 104.205C55.7432 104.049 55.4775 103.823 55.2815 103.527C55.0883 103.232 54.9917 102.87 54.9917 102.441C54.9917 102.071 55.0628 101.767 55.2048 101.529C55.3468 101.29 55.5386 101.101 55.7801 100.962C56.0216 100.823 56.2914 100.718 56.5897 100.647C56.888 100.576 57.192 100.522 57.5017 100.485C57.8937 100.439 58.2119 100.402 58.4562 100.374C58.7005 100.343 58.8781 100.293 58.9889 100.225C59.0997 100.157 59.1551 100.046 59.1551 99.8923V99.8625C59.1551 99.4903 59.05 99.202 58.8397 98.9974C58.6324 98.7929 58.3227 98.6906 57.9108 98.6906C57.4818 98.6906 57.1437 98.7858 56.8966 98.9761C56.6522 99.1636 56.4832 99.3724 56.3895 99.6025L55.192 99.3298C55.3341 98.9321 55.5414 98.6111 55.8142 98.3667C56.0897 98.1196 56.4065 97.9406 56.7645 97.8298C57.1224 97.7162 57.4988 97.6594 57.8937 97.6594C58.1551 97.6594 58.4321 97.6906 58.7247 97.7531C59.0201 97.8128 59.2957 97.9236 59.5514 98.0855C59.8099 98.2474 60.0216 98.479 60.1863 98.7801C60.3511 99.0784 60.4335 99.4662 60.4335 99.9434V104.29H59.1892V103.395H59.138C59.0557 103.56 58.9321 103.722 58.7673 103.881C58.6025 104.04 58.3909 104.172 58.1324 104.277C57.8738 104.382 57.5642 104.435 57.2034 104.435ZM57.4804 103.412C57.8326 103.412 58.1338 103.343 58.3838 103.203C58.6366 103.064 58.8284 102.882 58.9591 102.658C59.0926 102.431 59.1593 102.188 59.1593 101.929V101.085C59.1139 101.131 59.0258 101.174 58.8951 101.213C58.7673 101.25 58.621 101.283 58.4562 101.311C58.2914 101.337 58.1309 101.361 57.9747 101.384C57.8184 101.404 57.6878 101.421 57.5826 101.435C57.3355 101.466 57.1096 101.519 56.9051 101.593C56.7034 101.666 56.5414 101.773 56.4193 101.912C56.3 102.049 56.2403 102.23 56.2403 102.458C56.2403 102.773 56.3568 103.012 56.5897 103.174C56.8227 103.333 57.1196 103.412 57.4804 103.412ZM65.186 97.7446V98.7673H61.6107V97.7446H65.186ZM62.5695 96.1764H63.8437V102.368C63.8437 102.615 63.8806 102.801 63.9544 102.926C64.0283 103.049 64.1235 103.132 64.24 103.178C64.3593 103.22 64.4885 103.242 64.6277 103.242C64.73 103.242 64.8195 103.235 64.8962 103.22C64.9729 103.206 65.0326 103.195 65.0752 103.186L65.3053 104.239C65.2314 104.267 65.1263 104.296 64.99 104.324C64.8536 104.355 64.6831 104.372 64.4786 104.375C64.1434 104.381 63.8309 104.321 63.5411 104.196C63.2513 104.071 63.0169 103.878 62.838 103.617C62.659 103.355 62.5695 103.027 62.5695 102.632V96.1764ZM69.2822 104.422C68.6686 104.422 68.1331 104.282 67.6757 104C67.2183 103.719 66.8632 103.326 66.6103 102.82C66.3575 102.314 66.2311 101.723 66.2311 101.047C66.2311 100.368 66.3575 99.7744 66.6103 99.2659C66.8632 98.7574 67.2183 98.3625 67.6757 98.0812C68.1331 97.8 68.6686 97.6594 69.2822 97.6594C69.8959 97.6594 70.4314 97.8 70.8887 98.0812C71.3461 98.3625 71.7012 98.7574 71.9541 99.2659C72.2069 99.7744 72.3334 100.368 72.3334 101.047C72.3334 101.723 72.2069 102.314 71.9541 102.82C71.7012 103.326 71.3461 103.719 70.8887 104C70.4314 104.282 69.8959 104.422 69.2822 104.422ZM69.2865 103.353C69.6842 103.353 70.0137 103.247 70.2751 103.037C70.5365 102.827 70.7297 102.547 70.8547 102.198C70.9825 101.848 71.0464 101.463 71.0464 101.043C71.0464 100.625 70.9825 100.242 70.8547 99.8923C70.7297 99.54 70.5365 99.2574 70.2751 99.0443C70.0137 98.8312 69.6842 98.7247 69.2865 98.7247C68.8859 98.7247 68.5535 98.8312 68.2893 99.0443C68.028 99.2574 67.8334 99.54 67.7055 99.8923C67.5805 100.242 67.518 100.625 67.518 101.043C67.518 101.463 67.5805 101.848 67.7055 102.198C67.8334 102.547 68.028 102.827 68.2893 103.037C68.5535 103.247 68.8859 103.353 69.2865 103.353ZM78.8362 104.435C78.4214 104.435 78.0464 104.358 77.7112 104.205C77.376 104.049 77.1103 103.823 76.9143 103.527C76.7211 103.232 76.6245 102.87 76.6245 102.441C76.6245 102.071 76.6956 101.767 76.8376 101.529C76.9797 101.29 77.1714 101.101 77.4129 100.962C77.6544 100.823 77.9243 100.718 78.2226 100.647C78.5209 100.576 78.8248 100.522 79.1345 100.485C79.5265 100.439 79.8447 100.402 80.089 100.374C80.3334 100.343 80.5109 100.293 80.6217 100.225C80.7325 100.157 80.7879 100.046 80.7879 99.8923V99.8625C80.7879 99.4903 80.6828 99.202 80.4726 98.9974C80.2652 98.7929 79.9555 98.6906 79.5436 98.6906C79.1146 98.6906 78.7765 98.7858 78.5294 98.9761C78.2851 99.1636 78.116 99.3724 78.0223 99.6025L76.8248 99.3298C76.9669 98.9321 77.1743 98.6111 77.447 98.3667C77.7226 98.1196 78.0393 97.9406 78.3973 97.8298C78.7552 97.7162 79.1316 97.6594 79.5265 97.6594C79.7879 97.6594 80.0649 97.6906 80.3575 97.7531C80.653 97.8128 80.9285 97.9236 81.1842 98.0855C81.4427 98.2474 81.6544 98.479 81.8191 98.7801C81.9839 99.0784 82.0663 99.4662 82.0663 99.9434V104.29H80.822V103.395H80.7709C80.6885 103.56 80.5649 103.722 80.4001 103.881C80.2353 104.04 80.0237 104.172 79.7652 104.277C79.5066 104.382 79.197 104.435 78.8362 104.435ZM79.1132 103.412C79.4655 103.412 79.7666 103.343 80.0166 103.203C80.2694 103.064 80.4612 102.882 80.5919 102.658C80.7254 102.431 80.7922 102.188 80.7922 101.929V101.085C80.7467 101.131 80.6586 101.174 80.528 101.213C80.4001 101.25 80.2538 101.283 80.089 101.311C79.9243 101.337 79.7637 101.361 79.6075 101.384C79.4512 101.404 79.3206 101.421 79.2155 101.435C78.9683 101.466 78.7424 101.519 78.5379 101.593C78.3362 101.666 78.1743 101.773 78.0521 101.912C77.9328 102.049 77.8731 102.23 77.8731 102.458C77.8731 102.773 77.9896 103.012 78.2226 103.174C78.4555 103.333 78.7524 103.412 79.1132 103.412ZM86.8188 97.7446V98.7673H83.2435V97.7446H86.8188ZM84.2023 96.1764H85.4765V102.368C85.4765 102.615 85.5134 102.801 85.5873 102.926C85.6611 103.049 85.7563 103.132 85.8728 103.178C85.9921 103.22 86.1213 103.242 86.2606 103.242C86.3628 103.242 86.4523 103.235 86.529 103.22C86.6057 103.206 86.6654 103.195 86.708 103.186L86.9381 104.239C86.8642 104.267 86.7591 104.296 86.6228 104.324C86.4864 104.355 86.316 104.372 86.1114 104.375C85.7762 104.381 85.4637 104.321 85.1739 104.196C84.8841 104.071 84.6498 103.878 84.4708 103.617C84.2918 103.355 84.2023 103.027 84.2023 102.632V96.1764ZM91.2836 97.7446V98.7673H87.7084V97.7446H91.2836ZM88.6672 96.1764H89.9413V102.368C89.9413 102.615 89.9782 102.801 90.0521 102.926C90.126 103.049 90.2211 103.132 90.3376 103.178C90.4569 103.22 90.5862 103.242 90.7254 103.242C90.8277 103.242 90.9172 103.235 90.9939 103.22C91.0706 103.206 91.1302 103.195 91.1728 103.186L91.403 104.239C91.3291 104.267 91.224 104.296 91.0876 104.324C90.9512 104.355 90.7808 104.372 90.5762 104.375C90.241 104.381 89.9285 104.321 89.6387 104.196C89.349 104.071 89.1146 103.878 88.9356 103.617C88.7566 103.355 88.6672 103.027 88.6672 102.632V96.1764ZM92.6931 104.29V97.7446H93.9672V104.29H92.6931ZM93.3365 96.7346C93.115 96.7346 92.9246 96.6608 92.7655 96.513C92.6093 96.3625 92.5312 96.1835 92.5312 95.9761C92.5312 95.7659 92.6093 95.5869 92.7655 95.4392C92.9246 95.2886 93.115 95.2133 93.3365 95.2133C93.5581 95.2133 93.7471 95.2886 93.9033 95.4392C94.0624 95.5869 94.1419 95.7659 94.1419 95.9761C94.1419 96.1835 94.0624 96.3625 93.9033 96.513C93.7471 96.6608 93.5581 96.7346 93.3365 96.7346ZM101.281 97.7446L98.9072 104.29H97.5436L95.1657 97.7446H96.5336L98.1913 102.782H98.2595L99.9129 97.7446H101.281ZM105.013 104.422C104.399 104.422 103.864 104.282 103.406 104C102.949 103.719 102.594 103.326 102.341 102.82C102.088 102.314 101.962 101.723 101.962 101.047C101.962 100.368 102.088 99.7744 102.341 99.2659C102.594 98.7574 102.949 98.3625 103.406 98.0812C103.864 97.8 104.399 97.6594 105.013 97.6594C105.626 97.6594 106.162 97.8 106.619 98.0812C107.077 98.3625 107.432 98.7574 107.685 99.2659C107.937 99.7744 108.064 100.368 108.064 101.047C108.064 101.723 107.937 102.314 107.685 102.82C107.432 103.326 107.077 103.719 106.619 104C106.162 104.282 105.626 104.422 105.013 104.422ZM105.017 103.353C105.415 103.353 105.744 103.247 106.006 103.037C106.267 102.827 106.46 102.547 106.585 102.198C106.713 101.848 106.777 101.463 106.777 101.043C106.777 100.625 106.713 100.242 106.585 99.8923C106.46 99.54 106.267 99.2574 106.006 99.0443C105.744 98.8312 105.415 98.7247 105.017 98.7247C104.616 98.7247 104.284 98.8312 104.02 99.0443C103.758 99.2574 103.564 99.54 103.436 99.8923C103.311 100.242 103.248 100.625 103.248 101.043C103.248 101.463 103.311 101.848 103.436 102.198C103.564 102.547 103.758 102.827 104.02 103.037C104.284 103.247 104.616 103.353 105.017 103.353Z" fill="#252C39"/>
<circle cx="22.2231" cy="45.3529" r="11.7508" transform="rotate(-1.12895 22.2231 45.3529)" stroke="#252C39" stroke-width="0.5"/>
<circle cx="22.2231" cy="17.969" r="5.12419" transform="rotate(-1.12895 22.2231 17.969)" stroke="#252C39" stroke-width="0.5"/>
<circle cx="22.2231" cy="99.79" r="5.37419" transform="rotate(-1.12895 22.2231 99.79)" fill="#FF454D"/>
<rect opacity="0.5" x="0.25" y="0.740112" width="129.695" height="117.66" rx="4.75" stroke="#252C39" stroke-width="0.5"/>
</svg>
