<svg width="446" height="291" viewBox="0 0 446 291" fill="none" xmlns="http://www.w3.org/2000/svg">
<path d="M277.697 60.429C277.697 67.2611 283.316 68.1614 288.897 72.1223C294.478 76.0832 300.772 79.9588 303.273 86.3361C306.838 95.4329 301.191 105.364 300.715 115.114C300.495 117.507 300.898 119.915 301.885 122.107C303.187 124.713 305.621 126.561 307.494 128.807C312.581 134.871 313.361 143.362 313.399 151.265C313.399 155.766 313.399 160.57 315.776 164.36C319.075 169.515 325.807 171.107 331.939 171.884C338.072 172.661 344.651 173.296 349.053 177.503C350.888 179.237 352.21 181.474 354.13 183.113C357.838 186.278 363.296 186.723 368.002 185.425C372.709 184.127 376.845 181.332 380.838 178.536C384.498 175.987 388.558 172.386 387.779 168.009C386.828 162.475 383.025 158.229 389.5 153.956C392.447 152.004 396.155 151.521 399.654 151.312C403.153 151.104 406.804 151.132 410.17 150.014C418.299 147.304 423.129 137.496 420.628 129.328C418.841 123.567 413.697 119.208 407.916 117.682C405.199 116.962 402.357 116.839 399.587 117.322C396.146 117.976 389.471 119.691 383.424 113.835C377.377 107.979 388.349 104.786 382.036 96.4468C375.723 88.1081 356.365 97.4891 346.857 88.4302C345.812 87.1297 345.121 85.5828 344.851 83.9387C344.556 81.5697 345.459 79.2008 346.011 76.9171C347.007 73.1454 346.74 69.1526 345.25 65.546C344.486 63.7633 343.296 62.1945 341.782 60.977C340.269 59.7594 338.479 58.9303 336.569 58.5623C334.23 58.2022 331.625 58.6191 329.676 57.2831C328.72 56.688 327.963 55.8241 327.499 54.8004C321.642 39.8569 294.516 23.1226 279.009 47.5798C271.403 45.9783 262.636 49.2191 258.852 56.0133C256.475 60.268 256 72.5866 262.389 74.4723C266.078 75.5525 274.388 63.7361 277.697 60.429Z" fill="#FF454D" stroke="#FF454D" stroke-width="1.5" stroke-linecap="round" stroke-linejoin="round"/>
<path d="M291.739 134.786C291.739 134.786 287.679 134.587 267.542 141.164C247.404 147.74 228.312 187.785 225.298 209.807C222.284 231.829 384.774 220.818 384.774 220.818C384.774 220.818 379.202 157.689 351.496 143.447C331.53 133.156 320.12 134.436 320.12 134.436L291.739 134.786Z" fill="white" stroke="#252C39" stroke-width="1.5" stroke-linecap="round" stroke-linejoin="round"/>
<path d="M278.809 121.795L279.37 140.557C279.37 140.557 308.15 148.28 312.124 134.436" fill="white"/>
<path d="M278.809 121.795L279.37 140.557C279.37 140.557 308.15 148.28 312.124 134.436" stroke="#252C39" stroke-width="1.5" stroke-linecap="round" stroke-linejoin="round"/>
<path d="M265.65 74.8325C264.906 78.908 263.628 82.8682 261.847 86.611C260.563 89.2832 258.31 93.102 258.69 96.1911C258.899 97.8209 260.516 97.4893 261.657 97.8683C263.168 98.3611 263.786 97.6788 264.281 99.2802C264.758 101.177 264.922 103.139 264.766 105.089C264.699 106.33 273.38 105.459 273.209 106.397C273.114 106.927 265.46 109.656 265.336 110.424C264.785 113.902 265.536 118.005 267.447 120.023C268.217 120.649 269.173 121.006 270.166 121.037C281.575 122.856 288.535 119.341 290.465 118.99" stroke="#252C39" stroke-width="1.5" stroke-linecap="round" stroke-linejoin="round"/>
<path d="M136.296 133.734C136.296 133.734 137.589 133.535 157.727 140.112C177.864 146.688 196.956 186.733 199.97 208.755C202.984 230.777 37.167 219.766 37.167 219.766C37.167 219.766 42.7386 156.638 70.4445 142.395C90.4585 132.105 107.896 133.393 107.896 133.393L136.296 133.734Z" fill="#FF454D" stroke="#FF454D" stroke-width="1.5" stroke-linecap="round" stroke-linejoin="round"/>
<path d="M107.839 90.6476C110.159 88.6103 113.734 91.7089 116.595 92.8649C119.457 94.021 123.831 93.5188 124.202 90.4676C124.744 86.194 116.596 83.9292 118.155 79.9114C121.378 78.6227 125.048 79.684 128.499 79.2766C131.951 78.8691 135.64 75.3062 133.824 72.3592C133.367 71.6106 132.626 71.0705 132.207 70.3029C130.686 67.517 134.061 64.7121 136.714 62.9591C141.829 59.5857 153.743 49.0296 150.092 41.9511C149.483 40.9648 148.569 40.203 147.487 39.7812C144.113 38.3005 140.332 38.0207 136.776 38.9885C133.221 39.9564 130.107 42.1131 127.957 45.0971C128.347 39.1842 121.007 34.8063 115.407 36.7963C109.807 38.7862 106.726 45.2393 107.126 51.1522C101.611 49.674 95.393 48.3095 90.4774 51.1522C85.0485 54.3551 83.5177 61.5757 83.9836 67.8297C84.2403 71.3737 85.8852 75.7705 85.0199 79.2008C84.2023 82.3941 81.3879 84.583 80.6273 87.8333C79.629 92.1164 81.2834 96.589 82.8807 100.512C85.3527 106.586 91.7229 106.975 97.3516 108.557C102.048 109.874 109.075 110.85 110.929 104.899C111.575 102.966 100.404 97.1575 107.839 90.6476Z" fill="white" stroke="#252C39" stroke-width="1.5" stroke-linecap="round" stroke-linejoin="round"/>
<path d="M143.028 118.573V134.834C141.811 137.828 137.931 140.206 134.737 140.728C125.742 142.196 113.335 140.33 106.08 134.834V109.959" fill="white"/>
<path d="M143.028 118.573V134.834C141.811 137.828 137.931 140.206 134.737 140.728C125.742 142.196 113.335 140.33 106.08 134.834V109.959" stroke="#252C39" stroke-width="1.5" stroke-linecap="round" stroke-linejoin="round"/>
<path d="M143.683 58.6855C144.908 65.8995 147.799 72.7311 152.126 78.6417C153.885 81.0296 156.804 84.3272 156.994 87.4827C157.089 89.122 155.444 89.0936 154.389 89.6716C152.991 90.4297 152.268 89.8801 152.069 91.5668C151.964 92.4006 152.715 99.1475 152.715 99.1475L147.543 102.36C147.543 102.36 154.389 104.255 154.645 104.937C155.71 107.685 157.403 110.481 155.596 113.352C154.973 114.123 154.098 114.653 153.124 114.849C149.442 115.994 145.655 116.774 141.819 117.18C137.049 117.687 132.235 117.62 127.481 116.981" stroke="#252C39" stroke-width="1.5" stroke-linecap="round" stroke-linejoin="round"/>
<path d="M174.355 97.6314L188.028 94.7034" stroke="#252C39" stroke-width="1.5" stroke-linecap="round" stroke-linejoin="round"/>
<path d="M177.664 84.3936L172.435 92.4575" stroke="#252C39" stroke-width="1.5" stroke-linecap="round" stroke-linejoin="round"/>
<path d="M173.233 104.994L181.011 109.997" stroke="#252C39" stroke-width="1.5" stroke-linecap="round" stroke-linejoin="round"/>
<path d="M240.606 78.1299C244.039 74.2828 245.949 69.3208 245.978 64.172C245.978 51.5975 234.511 41.4299 220.373 41.4299C206.235 41.4299 194.769 51.626 194.769 64.172C194.769 74.5955 202.831 83.1238 212.577 85.8623C217.331 87.2268 222.256 86.2508 227.076 85.6254C230.331 85.2144 233.63 85.2975 236.86 85.8718C240.026 86.4214 243.202 87.5016 246.425 86.6867C243.798 84.3636 241.798 81.4218 240.606 78.1299Z" fill="#FF454D" stroke="#FF454D" stroke-width="1.5" stroke-linecap="round" stroke-linejoin="round"/>
<path d="M174.488 53.6348C169.62 48.1677 166.916 41.1208 166.882 33.8114C166.882 15.9493 183.169 1.47021 203.259 1.47021C223.349 1.47021 239.636 15.9493 239.636 33.8114C239.636 48.6695 228.227 60.6849 214.336 64.6268C207.528 66.5694 200.587 65.1765 193.742 64.2952C189.117 63.7117 184.431 63.8267 179.841 64.6363C175.335 65.4228 170.837 66.9579 166.245 65.8018C169.976 62.502 172.811 58.3171 174.488 53.6348Z" fill="white" stroke="#252C39" stroke-width="1.5" stroke-linecap="round" stroke-linejoin="round"/>
</svg>
