<svg width="446" height="291" viewBox="0 0 446 291" fill="none" xmlns="http://www.w3.org/2000/svg">
<path d="M295.189 199.406C310.505 198.08 325.005 191.916 336.599 181.8C348.193 171.684 356.283 158.141 359.701 143.121L314.447 132.809C313.218 138.219 310.306 143.098 306.129 146.741C301.953 150.384 296.729 152.603 291.213 153.077L295.189 199.406Z" fill="#FF454D"/>
<path d="M337.532 1.31641H84.209V27.2195H337.532V1.31641Z" fill="#FF454D" stroke="#FF454D" stroke-width="1.5" stroke-linecap="round" stroke-linejoin="round"/>
<path d="M337.562 186.652V218.339H84.209V1.31641H337.562V61.3879" stroke="#252C39" stroke-width="1.5" stroke-linecap="round" stroke-linejoin="round"/>
<path d="M111.695 53.7749V116.002H217.19" stroke="#252C39" stroke-width="1.5" stroke-linecap="round" stroke-linejoin="round"/>
<path d="M235.559 47.9419H243.324L217.189 78.037L210.885 71.225L196.244 84.8884L180.133 68.091L158.478 96.2977L141.657 76.722L118.68 96.2977" stroke="#252C39" stroke-width="1.5" stroke-linecap="round" stroke-linejoin="round"/>
<path d="M243.324 55.7128V47.9419" stroke="#252C39" stroke-width="1.5" stroke-linecap="round" stroke-linejoin="round"/>
<path d="M100.291 19.1617C102.83 19.1617 104.888 17.0989 104.888 14.5545C104.888 12.01 102.83 9.94727 100.291 9.94727C97.7517 9.94727 95.6934 12.01 95.6934 14.5545C95.6934 17.0989 97.7517 19.1617 100.291 19.1617Z" fill="white" stroke="#252C39" stroke-width="1.5" stroke-linecap="round" stroke-linejoin="round"/>
<path d="M116.382 19.1617C118.921 19.1617 120.979 17.0989 120.979 14.5545C120.979 12.01 118.921 9.94727 116.382 9.94727C113.843 9.94727 111.784 12.01 111.784 14.5545C111.784 17.0989 113.843 19.1617 116.382 19.1617Z" fill="white" stroke="#252C39" stroke-width="1.5" stroke-linecap="round" stroke-linejoin="round"/>
<path d="M291.952 153.314C291.212 153.383 290.472 153.423 289.712 153.423C285.77 153.424 281.879 152.53 278.332 150.807C274.784 149.085 271.673 146.578 269.231 143.477L232.965 172.474L269.231 143.477C267.67 141.509 266.404 139.324 265.472 136.991L221.323 151.475L265.472 137.021C263.576 132.288 263.1 127.104 264.104 122.105C265.107 117.105 267.545 112.508 271.119 108.878C274.693 105.248 279.248 102.743 284.223 101.671C289.198 100.599 294.377 101.006 299.124 102.843L315.896 59.4499C301.452 53.8517 285.599 53.0333 270.658 57.1146C255.716 61.1959 242.47 69.9625 232.859 82.1314C223.247 94.3004 217.775 109.233 217.242 124.743C216.71 140.254 221.145 155.528 229.899 168.33C238.653 181.132 251.266 190.791 265.892 195.892C280.518 200.993 296.39 201.268 311.184 196.678C325.978 192.089 338.917 182.874 348.109 170.384C357.3 157.893 362.261 142.782 362.265 127.263C362.276 112.589 357.851 98.2552 349.574 86.1503C341.297 74.0454 329.556 64.7367 315.896 59.4499L299.124 102.843C304.987 105.098 309.839 109.398 312.79 114.953C315.741 120.508 316.592 126.943 315.186 133.076" stroke="#252C39" stroke-width="1.5" stroke-linecap="round" stroke-linejoin="round"/>
<path d="M315.186 133.046C313.958 138.457 311.045 143.336 306.869 146.979C302.692 150.622 297.469 152.84 291.952 153.314" stroke="#252C39" stroke-width="1.5" stroke-linecap="round" stroke-linejoin="round"/>
<path d="M134.07 172.751L148.356 154.382C148.356 154.382 156.466 163.764 154.936 164.911L134.07 172.751Z" fill="#FF454D"/>
<path d="M134.278 195.175C146.865 195.175 157.068 184.95 157.068 172.336C157.068 159.723 146.865 149.498 134.278 149.498C121.692 149.498 111.488 159.723 111.488 172.336C111.488 184.95 121.692 195.175 134.278 195.175Z" stroke="#252C39" stroke-width="1.5" stroke-linecap="round" stroke-linejoin="round"/>
<path d="M141.441 150.655L134.278 172.336" stroke="#252C39" stroke-width="1.5" stroke-linecap="round" stroke-linejoin="round"/>
</svg>
