<svg width="446" height="292" viewBox="0 0 446 292" fill="none" xmlns="http://www.w3.org/2000/svg">
<path d="M229.144 280.943H116.59V42.0808H283.47V160.082" fill="white"/>
<path d="M229.144 280.943H116.59V42.0808H283.47V160.082" stroke="#252C39" stroke-width="1.5" stroke-linecap="round" stroke-linejoin="round"/>
<path d="M178.211 90.1072H229.133" stroke="#252C39" stroke-width="1.5" stroke-linecap="round" stroke-linejoin="round"/>
<path d="M178.223 104.479H229.144" stroke="#252C39" stroke-width="1.5" stroke-linecap="round" stroke-linejoin="round"/>
<path d="M166.893 95.215C167.367 85.4914 159.871 77.225 150.151 76.7514C140.431 76.2779 132.167 83.7765 131.693 93.5001C131.219 103.224 138.715 111.49 148.435 111.964C158.155 112.437 166.419 104.939 166.893 95.215Z" fill="#FF454D" stroke="#FF454D" stroke-width="1.5" stroke-linecap="round" stroke-linejoin="round"/>
<path d="M141.279 93.1698L148.325 101.042L157.606 88.383" stroke="white" stroke-width="1.5" stroke-linecap="round" stroke-linejoin="round"/>
<path d="M166.876 155.976C167.35 146.253 159.855 137.986 150.135 137.513C140.414 137.039 132.151 144.538 131.677 154.262C131.203 163.985 138.698 172.252 148.418 172.725C158.138 173.199 166.402 165.7 166.876 155.976Z" fill="#FF454D" stroke="#FF454D" stroke-width="1.5" stroke-linecap="round" stroke-linejoin="round"/>
<path d="M141.279 153.923L148.325 161.806L157.606 149.148" stroke="white" stroke-width="1.5" stroke-linecap="round" stroke-linejoin="round"/>
<path d="M166.884 216.75C167.358 207.026 159.863 198.76 150.142 198.286C140.422 197.813 132.158 205.311 131.684 215.035C131.21 224.758 138.706 233.025 148.426 233.498C158.146 233.972 166.41 226.473 166.884 216.75Z" fill="white" stroke="#252C39" stroke-width="1.5" stroke-linecap="round" stroke-linejoin="round"/>
<path d="M183.317 207.349C185.587 205.602 189.717 205.455 192.882 206.373C195.77 207.348 198.459 208.831 200.825 210.752C198.552 212.124 196.456 213.77 194.584 215.652" stroke="#FF454D" stroke-width="1.5" stroke-miterlimit="10"/>
<path d="M234.228 147.265C272.51 144.009 294.362 165.777 303.803 188.656C307.377 197.31 309.124 206.589 310.837 215.788L323 280.954" stroke="#252C39" stroke-width="1.5" stroke-linecap="round" stroke-linejoin="round"/>
<path d="M185.03 176.564C190.113 177.641 195.56 175.35 199.213 170.609C197.704 168.703 197.284 168.601 196.796 165.935" stroke="#FF454D" stroke-width="1.5" stroke-miterlimit="10"/>
<path d="M206.882 178.288C195.173 182.825 180.593 187.362 183.509 175.259C186.334 163.531 210.105 161.466 218.932 160.389C234.351 158.528 247.49 161.455 255.035 177.097C256.372 180.155 257.509 183.296 258.439 186.5" stroke="#252C39" stroke-width="1.5" stroke-linecap="round" stroke-linejoin="round"/>
<path d="M203.287 161.103C201.732 161.024 193.688 160.525 192.167 160.286C188.503 159.719 184.475 156.884 185.201 153.208C191.812 150.622 198.682 148.751 205.692 147.628C221.293 145.132 237.825 146.493 251.905 153.696C263.887 159.799 273.837 170.404 278.115 183.041" stroke="#252C39" stroke-width="1.5" stroke-linecap="round" stroke-linejoin="round"/>
<path d="M190.556 152.8C192.927 154.377 195.548 156.022 198.396 155.829C201.244 155.636 203.99 152.585 202.741 150.021" stroke="#FF454D" stroke-width="1.5" stroke-miterlimit="10"/>
<path d="M183.59 207.451C183.59 207.451 178.019 202.562 184.169 198.876C189.842 195.473 197.784 200.169 197.784 200.169L319.585 128.923C319.585 128.923 329.423 116.026 311.643 115.311C311.291 115.618 175.591 193.839 175.591 193.839L175.375 193.476L158.878 212.351L183.477 207.508L183.59 207.451Z" fill="#FF454D" stroke="#FF454D" stroke-width="1.5" stroke-linecap="round" stroke-linejoin="round"/>
<path d="M245.709 290.533C245.709 290.533 244.235 287.261 239.64 279.751C231.8 266.923 224.277 253.436 214.826 241.537C208.211 233.2 200.235 226.791 192.451 219.611C188.491 215.97 184.792 211.602 183.09 206.419C181.309 200.985 183.578 197.503 189.535 198.944C200.427 201.575 210.31 208.926 217.753 217.093C222.575 222.401 227.023 228.674 233.434 232.202C243.316 237.624 249.92 231.305 250.532 221.482C252.223 194.86 237.802 186.988 226.978 183.165" stroke="#252C39" stroke-width="1.5" stroke-linecap="round" stroke-linejoin="round"/>
<path d="M57.5904 68.801C63.3782 68.1765 67.6778 64.0349 67.1936 59.5504C66.7095 55.066 61.625 51.9368 55.8372 52.5613C50.0494 53.1858 45.7499 57.3275 46.234 61.8119C46.7182 66.2964 51.8026 69.4255 57.5904 68.801Z" fill="#FF454D" stroke="#FF454D" stroke-width="1.5" stroke-linecap="round" stroke-linejoin="round"/>
<path d="M66.2783 25.9135L87.9723 40.2058L88.2446 28.2162L66.2783 14.7747V59.7271" stroke="#FF454D" stroke-width="1.5" stroke-linecap="round" stroke-linejoin="round"/>
<path d="M283.896 101.003C311.334 101.003 333.576 78.7662 333.576 51.3362C333.576 23.9063 311.334 1.66992 283.896 1.66992C256.458 1.66992 234.216 23.9063 234.216 51.3362C234.216 78.7662 256.458 101.003 283.896 101.003Z" fill="white" stroke="#252C39" stroke-width="1.5" stroke-linecap="round" stroke-linejoin="round"/>
<path d="M261.846 48.0182C265.813 48.0182 269.029 44.8035 269.029 40.8378C269.029 36.8722 265.813 33.6574 261.846 33.6574C257.88 33.6574 254.664 36.8722 254.664 40.8378C254.664 44.8035 257.88 48.0182 261.846 48.0182Z" stroke="#252C39" stroke-width="1.5" stroke-linecap="round" stroke-linejoin="round"/>
<path d="M249.345 61.0287C249.317 58.1912 250.251 55.4279 251.995 53.1888C253.738 50.9497 256.189 49.3669 258.948 48.6981C261.706 48.0294 264.61 48.3141 267.186 49.5059C269.762 50.6977 271.858 52.7263 273.133 55.2613" stroke="#252C39" stroke-width="1.5" stroke-linecap="round" stroke-linejoin="round"/>
<path d="M306.029 48.0182C309.996 48.0182 313.212 44.8035 313.212 40.8378C313.212 36.8722 309.996 33.6574 306.029 33.6574C302.062 33.6574 298.847 36.8722 298.847 40.8378C298.847 44.8035 302.062 48.0182 306.029 48.0182Z" stroke="#252C39" stroke-width="1.5" stroke-linecap="round" stroke-linejoin="round"/>
<path d="M318.531 61.0287C318.559 58.1912 317.625 55.4279 315.882 53.1888C314.138 50.9497 311.687 49.3669 308.929 48.6981C306.17 48.0294 303.267 48.3141 300.691 49.5059C298.115 50.6977 296.018 52.7263 294.743 55.2613" stroke="#252C39" stroke-width="1.5" stroke-linecap="round" stroke-linejoin="round"/>
<path d="M283.823 50.9176C288.587 50.9176 292.45 47.0561 292.45 42.2927C292.45 37.5293 288.587 33.6678 283.823 33.6678C279.058 33.6678 275.195 37.5293 275.195 42.2927C275.195 47.0561 279.058 50.9176 283.823 50.9176Z" stroke="#252C39" stroke-width="1.5" stroke-linecap="round" stroke-linejoin="round"/>
<path d="M268.799 66.5448C268.903 62.6009 270.543 58.8534 273.37 56.1006C276.197 53.3479 279.987 51.8074 283.933 51.8074C287.88 51.8074 291.67 53.3479 294.497 56.1006C297.324 58.8534 298.964 62.6009 299.068 66.5448" stroke="#252C39" stroke-width="1.5" stroke-linecap="round" stroke-linejoin="round"/>
<path d="M361.781 173.583C367.602 173.583 372.321 169.926 372.321 165.416C372.321 160.905 367.602 157.249 361.781 157.249C355.959 157.249 351.24 160.905 351.24 165.416C351.24 169.926 355.959 173.583 361.781 173.583Z" fill="white" stroke="#252C39" stroke-width="1.5" stroke-linecap="round" stroke-linejoin="round"/>
<path d="M392.955 152.655C398.743 152.031 403.042 147.889 402.558 143.404C402.074 138.92 396.989 135.791 391.201 136.415C385.414 137.04 381.114 141.181 381.598 145.666C382.082 150.15 387.167 153.28 392.955 152.655Z" fill="white" stroke="#252C39" stroke-width="1.5" stroke-linecap="round" stroke-linejoin="round"/>
<path d="M372.321 165.415V113.079L402.604 97.7316V142.684" stroke="#252C39" stroke-width="1.5" stroke-linecap="round" stroke-linejoin="round"/>
<path d="M372.321 125.136L402.604 108.87" stroke="#252C39" stroke-width="1.5" stroke-linecap="round" stroke-linejoin="round"/>
</svg>
