<svg width="445" height="292" viewBox="0 0 445 292" fill="none" xmlns="http://www.w3.org/2000/svg">
<path d="M117.549 250.071C122.509 249.682 127.419 248.816 132.213 247.484C138.385 245.937 144.463 244.036 150.417 241.791C164.969 236.443 182.382 226.762 182.382 211.257C182.382 169.053 159.134 165.755 154.263 162.791C149.393 159.828 144.704 155.434 144.116 149.752C143.182 140.446 153.33 133.688 155.369 124.555C157.399 115.595 150.712 106.523 142.401 102.626C134.09 98.7296 124.551 98.7601 115.368 98.8717C106.235 98.7601 96.6453 98.7296 88.3344 102.626C80.0235 106.523 73.3768 115.595 75.3758 124.555C77.4054 133.688 87.553 140.446 86.6296 149.762C85.3408 162.568 48.373 156.612 48.373 211.257C48.373 238.777 72.2402 249.98 113.5 249.98C114.84 249.98 116.19 250.122 117.549 250.071Z" fill="#FF454D" stroke="#FF454D" stroke-width="1.5" stroke-linecap="round" stroke-linejoin="round"/>
<path d="M126.885 1.26178H102.53V169.712H126.885V1.26178Z" stroke="#252C39" stroke-width="1.5" stroke-linecap="round" stroke-linejoin="round"/>
<path d="M114.515 170.676V1.25159" stroke="#252C39" stroke-width="1.5" stroke-linecap="round" stroke-linejoin="round"/>
<path d="M120.086 170.676V1.25159" stroke="#252C39" stroke-width="1.5" stroke-linecap="round" stroke-linejoin="round"/>
<path d="M108.933 170.676V1.25159" stroke="#252C39" stroke-width="1.5" stroke-linecap="round" stroke-linejoin="round"/>
<path d="M115.386 209.237C127.789 209.237 137.843 199.183 137.843 186.78C137.843 174.378 127.789 164.324 115.386 164.324C102.984 164.324 92.9297 174.378 92.9297 186.78C92.9297 199.183 102.984 209.237 115.386 209.237Z" fill="white" stroke="#252C39" stroke-width="1.5" stroke-linecap="round" stroke-linejoin="round"/>
<path d="M136.069 37.2858C138.025 37.2858 139.61 35.7002 139.61 33.7443C139.61 31.7884 138.025 30.2028 136.069 30.2028C134.113 30.2028 132.527 31.7884 132.527 33.7443C132.527 35.7002 134.113 37.2858 136.069 37.2858Z" fill="#FF454D" stroke="#FF454D" stroke-width="1.5" stroke-linecap="round" stroke-linejoin="round"/>
<path d="M136.069 23.698C138.025 23.698 139.61 22.1124 139.61 20.1565C139.61 18.2006 138.025 16.615 136.069 16.615C134.113 16.615 132.527 18.2006 132.527 20.1565C132.527 22.1124 134.113 23.698 136.069 23.698Z" fill="#FF454D" stroke="#FF454D" stroke-width="1.5" stroke-linecap="round" stroke-linejoin="round"/>
<path d="M93.5298 37.2858C95.4857 37.2858 97.0713 35.7002 97.0713 33.7443C97.0713 31.7884 95.4857 30.2028 93.5298 30.2028C91.5739 30.2028 89.9883 31.7884 89.9883 33.7443C89.9883 35.7002 91.5739 37.2858 93.5298 37.2858Z" fill="#FF454D" stroke="#FF454D" stroke-width="1.5" stroke-linecap="round" stroke-linejoin="round"/>
<path d="M93.5298 23.698C95.4857 23.698 97.0713 22.1124 97.0713 20.1565C97.0713 18.2006 95.4857 16.615 93.5298 16.615C91.5739 16.615 89.9883 18.2006 89.9883 20.1565C89.9883 22.1124 91.5739 23.698 93.5298 23.698Z" fill="#FF454D" stroke="#FF454D" stroke-width="1.5" stroke-linecap="round" stroke-linejoin="round"/>
<path d="M378.292 52.9895H119.01V249.742H378.292V52.9895Z" fill="white" stroke="#252C39" stroke-width="1.5" stroke-linecap="round" stroke-linejoin="round"/>
<path d="M275.599 125.667H150.936V142.908H275.599V125.667Z" fill="#FF454D" stroke="#FF454D" stroke-width="1.5" stroke-linecap="round" stroke-linejoin="round"/>
<path d="M248.424 153.918H150.936V171.158H248.424V153.918Z" fill="#FF454D" stroke="#FF454D" stroke-width="1.5" stroke-linecap="round" stroke-linejoin="round"/>
<path d="M162.888 88.2931C166.733 88.2931 169.849 85.1764 169.849 81.3318C169.849 77.4872 166.733 74.3706 162.888 74.3706C159.043 74.3706 155.927 77.4872 155.927 81.3318C155.927 85.1764 159.043 88.2931 162.888 88.2931Z" stroke="#252C39" stroke-width="1.5" stroke-linecap="round" stroke-linejoin="round"/>
<path d="M150.772 100.896C150.743 98.1428 151.647 95.4604 153.339 93.2871C155.03 91.1139 157.408 89.5781 160.085 88.9304C162.761 88.2828 165.578 88.5615 168.076 89.7211C170.574 90.8807 172.605 92.8527 173.838 95.3153" stroke="#252C39" stroke-width="1.5" stroke-linecap="round" stroke-linejoin="round"/>
<path d="M205.722 88.2931C209.567 88.2931 212.683 85.1764 212.683 81.3318C212.683 77.4872 209.567 74.3706 205.722 74.3706C201.877 74.3706 198.761 77.4872 198.761 81.3318C198.761 85.1764 201.877 88.2931 205.722 88.2931Z" stroke="#252C39" stroke-width="1.5" stroke-linecap="round" stroke-linejoin="round"/>
<path d="M217.838 100.896C217.862 98.1465 216.956 95.4691 215.265 93.3001C213.574 91.1312 211.199 89.5984 208.526 88.9514C205.853 88.3043 203.04 88.5811 200.544 89.7366C198.049 90.8922 196.018 92.8584 194.782 95.3153" stroke="#252C39" stroke-width="1.5" stroke-linecap="round" stroke-linejoin="round"/>
<path d="M184.199 91.0939C188.817 91.0939 192.56 87.3502 192.56 82.7322C192.56 78.1142 188.817 74.3706 184.199 74.3706C179.581 74.3706 175.837 78.1142 175.837 82.7322C175.837 87.3502 179.581 91.0939 184.199 91.0939Z" stroke="#252C39" stroke-width="1.5" stroke-linecap="round" stroke-linejoin="round"/>
<path d="M169.636 106.254C169.584 104.296 169.926 102.347 170.64 100.522C171.354 98.6971 172.426 97.0339 173.793 95.6303C175.16 94.2267 176.795 93.1111 178.6 92.3493C180.405 91.5876 182.345 91.1952 184.304 91.1952C186.264 91.1952 188.203 91.5876 190.009 92.3493C191.814 93.1111 193.448 94.2267 194.816 95.6303C196.183 97.0339 197.255 98.6971 197.969 100.522C198.683 102.347 199.024 104.296 198.973 106.254" stroke="#252C39" stroke-width="1.5" stroke-linecap="round" stroke-linejoin="round"/>
<path d="M282.611 194.204H155.746C153.089 194.204 150.936 196.357 150.936 199.014V214.804C150.936 217.46 153.089 219.614 155.746 219.614H282.611C285.267 219.614 287.421 217.46 287.421 214.804V199.014C287.421 196.357 285.267 194.204 282.611 194.204Z" stroke="#252C39" stroke-width="1.5" stroke-linecap="round" stroke-linejoin="round"/>
<path d="M342.481 76.735H327.96V120.299H342.481V76.735Z" stroke="#252C39" stroke-width="1.5" stroke-linecap="round" stroke-linejoin="round"/>
<path d="M335.215 146.916C339.223 146.916 342.471 143.667 342.471 139.66C342.471 135.653 339.223 132.405 335.215 132.405C331.208 132.405 327.96 135.653 327.96 139.66C327.96 143.667 331.208 146.916 335.215 146.916Z" stroke="#252C39" stroke-width="1.5" stroke-linecap="round" stroke-linejoin="round"/>
<path d="M305.96 173.29L314.291 219.015L349.716 188.947L305.96 173.29Z" fill="#FF454D" stroke="#FF454D" stroke-width="1.5" stroke-miterlimit="10"/>
<path d="M334.667 193.082L320.849 204.809L335.865 222.503L349.684 210.776L334.667 193.082Z" fill="#FF454D" stroke="#FF454D" stroke-width="1.5" stroke-miterlimit="10"/>
</svg>
