<svg width="446" height="291" viewBox="0 0 446 291" fill="none" xmlns="http://www.w3.org/2000/svg">
<g clip-path="url(#clip0_480_3083)">
<path d="M221.315 104.748C221.315 104.748 222.642 104.543 243.32 111.323C263.997 118.104 283.581 159.395 286.674 182.101C289.767 204.808 119.589 193.504 119.589 193.504C119.589 193.504 125.307 128.412 153.742 113.727C174.233 103.116 192.178 104.435 192.178 104.435L221.315 104.748Z" fill="white" stroke="#252C39" stroke-width="1.5" stroke-linecap="round" stroke-linejoin="round"/>
<path d="M228.224 89.1148V105.881C226.985 108.969 222.994 111.421 219.715 111.958C210.494 113.473 197.75 111.548 190.314 105.881V80.2236" fill="white"/>
<path d="M228.224 89.1148V105.881C226.985 108.969 222.994 111.421 219.715 111.958C210.494 113.473 197.75 111.548 190.314 105.881V80.2236" stroke="#252C39" stroke-width="1.5" stroke-linecap="round" stroke-linejoin="round"/>
<path d="M228.487 24.3162C229.396 32.8511 232.54 40.9942 237.601 47.9219C239.406 50.3841 242.392 53.7842 242.588 57.0378C242.695 58.7281 241.007 58.6989 239.914 59.2949C238.489 60.0765 237.738 59.5099 237.533 61.249C237.435 62.1088 238.196 69.0655 238.196 69.0655L232.898 72.3777C232.898 72.3777 239.924 74.3318 240.187 75.0353C241.28 77.8688 243.007 80.7511 241.163 83.7116C240.519 84.5074 239.619 85.0534 238.616 85.2553C234.84 86.4354 230.957 87.2406 227.024 87.6589C222.128 88.1819 217.188 88.1129 212.309 87.4537" stroke="#252C39" stroke-width="1.5" stroke-linecap="round" stroke-linejoin="round"/>
<path d="M128.712 111.577C128.712 111.577 130.039 111.372 150.706 118.143C171.374 124.914 190.968 166.214 194.061 188.931C197.154 211.648 26.9756 200.284 26.9756 200.284C26.9756 200.284 32.6937 135.193 61.1284 120.508C81.6689 109.887 99.5649 111.216 99.5649 111.216L128.712 111.577Z" fill="#FF454D" stroke="#FF454D" stroke-width="1.5" stroke-linecap="round" stroke-linejoin="round"/>
<path d="M99.5068 67.1506C101.888 65.0499 105.557 68.2351 108.494 69.4368C111.431 70.6386 115.92 70.1012 116.3 66.9551C116.856 62.5583 108.494 60.2231 110.094 56.0804C113.402 54.7418 117.169 55.846 120.711 55.4259C124.253 55.0057 128.039 51.3319 126.175 48.2835C125.707 47.5214 124.946 46.9645 124.516 46.173C122.955 43.3005 126.419 40.4084 129.142 38.6008C134.391 35.1225 146.618 24.2381 142.871 16.9395C142.247 15.9225 141.308 15.137 140.198 14.702C136.736 13.1753 132.855 12.8867 129.206 13.8847C125.556 14.8826 122.361 17.1065 120.155 20.1833C120.555 14.0865 113.022 9.57244 107.274 11.6243C101.527 13.6761 98.3652 20.3299 98.775 26.4267C93.1154 24.9025 86.7337 23.4955 81.6888 26.4267C76.1171 29.7292 74.5461 37.1743 75.0242 43.6229C75.2877 47.2771 76.9758 51.8009 76.0878 55.3476C75.2486 58.6403 72.3603 60.8973 71.5796 64.2388C70.555 68.6649 72.2529 73.2766 73.8922 77.3217C76.4293 83.5846 82.9671 83.9852 88.7438 85.6169C93.5642 86.975 100.775 87.9814 102.678 81.8454C103.342 79.8522 91.8761 73.863 99.5068 67.1506Z" stroke="#252C39" stroke-width="1.5" stroke-miterlimit="10"/>
<path d="M135.621 95.9346V112.711C134.372 115.798 130.39 118.251 127.112 118.788C117.881 120.302 105.146 118.378 97.7012 112.711V87.0532" fill="white"/>
<path d="M135.621 95.9346V112.711C134.372 115.798 130.39 118.251 127.112 118.788C117.881 120.302 105.146 118.378 97.7012 112.711V87.0532" stroke="#252C39" stroke-width="1.5" stroke-linecap="round" stroke-linejoin="round"/>
<path d="M136.118 33.2661C137.464 40.3205 140.724 48.9772 144.959 54.7614C146.764 57.2236 149.76 60.6237 149.955 63.8773C150.052 65.5578 148.364 65.5384 147.281 66.1344C145.847 66.916 145.105 66.3396 144.9 68.0885C144.793 68.9483 145.564 75.905 145.564 75.905L140.255 79.227C140.255 79.227 147.281 81.1811 147.544 81.8748C148.637 84.7082 150.374 87.6003 148.52 90.5608C147.878 91.3529 146.981 91.8982 145.983 92.1045C142.204 93.2847 138.318 94.0898 134.381 94.5082C129.485 95.0263 124.545 94.9573 119.666 94.3029" stroke="#252C39" stroke-width="1.5" stroke-linecap="round" stroke-linejoin="round"/>
<path d="M194.539 64.7567C191.319 66.3591 187.142 64.6981 185.103 61.7181C183.064 58.7381 182.82 54.8786 183.454 51.2928C184.186 47.1403 186.489 42.7632 190.548 41.6298C194.607 40.4964 199.594 44.9029 197.652 48.6451C199.637 43.8534 202.745 39.6103 206.712 36.2739C210.679 32.9375 215.39 30.6057 220.446 29.4752C224.272 28.6642 228.253 28.4981 231.873 27.0325C239.679 23.7496 243.514 14.9756 246.188 6.89536C239.757 12.3864 229.99 10.9404 222.105 7.87242C214.221 4.80446 206.366 0.495579 197.935 1.10136C187.201 1.86346 178.692 10.5496 173.54 19.9978C166.292 33.5043 163.983 49.1212 167.012 64.151C168.28 70.3651 175.54 86.9359 186.059 84.503C196.578 82.0702 194.539 64.7567 194.539 64.7567Z" fill="#FF454D" stroke="#FF454D" stroke-width="1.5" stroke-linecap="round" stroke-linejoin="round"/>
<path d="M313.273 163.596H397.494" stroke="#252C39" stroke-width="1.5" stroke-linecap="round" stroke-linejoin="round"/>
<path d="M313.273 182.746H372.963" stroke="#252C39" stroke-width="1.5" stroke-linecap="round" stroke-linejoin="round"/>
<path d="M377.101 3.93481L380.204 10.2271L387.151 11.2334L382.126 16.1383L383.307 23.0558L377.101 19.7925L370.894 23.0558L372.085 16.1383L367.06 11.2334L373.997 10.2271L377.101 3.93481Z" fill="#FF454D" stroke="#FF454D" stroke-width="1.5" stroke-linecap="round" stroke-linejoin="round"/>
<path d="M302.462 3.93481L305.565 10.2271L312.503 11.2334L307.477 16.1383L308.668 23.0558L302.462 19.7925L296.246 23.0558L297.436 16.1383L292.411 11.2334L299.349 10.2271L302.462 3.93481Z" fill="#FF454D" stroke="#FF454D" stroke-width="1.5" stroke-linecap="round" stroke-linejoin="round"/>
<path d="M327.335 3.93481L330.448 10.2271L337.386 11.2334L332.36 16.1383L333.551 23.0558L327.335 19.7925L321.129 23.0558L322.319 16.1383L317.294 11.2334L324.232 10.2271L327.335 3.93481Z" fill="#FF454D" stroke="#FF454D" stroke-width="1.5" stroke-linecap="round" stroke-linejoin="round"/>
<path d="M352.218 3.93481L355.33 10.2271L362.268 11.2334L357.243 16.1383L358.433 23.0558L352.218 19.7925L346.012 23.0558L347.202 16.1383L342.177 11.2334L349.115 10.2271L352.218 3.93481Z" fill="#FF454D" stroke="#FF454D" stroke-width="1.5" stroke-linecap="round" stroke-linejoin="round"/>
<path d="M401.983 3.93481L405.086 10.2271L412.024 11.2334L407.009 16.1383L408.189 23.0558L401.983 19.7925L395.777 23.0558L396.968 16.1383L391.942 11.2334L398.88 10.2271L401.983 3.93481Z" stroke="#252C39" stroke-width="1.5" stroke-linecap="round" stroke-linejoin="round"/>
<path d="M352.14 92.3879L378.857 58.0541C378.857 58.0541 394.03 75.6411 391.171 77.732L352.14 92.3879Z" fill="#FF454D"/>
<path d="M352.53 134.274C376.064 134.274 395.143 115.171 395.143 91.6063C395.143 68.0413 376.064 48.9381 352.53 48.9381C328.995 48.9381 309.917 68.0413 309.917 91.6063C309.917 115.171 328.995 134.274 352.53 134.274Z" stroke="#252C39" stroke-width="1.5" stroke-linecap="round" stroke-linejoin="round"/>
<path d="M365.928 51.0974L352.53 91.6063" stroke="#252C39" stroke-width="1.5" stroke-linecap="round" stroke-linejoin="round"/>
</g>
<defs>
<clipPath id="clip0_480_3083">
<rect width="387" height="204" fill="white" transform="translate(26 0.104736)"/>
</clipPath>
</defs>
</svg>
