<svg width="445" height="291" viewBox="0 0 445 291" fill="none" xmlns="http://www.w3.org/2000/svg">
<g clip-path="url(#clip0_480_3107)">
<path d="M141.307 35.8175L143.87 6.91467L117.624 19.1343" fill="white"/>
<path d="M141.307 35.8175L143.87 6.91467L117.624 19.1343" stroke="#252C39" stroke-width="1.5" stroke-linecap="round" stroke-linejoin="round"/>
<path d="M141.259 35.8678L117.793 19.3327L43.5726 125.212L67.0386 141.747L141.259 35.8678Z" fill="white" stroke="#252C39" stroke-width="1.5" stroke-linecap="round" stroke-linejoin="round"/>
<path d="M142.174 17.2684L143.004 7.97559L134.265 12.0458L142.174 17.2684Z" fill="#FF454D"/>
<path d="M333.897 62.7538H100.802V240.094H333.897V62.7538Z" fill="white" stroke="#252C39" stroke-width="1.5" stroke-linecap="round" stroke-linejoin="round"/>
<path d="M283.695 192.798L247.833 179.966L261.581 216.972L268.943 208.933L280.803 219.826L288.146 211.795L276.287 200.893L283.695 192.798Z" fill="white" stroke="#252C39" stroke-width="1.5" stroke-linecap="round" stroke-linejoin="round"/>
<path d="M129.502 151.209H252.732" stroke="#252C39" stroke-width="1.5" stroke-linecap="round" stroke-linejoin="round"/>
<path d="M129.502 165.533H222.244" stroke="#252C39" stroke-width="1.5" stroke-linecap="round" stroke-linejoin="round"/>
<path d="M307.241 179.883C305.663 166.438 310.89 151.694 322.631 144.825C334.372 137.956 348.129 141.779 353.438 154.31C352.079 149.938 359.231 145.328 363.473 143.526C367.715 141.724 372.76 142.566 376.838 144.77C383.571 148.429 387.968 155.362 389.975 162.633C391.982 169.905 391.882 177.551 391.517 185.051C391.243 190.64 391.197 196.941 388.242 201.844C384.848 207.487 377.294 214.201 369.859 213.67C354.205 212.564 357.781 214.585 351.431 216.579C329.555 223.356 309.211 196.594 307.241 179.883Z" fill="#FF454D"/>
<path d="M350.974 145.215C353.584 144.001 353.211 137.642 350.141 131.012C347.072 124.382 342.468 119.992 339.859 121.206C337.249 122.42 337.622 128.78 340.692 135.41C343.761 142.04 348.365 146.43 350.974 145.215Z" fill="white" stroke="#252C39" stroke-width="1.5" stroke-linecap="round" stroke-linejoin="round"/>
<path d="M353.401 153.606C353.401 153.606 348.055 145.438 360.27 125.453L353.401 153.606Z" fill="white"/>
<path d="M353.401 153.606C353.401 153.606 348.055 145.438 360.27 125.453" stroke="#252C39" stroke-width="1.5" stroke-linecap="round" stroke-linejoin="round"/>
<path d="M146.826 131.407C156.902 131.407 165.071 123.217 165.071 113.114C165.071 103.011 156.902 94.8213 146.826 94.8213C136.749 94.8213 128.58 103.011 128.58 113.114C128.58 123.217 136.749 131.407 146.826 131.407Z" fill="#FF454D"/>
<path d="M208.861 189.03H129.493V212.811H208.861V189.03Z" fill="#FF454D"/>
</g>
<defs>
<clipPath id="clip0_480_3107">
<rect width="349" height="235" fill="white" transform="translate(42.708 6)"/>
</clipPath>
</defs>
</svg>
