<svg width="445" height="291" viewBox="0 0 445 291" fill="none" xmlns="http://www.w3.org/2000/svg">
<path d="M310.226 1.32715H48.0215V28.0754H310.226V1.32715Z" fill="#FF454D" stroke="#FF454D" stroke-width="1.5" stroke-linecap="round" stroke-linejoin="round"/>
<path d="M310.257 205.4V240.285H48.0215V1.32715H310.257V67.473" stroke="#252C39" stroke-width="1.5" stroke-linecap="round" stroke-linejoin="round"/>
<path d="M64.6659 19.7548C67.294 19.7548 69.4245 17.6248 69.4245 14.9973C69.4245 12.3698 67.294 10.2397 64.6659 10.2397C62.0377 10.2397 59.9072 12.3698 59.9072 14.9973C59.9072 17.6248 62.0377 19.7548 64.6659 19.7548Z" fill="white" stroke="#252C39" stroke-width="1.5" stroke-linecap="round" stroke-linejoin="round"/>
<path d="M81.3211 19.7548C83.9493 19.7548 86.0798 17.6248 86.0798 14.9973C86.0798 12.3698 83.9493 10.2397 81.3211 10.2397C78.693 10.2397 76.5625 12.3698 76.5625 14.9973C76.5625 17.6248 78.693 19.7548 81.3211 19.7548Z" fill="white" stroke="#252C39" stroke-width="1.5" stroke-linecap="round" stroke-linejoin="round"/>
<path d="M170.132 93.4658L173.124 99.5301L179.813 100.5L174.973 105.217L176.116 111.873L170.132 108.729L164.148 111.873L165.282 105.217L160.441 100.5L167.14 99.5301L170.132 93.4658Z" fill="#FF454D" stroke="#FF454D" stroke-width="1.5" stroke-linecap="round" stroke-linejoin="round"/>
<path d="M98.1602 93.4658L101.152 99.5301L107.851 100.5L103 105.217L104.144 111.873L98.1602 108.729L92.1761 111.873L93.3198 105.217L88.4795 100.5L95.1681 99.5301L98.1602 93.4658Z" fill="#FF454D" stroke="#FF454D" stroke-width="1.5" stroke-linecap="round" stroke-linejoin="round"/>
<path d="M122.147 93.4658L125.139 99.5301L131.838 100.5L126.988 105.217L128.131 111.873L122.147 108.729L116.163 111.873L117.307 105.217L112.467 100.5L119.155 99.5301L122.147 93.4658Z" fill="#FF454D" stroke="#FF454D" stroke-width="1.5" stroke-linecap="round" stroke-linejoin="round"/>
<path d="M146.135 93.4658L149.137 99.5301L155.826 100.5L150.985 105.217L152.119 111.873L146.135 108.729L140.151 111.873L141.294 105.217L136.454 100.5L143.153 99.5301L146.135 93.4658Z" fill="#FF454D" stroke="#FF454D" stroke-width="1.5" stroke-linecap="round" stroke-linejoin="round"/>
<path d="M196.499 93.4658L199.491 99.5301L206.18 100.5L201.34 105.217L202.483 111.873L196.499 108.729L190.515 111.873L191.659 105.217L186.809 100.5L193.507 99.5301L196.499 93.4658Z" stroke="#252C39" stroke-width="1.5" stroke-linecap="round" stroke-linejoin="round"/>
<path d="M89.042 62.6235H182.652" stroke="#252C39" stroke-width="1.5" stroke-linecap="round" stroke-linejoin="round"/>
<path d="M88.96 77.5698H143.552" stroke="#252C39" stroke-width="1.5" stroke-linecap="round" stroke-linejoin="round"/>
<path d="M288.23 45.3188H72.3965V126.758H288.23V45.3188Z" stroke="#252C39" stroke-width="1.5" stroke-linecap="round" stroke-linejoin="round"/>
<path d="M170.132 187.381L173.124 193.445L179.813 194.415L174.973 199.132L176.116 205.798L170.132 202.654L164.148 205.798L165.282 199.132L160.441 194.415L167.14 193.445L170.132 187.381Z" fill="#FF454D" stroke="#FF454D" stroke-width="1.5" stroke-linecap="round" stroke-linejoin="round"/>
<path d="M98.1602 187.381L101.152 193.445L107.851 194.415L103 199.132L104.144 205.798L98.1602 202.654L92.1761 205.798L93.3198 199.132L88.4795 194.415L95.1681 193.445L98.1602 187.381Z" fill="#FF454D" stroke="#FF454D" stroke-width="1.5" stroke-linecap="round" stroke-linejoin="round"/>
<path d="M122.147 187.381L125.139 193.445L131.838 194.415L126.988 199.132L128.131 205.798L122.147 202.654L116.163 205.798L117.307 199.132L112.467 194.415L119.155 193.445L122.147 187.381Z" fill="#FF454D" stroke="#FF454D" stroke-width="1.5" stroke-linecap="round" stroke-linejoin="round"/>
<path d="M146.135 187.381L149.137 193.445L155.826 194.415L150.985 199.132L152.119 205.798L146.135 202.654L140.151 205.798L141.294 199.132L136.454 194.415L143.153 193.445L146.135 187.381Z" fill="#FF454D" stroke="#FF454D" stroke-width="1.5" stroke-linecap="round" stroke-linejoin="round"/>
<path d="M196.499 187.381L199.491 193.445L206.18 194.415L201.34 199.132L202.483 205.798L196.499 202.654L190.515 205.798L191.659 199.132L186.809 194.415L193.507 193.445L196.499 187.381Z" stroke="#252C39" stroke-width="1.5" stroke-linecap="round" stroke-linejoin="round"/>
<path d="M89.042 156.539H182.652" stroke="#252C39" stroke-width="1.5" stroke-linecap="round" stroke-linejoin="round"/>
<path d="M88.96 171.495H143.552" stroke="#252C39" stroke-width="1.5" stroke-linecap="round" stroke-linejoin="round"/>
<path d="M288.23 139.234H72.3965V220.673H288.23V139.234Z" stroke="#252C39" stroke-width="1.5" stroke-linecap="round" stroke-linejoin="round"/>
<path d="M416.979 67.6873H242.941V199.009H416.979V67.6873Z" fill="white" stroke="#252C39" stroke-width="1.5" stroke-linecap="round" stroke-linejoin="round"/>
<path d="M351.716 118.427H391" stroke="#252C39" stroke-width="1.5" stroke-linecap="round" stroke-linejoin="round"/>
<path d="M351.716 133.884H391" stroke="#252C39" stroke-width="1.5" stroke-linecap="round" stroke-linejoin="round"/>
<path d="M351.716 149.341H391" stroke="#252C39" stroke-width="1.5" stroke-linecap="round" stroke-linejoin="round"/>
<path d="M299.564 136.294L318.568 111.924C318.568 111.924 329.352 124.369 327.32 125.89L299.564 136.294Z" fill="#FF454D"/>
<path d="M299.851 166.033C316.584 166.033 330.149 152.472 330.149 135.742C330.149 119.013 316.584 105.451 299.851 105.451C283.118 105.451 269.553 119.013 269.553 135.742C269.553 152.472 283.118 166.033 299.851 166.033Z" stroke="#252C39" stroke-width="1.5" stroke-linecap="round" stroke-linejoin="round"/>
<path d="M309.379 106.973L299.852 135.742" stroke="#252C39" stroke-width="1.5" stroke-linecap="round" stroke-linejoin="round"/>
</svg>
