<svg width="445" height="292" viewBox="0 0 445 292" fill="none" xmlns="http://www.w3.org/2000/svg">
<g clip-path="url(#clip0_480_3109)">
<path d="M334.336 23.0796L237.573 1.05347L207.636 132.226L304.399 154.252L334.336 23.0796Z" fill="#FF454D" stroke="#FF454D" stroke-width="1.5" stroke-linecap="round" stroke-linejoin="round"/>
<path d="M300.2 7.68669L201.987 21.9431L221.364 155.081L319.576 140.825L300.2 7.68669Z" fill="white" stroke="#252C39" stroke-width="1.5" stroke-linecap="round" stroke-linejoin="round"/>
<path d="M226.331 44.1421L226.886 44.0657L280.142 36.3298" stroke="#252C39" stroke-width="1.5" stroke-linecap="round" stroke-linejoin="round"/>
<path d="M228.55 59.3177L229.095 59.2318L282.36 51.4959" stroke="#252C39" stroke-width="1.5" stroke-linecap="round" stroke-linejoin="round"/>
<path d="M230.721 74.2641L231.275 74.1782L284.541 66.4423" stroke="#252C39" stroke-width="1.5" stroke-linecap="round" stroke-linejoin="round"/>
<path d="M86.626 190.961V71.6473H117.906C119.332 71.6479 120.719 72.1152 121.854 72.9776C122.988 73.84 123.809 75.0501 124.189 76.4226L127.412 88.0168H246.71V191.161L86.626 190.961Z" fill="#FF454D" stroke="#FF454D" stroke-width="1.5" stroke-linecap="round" stroke-linejoin="round"/>
<path d="M347.752 158.709H135.053V217.654H347.752V158.709Z" fill="white" stroke="#252C39" stroke-width="1.5" stroke-linecap="round" stroke-linejoin="round"/>
<path d="M197.968 170.943H151.195V207.092H197.968V170.943Z" fill="#FF454D" stroke="#FF454D" stroke-width="1.5" stroke-linecap="round" stroke-linejoin="round"/>
<path d="M233.608 178.173H265.013" stroke="#252C39" stroke-width="1.5" stroke-linecap="round" stroke-linejoin="round"/>
<path d="M233.608 190.407H314.339" stroke="#252C39" stroke-width="1.5" stroke-linecap="round" stroke-linejoin="round"/>
<path d="M233.608 202.641H314.339" stroke="#252C39" stroke-width="1.5" stroke-linecap="round" stroke-linejoin="round"/>
<path d="M174.585 180.026L163.167 199.766H185.994L174.585 180.026Z" fill="white"/>
<path d="M347.752 227.1H135.053V286.045H347.752V227.1Z" fill="white" stroke="#252C39" stroke-width="1.5" stroke-linecap="round" stroke-linejoin="round"/>
<path d="M197.968 239.334H151.195V275.482H197.968V239.334Z" fill="#FF454D" stroke="#FF454D" stroke-width="1.5" stroke-linecap="round" stroke-linejoin="round"/>
<path d="M233.608 258.798H314.339" stroke="#252C39" stroke-width="1.5" stroke-linecap="round" stroke-linejoin="round"/>
<path d="M233.608 271.032H314.339" stroke="#252C39" stroke-width="1.5" stroke-linecap="round" stroke-linejoin="round"/>
<path d="M174.357 246.974L163.541 254.825L167.672 267.517H181.041L185.163 254.825L174.357 246.974Z" fill="white"/>
</g>
<defs>
<clipPath id="clip0_480_3109">
<rect width="263" height="287" fill="white" transform="translate(85.708)"/>
</clipPath>
</defs>
</svg>
