<svg width="445" height="291" viewBox="0 0 445 291" fill="none" xmlns="http://www.w3.org/2000/svg">
<path d="M50.4414 182.509H174.695" stroke="#252C39" stroke-width="1.5" stroke-linecap="round" stroke-linejoin="round"/>
<path d="M50.4414 210.757H138.501" stroke="#252C39" stroke-width="1.5" stroke-linecap="round" stroke-linejoin="round"/>
<path d="M265.61 137.51H209.328V210.757H265.61V137.51Z" fill="#FF454D" stroke="#FF454D" stroke-width="1.5" stroke-linecap="round" stroke-linejoin="round"/>
<path d="M340.644 126.717H284.362V210.757H340.644V126.717Z" fill="white" stroke="#252C39" stroke-width="1.5" stroke-linecap="round" stroke-linejoin="round"/>
<path d="M415.69 93.5566H359.408V210.757H415.69V93.5566Z" fill="white" stroke="#252C39" stroke-width="1.5" stroke-linecap="round" stroke-linejoin="round"/>
<path d="M237.813 127.75C239.44 118.215 247.798 89.9016 283.119 89.9016C302.955 89.9016 313.164 110.826 313.164 110.826C313.164 110.826 317.026 44.9814 361.3 44.9814C391.914 44.9814 391.808 72.6858 391.808 72.6858" stroke="#252C39" stroke-width="1.5" stroke-linecap="round" stroke-linejoin="round"/>
<path d="M107.622 74.7778L152.134 17.5815C152.134 17.5815 181.112 45.7039 172.632 50.3579L107.622 74.7778Z" fill="#FF454D"/>
<path d="M108.296 144.555C147.494 144.555 179.27 112.734 179.27 73.4802C179.27 34.2266 147.494 2.40527 108.296 2.40527C69.0983 2.40527 37.3223 34.2266 37.3223 73.4802C37.3223 112.734 69.0983 144.555 108.296 144.555Z" stroke="#252C39" stroke-width="1.5" stroke-linecap="round" stroke-linejoin="round"/>
<path d="M130.593 5.99414L108.297 73.4802" stroke="#252C39" stroke-width="1.5" stroke-linecap="round" stroke-linejoin="round"/>
</svg>
