<svg width="445" height="291" viewBox="0 0 445 291" fill="none" xmlns="http://www.w3.org/2000/svg">
<g clip-path="url(#clip0_480_3111)">
<path d="M356.793 33.8802H59.3984V259.709H356.793V33.8802Z" stroke="#252C39" stroke-width="1.5" stroke-linecap="round" stroke-linejoin="round"/>
<path d="M248.1 191.523H310.205" stroke="#252C39" stroke-width="1.5" stroke-linecap="round" stroke-linejoin="round"/>
<path d="M248.112 209.063H310.217" stroke="#252C39" stroke-width="1.5" stroke-linecap="round" stroke-linejoin="round"/>
<path d="M248.112 226.346H310.217" stroke="#252C39" stroke-width="1.5" stroke-linecap="round" stroke-linejoin="round"/>
<path d="M192.47 209.128H96.3389V230.166H192.47V209.128Z" fill="#FF454D" stroke="#FF454D" stroke-width="1.5" stroke-linecap="round" stroke-linejoin="round"/>
<path d="M397.565 136.889C403.615 130.089 406.98 121.315 407.032 112.211C407.032 89.9599 386.833 71.9293 361.888 71.9293C336.943 71.9293 316.744 89.9987 316.744 112.211C316.744 130.707 330.932 145.665 348.113 150.583C356.561 152.996 365.164 151.267 373.664 150.157C379.398 149.438 385.207 149.586 390.896 150.596C396.481 151.577 402.066 153.487 407.754 152.041C403.145 147.923 399.641 142.713 397.565 136.889Z" fill="#FF454D" stroke="#FF454D" stroke-width="1.5" stroke-linecap="round" stroke-linejoin="round"/>
<path d="M281.029 93.5737C272.428 83.9127 267.645 71.4443 267.576 58.5062C267.576 26.8977 296.261 1.29059 331.654 1.29059C367.047 1.29059 395.746 26.8977 395.746 58.5062C395.746 84.7973 375.586 106.029 351.182 113.011C339.187 116.445 326.959 113.992 314.887 112.431C306.734 111.392 298.471 111.596 290.38 113.037C282.447 114.431 274.515 117.141 266.428 115.089C273.02 109.255 278.04 101.857 281.029 93.5737Z" fill="white" stroke="#252C39" stroke-width="1.5" stroke-linecap="round" stroke-linejoin="round"/>
<path d="M306.657 54.8665C311.01 54.8665 314.538 51.3359 314.538 46.9805C314.538 42.6252 311.01 39.0945 306.657 39.0945C302.305 39.0945 298.776 42.6252 298.776 46.9805C298.776 51.3359 302.305 54.8665 306.657 54.8665Z" stroke="#252C39" stroke-width="1.5" stroke-linecap="round" stroke-linejoin="round"/>
<path d="M292.934 69.1673C292.933 66.0645 293.975 63.0518 295.892 60.6129C297.809 58.174 300.489 56.4506 303.502 55.7195C306.516 54.9884 309.687 55.2919 312.507 56.5815C315.328 57.871 317.633 60.0717 319.053 62.83" stroke="#252C39" stroke-width="1.5" stroke-linecap="round" stroke-linejoin="round"/>
<path d="M355.181 54.8665C359.533 54.8665 363.061 51.3359 363.061 46.9805C363.061 42.6252 359.533 39.0945 355.181 39.0945C350.828 39.0945 347.3 42.6252 347.3 46.9805C347.3 51.3359 350.828 54.8665 355.181 54.8665Z" stroke="#252C39" stroke-width="1.5" stroke-linecap="round" stroke-linejoin="round"/>
<path d="M368.918 69.1672C368.912 66.0662 367.866 63.0568 365.948 60.6213C364.03 58.1857 361.35 56.465 358.338 55.7346C355.326 55.0042 352.156 55.3064 349.337 56.5929C346.517 57.8794 344.21 60.0757 342.786 62.83" stroke="#252C39" stroke-width="1.5" stroke-linecap="round" stroke-linejoin="round"/>
<path d="M330.79 58.0545C336.026 58.0545 340.27 53.8073 340.27 48.5681C340.27 43.3288 336.026 39.0816 330.79 39.0816C325.554 39.0816 321.31 43.3288 321.31 48.5681C321.31 53.8073 325.554 58.0545 330.79 58.0545Z" stroke="#252C39" stroke-width="1.5" stroke-linecap="round" stroke-linejoin="round"/>
<path d="M314.307 75.2333C314.307 70.8244 316.057 66.5961 319.172 63.4785C322.288 60.3609 326.513 58.6095 330.919 58.6095C335.325 58.6095 339.551 60.3609 342.667 63.4785C345.782 66.5961 347.533 70.8244 347.533 75.2333" stroke="#252C39" stroke-width="1.5" stroke-linecap="round" stroke-linejoin="round"/>
<path d="M186.524 80.4219H98.8154V190.645H186.524V80.4219Z" stroke="#252C39" stroke-width="1.5"/>
<path d="M187.478 125.428H97.8477" stroke="black" stroke-width="1.5"/>
<path d="M129.629 115.309H115.08V140.8H129.629V115.309Z" fill="#FF454D"/>
<path d="M112.759 79.4668C112.759 77.2384 113.643 75.1012 115.218 73.5255C116.793 71.9497 118.929 71.0645 121.156 71.0645H122.652C123.755 71.0628 124.848 71.279 125.867 71.7007C126.887 72.1223 127.813 72.7411 128.593 73.5217C129.373 74.3023 129.991 75.2292 130.413 76.2494C130.834 77.2696 131.05 78.3629 131.048 79.4668H112.759Z" fill="#FF454D"/>
<path d="M154.291 79.4668C154.289 78.364 154.505 77.2717 154.926 76.2524C155.346 75.233 155.964 74.3066 156.742 73.5262C157.521 72.7459 158.446 72.1267 159.464 71.7043C160.482 71.2819 161.573 71.0645 162.675 71.0645H164.184C165.286 71.0645 166.377 71.2819 167.395 71.7043C168.413 72.1267 169.338 72.7459 170.117 73.5262C170.896 74.3066 171.513 75.233 171.933 76.2524C172.354 77.2717 172.569 78.364 172.568 79.4668H154.291Z" fill="#FF454D"/>
<path d="M169.291 115.309H154.742V140.8H169.291V115.309Z" fill="#FF454D"/>
<path d="M170.104 189.419V155.707H115.286V189.419" stroke="#252C39" stroke-width="1.5"/>
</g>
<defs>
<clipPath id="clip0_480_3111">
<rect width="351" height="261" fill="white" transform="translate(58.1084)"/>
</clipPath>
</defs>
</svg>
